<svg xmlns="http://www.w3.org/2000/svg" width="322" height="322" viewBox="0 0 322 322">
  <defs>
    <style>
      .cls-1 {
        opacity: 0.81;
      }

      .cls-2 {
        fill: #fff;
      }
    </style>
  </defs>
  <g id="Group_194" data-name="Group 194" class="cls-1" transform="translate(-1099 -429)">
    <circle id="Ellipse_663" data-name="Ellipse 663" class="cls-2" cx="9" cy="9" r="9" transform="translate(1099 429)"/>
    <circle id="Ellipse_663-2" data-name="Ellipse 663" class="cls-2" cx="9" cy="9" r="9" transform="translate(1137 429)"/>
    <circle id="Ellipse_663-3" data-name="Ellipse 663" class="cls-2" cx="9" cy="9" r="9" transform="translate(1175 429)"/>
    <circle id="Ellipse_663-4" data-name="Ellipse 663" class="cls-2" cx="9" cy="9" r="9" transform="translate(1213 429)"/>
    <circle id="Ellipse_663-5" data-name="Ellipse 663" class="cls-2" cx="9" cy="9" r="9" transform="translate(1251 429)"/>
    <circle id="Ellipse_663-6" data-name="Ellipse 663" class="cls-2" cx="9" cy="9" r="9" transform="translate(1289 429)"/>
    <circle id="Ellipse_663-7" data-name="Ellipse 663" class="cls-2" cx="9" cy="9" r="9" transform="translate(1327 429)"/>
    <circle id="Ellipse_663-8" data-name="Ellipse 663" class="cls-2" cx="9" cy="9" r="9" transform="translate(1365 429)"/>
    <circle id="Ellipse_663-9" data-name="Ellipse 663" class="cls-2" cx="9" cy="9" r="9" transform="translate(1403 429)"/>
    <circle id="Ellipse_663-10" data-name="Ellipse 663" class="cls-2" cx="9" cy="9" r="9" transform="translate(1099 467)"/>
    <circle id="Ellipse_663-11" data-name="Ellipse 663" class="cls-2" cx="9" cy="9" r="9" transform="translate(1137 467)"/>
    <circle id="Ellipse_663-12" data-name="Ellipse 663" class="cls-2" cx="9" cy="9" r="9" transform="translate(1175 467)"/>
    <circle id="Ellipse_663-13" data-name="Ellipse 663" class="cls-2" cx="9" cy="9" r="9" transform="translate(1213 467)"/>
    <circle id="Ellipse_663-14" data-name="Ellipse 663" class="cls-2" cx="9" cy="9" r="9" transform="translate(1251 467)"/>
    <circle id="Ellipse_663-15" data-name="Ellipse 663" class="cls-2" cx="9" cy="9" r="9" transform="translate(1289 467)"/>
    <circle id="Ellipse_663-16" data-name="Ellipse 663" class="cls-2" cx="9" cy="9" r="9" transform="translate(1327 467)"/>
    <circle id="Ellipse_663-17" data-name="Ellipse 663" class="cls-2" cx="9" cy="9" r="9" transform="translate(1365 467)"/>
    <circle id="Ellipse_663-18" data-name="Ellipse 663" class="cls-2" cx="9" cy="9" r="9" transform="translate(1403 467)"/>
    <circle id="Ellipse_663-19" data-name="Ellipse 663" class="cls-2" cx="9" cy="9" r="9" transform="translate(1099 505)"/>
    <circle id="Ellipse_663-20" data-name="Ellipse 663" class="cls-2" cx="9" cy="9" r="9" transform="translate(1137 505)"/>
    <circle id="Ellipse_663-21" data-name="Ellipse 663" class="cls-2" cx="9" cy="9" r="9" transform="translate(1175 505)"/>
    <circle id="Ellipse_663-22" data-name="Ellipse 663" class="cls-2" cx="9" cy="9" r="9" transform="translate(1213 505)"/>
    <circle id="Ellipse_663-23" data-name="Ellipse 663" class="cls-2" cx="9" cy="9" r="9" transform="translate(1251 505)"/>
    <circle id="Ellipse_663-24" data-name="Ellipse 663" class="cls-2" cx="9" cy="9" r="9" transform="translate(1289 505)"/>
    <circle id="Ellipse_663-25" data-name="Ellipse 663" class="cls-2" cx="9" cy="9" r="9" transform="translate(1327 505)"/>
    <circle id="Ellipse_663-26" data-name="Ellipse 663" class="cls-2" cx="9" cy="9" r="9" transform="translate(1365 505)"/>
    <circle id="Ellipse_663-27" data-name="Ellipse 663" class="cls-2" cx="9" cy="9" r="9" transform="translate(1403 505)"/>
    <circle id="Ellipse_663-28" data-name="Ellipse 663" class="cls-2" cx="9" cy="9" r="9" transform="translate(1099 543)"/>
    <circle id="Ellipse_663-29" data-name="Ellipse 663" class="cls-2" cx="9" cy="9" r="9" transform="translate(1137 543)"/>
    <circle id="Ellipse_663-30" data-name="Ellipse 663" class="cls-2" cx="9" cy="9" r="9" transform="translate(1175 543)"/>
    <circle id="Ellipse_663-31" data-name="Ellipse 663" class="cls-2" cx="9" cy="9" r="9" transform="translate(1213 543)"/>
    <circle id="Ellipse_663-32" data-name="Ellipse 663" class="cls-2" cx="9" cy="9" r="9" transform="translate(1251 543)"/>
    <circle id="Ellipse_663-33" data-name="Ellipse 663" class="cls-2" cx="9" cy="9" r="9" transform="translate(1289 543)"/>
    <circle id="Ellipse_663-34" data-name="Ellipse 663" class="cls-2" cx="9" cy="9" r="9" transform="translate(1327 543)"/>
    <circle id="Ellipse_663-35" data-name="Ellipse 663" class="cls-2" cx="9" cy="9" r="9" transform="translate(1365 543)"/>
    <circle id="Ellipse_663-36" data-name="Ellipse 663" class="cls-2" cx="9" cy="9" r="9" transform="translate(1403 543)"/>
    <circle id="Ellipse_663-37" data-name="Ellipse 663" class="cls-2" cx="9" cy="9" r="9" transform="translate(1099 581)"/>
    <circle id="Ellipse_663-38" data-name="Ellipse 663" class="cls-2" cx="9" cy="9" r="9" transform="translate(1137 581)"/>
    <circle id="Ellipse_663-39" data-name="Ellipse 663" class="cls-2" cx="9" cy="9" r="9" transform="translate(1175 581)"/>
    <circle id="Ellipse_663-40" data-name="Ellipse 663" class="cls-2" cx="9" cy="9" r="9" transform="translate(1213 581)"/>
    <circle id="Ellipse_663-41" data-name="Ellipse 663" class="cls-2" cx="9" cy="9" r="9" transform="translate(1251 581)"/>
    <circle id="Ellipse_663-42" data-name="Ellipse 663" class="cls-2" cx="9" cy="9" r="9" transform="translate(1289 581)"/>
    <circle id="Ellipse_663-43" data-name="Ellipse 663" class="cls-2" cx="9" cy="9" r="9" transform="translate(1327 581)"/>
    <circle id="Ellipse_663-44" data-name="Ellipse 663" class="cls-2" cx="9" cy="9" r="9" transform="translate(1365 581)"/>
    <circle id="Ellipse_663-45" data-name="Ellipse 663" class="cls-2" cx="9" cy="9" r="9" transform="translate(1403 581)"/>
    <circle id="Ellipse_663-46" data-name="Ellipse 663" class="cls-2" cx="9" cy="9" r="9" transform="translate(1099 619)"/>
    <circle id="Ellipse_663-47" data-name="Ellipse 663" class="cls-2" cx="9" cy="9" r="9" transform="translate(1137 619)"/>
    <circle id="Ellipse_663-48" data-name="Ellipse 663" class="cls-2" cx="9" cy="9" r="9" transform="translate(1175 619)"/>
    <circle id="Ellipse_663-49" data-name="Ellipse 663" class="cls-2" cx="9" cy="9" r="9" transform="translate(1213 619)"/>
    <circle id="Ellipse_663-50" data-name="Ellipse 663" class="cls-2" cx="9" cy="9" r="9" transform="translate(1251 619)"/>
    <circle id="Ellipse_663-51" data-name="Ellipse 663" class="cls-2" cx="9" cy="9" r="9" transform="translate(1289 619)"/>
    <circle id="Ellipse_663-52" data-name="Ellipse 663" class="cls-2" cx="9" cy="9" r="9" transform="translate(1327 619)"/>
    <circle id="Ellipse_663-53" data-name="Ellipse 663" class="cls-2" cx="9" cy="9" r="9" transform="translate(1365 619)"/>
    <circle id="Ellipse_663-54" data-name="Ellipse 663" class="cls-2" cx="9" cy="9" r="9" transform="translate(1403 619)"/>
    <circle id="Ellipse_663-55" data-name="Ellipse 663" class="cls-2" cx="9" cy="9" r="9" transform="translate(1099 657)"/>
    <circle id="Ellipse_663-56" data-name="Ellipse 663" class="cls-2" cx="9" cy="9" r="9" transform="translate(1137 657)"/>
    <circle id="Ellipse_663-57" data-name="Ellipse 663" class="cls-2" cx="9" cy="9" r="9" transform="translate(1175 657)"/>
    <circle id="Ellipse_663-58" data-name="Ellipse 663" class="cls-2" cx="9" cy="9" r="9" transform="translate(1213 657)"/>
    <circle id="Ellipse_663-59" data-name="Ellipse 663" class="cls-2" cx="9" cy="9" r="9" transform="translate(1251 657)"/>
    <circle id="Ellipse_663-60" data-name="Ellipse 663" class="cls-2" cx="9" cy="9" r="9" transform="translate(1289 657)"/>
    <circle id="Ellipse_663-61" data-name="Ellipse 663" class="cls-2" cx="9" cy="9" r="9" transform="translate(1327 657)"/>
    <circle id="Ellipse_663-62" data-name="Ellipse 663" class="cls-2" cx="9" cy="9" r="9" transform="translate(1365 657)"/>
    <circle id="Ellipse_663-63" data-name="Ellipse 663" class="cls-2" cx="9" cy="9" r="9" transform="translate(1403 657)"/>
    <circle id="Ellipse_663-64" data-name="Ellipse 663" class="cls-2" cx="9" cy="9" r="9" transform="translate(1099 695)"/>
    <circle id="Ellipse_663-65" data-name="Ellipse 663" class="cls-2" cx="9" cy="9" r="9" transform="translate(1137 695)"/>
    <circle id="Ellipse_663-66" data-name="Ellipse 663" class="cls-2" cx="9" cy="9" r="9" transform="translate(1175 695)"/>
    <circle id="Ellipse_663-67" data-name="Ellipse 663" class="cls-2" cx="9" cy="9" r="9" transform="translate(1213 695)"/>
    <circle id="Ellipse_663-68" data-name="Ellipse 663" class="cls-2" cx="9" cy="9" r="9" transform="translate(1251 695)"/>
    <circle id="Ellipse_663-69" data-name="Ellipse 663" class="cls-2" cx="9" cy="9" r="9" transform="translate(1289 695)"/>
    <circle id="Ellipse_663-70" data-name="Ellipse 663" class="cls-2" cx="9" cy="9" r="9" transform="translate(1327 695)"/>
    <circle id="Ellipse_663-71" data-name="Ellipse 663" class="cls-2" cx="9" cy="9" r="9" transform="translate(1365 695)"/>
    <circle id="Ellipse_663-72" data-name="Ellipse 663" class="cls-2" cx="9" cy="9" r="9" transform="translate(1403 695)"/>
    <circle id="Ellipse_663-73" data-name="Ellipse 663" class="cls-2" cx="9" cy="9" r="9" transform="translate(1099 733)"/>
    <circle id="Ellipse_663-74" data-name="Ellipse 663" class="cls-2" cx="9" cy="9" r="9" transform="translate(1137 733)"/>
    <circle id="Ellipse_663-75" data-name="Ellipse 663" class="cls-2" cx="9" cy="9" r="9" transform="translate(1175 733)"/>
    <circle id="Ellipse_663-76" data-name="Ellipse 663" class="cls-2" cx="9" cy="9" r="9" transform="translate(1213 733)"/>
    <circle id="Ellipse_663-77" data-name="Ellipse 663" class="cls-2" cx="9" cy="9" r="9" transform="translate(1251 733)"/>
    <circle id="Ellipse_663-78" data-name="Ellipse 663" class="cls-2" cx="9" cy="9" r="9" transform="translate(1289 733)"/>
    <circle id="Ellipse_663-79" data-name="Ellipse 663" class="cls-2" cx="9" cy="9" r="9" transform="translate(1327 733)"/>
    <circle id="Ellipse_663-80" data-name="Ellipse 663" class="cls-2" cx="9" cy="9" r="9" transform="translate(1365 733)"/>
    <circle id="Ellipse_663-81" data-name="Ellipse 663" class="cls-2" cx="9" cy="9" r="9" transform="translate(1403 733)"/>
  </g>
</svg>
