<svg xmlns="http://www.w3.org/2000/svg" xmlns:xlink="http://www.w3.org/1999/xlink" width="1494" height="216" viewBox="0 0 1494 216">
  <defs>
    <clipPath id="clip-path">
      <path id="Path_7236" data-name="Path 7236" d="M0,0H1494V216H0Z" transform="translate(12467 5848)" fill="#fff"/>
    </clipPath>
  </defs>
  <g id="Mask_Group_122" data-name="Mask Group 122" transform="translate(-12467 -5848)" clip-path="url(#clip-path)">
    <g id="Group_1801" data-name="Group 1801">
      <path id="Path_7218" data-name="Path 7218" d="M18.63,62.825c11.362,0,17.837-6.094,17.837-16.726V16.2H23.01V46c0,3.65-1.555,5.554-4.57,5.554-2.983,0-4.919-2.063-4.919-5.713v-.063H.635v.1C.635,56.509,7.649,62.825,18.63,62.825ZM60.3,62.762c11.458,0,18.44-6.57,18.44-18.25v-.063c0-11.521-7.173-18.25-18.44-18.25-11.235,0-18.408,6.824-18.408,18.25v.063C41.895,56.16,48.813,62.762,60.3,62.762Zm.032-9.648c-3.3,0-5.237-3.047-5.237-8.6v-.063c0-5.427,2-8.6,5.205-8.6,3.174,0,5.237,3.174,5.237,8.6v.063C65.54,50.035,63.572,53.113,60.334,53.113ZM89.248,23.819a6.3,6.3,0,0,0,6.443-6.189,6.448,6.448,0,0,0-12.886,0A6.3,6.3,0,0,0,89.248,23.819ZM82.742,62H95.754V26.961H82.742Zm17.9,0h13.013V42.322c0-3.269,1.873-5.649,4.951-5.649,3.269,0,4.919,2.158,4.919,5.681V62h13.013V39.5c0-8.411-4.316-13.3-12.029-13.3-5.3,0-8.887,2.539-10.6,7.268h-.254V26.961H100.642Zm53,11.108h13.013V55.938h.254c1.619,4.253,5.427,6.824,10.505,6.824,8.728,0,13.584-6.6,13.584-18.281v-.032c0-11.743-4.919-18.25-13.743-18.25a10.467,10.467,0,0,0-10.315,7.078h-.286V26.961H153.645Zm18.567-20.82c-3.428,0-5.618-2.888-5.618-7.776V44.48c0-4.919,2.222-7.808,5.618-7.808,3.364,0,5.586,2.888,5.586,7.776v.032C177.8,49.3,175.608,52.288,172.212,52.288Zm40.244,10.474c12.188,0,16.187-7.141,17.234-11.711l.1-.413H218.2l-.032.1c-.349,1.016-2.031,3.079-5.459,3.079-3.555,0-5.713-2.38-5.84-6.411h23.074V43.719c0-10.664-6.982-17.52-17.9-17.52-10.95,0-17.869,6.855-17.869,18.25v.032C194.175,55.875,201.094,62.762,212.456,62.762Zm-.063-27.612c2.825,0,4.792,1.777,5.364,4.888H207.029C207.6,36.927,209.568,35.149,212.393,35.149Zm39.038,27.612c11.458,0,18.44-6.57,18.44-18.25v-.063c0-11.521-7.173-18.25-18.44-18.25-11.235,0-18.408,6.824-18.408,18.25v.063C233.022,56.16,239.941,62.762,251.431,62.762Zm.032-9.648c-3.3,0-5.237-3.047-5.237-8.6v-.063c0-5.427,2-8.6,5.205-8.6,3.174,0,5.237,3.174,5.237,8.6v.063C256.667,50.035,254.7,53.113,251.462,53.113Zm22.407,20h13.013V55.938h.254c1.619,4.253,5.427,6.824,10.505,6.824,8.728,0,13.584-6.6,13.584-18.281v-.032c0-11.743-4.919-18.25-13.743-18.25a10.467,10.467,0,0,0-10.315,7.078h-.286V26.961H273.87Zm18.567-20.82c-3.428,0-5.618-2.888-5.618-7.776V44.48c0-4.919,2.222-7.808,5.618-7.808,3.364,0,5.586,2.888,5.586,7.776v.032C298.022,49.3,295.833,52.288,292.437,52.288ZM315.447,62h13.013V16.2H315.447Zm35.452.762c12.188,0,16.187-7.141,17.234-11.711l.1-.413H356.643l-.032.1c-.349,1.016-2.031,3.079-5.459,3.079-3.555,0-5.713-2.38-5.84-6.411h23.074V43.719c0-10.664-6.982-17.52-17.9-17.52-10.95,0-17.869,6.855-17.869,18.25v.032C332.617,55.875,339.536,62.762,350.9,62.762Zm-.063-27.612c2.825,0,4.792,1.777,5.364,4.888H345.471C346.042,36.927,348.01,35.149,350.835,35.149ZM404.346,62h13.87l4.792-22.566h.254L428.149,62h14.124L451.1,26.961H438.242l-3.713,23.645h-.254l-4.666-23.645H417.2l-4.6,23.645h-.254L408.63,26.961H395.459Zm49.639,0H467V42.322c0-3.269,1.873-5.649,4.951-5.649,3.269,0,4.919,2.158,4.919,5.681V62H489.88V39.5c0-8.411-4.316-13.3-12.029-13.3-5.3,0-8.887,2.539-10.6,7.268H467V16.2H453.984Zm58.271.762c11.458,0,18.44-6.57,18.44-18.25v-.063c0-11.521-7.173-18.25-18.44-18.25-11.235,0-18.408,6.824-18.408,18.25v.063C493.848,56.16,500.767,62.762,512.256,62.762Zm.032-9.648c-3.3,0-5.237-3.047-5.237-8.6v-.063c0-5.427,2-8.6,5.205-8.6,3.174,0,5.237,3.174,5.237,8.6v.063C517.493,50.035,515.525,53.113,512.288,53.113ZM547.231,62h13.013V42.322c0-3.269,1.873-5.649,4.951-5.649,3.269,0,4.919,2.158,4.919,5.681V62h13.013V39.5c0-8.411-4.316-13.3-12.029-13.3-5.3,0-8.887,2.539-10.6,7.268h-.254V16.2H547.231Zm51.353.444c4.507,0,7.776-1.873,9.744-5.205h.254V62h13.013V38.165c0-7.109-6.506-11.965-16.25-11.965-10.22,0-16.282,4.666-16.821,11.807l-.032.413h11.616l.063-.317c.286-1.428,1.777-2.6,4.443-2.6s3.967,1.27,3.967,3.3v1.428l-7.363.476c-9.331.635-14.536,4.348-14.536,11.108v.032C586.682,57.874,591.506,62.444,598.584,62.444Zm.793-11.553V50.86c0-1.746,1.238-2.825,4-3.015l5.205-.381v2.222c0,2.317-2.126,4.031-5.237,4.031C600.933,53.716,599.377,52.732,599.377,50.892ZM634.8,62h15.266L661.3,26.961H647.683l-4.919,24.534h-.254l-5.078-24.534H623.4Zm44.91.762c12.188,0,16.187-7.141,17.234-11.711l.1-.413H685.452l-.032.1c-.349,1.016-2.031,3.079-5.459,3.079-3.555,0-5.713-2.38-5.84-6.411h23.074V43.719c0-10.664-6.982-17.52-17.9-17.52-10.95,0-17.869,6.855-17.869,18.25v.032C661.426,55.875,668.345,62.762,679.707,62.762Zm-.063-27.612c2.825,0,4.792,1.777,5.364,4.888H674.28C674.851,36.927,676.819,35.149,679.644,35.149Zm57.8,27.612c8.7,0,13.679-6.6,13.679-18.281v-.032c0-11.743-4.919-18.25-13.743-18.25a10.531,10.531,0,0,0-10.41,7.078h-.254V16.2H713.7V62h13.013V56h.254C728.552,60.223,732.361,62.762,737.439,62.762Zm-5.11-10.474c-3.428,0-5.618-2.888-5.618-7.776V44.48c0-4.919,2.222-7.808,5.618-7.808,3.364,0,5.586,2.888,5.586,7.776v.032C737.915,49.3,735.725,52.288,732.329,52.288Zm29.294-28.469a6.3,6.3,0,0,0,6.443-6.189,6.448,6.448,0,0,0-12.886,0A6.3,6.3,0,0,0,761.624,23.819ZM755.117,62H768.13V26.961H755.117Zm35.706,11.87c11.489,0,18.662-5.332,18.662-12.854V26.961H796.472v6.062h-.286c-1.65-4.285-5.364-6.824-10.315-6.824-8.823,0-13.743,6.252-13.743,17.71v.032c0,10.791,4.856,16.79,13.584,16.79,5.078,0,8.887-2.126,10.505-5.618h.254v6.221c0,2.476-1.809,4.221-5.554,4.221-3.269,0-5.046-1.46-5.459-2.444l-.063-.159h-12.5l.032.286C773.589,69.3,780.254,73.87,790.823,73.87Zm.1-21.836c-3.4,0-5.586-2.888-5.586-7.681v-.032c0-4.856,2.222-7.649,5.586-7.649,3.4,0,5.618,2.793,5.618,7.681v.032C796.536,49.241,794.346,52.034,790.918,52.034ZM839.6,62.762c5.078,0,8.887-2.539,10.474-6.76h.254v6h13.013V16.2H850.332V33.277h-.254a10.531,10.531,0,0,0-10.41-7.078c-8.823,0-13.743,6.506-13.743,18.25v.032C825.925,56.16,830.908,62.762,839.6,62.762Zm5.11-10.474c-3.4,0-5.586-2.983-5.586-7.808v-.032c0-4.888,2.222-7.776,5.586-7.776,3.4,0,5.618,2.888,5.618,7.808v.032C850.332,49.4,848.142,52.288,844.714,52.288ZM868.232,62h13.013V44.29c0-4.888,2.507-7.363,7.4-7.363a9.769,9.769,0,0,1,3.777.73V26.707a9.32,9.32,0,0,0-3.142-.508c-4.189,0-6.887,2.476-7.776,7.046h-.254V26.961H868.232Zm44.021.762c12.188,0,16.187-7.141,17.234-11.711l.1-.413H918l-.032.1c-.349,1.016-2.031,3.079-5.459,3.079-3.555,0-5.713-2.38-5.84-6.411h23.074V43.719c0-10.664-6.982-17.52-17.9-17.52-10.95,0-17.869,6.855-17.869,18.25v.032C893.972,55.875,900.891,62.762,912.253,62.762Zm-.063-27.612c2.825,0,4.792,1.777,5.364,4.888H906.826C907.4,36.927,909.365,35.149,912.19,35.149Zm32.119,27.295c4.507,0,7.776-1.873,9.744-5.205h.254V62h13.013V38.165c0-7.109-6.506-11.965-16.25-11.965-10.22,0-16.282,4.666-16.821,11.807l-.032.413h11.616l.063-.317c.286-1.428,1.777-2.6,4.443-2.6s3.967,1.27,3.967,3.3v1.428l-7.363.476c-9.331.635-14.536,4.348-14.536,11.108v.032C932.407,57.874,937.231,62.444,944.309,62.444Zm.793-11.553V50.86c0-1.746,1.238-2.825,4-3.015l5.205-.381v2.222c0,2.317-2.126,4.031-5.237,4.031C946.658,53.716,945.1,52.732,945.1,50.892ZM972.207,62H985.22V41.624c0-3.047,1.587-4.951,4.221-4.951,2.793,0,4.221,1.682,4.221,5.015V62h12.346V41.624c0-3.079,1.555-4.951,4.189-4.951,2.825,0,4.253,1.65,4.253,4.983V62h13.013V38.26c0-7.141-4.7-12.061-11.521-12.061-5.332,0-9.585,3.079-10.759,7.712h-.254c-.857-4.919-4.443-7.712-9.49-7.712a9.97,9.97,0,0,0-9.966,7.4h-.254V26.961H972.207Zm76.267.762c10.156,0,16.948-4.7,16.948-12.251v-.032c0-5.3-3.4-8.252-10.95-9.648l-6.348-1.174c-3.174-.6-4.062-1.3-4.062-2.539v-.032c0-1.492,1.555-2.38,3.936-2.38,2.793,0,4.348,1.555,4.539,3.206l.032.286h11.807v-.222c0-6.379-5.522-11.775-16.377-11.775-10.188,0-16.377,4.348-16.377,11.616v.032c0,5.427,3.682,9.141,10.632,10.41l6.348,1.174c2.888.54,3.936,1.27,3.936,2.539V52c0,1.4-1.555,2.253-4.062,2.253-2.92,0-4.507-1.206-5.015-3.237l-.063-.254h-12.568l.032.286C1031.653,58.033,1037.429,62.762,1048.474,62.762Zm43.386-.317c4.507,0,7.776-1.873,9.744-5.205h.254V62h13.013V38.165c0-7.109-6.506-11.965-16.25-11.965-10.22,0-16.282,4.666-16.821,11.807l-.032.413h11.616l.063-.317c.286-1.428,1.777-2.6,4.443-2.6s3.967,1.27,3.967,3.3v1.428l-7.363.476c-9.331.635-14.536,4.348-14.536,11.108v.032C1079.958,57.874,1084.783,62.444,1091.86,62.444Zm.793-11.553V50.86c0-1.746,1.238-2.825,4-3.015l5.205-.381v2.222c0,2.317-2.126,4.031-5.237,4.031C1094.209,53.716,1092.654,52.732,1092.654,50.892ZM1119.758,62h13.013V42.322c0-3.269,1.873-5.649,4.951-5.649,3.269,0,4.919,2.158,4.919,5.681V62h13.013V39.5c0-8.411-4.316-13.3-12.029-13.3-5.3,0-8.887,2.539-10.6,7.268h-.254V26.961h-13.013Zm53.416.762c5.078,0,8.887-2.539,10.474-6.76h.254v6h13.013V16.2H1183.9V33.277h-.254a10.531,10.531,0,0,0-10.41-7.078c-8.823,0-13.743,6.506-13.743,18.25v.032C1159.495,56.16,1164.478,62.762,1173.174,62.762Zm5.11-10.474c-3.4,0-5.586-2.983-5.586-7.808v-.032c0-4.888,2.222-7.776,5.586-7.776,3.4,0,5.618,2.888,5.618,7.808v.032C1183.9,49.4,1181.711,52.288,1178.284,52.288Zm46.5,10.156c4.507,0,7.776-1.873,9.744-5.205h.254V62h13.013V38.165c0-7.109-6.506-11.965-16.25-11.965-10.22,0-16.282,4.666-16.821,11.807l-.032.413H1226.3l.063-.317c.286-1.428,1.777-2.6,4.443-2.6s3.967,1.27,3.967,3.3v1.428l-7.363.476c-9.331.635-14.536,4.348-14.536,11.108v.032C1212.878,57.874,1217.7,62.444,1224.78,62.444Zm.793-11.553V50.86c0-1.746,1.238-2.825,4-3.015l5.205-.381v2.222c0,2.317-2.126,4.031-5.237,4.031C1227.129,53.716,1225.574,52.732,1225.574,50.892Zm44.5,11.87c10.728,0,17.012-6.411,17.012-14.98v-.19h-11.838l-.032.317c-.317,3.206-2.063,5.205-4.983,5.205-3.459,0-5.237-3.015-5.237-8.633v-.032c0-5.522,1.873-8.6,5.237-8.6,2.793,0,4.666,2.031,4.983,5.205l.032.317h11.838v-.19c0-9.045-6.887-14.98-17.107-14.98-11.235,0-18.186,6.855-18.186,18.218v.032C1251.79,55.906,1258.708,62.762,1270.071,62.762ZM1291.082,62h13.013V42.322c0-3.269,1.873-5.649,4.951-5.649,3.269,0,4.919,2.158,4.919,5.681V62h13.013V39.5c0-8.411-4.316-13.3-12.029-13.3-5.3,0-8.887,2.539-10.6,7.268h-.254V16.2h-13.013Zm47.258-38.181a6.3,6.3,0,0,0,6.443-6.189,6.448,6.448,0,0,0-12.886,0A6.3,6.3,0,0,0,1338.34,23.819ZM1331.833,62h13.013V26.961h-13.013Zm35.293.762c12.188,0,16.187-7.141,17.234-11.711l.1-.413h-11.584l-.032.1c-.349,1.016-2.031,3.079-5.459,3.079-3.555,0-5.713-2.38-5.84-6.411h23.074V43.719c0-10.664-6.982-17.52-17.9-17.52-10.95,0-17.869,6.855-17.869,18.25v.032C1348.845,55.875,1355.764,62.762,1367.126,62.762Zm-.063-27.612c2.825,0,4.792,1.777,5.364,4.888H1361.7C1362.271,36.927,1364.238,35.149,1367.063,35.149ZM1395.945,62h15.266l11.235-35.039h-13.616l-4.919,24.534h-.254l-5.078-24.534h-14.028Zm44.91.762c12.188,0,16.187-7.141,17.234-11.711l.1-.413H1446.6l-.032.1c-.349,1.016-2.031,3.079-5.459,3.079-3.555,0-5.713-2.38-5.84-6.411h23.074V43.719c0-10.664-6.982-17.52-17.9-17.52-10.95,0-17.869,6.855-17.869,18.25v.032C1422.573,55.875,1429.492,62.762,1440.854,62.762Zm-.063-27.612c2.825,0,4.792,1.777,5.364,4.888h-10.728C1436,36.927,1437.966,35.149,1440.791,35.149ZM9.9,151.3c9.172,0,15.425-2.38,18.408-12.124l10.442-34.214H25.01l-5.3,25.708h-.254l-5.332-25.708H-.317L11.458,140l-.127.349c-.317.857-1.428,1.555-3.459,1.555a23.1,23.1,0,0,1-4.443-.413v9.268A40.523,40.523,0,0,0,9.9,151.3Zm47.385-10.537c11.458,0,18.44-6.57,18.44-18.25v-.063c0-11.521-7.173-18.25-18.44-18.25-11.235,0-18.408,6.824-18.408,18.25v.063C38.879,134.16,45.8,140.762,57.288,140.762Zm.032-9.648c-3.3,0-5.237-3.047-5.237-8.6v-.063c0-5.427,2-8.6,5.205-8.6,3.174,0,5.237,3.174,5.237,8.6v.063C62.524,128.035,60.557,131.113,57.319,131.113ZM91.6,140.762c5.3,0,8.887-2.539,10.6-7.268h.254V140h13.013V104.961H102.451v19.678c0,3.269-1.873,5.649-4.951,5.649-3.269,0-4.919-2.158-4.919-5.681V104.961H79.568v22.5C79.568,135.874,83.884,140.762,91.6,140.762ZM120.352,140h13.013V122.29c0-4.888,2.507-7.363,7.4-7.363a9.769,9.769,0,0,1,3.777.73v-10.95a9.32,9.32,0,0,0-3.142-.508c-4.189,0-6.887,2.476-7.776,7.046h-.254v-6.284H120.352Zm39.641,0h13.013V120.322c0-3.269,1.873-5.649,4.951-5.649,3.269,0,4.919,2.158,4.919,5.681V140h13.013V117.5c0-8.411-4.316-13.3-12.029-13.3-5.3,0-8.887,2.539-10.6,7.268h-.254v-6.506H159.993Zm58.018.762c12.188,0,16.187-7.141,17.234-11.711l.1-.413H223.755l-.032.1c-.349,1.016-2.031,3.079-5.459,3.079-3.555,0-5.713-2.38-5.84-6.411H235.5v-3.682c0-10.664-6.982-17.52-17.9-17.52-10.95,0-17.869,6.855-17.869,18.25v.032C199.729,133.875,206.648,140.762,218.01,140.762Zm-.063-27.612c2.825,0,4.792,1.777,5.364,4.888H212.583C213.154,114.927,215.122,113.149,217.947,113.149ZM237.053,140h13.362l4.824-11.013h.254L260.508,140h14.028l-10.125-17.646,10.125-17.393h-14l-4.253,10.632h-.254l-4.285-10.632H237.021l10.125,17.646Zm56.558.762a32.565,32.565,0,0,0,6-.476v-9.077a14.236,14.236,0,0,1-2.222.159c-2.666,0-3.936-1.143-3.936-3.967V114.355h6.157v-9.395h-6.157V97.28H280.439v7.681h-4.634v9.395h4.634V129.4C280.439,137.651,284.534,140.762,293.611,140.762Zm33.262-.317c4.507,0,7.776-1.873,9.744-5.205h.254V140h13.013V116.165c0-7.109-6.506-11.965-16.25-11.965-10.22,0-16.282,4.666-16.821,11.807l-.032.413H328.4l.063-.317c.286-1.428,1.777-2.6,4.443-2.6s3.967,1.27,3.967,3.3v1.428l-7.363.476c-9.331.635-14.536,4.348-14.536,11.108v.032C314.971,135.874,319.795,140.444,326.873,140.444Zm.793-11.553v-.032c0-1.746,1.238-2.825,4-3.015l5.205-.381v2.222c0,2.317-2.126,4.031-5.237,4.031C329.221,131.716,327.666,130.732,327.666,128.892Zm44.5,11.87c10.728,0,17.012-6.411,17.012-14.98v-.19H377.336l-.032.317c-.317,3.206-2.063,5.205-4.983,5.205-3.459,0-5.237-3.015-5.237-8.633v-.032c0-5.522,1.873-8.6,5.237-8.6,2.793,0,4.666,2.031,4.983,5.205l.032.317h11.838v-.19c0-9.045-6.887-14.98-17.107-14.98-11.235,0-18.186,6.855-18.186,18.218v.032C353.882,133.906,360.8,140.762,372.163,140.762Zm31.453-.317c4.507,0,7.776-1.873,9.744-5.205h.254V140h13.013V116.165c0-7.109-6.506-11.965-16.25-11.965-10.22,0-16.282,4.666-16.821,11.807l-.032.413h11.616l.063-.317c.286-1.428,1.777-2.6,4.443-2.6s3.967,1.27,3.967,3.3v1.428l-7.363.476c-9.331.635-14.536,4.348-14.536,11.108v.032C391.714,135.874,396.538,140.444,403.616,140.444Zm.793-11.553v-.032c0-1.746,1.238-2.825,4-3.015l5.205-.381v2.222c0,2.317-2.126,4.031-5.237,4.031C405.964,131.716,404.409,130.732,404.409,128.892Zm39.9,11.87c5.078,0,8.887-2.539,10.474-6.76h.254v6h13.013V94.2H455.032v17.075h-.254a10.531,10.531,0,0,0-10.41-7.078c-8.823,0-13.743,6.506-13.743,18.25v.032C430.625,134.16,435.608,140.762,444.3,140.762Zm5.11-10.474c-3.4,0-5.586-2.983-5.586-7.808v-.032c0-4.888,2.222-7.776,5.586-7.776,3.4,0,5.618,2.888,5.618,7.808v.032C455.032,127.4,452.842,130.288,449.414,130.288Zm40.911,10.474c12.188,0,16.187-7.141,17.234-11.711l.1-.413H496.069l-.032.1c-.349,1.016-2.031,3.079-5.459,3.079-3.555,0-5.713-2.38-5.84-6.411h23.074v-3.682c0-10.664-6.982-17.52-17.9-17.52-10.95,0-17.869,6.855-17.869,18.25v.032C472.043,133.875,478.962,140.762,490.325,140.762Zm-.063-27.612c2.825,0,4.792,1.777,5.364,4.888H484.9C485.469,114.927,487.437,113.149,490.261,113.149ZM511.78,140h13.013V119.624c0-3.047,1.587-4.951,4.221-4.951,2.793,0,4.221,1.682,4.221,5.015V140h12.346V119.624c0-3.079,1.555-4.951,4.189-4.951,2.825,0,4.253,1.65,4.253,4.983V140h13.013V116.26c0-7.141-4.7-12.061-11.521-12.061-5.332,0-9.585,3.079-10.759,7.712H544.5c-.857-4.919-4.443-7.712-9.49-7.712a9.97,9.97,0,0,0-9.966,7.4h-.254v-6.633H511.78ZM578.3,101.819a6.194,6.194,0,1,0-6.443-6.189A6.3,6.3,0,0,0,578.3,101.819ZM571.8,140H584.81V104.961H571.8Zm35.293.762c10.728,0,17.012-6.411,17.012-14.98v-.19H612.263l-.032.317c-.317,3.206-2.063,5.205-4.983,5.205-3.459,0-5.237-3.015-5.237-8.633v-.032c0-5.522,1.873-8.6,5.237-8.6,2.793,0,4.666,2.031,4.983,5.205l.032.317H624.1v-.19c0-9.045-6.887-14.98-17.107-14.98-11.235,0-18.186,6.855-18.186,18.218v.032C588.809,133.906,595.728,140.762,607.09,140.762Zm49.48,0c10.156,0,16.948-4.7,16.948-12.251v-.032c0-5.3-3.4-8.252-10.95-9.648l-6.348-1.174c-3.174-.6-4.062-1.3-4.062-2.539v-.032c0-1.492,1.555-2.38,3.936-2.38,2.793,0,4.348,1.555,4.539,3.206l.032.286h11.807v-.222c0-6.379-5.522-11.775-16.377-11.775-10.188,0-16.377,4.348-16.377,11.616v.032c0,5.427,3.682,9.141,10.632,10.41l6.348,1.174c2.888.54,3.936,1.27,3.936,2.539V130c0,1.4-1.555,2.253-4.062,2.253-2.92,0-4.507-1.206-5.015-3.237l-.063-.254H638.923l.032.286C639.749,136.033,645.525,140.762,656.57,140.762Zm32.278,0c5.3,0,8.887-2.539,10.6-7.268h.254V140h13.013V104.961H699.7v19.678c0,3.269-1.873,5.649-4.951,5.649-3.269,0-4.919-2.158-4.919-5.681V104.961H676.819v22.5C676.819,135.874,681.135,140.762,688.848,140.762Zm46.147,0c10.728,0,17.012-6.411,17.012-14.98v-.19H740.168l-.032.317c-.317,3.206-2.063,5.205-4.983,5.205-3.459,0-5.237-3.015-5.237-8.633v-.032c0-5.522,1.873-8.6,5.237-8.6,2.793,0,4.666,2.031,4.983,5.205l.032.317h11.838v-.19c0-9.045-6.887-14.98-17.107-14.98-11.235,0-18.186,6.855-18.186,18.218v.032C716.714,133.906,723.633,140.762,735,140.762Zm38.245,0c10.728,0,17.012-6.411,17.012-14.98v-.19H778.413l-.032.317c-.317,3.206-2.063,5.205-4.983,5.205-3.459,0-5.237-3.015-5.237-8.633v-.032c0-5.522,1.873-8.6,5.237-8.6,2.793,0,4.666,2.031,4.983,5.205l.032.317h11.838v-.19c0-9.045-6.887-14.98-17.107-14.98-11.235,0-18.186,6.855-18.186,18.218v.032C754.958,133.906,761.877,140.762,773.24,140.762Zm38.245,0c12.188,0,16.187-7.141,17.234-11.711l.1-.413H817.229l-.032.1c-.349,1.016-2.031,3.079-5.459,3.079-3.555,0-5.713-2.38-5.84-6.411h23.074v-3.682c0-10.664-6.982-17.52-17.9-17.52-10.95,0-17.869,6.855-17.869,18.25v.032C793.2,133.875,800.122,140.762,811.484,140.762Zm-.063-27.612c2.825,0,4.792,1.777,5.364,4.888H806.057C806.628,114.927,808.6,113.149,811.421,113.149Zm37.769,27.612c10.156,0,16.948-4.7,16.948-12.251v-.032c0-5.3-3.4-8.252-10.95-9.648l-6.348-1.174c-3.174-.6-4.062-1.3-4.062-2.539v-.032c0-1.492,1.555-2.38,3.936-2.38,2.793,0,4.348,1.555,4.539,3.206l.032.286H865.09v-.222c0-6.379-5.522-11.775-16.377-11.775-10.188,0-16.377,4.348-16.377,11.616v.032c0,5.427,3.682,9.141,10.632,10.41l6.348,1.174c2.888.54,3.936,1.27,3.936,2.539V130c0,1.4-1.555,2.253-4.062,2.253-2.92,0-4.507-1.206-5.015-3.237l-.063-.254H831.543l.032.286C832.368,136.033,838.145,140.762,849.189,140.762Zm36.658,0c10.156,0,16.948-4.7,16.948-12.251v-.032c0-5.3-3.4-8.252-10.95-9.648l-6.348-1.174c-3.174-.6-4.062-1.3-4.062-2.539v-.032c0-1.492,1.555-2.38,3.936-2.38,2.793,0,4.348,1.555,4.539,3.206l.032.286h11.807v-.222c0-6.379-5.522-11.775-16.377-11.775-10.188,0-16.377,4.348-16.377,11.616v.032c0,5.427,3.682,9.141,10.632,10.41l6.348,1.174c2.888.54,3.936,1.27,3.936,2.539V130c0,1.4-1.555,2.253-4.062,2.253-2.92,0-4.507-1.206-5.015-3.237l-.063-.254H868.2l.032.286C869.026,136.033,874.8,140.762,885.847,140.762ZM925.361,140h13.87l4.792-22.566h.254L949.165,140h14.124l8.823-35.039H959.258l-3.713,23.645h-.254l-4.666-23.645h-12.41l-4.6,23.645h-.254l-3.713-23.645H916.475Zm55.986-38.181A6.194,6.194,0,1,0,974.9,95.63,6.3,6.3,0,0,0,981.348,101.819ZM974.841,140h13.013V104.961H974.841Zm34.214.762a32.565,32.565,0,0,0,6-.476v-9.077a14.236,14.236,0,0,1-2.222.159c-2.666,0-3.936-1.143-3.936-3.967V114.355h6.157v-9.395H1008.9V97.28H995.884v7.681H991.25v9.395h4.634V129.4C995.884,137.651,999.978,140.762,1009.055,140.762ZM1019.5,140h13.013V120.322c0-3.269,1.873-5.649,4.951-5.649,3.269,0,4.919,2.158,4.919,5.681V140h13.013V117.5c0-8.411-4.316-13.3-12.029-13.3-5.3,0-8.887,2.539-10.6,7.268h-.254V94.2H1019.5Zm65,.762c5.3,0,8.887-2.539,10.6-7.268h.254V140h13.013V104.961h-13.013v19.678c0,3.269-1.873,5.649-4.951,5.649-3.269,0-4.919-2.158-4.919-5.681V104.961h-13.013v22.5C1072.468,135.874,1076.785,140.762,1084.5,140.762Zm45,0c10.156,0,16.948-4.7,16.948-12.251v-.032c0-5.3-3.4-8.252-10.95-9.648l-6.348-1.174c-3.174-.6-4.062-1.3-4.062-2.539v-.032c0-1.492,1.555-2.38,3.936-2.38,2.793,0,4.348,1.555,4.539,3.206l.032.286H1145.4v-.222c0-6.379-5.522-11.775-16.377-11.775-10.188,0-16.377,4.348-16.377,11.616v.032c0,5.427,3.682,9.141,10.632,10.41l6.348,1.174c2.888.54,3.936,1.27,3.936,2.539V130c0,1.4-1.555,2.253-4.062,2.253-2.92,0-4.507-1.206-5.015-3.237l-.063-.254h-12.568l.032.286C1112.681,136.033,1118.457,140.762,1129.5,140.762Zm26.628-.127a6.665,6.665,0,1,0-6.665-6.665A6.624,6.624,0,0,0,1156.13,140.635Z" transform="translate(12480 5871)" fill="#83e176" opacity="0.534"/>
      <g id="Group_1800" data-name="Group 1800" transform="translate(12255 591)" opacity="0.299">
        <path id="Path_7219" data-name="Path 7219" d="M14034.08,5368.735c32.764-195.295,449.867-158.841,469.92-339.941" transform="translate(-13973.58 183.448)" fill="none" stroke="#fff" stroke-linecap="round" stroke-width="13"/>
        <path id="Path_7220" data-name="Path 7220" d="M14034.08,5368.735c32.764-195.295,449.867-158.841,469.92-339.941" transform="translate(-13389.58 183.448)" fill="none" stroke="#fff" stroke-linecap="round" stroke-width="13"/>
        <path id="Path_7221" data-name="Path 7221" d="M14034.08,5368.735c32.764-195.295,449.867-158.841,469.92-339.941" transform="translate(-13900.58 183.448)" fill="none" stroke="#fff" stroke-linecap="round" stroke-width="13"/>
        <path id="Path_7222" data-name="Path 7222" d="M14034.08,5368.735c32.764-195.295,449.867-158.841,469.92-339.941" transform="translate(-13316.58 183.448)" fill="none" stroke="#fff" stroke-linecap="round" stroke-width="13"/>
        <path id="Path_7223" data-name="Path 7223" d="M14034.08,5368.735c32.764-195.295,449.867-158.841,469.92-339.941" transform="translate(-13826.58 183.448)" fill="none" stroke="#fff" stroke-linecap="round" stroke-width="13"/>
        <path id="Path_7224" data-name="Path 7224" d="M14034.08,5368.735c32.764-195.295,449.867-158.841,469.92-339.941" transform="translate(-13242.58 183.448)" fill="none" stroke="#fff" stroke-linecap="round" stroke-width="13"/>
        <path id="Path_7225" data-name="Path 7225" d="M14034.08,5368.735c32.764-195.295,449.867-158.841,469.92-339.941" transform="translate(-13679.58 183.448)" fill="none" stroke="#fff" stroke-linecap="round" stroke-width="13"/>
        <path id="Path_7226" data-name="Path 7226" d="M14034.08,5368.735c32.764-195.295,449.867-158.841,469.92-339.941" transform="translate(-13095.58 183.448)" fill="none" stroke="#fff" stroke-linecap="round" stroke-width="13"/>
        <path id="Path_7227" data-name="Path 7227" d="M14034.08,5368.735c32.764-195.295,449.867-158.841,469.92-339.941" transform="translate(-13606.58 183.448)" fill="none" stroke="#fff" stroke-linecap="round" stroke-width="13"/>
        <path id="Path_7228" data-name="Path 7228" d="M14034.08,5368.735c32.764-195.295,449.867-158.841,469.92-339.941" transform="translate(-13022.58 183.448)" fill="none" stroke="#fff" stroke-linecap="round" stroke-width="13"/>
        <path id="Path_7229" data-name="Path 7229" d="M14034.08,5368.735c32.764-195.295,449.867-158.841,469.92-339.941" transform="translate(-13459.58 183.448)" fill="none" stroke="#fff" stroke-linecap="round" stroke-width="13"/>
        <path id="Path_7230" data-name="Path 7230" d="M14034.08,5368.735c32.764-195.295,449.867-158.841,469.92-339.941" transform="translate(-12875.58 183.448)" fill="none" stroke="#fff" stroke-linecap="round" stroke-width="13"/>
        <path id="Path_7231" data-name="Path 7231" d="M14034.08,5368.735c32.764-195.295,449.867-158.841,469.92-339.941" transform="translate(-13753.58 183.448)" fill="none" stroke="#fff" stroke-linecap="round" stroke-width="13"/>
        <path id="Path_7232" data-name="Path 7232" d="M14034.08,5368.735c32.764-195.295,449.867-158.841,469.92-339.941" transform="translate(-13169.58 183.448)" fill="none" stroke="#fff" stroke-linecap="round" stroke-width="13"/>
        <path id="Path_7233" data-name="Path 7233" d="M14034.08,5368.735c32.764-195.295,449.867-158.841,469.92-339.941" transform="translate(-13532.58 183.448)" fill="none" stroke="#fff" stroke-linecap="round" stroke-width="13"/>
        <path id="Path_7234" data-name="Path 7234" d="M14034.08,5368.735c32.764-195.295,449.867-158.841,469.92-339.941" transform="translate(-12948.58 183.448)" fill="none" stroke="#fff" stroke-linecap="round" stroke-width="13"/>
      </g>
      <path id="Path_7235" data-name="Path 7235" d="M14968.664,5422.939c7.744-8.712,78.879,20.051,107.074-8.778" transform="translate(-1422.934 603.886)" fill="none" stroke="#d0f3cb" stroke-linecap="round" stroke-width="15"/>
    </g>
  </g>
</svg>
