<svg xmlns="http://www.w3.org/2000/svg" width="1643.573" height="354.603" viewBox="0 0 1643.573 354.603">
  <g id="Group_523" data-name="Group 523" transform="translate(-15048.015 -4394.067)">
    <g id="Group_391" data-name="Group 391" transform="translate(15080 -751)">
      <path id="Path_1529" data-name="Path 1529" d="M4.053,79H29.058c17.71,0,28.167-10.942,28.167-29.666v-.081c0-18.683-10.456-28.734-28.167-28.734H4.053ZM21.236,65.342V34.177h5.39c8.187,0,13.09,5.269,13.09,15.076v.081c0,10.78-4.5,16.008-13.09,16.008Zm64.114,14.63c14.63,0,23.546-8.389,23.546-23.3v-.081c0-14.711-9.159-23.3-23.546-23.3C71,33.285,61.845,42,61.845,56.588v.081C61.845,71.543,70.68,79.973,85.351,79.973Zm.041-12.32c-4.215,0-6.687-3.891-6.687-10.983v-.081c0-6.93,2.553-10.983,6.646-10.983,4.053,0,6.687,4.053,6.687,10.983v.081C92.038,63.721,89.525,67.652,85.391,67.652ZM115.827,79h16.616V49.9l3.769-1.864V39.243l-3.769,1.864V20.519H115.827v28.9l-3.81,1.9v8.794l3.81-1.9Zm38.136.567c5.755,0,9.929-2.391,12.442-6.646h.324V79h5.431c-4.336,2.715-6.525,6.484-6.525,10.618V89.7c0,5.755,4.3,9.321,10.416,9.321,3.647,0,6.687-.486,8.268-1.337v-6.89a5.4,5.4,0,0,1-1.418.162c-1.945,0-3.566-1.459-3.566-3.972V86.9c0-2.918,1.256-5.512,4.012-7.9V48.564c0-9.078-8.308-15.279-20.75-15.279-13.05,0-20.791,5.958-21.479,15.076l-.041.527h14.833l.081-.405c.365-1.824,2.27-3.323,5.674-3.323s5.066,1.621,5.066,4.215V51.2l-9.4.608c-11.915.811-18.562,5.552-18.562,14.185v.041C138.766,73.731,144.926,79.567,153.963,79.567Zm1.013-14.752v-.041c0-2.229,1.581-3.607,5.106-3.85l6.646-.486v2.837c0,2.958-2.715,5.147-6.687,5.147C156.962,68.422,154.977,67.166,154.977,64.815ZM211.8,79.973c13.7,0,21.723-8.187,21.723-19.129V60.6H218.4l-.041.405c-.405,4.093-2.634,6.646-6.363,6.646-4.417,0-6.687-3.85-6.687-11.023v-.041c0-7.052,2.391-10.983,6.687-10.983,3.566,0,5.958,2.594,6.363,6.646l.041.405h15.117v-.243c0-11.55-8.794-19.129-21.844-19.129-14.347,0-23.222,8.754-23.222,23.263v.041C188.452,71.219,197.287,79.973,211.8,79.973ZM237.652,79h40.325V67h-18.8V66.68l17.913-22.574V34.258H238.3v12h19.737v.324L237.652,70.57Zm77.934.973c6.484,0,11.348-3.242,13.374-8.632h.324V79H345.9V20.519H329.285v21.8h-.324c-2.107-5.674-6.89-9.038-13.293-9.038-11.267,0-17.548,8.308-17.548,23.3v.041C298.119,71.543,304.482,79.973,315.586,79.973ZM322.111,66.6c-4.336,0-7.133-3.81-7.133-9.97v-.041c0-6.241,2.837-9.929,7.133-9.929,4.336,0,7.173,3.688,7.173,9.97v.041C329.285,62.911,326.488,66.6,322.111,66.6Zm52.4,13.374c14.63,0,23.546-8.389,23.546-23.3v-.081c0-14.711-9.159-23.3-23.546-23.3-14.347,0-23.506,8.713-23.506,23.3v.081C351.007,71.543,359.842,79.973,374.513,79.973Zm.041-12.32c-4.215,0-6.687-3.891-6.687-10.983v-.081c0-6.93,2.553-10.983,6.646-10.983,4.053,0,6.687,4.053,6.687,10.983v.081C381.2,63.721,378.688,67.652,374.554,67.652ZM419.174,79h16.616V20.519H419.174Zm38.217.973c6.768,0,11.348-3.242,13.536-9.281h.324V79h16.616V34.258H471.252V59.385c0,4.174-2.391,7.214-6.322,7.214-4.174,0-6.282-2.756-6.282-7.254V34.258H442.032V62.992C442.032,73.731,447.543,79.973,457.392,79.973Zm53.05,0c6.484,0,11.348-3.242,13.374-8.632h.324V79h16.616V20.519H524.14v21.8h-.324c-2.107-5.674-6.89-9.038-13.293-9.038-11.267,0-17.548,8.308-17.548,23.3v.041C492.975,71.543,499.337,79.973,510.442,79.973ZM516.967,66.6c-4.336,0-7.133-3.81-7.133-9.97v-.041c0-6.241,2.837-9.929,7.133-9.929,4.336,0,7.173,3.688,7.173,9.97v.041C524.14,62.911,521.344,66.6,516.967,66.6ZM546.228,79h40.325V67h-18.8V66.68l17.913-22.574V34.258H546.876v12h19.737v.324L546.228,70.57Zm54.1-48.754a8.04,8.04,0,0,0,8.227-7.9,8.234,8.234,0,0,0-16.454,0A8.04,8.04,0,0,0,600.332,30.246ZM592.023,79H608.64V34.258H592.023Zm21.155,12.969h11.348l5.958-25.005h-15ZM647.343,79h16.616V66.112l2.148-2.8L675.388,79h19.088L678.549,53.346l14.874-19.088H675.145l-10.861,16.17h-.324V20.519H647.343Zm69.626.973a41.583,41.583,0,0,0,7.66-.608V67.774a18.178,18.178,0,0,1-2.837.2c-3.4,0-5.025-1.459-5.025-5.066V46.254h7.862v-12h-7.862V24.45H700.15v9.808h-5.917v12h5.917v19.21C700.15,76,705.378,79.973,716.969,79.973Zm39.312-50.619L767.3,13.832H753.687l-7.862,15.522Zm-3.81,50.619c14.63,0,23.546-8.389,23.546-23.3v-.081c0-14.711-9.159-23.3-23.546-23.3-14.347,0-23.506,8.713-23.506,23.3v.081C728.965,71.543,737.8,79.973,752.471,79.973Zm.041-12.32c-4.215,0-6.687-3.891-6.687-10.983v-.081c0-6.93,2.553-10.983,6.646-10.983,4.053,0,6.687,4.053,6.687,10.983v.081C759.158,63.721,756.646,67.652,752.512,67.652ZM781.124,79H797.74V56.386c0-6.241,3.2-9.4,9.443-9.4a12.474,12.474,0,0,1,4.823.932V33.934a11.9,11.9,0,0,0-4.012-.648c-5.35,0-8.794,3.161-9.929,9h-.324V34.258H781.124Zm34.043,0h40.325V67h-18.8V66.68L854.6,44.106V34.258H815.815v12h19.737v.324L815.167,70.57Zm55.32,14.428c11.712,0,19.7-3.04,23.506-15.481l13.333-43.688H889.778L883.01,67.085h-.324l-6.809-32.827h-18.44L872.473,79l-.162.446c-.405,1.094-1.824,1.986-4.417,1.986a29.493,29.493,0,0,1-5.674-.527V92.739A51.744,51.744,0,0,0,870.487,93.428ZM925.847,79h16.616V52.981c0-3.891,2.026-6.322,5.39-6.322,3.566,0,5.39,2.148,5.39,6.4V79h15.765V52.981c0-3.931,1.986-6.322,5.35-6.322,3.607,0,5.431,2.107,5.431,6.363V79h16.616V48.686c0-9.119-6-15.4-14.711-15.4-6.809,0-12.239,3.931-13.739,9.848h-.324c-1.094-6.282-5.674-9.848-12.118-9.848a12.731,12.731,0,0,0-12.726,9.443h-.324v-8.47H925.847Zm90.173.567c5.755,0,9.929-2.391,12.442-6.646h.324V79H1045.4V48.564c0-9.078-8.308-15.279-20.75-15.279-13.05,0-20.791,5.958-21.479,15.076l-.041.527h14.833l.081-.405c.365-1.824,2.27-3.323,5.674-3.323s5.066,1.621,5.066,4.215V51.2l-9.4.608c-11.915.811-18.562,5.552-18.562,14.185v.041C1000.823,73.731,1006.983,79.567,1016.021,79.567Zm1.013-14.752v-.041c0-2.229,1.581-3.607,5.106-3.85l6.646-.486v2.837c0,2.958-2.715,5.147-6.687,5.147C1019.02,68.422,1017.034,67.166,1017.034,64.815Zm42.918-34.57a8.04,8.04,0,0,0,8.227-7.9,8.234,8.234,0,0,0-16.454,0A8.04,8.04,0,0,0,1059.952,30.246Zm-9.767,63.182c11.388,0,18.075-5.309,18.075-14.387V34.258h-16.616V78.271c0,2.391-1.418,3.445-4.661,3.445a12.508,12.508,0,0,1-1.9-.122V93.185C1046.051,93.306,1048.483,93.428,1050.185,93.428Zm37.853-13.86c5.755,0,9.929-2.391,12.442-6.646h.324V79h5.431c-4.336,2.715-6.525,6.484-6.525,10.618V89.7c0,5.755,4.3,9.321,10.416,9.321,3.647,0,6.687-.486,8.268-1.337v-6.89a5.4,5.4,0,0,1-1.418.162c-1.945,0-3.566-1.459-3.566-3.972V86.9c0-2.918,1.256-5.512,4.012-7.9V48.564c0-9.078-8.308-15.279-20.75-15.279-13.05,0-20.791,5.958-21.479,15.076l-.041.527h14.833l.081-.405c.365-1.824,2.27-3.323,5.674-3.323s5.066,1.621,5.066,4.215V51.2l-9.4.608c-11.915.811-18.562,5.552-18.562,14.185v.041C1072.84,73.731,1079,79.567,1088.038,79.567Zm1.013-14.752v-.041c0-2.229,1.581-3.607,5.106-3.85l6.646-.486v2.837c0,2.958-2.715,5.147-6.687,5.147C1091.037,68.422,1089.051,67.166,1089.051,64.815ZM1153,79.567c5.755,0,9.929-2.391,12.442-6.646h.324V79h16.616V48.564c0-9.078-8.308-15.279-20.75-15.279-13.05,0-20.791,5.958-21.479,15.076l-.041.527h14.833l.081-.405c.365-1.824,2.27-3.323,5.674-3.323s5.066,1.621,5.066,4.215V51.2l-9.4.608c-11.915.811-18.562,5.552-18.562,14.185v.041C1137.805,73.731,1143.965,79.567,1153,79.567Zm1.013-14.752v-.041c0-2.229,1.581-3.607,5.106-3.85l6.646-.486v2.837c0,2.958-2.715,5.147-6.687,5.147C1156,68.422,1154.016,67.166,1154.016,64.815ZM1188.626,79h16.616V52.981c0-3.891,2.026-6.322,5.39-6.322,3.566,0,5.39,2.148,5.39,6.4V79h15.765V52.981c0-3.931,1.986-6.322,5.35-6.322,3.607,0,5.431,2.107,5.431,6.363V79h16.616V48.686c0-9.119-6-15.4-14.711-15.4-6.809,0-12.239,3.931-13.739,9.848h-.324c-1.094-6.282-5.674-9.848-12.118-9.848a12.731,12.731,0,0,0-12.726,9.443h-.324v-8.47h-16.616Zm107.154.973c11.1,0,17.467-8.43,17.467-23.344v-.041c0-15-6.282-23.3-17.548-23.3-6.4,0-11.186,3.364-13.293,9.038h-.324v-21.8h-16.616V79h16.616V71.34h.324C1284.433,76.73,1289.3,79.973,1295.781,79.973ZM1289.256,66.6c-4.377,0-7.173-3.688-7.173-9.929v-.041c0-6.282,2.837-9.97,7.173-9.97,4.3,0,7.133,3.688,7.133,9.929v.041C1296.389,62.789,1293.592,66.6,1289.256,66.6Zm37.407-36.353a8.04,8.04,0,0,0,8.227-7.9,8.234,8.234,0,0,0-16.454,0A8.04,8.04,0,0,0,1326.663,30.246ZM1318.354,79h16.616V34.258h-16.616Zm43.688.973a41.583,41.583,0,0,0,7.66-.608V67.774a18.178,18.178,0,0,1-2.837.2c-3.4,0-5.025-1.459-5.025-5.066V46.254h7.862v-12h-7.862V24.45h-16.616v9.808h-5.917v12h5.917v19.21C1345.224,76,1350.452,79.973,1362.043,79.973ZM1375.174,79h16.616V53.873c0-4.174,2.391-7.214,6.322-7.214,4.174,0,6.282,2.756,6.282,7.254V79h16.616V50.266c0-10.74-5.512-16.981-15.36-16.981-6.768,0-11.348,3.242-13.536,9.281h-.324V34.258h-16.616Zm74.084.973c15.563,0,20.669-9.119,22.006-14.955l.122-.527h-14.792l-.041.122c-.446,1.3-2.594,3.931-6.971,3.931-4.539,0-7.295-3.04-7.457-8.187h29.463v-4.7c0-13.617-8.916-22.371-22.857-22.371-13.982,0-22.817,8.754-22.817,23.3v.041C1425.914,71.178,1434.749,79.973,1449.258,79.973Zm-.081-35.259c3.607,0,6.12,2.27,6.849,6.241h-13.7C1443.057,46.983,1445.57,44.714,1449.177,44.714ZM25.33,178.973c13.7,0,21.723-8.187,21.723-19.129V159.6H31.936l-.041.405c-.405,4.093-2.634,6.646-6.363,6.646-4.417,0-6.687-3.85-6.687-11.023v-.041c0-7.052,2.391-10.983,6.687-10.983,3.566,0,5.958,2.594,6.363,6.646l.041.405H47.052v-.243c0-11.55-8.794-19.129-21.844-19.129-14.347,0-23.222,8.754-23.222,23.263v.041C1.986,170.219,10.821,178.973,25.33,178.973Zm48.835,0c15.563,0,20.669-9.119,22.006-14.955l.122-.527H81.5l-.041.122c-.446,1.3-2.594,3.931-6.971,3.931-4.539,0-7.295-3.04-7.457-8.187H96.5v-4.7c0-13.617-8.916-22.371-22.857-22.371-13.982,0-22.817,8.754-22.817,23.3v.041C50.821,170.178,59.656,178.973,74.165,178.973Zm-.081-35.259c3.607,0,6.12,2.27,6.849,6.241h-13.7C67.964,145.983,70.477,143.714,74.084,143.714ZM101.764,178H118.38V119.519H101.764Zm45.269.973c15.563,0,20.669-9.119,22.006-14.955l.122-.527H154.369l-.041.122c-.446,1.3-2.594,3.931-6.971,3.931-4.539,0-7.295-3.04-7.457-8.187h29.463v-4.7c0-13.617-8.916-22.371-22.857-22.371-13.982,0-22.817,8.754-22.817,23.3v.041C123.689,170.178,132.524,178.973,147.033,178.973Zm-.081-35.259c3.607,0,6.12,2.27,6.849,6.241H140.1C140.833,145.983,143.345,143.714,146.952,143.714Zm51.591-14.468a7.909,7.909,0,1,0-8.227-7.9A8.04,8.04,0,0,0,198.543,129.246ZM190.235,178h16.616V133.258H190.235Zm55,.973c6.484,0,11.348-3.242,13.374-8.632h.324V178h16.616V119.519H258.929v21.8H258.6c-2.107-5.674-6.89-9.038-13.293-9.038-11.267,0-17.548,8.308-17.548,23.3v.041C227.764,170.543,234.126,178.973,245.231,178.973Zm6.525-13.374c-4.336,0-7.133-3.81-7.133-9.97v-.041c0-6.241,2.837-9.929,7.133-9.929,4.336,0,7.173,3.688,7.173,9.97v.041C258.929,161.911,256.133,165.6,251.756,165.6ZM281.017,178h40.325V166h-18.8v-.324l17.913-22.574v-9.848H281.665v12H301.4v.324L281.017,169.57Zm54.1-48.754a7.909,7.909,0,1,0-8.227-7.9A8.04,8.04,0,0,0,335.121,129.246ZM326.813,178h16.616V133.258H326.813Zm36.394.567c5.755,0,9.929-2.391,12.442-6.646h.324V178h16.616V147.564c0-9.078-8.308-15.279-20.75-15.279-13.05,0-20.791,5.958-21.479,15.076l-.041.527h14.833l.081-.405c.365-1.824,2.27-3.323,5.674-3.323s5.066,1.621,5.066,4.215V150.2l-9.4.608c-11.915.811-18.562,5.552-18.562,14.185v.041C348.008,172.731,354.168,178.567,363.206,178.567Zm1.013-14.752v-.041c0-2.229,1.581-3.607,5.106-3.85l6.646-.486v2.837c0,2.958-2.715,5.147-6.687,5.147C366.205,167.422,364.219,166.166,364.219,163.815ZM400.653,178H417.27V148.9l3.769-1.864v-8.794l-3.769,1.864V119.519H400.653v28.9l-3.81,1.9v8.794l3.81-1.9Zm38.136.567c5.755,0,9.929-2.391,12.442-6.646h.324V178h16.616V147.564c0-9.078-8.308-15.279-20.75-15.279-13.05,0-20.791,5.958-21.479,15.076l-.041.527h14.833l.081-.405c.365-1.824,2.27-3.323,5.674-3.323s5.066,1.621,5.066,4.215V150.2l-9.4.608c-11.915.811-18.562,5.552-18.562,14.185v.041C423.592,172.731,429.752,178.567,438.79,178.567Zm1.013-14.752v-.041c0-2.229,1.581-3.607,5.106-3.85l6.646-.486v2.837c0,2.958-2.715,5.147-6.687,5.147C441.789,167.422,439.8,166.166,439.8,163.815Zm42.918-34.57a7.909,7.909,0,1,0-8.227-7.9A8.04,8.04,0,0,0,482.721,129.246Zm-9.767,63.182c11.388,0,18.075-5.309,18.075-14.387V133.258H474.413v44.013c0,2.391-1.418,3.445-4.661,3.445a12.508,12.508,0,0,1-1.9-.122v11.591C468.82,192.306,471.252,192.428,472.954,192.428ZM513.076,178h16.616V155.386c0-6.241,3.2-9.4,9.443-9.4a12.474,12.474,0,0,1,4.823.932V132.934a11.9,11.9,0,0,0-4.012-.648c-5.35,0-8.794,3.161-9.929,9h-.324v-8.024H513.076Zm47.133.567c5.755,0,9.929-2.391,12.442-6.646h.324V178h16.616V147.564c0-9.078-8.308-15.279-20.75-15.279-13.05,0-20.791,5.958-21.479,15.076l-.041.527h14.833l.081-.405c.365-1.824,2.27-3.323,5.674-3.323s5.066,1.621,5.066,4.215V150.2l-9.4.608c-11.915.811-18.562,5.552-18.562,14.185v.041C545.012,172.731,551.172,178.567,560.209,178.567Zm1.013-14.752v-.041c0-2.229,1.581-3.607,5.106-3.85l6.646-.486v2.837c0,2.958-2.715,5.147-6.687,5.147C563.208,167.422,561.223,166.166,561.223,163.815ZM595.063,178h40.325V166h-18.8v-.324L634.5,143.106v-9.848H595.711v12h19.737v.324L595.063,169.57Zm68,.973c15.563,0,20.669-9.119,22.006-14.955l.122-.527H670.4l-.041.122c-.446,1.3-2.594,3.931-6.971,3.931-4.539,0-7.295-3.04-7.457-8.187H685.4v-4.7c0-13.617-8.916-22.371-22.857-22.371-13.982,0-22.817,8.754-22.817,23.3v.041C639.724,170.178,648.559,178.973,663.068,178.973Zm-.081-35.259c3.607,0,6.12,2.27,6.849,6.241h-13.7C656.867,145.983,659.38,143.714,662.987,143.714ZM690.464,178h16.616V151.981c0-3.891,2.026-6.322,5.39-6.322,3.566,0,5.39,2.148,5.39,6.4V178h15.765V151.981c0-3.931,1.986-6.322,5.35-6.322,3.607,0,5.431,2.107,5.431,6.363V178h16.616V147.686c0-9.119-6-15.4-14.711-15.4-6.809,0-12.239,3.931-13.739,9.848h-.324c-1.094-6.282-5.674-9.848-12.118-9.848a12.731,12.731,0,0,0-12.726,9.443h-.324v-8.47H690.464Zm91.673,0h40.325V166h-18.8v-.324l17.913-22.574v-9.848H782.786v12h19.737v.324L782.137,169.57Zm61.6,0h16.616V152.873c0-4.174,2.391-7.214,6.322-7.214,4.174,0,6.282,2.756,6.282,7.254V178h16.616V149.266c0-10.74-5.512-16.981-15.36-16.981-6.768,0-11.348,3.242-13.536,9.281h-.324v-8.308H843.739Zm60.183-48.754a7.909,7.909,0,1,0-8.227-7.9A8.04,8.04,0,0,0,903.922,129.246ZM895.614,178H912.23V133.258H895.614Zm22.857,0h16.616V151.981c0-3.891,2.026-6.322,5.39-6.322,3.566,0,5.39,2.148,5.39,6.4V178h15.765V151.981c0-3.931,1.986-6.322,5.35-6.322,3.607,0,5.431,2.107,5.431,6.363V178h16.616V147.686c0-9.119-6-15.4-14.711-15.4-6.809,0-12.239,3.931-13.739,9.848h-.324c-1.094-6.282-5.674-9.848-12.118-9.848a12.731,12.731,0,0,0-12.726,9.443h-.324v-8.47H918.471Zm84.945-48.754a7.909,7.909,0,1,0-8.227-7.9A8.04,8.04,0,0,0,1003.417,129.246ZM995.108,178h16.616V133.258H995.108Zm27.883-19.9h14.1l1.459-38.582h-17.021Zm7.052,20.466a8.1,8.1,0,1,0,0-16.17c-4.782,0-8.632,3.566-8.632,8.065A8.332,8.332,0,0,0,1030.043,178.567Z" transform="translate(140 5220)" fill="#83e176" opacity="0.534"/>
      <g id="Group_361" data-name="Group 361" transform="translate(-85 -60)" opacity="0.299">
        <path id="Path_1243" data-name="Path 1243" d="M14034.08,5368.735c32.764-195.295,449.867-158.841,469.92-339.941" transform="translate(-13973.58 183.448)" fill="none" stroke="#fff" stroke-linecap="round" stroke-width="13"/>
        <path id="Path_1251" data-name="Path 1251" d="M14034.08,5368.735c32.764-195.295,449.867-158.841,469.92-339.941" transform="translate(-13389.58 183.448)" fill="none" stroke="#fff" stroke-linecap="round" stroke-width="13"/>
        <path id="Path_1243-2" data-name="Path 1243" d="M14034.08,5368.735c32.764-195.295,449.867-158.841,469.92-339.941" transform="translate(-13900.58 183.448)" fill="none" stroke="#fff" stroke-linecap="round" stroke-width="13"/>
        <path id="Path_1244" data-name="Path 1244" d="M14034.08,5368.735c32.764-195.295,449.867-158.841,469.92-339.941" transform="translate(-13316.58 183.448)" fill="none" stroke="#fff" stroke-linecap="round" stroke-width="13"/>
        <path id="Path_1243-3" data-name="Path 1243" d="M14034.08,5368.735c32.764-195.295,449.867-158.841,469.92-339.941" transform="translate(-13826.58 183.448)" fill="none" stroke="#fff" stroke-linecap="round" stroke-width="13"/>
        <path id="Path_1245" data-name="Path 1245" d="M14034.08,5368.735c32.764-195.295,449.867-158.841,469.92-339.941" transform="translate(-13242.58 183.448)" fill="none" stroke="#fff" stroke-linecap="round" stroke-width="13"/>
        <path id="Path_1243-4" data-name="Path 1243" d="M14034.08,5368.735c32.764-195.295,449.867-158.841,469.92-339.941" transform="translate(-13679.58 183.448)" fill="none" stroke="#fff" stroke-linecap="round" stroke-width="13"/>
        <path id="Path_1246" data-name="Path 1246" d="M14034.08,5368.735c32.764-195.295,449.867-158.841,469.92-339.941" transform="translate(-13095.58 183.448)" fill="none" stroke="#fff" stroke-linecap="round" stroke-width="13"/>
        <path id="Path_1243-5" data-name="Path 1243" d="M14034.08,5368.735c32.764-195.295,449.867-158.841,469.92-339.941" transform="translate(-13606.58 183.448)" fill="none" stroke="#fff" stroke-linecap="round" stroke-width="13"/>
        <path id="Path_1247" data-name="Path 1247" d="M14034.08,5368.735c32.764-195.295,449.867-158.841,469.92-339.941" transform="translate(-13022.58 183.448)" fill="none" stroke="#fff" stroke-linecap="round" stroke-width="13"/>
        <path id="Path_1243-6" data-name="Path 1243" d="M14034.08,5368.735c32.764-195.295,449.867-158.841,469.92-339.941" transform="translate(-13459.58 183.448)" fill="none" stroke="#fff" stroke-linecap="round" stroke-width="13"/>
        <path id="Path_1248" data-name="Path 1248" d="M14034.08,5368.735c32.764-195.295,449.867-158.841,469.92-339.941" transform="translate(-12875.58 183.448)" fill="none" stroke="#fff" stroke-linecap="round" stroke-width="13"/>
        <path id="Path_1243-7" data-name="Path 1243" d="M14034.08,5368.735c32.764-195.295,449.867-158.841,469.92-339.941" transform="translate(-13753.58 183.448)" fill="none" stroke="#fff" stroke-linecap="round" stroke-width="13"/>
        <path id="Path_1249" data-name="Path 1249" d="M14034.08,5368.735c32.764-195.295,449.867-158.841,469.92-339.941" transform="translate(-13169.58 183.448)" fill="none" stroke="#fff" stroke-linecap="round" stroke-width="13"/>
        <path id="Path_1243-8" data-name="Path 1243" d="M14034.08,5368.735c32.764-195.295,449.867-158.841,469.92-339.941" transform="translate(-13532.58 183.448)" fill="none" stroke="#fff" stroke-linecap="round" stroke-width="13"/>
        <path id="Path_1250" data-name="Path 1250" d="M14034.08,5368.735c32.764-195.295,449.867-158.841,469.92-339.941" transform="translate(-12948.58 183.448)" fill="none" stroke="#fff" stroke-linecap="round" stroke-width="13"/>
      </g>
    </g>
    <path id="Path_1252" data-name="Path 1252" d="M14968.665,5422.939c11.031-8.712,112.386,20.051,152.561-8.778" transform="translate(1096.066 -764.114)" fill="none" stroke="#d0f3cb" stroke-linecap="round" stroke-width="15"/>
  </g>
</svg>
