<svg xmlns="http://www.w3.org/2000/svg" width="140" height="140" viewBox="0 0 140 140">
  <defs>
    <style>
      .cls-1 {
        fill: #fff;
        opacity: 0;
      }

      .cls-2 {
        fill: #1bbc07;
      }
    </style>
  </defs>
  <g id="Group_382" data-name="Group 382" transform="translate(-1445 -1122)">
    <rect id="Rectangle_347" data-name="Rectangle 347" class="cls-1" width="140" height="140" transform="translate(1445 1122)"/>
    <g id="chat" transform="translate(1459.703 1126.254)">
      <path id="Path_270" data-name="Path 270" class="cls-2" d="M136.108,100.019a1.916,1.916,0,0,0-1.916,1.916v5.882H55.183V72.43c3.7,0,9.072.006,16.887.008a.641.641,0,0,1,.451.187l8.192,8.191a2.686,2.686,0,0,0,4.558-1.888V72.439H85.3a7.032,7.032,0,0,0,7.024-7.024V17.48A7.032,7.032,0,0,0,85.3,10.456H55.183V7.024a3.2,3.2,0,0,1,3.193-3.193h49.936a1.916,1.916,0,0,0,0-3.831H58.376a7.032,7.032,0,0,0-7.024,7.024v3.432h-3.77a7.032,7.032,0,0,0-7.024,7.024v8.1a1.916,1.916,0,0,0,3.831,0v-8.1a3.2,3.2,0,0,1,3.193-3.193H85.3a3.2,3.2,0,0,1,3.193,3.193V65.414A3.2,3.2,0,0,1,85.3,68.607h-.922a2.941,2.941,0,0,0-2.937,2.937v4.581l-6.209-6.209a4.44,4.44,0,0,0-3.16-1.309c-6.585,0-23.6-.01-24.842-.022a3.172,3.172,0,0,1-2.839-3.171V34.681a1.916,1.916,0,0,0-3.831,0V65.414a6.985,6.985,0,0,0,6.388,6.993h0c.137.008.7.014,4.406.019v51.446a7.032,7.032,0,0,0,7.024,7.024H131a7.032,7.032,0,0,0,7.024-7.024V101.934a1.916,1.916,0,0,0-1.916-1.916Zm-1.916,23.853A3.2,3.2,0,0,1,131,127.065H58.376a3.2,3.2,0,0,1-3.193-3.193V111.648h79.009Z" transform="translate(-40.558 0)"/>
      <path id="Path_271" data-name="Path 271" class="cls-2" d="M222.543,465.2H234.9a1.916,1.916,0,1,0,0-3.831H222.543a1.916,1.916,0,1,0,0,3.831Z" transform="translate(-174.591 -343.416)"/>
      <path id="Path_272" data-name="Path 272" class="cls-2" d="M313.7,32.765h-5.668V7.024A7.032,7.032,0,0,0,301.008,0H288.262a1.916,1.916,0,0,0,0,3.831h12.746A3.2,3.2,0,0,1,304.2,7.024V32.765H275.983a7.032,7.032,0,0,0-7.024,7.024V87.724a7.032,7.032,0,0,0,7.024,7.024h.028v6.659a2.686,2.686,0,0,0,4.558,1.888l8.36-8.36a.634.634,0,0,1,.451-.187H313.7a7.032,7.032,0,0,0,7.024-7.024V39.789a7.032,7.032,0,0,0-7.024-7.024Zm3.193,54.959a3.2,3.2,0,0,1-3.193,3.193H289.38a4.442,4.442,0,0,0-3.16,1.309L279.843,98.6V93.854a2.941,2.941,0,0,0-2.937-2.937h-.922a3.2,3.2,0,0,1-3.193-3.193V39.789a3.2,3.2,0,0,1,3.193-3.193H313.7a3.2,3.2,0,0,1,3.193,3.193Z" transform="translate(-210.567 0)"/>
      <path id="Path_273" data-name="Path 273" class="cls-2" d="M131.746,194.074h-9.492a.368.368,0,0,0-.346.489,5.393,5.393,0,0,0,10.185,0A.368.368,0,0,0,131.746,194.074Z" transform="translate(-101.094 -144.458)"/>
      <path id="Path_274" data-name="Path 274" class="cls-2" d="M159.583,155.883a2.108,2.108,0,1,0,2.108,2.108A2.108,2.108,0,0,0,159.583,155.883Z" transform="translate(-127.584 -116.031)"/>
      <path id="Path_275" data-name="Path 275" class="cls-2" d="M114.024,157.991a2.108,2.108,0,1,0-2.108,2.108A2.108,2.108,0,0,0,114.024,157.991Z" transform="translate(-92.104 -116.031)"/>
      <path id="Path_276" data-name="Path 276" class="cls-2" d="M96.148,78.443H73.936a4.786,4.786,0,0,0-4.781,4.781V96.049a4.224,4.224,0,0,0-3.745,4.192V101.7a6.819,6.819,0,0,0,4.454,6.382,16.157,16.157,0,0,0,4.3,6.984l3.248,3.106a11.027,11.027,0,0,0,15.272,0l3.248-3.106a16.156,16.156,0,0,0,4.295-6.984,6.818,6.818,0,0,0,4.454-6.383v-1.459a4.225,4.225,0,0,0-3.745-4.192V83.224A4.787,4.787,0,0,0,96.148,78.443ZM72.99,83.224a.947.947,0,0,1,.946-.946H96.148a.947.947,0,0,1,.946.946v5.332a30.21,30.21,0,0,0-24.1,0V83.224ZM100.84,101.7a2.973,2.973,0,0,1-2.4,2.91,2.176,2.176,0,0,0-1.694,1.624,12.34,12.34,0,0,1-3.475,6.061L90.027,115.4a7.2,7.2,0,0,1-9.97,0L76.809,112.3a12.34,12.34,0,0,1-3.476-6.062,2.176,2.176,0,0,0-1.694-1.623,2.972,2.972,0,0,1-2.4-2.91v-1.459a.384.384,0,0,1,.383-.383h1.444A1.917,1.917,0,0,0,72.99,97.94V92.816a26.225,26.225,0,0,1,24.1,0V97.94a1.917,1.917,0,0,0,1.917,1.917h1.444a.384.384,0,0,1,.383.383Z" transform="translate(-59.056 -58.389)"/>
      <g id="Group_23" data-name="Group 23" transform="translate(78.93 71.691)">
        <path id="Path_277" data-name="Path 277" class="cls-2" d="M349.66,280.421a.367.367,0,0,0-.346.488,5.388,5.388,0,0,0,10.176,0,.367.367,0,0,0-.346-.488Z" transform="translate(-349.293 -280.421)"/>
      </g>
      <g id="Group_24" data-name="Group 24" transform="translate(88.02 61.937)">
        <circle id="Ellipse_58" data-name="Ellipse 58" class="cls-2" cx="2.106" cy="2.106" r="2.106"/>
      </g>
      <g id="Group_25" data-name="Group 25" transform="translate(75.845 61.937)">
        <circle id="Ellipse_59" data-name="Ellipse 59" class="cls-2" cx="2.106" cy="2.106" r="2.106"/>
      </g>
      <path id="Path_278" data-name="Path 278" class="cls-2" d="M328,181.68v-5.6a12.527,12.527,0,0,0-12.513-12.513h-6.748a12.527,12.527,0,0,0-12.513,12.513v5.6a4.224,4.224,0,0,0-3.745,4.192v1.459a6.758,6.758,0,0,0,4.455,6.384,16.173,16.173,0,0,0,4.294,6.982l3.248,3.106a11.027,11.027,0,0,0,15.272,0L323,200.7a16.169,16.169,0,0,0,4.294-6.982,6.758,6.758,0,0,0,4.455-6.384v-1.459A4.225,4.225,0,0,0,328,181.68ZM308.741,167.4h6.748A8.681,8.681,0,0,1,323,171.732a7,7,0,0,0-2.025-.3H303.259a7.011,7.011,0,0,0-2.025.3A8.68,8.68,0,0,1,308.741,167.4Zm19.171,19.933a2.95,2.95,0,0,1-2.317,2.894A2.406,2.406,0,0,0,323.79,192a12.349,12.349,0,0,1-3.442,5.925l-3.248,3.107a7.2,7.2,0,0,1-9.97,0l-3.248-3.106A12.351,12.351,0,0,1,300.441,192a2.4,2.4,0,0,0-1.807-1.779,2.987,2.987,0,0,1-2.316-2.894v-1.459a.384.384,0,0,1,.384-.383h1.189a2.176,2.176,0,0,0,2.173-2.173v-4.852a3.2,3.2,0,0,1,3.2-3.2h17.713a3.2,3.2,0,0,1,3.2,3.2v4.852a2.176,2.176,0,0,0,2.173,2.173h1.189a.384.384,0,0,1,.383.383v1.458Z" transform="translate(-228.077 -121.747)"/>
    </g>
  </g>
</svg>
