<svg xmlns="http://www.w3.org/2000/svg" width="140" height="140" viewBox="0 0 140 140">
  <defs>
    <style>
      .cls-1 {
        fill: #fff;
        opacity: 0;
      }

      .cls-2 {
        fill: #1bbc07;
      }
    </style>
  </defs>
  <g id="Group_380" data-name="Group 380" transform="translate(-331 -1122)">
    <rect id="Rectangle_348" data-name="Rectangle 348" class="cls-1" width="140" height="140" transform="translate(331 1122)"/>
    <g id="target" transform="translate(350.717 1132.288)">
      <g id="Group_27" data-name="Group 27" transform="translate(76.403 88.621)">
        <g id="Group_26" data-name="Group 26">
          <path id="Path_279" data-name="Path 279" class="cls-2" d="M341.627,392.307a2.267,2.267,0,0,0-3.231-.029l-.022.022a2.267,2.267,0,0,0-.069,3.23,2.266,2.266,0,0,0,3.231.007A2.267,2.267,0,0,0,341.627,392.307Z" transform="translate(-337.662 -391.615)"/>
        </g>
      </g>
      <g id="Group_29" data-name="Group 29" transform="translate(21.462 44.271)">
        <g id="Group_28" data-name="Group 28">
          <path id="Path_280" data-name="Path 280" class="cls-2" d="M174.27,197.11a2.263,2.263,0,1,0-4.244,1.572,47.528,47.528,0,0,1-71.6,55.588,2.263,2.263,0,1,0-2.577,3.72,52.062,52.062,0,0,0,78.42-60.879Z" transform="translate(-94.875 -195.633)"/>
        </g>
      </g>
      <g id="Group_31" data-name="Group 31" transform="translate(0 11.782)">
        <g id="Group_30" data-name="Group 30">
          <path id="Path_281" data-name="Path 281" class="cls-2" d="M69.6,55.089A52.053,52.053,0,0,0,9.484,134.013a2.263,2.263,0,0,0,3.7-2.6A47.537,47.537,0,0,1,68.077,59.35,2.263,2.263,0,0,0,69.6,55.089Z" transform="translate(-0.036 -52.064)"/>
        </g>
      </g>
      <g id="Group_33" data-name="Group 33" transform="translate(11.765 0)">
        <g id="Group_32" data-name="Group 32">
          <path id="Path_282" data-name="Path 282" class="cls-2" d="M155.937,18.764a2.262,2.262,0,0,0-2.091-1.4H141.957l1.279-1.279a2.263,2.263,0,0,0-3.2-3.2l-1.295,1.295V2.262a2.263,2.263,0,0,0-3.862-1.6L114.932,20.609a2.263,2.263,0,0,0-.663,1.6v7.849A39.827,39.827,0,0,0,92.3,23.547a40.275,40.275,0,1,0,20.854,74.737,2.263,2.263,0,0,0-2.346-3.87,35.753,35.753,0,1,1,3.459-58.8v3.038l-4.123,4.123a27.638,27.638,0,1,0,3.2,3.2l4.14-4.14h3.01a35.768,35.768,0,0,1,2.21,40.8,2.263,2.263,0,1,0,3.846,2.385,40.293,40.293,0,0,0-.5-43.184h7.85a2.263,2.263,0,0,0,1.6-.663l19.947-19.947A2.261,2.261,0,0,0,155.937,18.764ZM115.381,63.822a23.1,23.1,0,1,1-8.446-17.833l-5.153,5.153a15.853,15.853,0,1,0,3.2,3.2l5.153-5.153A22.973,22.973,0,0,1,115.381,63.822ZM90.7,65.422a2.262,2.262,0,0,0,3.2,0l7.834-7.834a11.327,11.327,0,1,1-3.2-3.2L90.7,62.222A2.263,2.263,0,0,0,90.7,65.422ZM118.795,34.13V23.146L134.216,7.725V18.709Zm14.168,3.184H122.011l15.421-15.421h10.951Z" transform="translate(-52.027 0.001)"/>
        </g>
      </g>
      <g id="Group_35" data-name="Group 35" transform="translate(14.535 96.712)">
        <g id="Group_34" data-name="Group 34">
          <path id="Path_283" data-name="Path 283" class="cls-2" d="M68.129,428.032a2.261,2.261,0,1,0,.663,1.6A2.279,2.279,0,0,0,68.129,428.032Z" transform="translate(-64.267 -427.369)"/>
        </g>
      </g>
    </g>
  </g>
</svg>
