<svg xmlns="http://www.w3.org/2000/svg" xmlns:xlink="http://www.w3.org/1999/xlink" width="324" height="290" viewBox="0 0 324 290">
  <defs>
    <style>
      .cls-1, .cls-4 {
        fill: #fff;
      }

      .cls-1 {
        opacity: 0;
      }

      .cls-2 {
        fill: #caf1c4;
      }

      .cls-3 {
        fill: #3f3d56;
      }

      .cls-5 {
        fill: #e6e8ec;
      }

      .cls-6 {
        fill: #1bbc07;
      }

      .cls-7 {
        fill: url(#linear-gradient);
      }

      .cls-8 {
        fill: #feb9b9;
      }

      .cls-9 {
        fill: #2f2e41;
      }

      .cls-10 {
        opacity: 0.1;
      }

      .cls-11 {
        fill: #efefef;
      }

      .cls-12, .cls-14 {
        fill: none;
      }

      .cls-12 {
        stroke: #508ed6;
        stroke-width: 3px;
      }

      .cls-13 {
        stroke: none;
      }

      .cls-15 {
        filter: url(#Ellipse_645);
      }

      .cls-16 {
        filter: url(#Ellipse_644);
      }

      .cls-17 {
        filter: url(#Ellipse_643);
      }

      .cls-18 {
        filter: url(#Ellipse_642);
      }
    </style>
    <linearGradient id="linear-gradient" x1="0.505" y1="1.007" x2="0.505" gradientUnits="objectBoundingBox">
      <stop offset="0" stop-color="gray" stop-opacity="0.251"/>
      <stop offset="0.54" stop-color="gray" stop-opacity="0.122"/>
      <stop offset="1" stop-color="gray" stop-opacity="0.102"/>
    </linearGradient>
    <filter id="Ellipse_642" x="42.278" y="74.662" width="27.929" height="27.929" filterUnits="userSpaceOnUse">
      <feOffset dy="3" input="SourceAlpha"/>
      <feGaussianBlur stdDeviation="3" result="blur"/>
      <feFlood flood-color="#2db22b" flood-opacity="0.553"/>
      <feComposite operator="in" in2="blur"/>
      <feComposite in="SourceGraphic"/>
    </filter>
    <filter id="Ellipse_643" x="222.807" y="33.141" width="27.026" height="27.026" filterUnits="userSpaceOnUse">
      <feOffset dy="3" input="SourceAlpha"/>
      <feGaussianBlur stdDeviation="3" result="blur-2"/>
      <feFlood flood-color="#2db22b" flood-opacity="0.553"/>
      <feComposite operator="in" in2="blur-2"/>
      <feComposite in="SourceGraphic"/>
    </filter>
    <filter id="Ellipse_644" x="159.622" y="202.838" width="27.929" height="27.929" filterUnits="userSpaceOnUse">
      <feOffset dy="3" input="SourceAlpha"/>
      <feGaussianBlur stdDeviation="3" result="blur-3"/>
      <feFlood flood-color="#2db22b" flood-opacity="0.553"/>
      <feComposite operator="in" in2="blur-3"/>
      <feComposite in="SourceGraphic"/>
    </filter>
    <filter id="Ellipse_645" x="245.373" y="202.838" width="27.929" height="27.929" filterUnits="userSpaceOnUse">
      <feOffset dy="3" input="SourceAlpha"/>
      <feGaussianBlur stdDeviation="3" result="blur-4"/>
      <feFlood flood-color="#2db22b" flood-opacity="0.553"/>
      <feComposite operator="in" in2="blur-4"/>
      <feComposite in="SourceGraphic"/>
    </filter>
  </defs>
  <g id="Group_390" data-name="Group 390" transform="translate(-1359 -1903)">
    <rect id="Rectangle_351" data-name="Rectangle 351" class="cls-1" width="324" height="290" transform="translate(1359 1903)"/>
    <g id="Group_389" data-name="Group 389" transform="translate(1389.542 1919.093)">
      <path id="Path_1063" data-name="Path 1063" class="cls-2" d="M9142.246,3310.583c-113.23-22.338-135.914,42.388-113.4,77.074s40.739,36.791,34.613,65.982.424,84.188,43.031,81.885,90.843,35.9,122.572-25.025,6.113-87.174,13.145-101.18S9255.479,3332.921,9142.246,3310.583Z" transform="translate(-9021.028 -3305.999)"/>
      <g id="Group_22" data-name="Group 22" transform="translate(21.069 44.145)">
        <g id="Group_2" data-name="Group 2" transform="translate(58.223)">
          <rect id="Rectangle_76" data-name="Rectangle 76" class="cls-3" width="2.622" height="21.606" rx="1.311" transform="translate(86.29 40.435)"/>
          <rect id="Rectangle_80" data-name="Rectangle 80" class="cls-3" width="87.704" height="178.246" rx="38.99"/>
          <path id="Path_176" data-name="Path 176" class="cls-4" d="M534.63,199H524.57v1.21a5.735,5.735,0,0,1-5.738,5.735h-32a5.735,5.735,0,0,1-5.738-5.735V199h-9.42a6.965,6.965,0,0,0-6.966,6.965V361.008a6.965,6.965,0,0,0,6.966,6.965H534.63a6.965,6.965,0,0,0,6.966-6.965V205.977A6.966,6.966,0,0,0,534.63,199Z" transform="translate(-459.133 -194.357)"/>
          <rect id="Rectangle_81" data-name="Rectangle 81" class="cls-5" width="12.247" height="2.486" rx="1.243" transform="translate(35.392 5.323)"/>
          <circle id="Ellipse_5" data-name="Ellipse 5" class="cls-5" cx="1.412" cy="1.412" r="1.412" transform="translate(49.492 5.155)"/>
          <circle id="Ellipse_11" data-name="Ellipse 11" class="cls-4" cx="16.591" cy="16.591" r="16.591" transform="translate(27.797 74.72)"/>
          <path id="Path_222" data-name="Path 222" class="cls-6" d="M564.559,431.785a22.175,22.175,0,1,1-22.175-22.175A22.175,22.175,0,0,1,564.559,431.785Zm-24.737,11.738,16.449-16.449a1.429,1.429,0,0,0,0-2.024l-2.024-2.009a1.426,1.426,0,0,0-2.021,0L538.81,436.457l-6.264-6.279a1.435,1.435,0,0,0-2.024,0l-2.024,2.036a1.435,1.435,0,0,0,0,2.024l9.3,9.3a1.429,1.429,0,0,0,2.024,0Z" transform="translate(-498.35 -342.791)"/>
        </g>
        <g id="Group_1" data-name="Group 1" transform="translate(0 23.403)">
          <rect id="Rectangle_77" data-name="Rectangle 77" class="cls-3" width="1.322" height="6.394" rx="0.661" transform="translate(60.193 11.738)"/>
          <rect id="Rectangle_78" data-name="Rectangle 78" class="cls-3" width="1.489" height="11.128" rx="0.745" transform="translate(60.146 23.446)"/>
          <rect id="Rectangle_79" data-name="Rectangle 79" class="cls-3" width="1.418" height="11.224" rx="0.709" transform="translate(60.169 38.468)"/>
          <path id="Path_190" data-name="Path 190" class="cls-7" d="M377.46,474.88a.245.245,0,0,0,.29.037A1.026,1.026,0,0,1,377.46,474.88Z" transform="translate(-334.858 -406.731)"/>
          <path id="Path_192" data-name="Path 192" class="cls-8" d="M376.77,491l-.286,1.559-.221,1.192-.4,2.181-3.894,2.726s-.351-.3-.93-.774a67.854,67.854,0,0,0-7.413-5.426,8.3,8.3,0,0,0-2.037-.939Z" transform="translate(-323.207 -418.564)"/>
          <path id="Path_194" data-name="Path 194" class="cls-3" d="M365.213,483.521s4.54.779,4.806-1.16-2.337-2.987-4.543-3.117-15.445.779-15.445.779-2.335,3.115,6.1,3.636Z" transform="translate(-314.507 -409.925)"/>
          <rect id="Rectangle_82" data-name="Rectangle 82" class="cls-9" width="23.752" height="28.164" transform="translate(36.883 9.612)"/>
          <rect id="Rectangle_83" data-name="Rectangle 83" class="cls-10" width="23.752" height="28.164" transform="translate(36.883 9.74)"/>
          <path id="Path_198" data-name="Path 198" class="cls-8" d="M226.335,429.61a3.811,3.811,0,0,0-1.447,1.024c-2.394,2.37-5.822,7.932-5.822,7.932-4.383-5.221.467-9.347,2.535-10.764.5-.343.84-.532.84-.532Z" transform="translate(-217.289 -371.784)"/>
          <path id="Path_199" data-name="Path 199" class="cls-8" d="M382.949,288.22s1.169,8.176,5.192,10.123-5.192,5.585-5.192,5.585l-12.589-4.676s7.139-2.337,5.71-9.216Z" transform="translate(-329.647 -269.719)"/>
          <path id="Path_200" data-name="Path 200" class="cls-8" d="M325,473.16l-.285,1.553-.231,1.2-.4,2.181-3.894,2.724s-.351-.3-.93-.771a67.56,67.56,0,0,0-7.416-5.426,8.245,8.245,0,0,0-2.037-.939Z" transform="translate(-285.201 -405.469)"/>
          <path id="Path_202" data-name="Path 202" class="cls-9" d="M312.8,466.439s4.075.029,4.32-1.916-2.221-2.987-4.32-3.117-14.854.84-14.854.84-1.81,3.672,6.213,4.193Z" transform="translate(-276.365 -396.833)"/>
          <path id="Path_204" data-name="Path 204" class="cls-3" d="M374.977,497.051c-.178-.088-.357-.178-.532-.266l-.479-.6-6.28-7.963v.138c-.042,1.33-.495,11.868-4.022,12.841-3.764,1.037-8.3,1.3-10.373-5.71s-5.851-22.324-9.735-23.233l5.777-4.737a34.607,34.607,0,0,1,5.383,8.756c-.058-.266-2.7-12.607-.532-14.791h18.952s2.926,8.333,4.931,12.461c1.561,3.2,3.9,10.783,5.413,15.911A6.088,6.088,0,0,1,374.977,497.051Z" transform="translate(-309.973 -396.897)"/>
          <path id="Path_205" data-name="Path 205" class="cls-10" d="M401.328,420.081c-2.926,1.732-15.77,1.027-19.948.745l-1.138-.083c-.122,0,.019-.069.019-.069l.117-1.178,3.115-7.916,16.677-9.671a14.515,14.515,0,0,0-.423,4.362A101.289,101.289,0,0,0,401.328,420.081Z" transform="translate(-336.863 -353.169)"/>
          <path id="Path_206" data-name="Path 206" class="cls-11" d="M400.945,418.634c-2.926,1.732-15.77,1.027-19.948.745l-1.138-.08-.189-.016.207-.053,1.027-.266,2.2-8.825,16.677-9.668a14.521,14.521,0,0,0-.423,4.362A101.246,101.246,0,0,0,400.945,418.634Z" transform="translate(-336.48 -352.113)"/>
          <path id="Path_207" data-name="Path 207" class="cls-10" d="M399.843,404.827c-3.391.782-10.854,3.076-13.722,8.618-1.912,3.689-3.521,5.272-4.644,5.934l-1.138-.08a.67.67,0,0,0,.019-.069l1.027-.266,2.2-8.825,16.677-9.668A14.588,14.588,0,0,0,399.843,404.827Z" transform="translate(-336.972 -352.113)"/>
          <path id="Path_208" data-name="Path 208" class="cls-10" d="M234.341,427.29l3.894,2.335a3.812,3.812,0,0,0-1.447,1.024c-.325-.947-2.361-2.269-3.288-2.833C234,427.479,234.341,427.29,234.341,427.29Z" transform="translate(-229.189 -371.799)"/>
          <path id="Path_209" data-name="Path 209" class="cls-10" d="M377,471.727a.231.231,0,0,1-.266-.037.921.921,0,0,0,.266.037Z" transform="translate(-334.322 -404.39)"/>
          <path id="Path_210" data-name="Path 210" class="cls-6" d="M280.454,269.55a7.717,7.717,0,0,1-5.971-2.208s-10.374,2.987-13.887,9.735-27.4,19.988-27.4,19.988,4.155,2.335,3.764,3.5l15.706-9.086s5.585-4.022,7.136-4.931,10.126-6.49,11.942,8.695,0,13.368,0,13.368,2.6.91,6.359-6.36S293.55,293.3,293.55,293.3l.649-7.655s2.317-5.075.532-7.181a4.522,4.522,0,0,1-1.04-2.2c-.3-1.944,0-5.184,4.133-7.876,6.359-4.155,8.825-7.527,8.825-7.527s.13-2.468-3.764-3.636-19.728-7.527-19.728-7.527l-.532,2.208,12.493,8.817s-6.229,5.053-11.171,4.931C283.948,265.656,284.866,269.419,280.454,269.55Z" transform="translate(-228.968 -241.444)"/>
          <path id="Path_211" data-name="Path 211" class="cls-10" d="M398.5,292.85a25.351,25.351,0,0,1-.718-3.171l-6.878,1.817a7.54,7.54,0,0,1-.157,3.968A7.4,7.4,0,0,0,398.5,292.85Z" transform="translate(-344.613 -270.79)"/>
          <circle id="Ellipse_10" data-name="Ellipse 10" class="cls-8" cx="7.397" cy="7.397" r="7.397" transform="translate(40.78 9.743)"/>
          <path id="Path_213" data-name="Path 213" class="cls-10" d="M428.67,507.07s4.282,8.437,2.984,11.03" transform="translate(-372.448 -430.36)"/>
          <path id="Path_221" data-name="Path 221" class="cls-9" d="M357.656,218.716c2.053.234,4,1.114,6.024,1.6a2.99,2.99,0,0,0,1.559.058c.785-.242,1.423-1.064,2.237-1.04a2.479,2.479,0,0,1,1.356.683,16.679,16.679,0,0,1,1.862,1.66c1.394,1.513,2.258,3.551,3.529,5.2s3.084,3.577,4.89,2.822a10.44,10.44,0,0,1-9.414,8.081c-1.737.119-3.516-.242-5.2.266a4.5,4.5,0,0,1-1.312.319c-.968,0-1.748-.888-2.351-1.753-1.415-2.032-2.535-4.338-4.128-6.192a3.4,3.4,0,0,0-1.891-1.309,3.5,3.5,0,0,0-2.09.588,9.81,9.81,0,0,0-3.059,2.128,4.234,4.234,0,0,0-1.032,3.724,8.684,8.684,0,0,1,.628,2.085c.016,1.181-1.027,2.043-1.231,3.192a11.962,11.962,0,0,0-.051,1.452,5.955,5.955,0,0,1-2.194,3.854,2.767,2.767,0,0,0-1.005,1.391c-.082.407,0,.835-.053,1.247a2.263,2.263,0,0,1-2.077,1.673,5.992,5.992,0,0,1-3.117-.37,3.594,3.594,0,0,0,1.745-3.812c-.4-2.107-2.519-3.62-2.337-5.764a6.678,6.678,0,0,1,.585-1.9,17.371,17.371,0,0,0,1-3.593,6.054,6.054,0,0,0-.061-2.864,8.9,8.9,0,0,0-1.293-2.178,12.388,12.388,0,0,1-1.5-3.067,2.157,2.157,0,0,1-.143-1.016,2.1,2.1,0,0,1,.652-1.051c1.157-1.216,2.394-2.479,3.945-2.827a8.877,8.877,0,0,1,2.239-.085,26.437,26.437,0,0,0,3.891-.165c1.064-.125,2.862-.109,3.764-.8.84-.644,1.314-1.452,2.348-1.862a6.916,6.916,0,0,1,3.282-.375Z" transform="translate(-305.546 -218.66)"/>
        </g>
      </g>
      <g class="cls-18" transform="matrix(1, 0, 0, 1, -30.54, -16.09)">
        <g id="Ellipse_642-2" data-name="Ellipse 642" class="cls-12" transform="translate(51.28 80.66)">
          <circle class="cls-13" cx="4.965" cy="4.965" r="4.965"/>
          <circle class="cls-14" cx="4.965" cy="4.965" r="3.465"/>
        </g>
      </g>
      <g class="cls-17" transform="matrix(1, 0, 0, 1, -30.54, -16.09)">
        <g id="Ellipse_643-2" data-name="Ellipse 643" class="cls-12" transform="translate(231.81 39.14)">
          <circle class="cls-13" cx="4.513" cy="4.513" r="4.513"/>
          <circle class="cls-14" cx="4.513" cy="4.513" r="3.013"/>
        </g>
      </g>
      <g class="cls-16" transform="matrix(1, 0, 0, 1, -30.54, -16.09)">
        <g id="Ellipse_644-2" data-name="Ellipse 644" class="cls-12" transform="translate(168.62 208.84)">
          <circle class="cls-13" cx="4.965" cy="4.965" r="4.965"/>
          <circle class="cls-14" cx="4.965" cy="4.965" r="3.465"/>
        </g>
      </g>
      <g class="cls-15" transform="matrix(1, 0, 0, 1, -30.54, -16.09)">
        <g id="Ellipse_645-2" data-name="Ellipse 645" class="cls-12" transform="translate(254.37 208.84)">
          <circle class="cls-13" cx="4.965" cy="4.965" r="4.965"/>
          <circle class="cls-14" cx="4.965" cy="4.965" r="3.465"/>
        </g>
      </g>
    </g>
  </g>
</svg>
