<svg xmlns="http://www.w3.org/2000/svg" xmlns:xlink="http://www.w3.org/1999/xlink" width="324" height="290" viewBox="0 0 324 290">
  <defs>
    <style>
      .cls-1, .cls-22, .cls-29, .cls-3 {
        fill: #fff;
      }

      .cls-1 {
        opacity: 0;
      }

      .cls-2 {
        fill: #caf1c4;
      }

      .cls-14, .cls-16, .cls-18, .cls-22, .cls-24, .cls-4 {
        opacity: 0.1;
      }

      .cls-31, .cls-32, .cls-33, .cls-4 {
        isolation: isolate;
      }

      .cls-5 {
        fill: #2f2e41;
      }

      .cls-6 {
        fill: #fbbebe;
      }

      .cls-31, .cls-7 {
        fill: #3f3d56;
      }

      .cls-8 {
        fill: #b3b3b3;
      }

      .cls-9 {
        fill: #d0cde1;
      }

      .cls-10 {
        opacity: 0.2;
      }

      .cls-11, .cls-33 {
        fill: #1bbc07;
      }

      .cls-12 {
        fill: #e6e6e6;
      }

      .cls-13 {
        fill: #65617d;
      }

      .cls-15, .cls-16 {
        fill: #333f4f;
      }

      .cls-17 {
        fill: #512e4e;
      }

      .cls-19, .cls-24 {
        fill: #2ea448;
      }

      .cls-20 {
        fill: #e1dee5;
      }

      .cls-21 {
        fill: #d9d6df;
      }

      .cls-23 {
        fill: #2d394a;
        stroke: #40868e;
        stroke-miterlimit: 10;
      }

      .cls-25 {
        fill: #ffd037;
      }

      .cls-26 {
        fill: #9d9cb5;
      }

      .cls-27 {
        fill: #d3dae1;
      }

      .cls-28 {
        fill: #535461;
      }

      .cls-29 {
        opacity: 0.3;
      }

      .cls-30 {
        fill: #f2f2f2;
      }

      .cls-32, .cls-34 {
        fill: #ccc;
      }

      .cls-35, .cls-37 {
        fill: none;
      }

      .cls-35 {
        stroke: #508ed6;
        stroke-width: 3px;
      }

      .cls-36 {
        stroke: none;
      }

      .cls-38 {
        filter: url(#Ellipse_641);
      }

      .cls-39 {
        filter: url(#Ellipse_640);
      }

      .cls-40 {
        filter: url(#Ellipse_639);
      }

      .cls-41 {
        filter: url(#Ellipse_638);
      }
    </style>
    <filter id="Ellipse_638" x="60.066" y="92.181" width="28.395" height="28.395" filterUnits="userSpaceOnUse">
      <feOffset dy="3" input="SourceAlpha"/>
      <feGaussianBlur stdDeviation="3" result="blur"/>
      <feFlood flood-color="#2db22b" flood-opacity="0.553"/>
      <feComposite operator="in" in2="blur"/>
      <feComposite in="SourceGraphic"/>
    </filter>
    <filter id="Ellipse_639" x="175.709" y="196.778" width="28.395" height="28.395" filterUnits="userSpaceOnUse">
      <feOffset dy="3" input="SourceAlpha"/>
      <feGaussianBlur stdDeviation="3" result="blur-2"/>
      <feFlood flood-color="#2db22b" flood-opacity="0.553"/>
      <feComposite operator="in" in2="blur-2"/>
      <feComposite in="SourceGraphic"/>
    </filter>
    <filter id="Ellipse_640" x="205.881" y="7.016" width="28.395" height="28.395" filterUnits="userSpaceOnUse">
      <feOffset dy="3" input="SourceAlpha"/>
      <feGaussianBlur stdDeviation="3" result="blur-3"/>
      <feFlood flood-color="#2db22b" flood-opacity="0.553"/>
      <feComposite operator="in" in2="blur-3"/>
      <feComposite in="SourceGraphic"/>
    </filter>
    <filter id="Ellipse_641" x="124.385" y="140.906" width="28.395" height="28.395" filterUnits="userSpaceOnUse">
      <feOffset dy="3" input="SourceAlpha"/>
      <feGaussianBlur stdDeviation="3" result="blur-4"/>
      <feFlood flood-color="#2db22b" flood-opacity="0.553"/>
      <feComposite operator="in" in2="blur-4"/>
      <feComposite in="SourceGraphic"/>
    </filter>
  </defs>
  <g id="Group_388" data-name="Group 388" transform="translate(-971 -1903)">
    <rect id="Rectangle_353" data-name="Rectangle 353" class="cls-1" width="324" height="290" transform="translate(971 1903)"/>
    <g id="Group_387" data-name="Group 387" transform="translate(-15837.566 155.894)">
      <path id="Path_1062" data-name="Path 1062" class="cls-2" d="M27.577,105.471c39.355,65.806-5.641,51.76-24.714,98.4s62.058,55.944,98.147,64.749,89.894-41.675,79.133-140.161S111.165-.3,96.513,0-11.778,39.666,27.577,105.471Z" transform="matrix(-0.469, -0.883, 0.883, -0.469, 16893.795, 2035.966)"/>
      <g id="Group_114" data-name="Group 114" transform="translate(16851.922 1797.439)">
        <path id="Path_708" data-name="Path 708" class="cls-3" d="M638.315,164.971a54.739,54.739,0,1,1,28.431,48.024c-3.785,2.693-13.02,8.065-22.142,4.2l10.981-12.31a54.6,54.6,0,0,1-17.27-39.91Z" transform="translate(-502.244 -109.536)"/>
        <path id="Path_709" data-name="Path 709" class="cls-4" d="M865.675,165.39a54.763,54.763,0,0,0-49.92-54.545c1.6-.14,3.209-.215,4.84-.215a54.76,54.76,0,1,1,0,109.521c-1.629,0-3.24-.077-4.832-.216A54.763,54.763,0,0,0,865.675,165.39Z" transform="translate(-629.412 -109.837)"/>
        <path id="Path_711" data-name="Path 711" class="cls-3" d="M302.435,412.363A54.739,54.739,0,1,0,274,460.387c3.785,2.693,13.02,8.065,22.142,4.2l-10.981-12.31a54.6,54.6,0,0,0,17.27-39.91Z" transform="translate(-183.033 -286.838)"/>
        <path id="Path_712" data-name="Path 712" class="cls-4" d="M202.594,411.386a54.763,54.763,0,0,1,49.92-54.545c-1.6-.14-3.209-.215-4.84-.215a54.76,54.76,0,1,0,0,109.521c1.629,0,3.24-.077,4.832-.216A54.763,54.763,0,0,1,202.594,411.386Z" transform="translate(-183.033 -286.139)"/>
        <circle id="Ellipse_160" data-name="Ellipse 160" class="cls-5" cx="5.11" cy="5.11" r="5.11" transform="translate(0 113.392)"/>
        <path id="Path_734" data-name="Path 734" class="cls-6" d="M63.828,480.182l-2.574-2.5-5.168,1.605.5,5.984,10.626-.494-3.264-4.436Z" transform="translate(-40.196 -346.511)"/>
        <circle id="Ellipse_161" data-name="Ellipse 161" class="cls-6" cx="8.261" cy="8.261" r="8.261" transform="translate(9.741 117.097)"/>
        <path id="Path_735" data-name="Path 735" class="cls-5" d="M391.058,617.061s10.149,17.441,12.564,20.059a43.831,43.831,0,0,0,3.665,3.653s-1.136,3.766-2.944,3.632a8.508,8.508,0,0,1-2.983-.735,7.237,7.237,0,0,0-2.215-3.01c-1.408-.918-12.91-12.234-12.641-15.85S391.058,617.061,391.058,617.061Z" transform="translate(-321.771 -472.788)"/>
        <path id="Path_736" data-name="Path 736" class="cls-5" d="M275.023,676.585s10.821,8.4,25.526.507l1.267-.933a49.916,49.916,0,0,0-2.337,6.116c-.23,1.512-5.8,10.372-6.707,10.8a2.357,2.357,0,0,0-1.109.816l3.856,4.244,1.426-1.049s5.559-7.876,7.185-9.317,9.373-16.3,9.373-16.3,2.962-5.6-4.43-6.02-10.793,1.594-10.793,1.594l-13.119,2.084Z" transform="translate(-241.879 -507.423)"/>
        <path id="Path_737" data-name="Path 737" class="cls-5" d="M440.6,697.841l5.473,3.787s6.982,2.188,2.681,3.643-15.636,1.983-15.893-.026.447-5.17,1.013-5A5.843,5.843,0,0,0,440.6,697.841Z" transform="translate(-354.962 -530.682)"/>
        <path id="Path_1253" data-name="Path 1253" class="cls-5" d="M440.6,697.841l5.473,3.787s6.982,2.188,2.681,3.643-15.636,1.983-15.893-.026.447-5.17,1.013-5A5.843,5.843,0,0,0,440.6,697.841Z" transform="translate(184.016 -631.078) rotate(41)"/>
        <path id="Path_739" data-name="Path 739" class="cls-3" d="M234.718,605.261s-7.356,8.588-11.821,6.5-22.736-26.249-20.65-30.714,2.786-3.515,2.786-3.515l9.433.872-2.714-4.352a1.836,1.836,0,0,1,2.475.376c1.208,1.309,6.056,4.579,7.745,9.2s6.648,4.388,6.648,4.388Z" transform="translate(-189.603 -441.735)"/>
        <path id="Path_740" data-name="Path 740" class="cls-7" d="M202.937,479.425,190.186,492.96l-11.422-20.167,10.859-13.12Z" transform="translate(-128.118 -333.607)"/>
        <path id="Path_741" data-name="Path 741" class="cls-3" d="M205.158,482.115l-11.516,11.894L183.206,475.68l9.57-12.049Z" transform="translate(-131.301 -336.443)"/>
        <path id="Path_742" data-name="Path 742" class="cls-8" d="M171.914,575.336l.625.517-.4.783-17.829,5.307-.169-.611.811-.839Z" transform="translate(-110.47 -416.5)"/>
        <path id="Path_743" data-name="Path 743" class="cls-9" d="M144.465,526.031,126,531.8l-11.255-21.267,18.137-4.556Z" transform="translate(-82.238 -366.794)"/>
        <path id="Path_744" data-name="Path 744" class="cls-7" d="M190.49,528.356l-.792.583-8.791-15.265.909-.424Z" transform="translate(-129.654 -372.004)"/>
        <path id="Path_745" data-name="Path 745" class="cls-7" d="M166.133,531.247l-7.81,2.329-8.866-15.7,7.727-1.779Z" transform="translate(-107.114 -374.046)"/>
        <path id="Path_746" data-name="Path 746" class="cls-6" d="M286.182,619.973l1.617-.457s9.018-1.02,9.15,1.814-10.36,1.519-10.36,1.519l-1.4-1.9Z" transform="translate(-249.165 -474.419)"/>
        <path id="Path_747" data-name="Path 747" class="cls-6" d="M311.513,649.925l2.251-.924s6.794-3.046,4.845-5.031-7.96,1.462-7.96,1.462l-1.151,1.091Z" transform="translate(-266.587 -491.632)"/>
        <path id="Path_748" data-name="Path 748" class="cls-3" d="M233.6,624.159s3.665,3.652,2.831,4.51-14.508,12.142-17.9,8.531-19.905-21.738-13.479-23.293,8.124,2.08,8.124,2.08l8.484,14.514Z" transform="translate(-190.679 -470.251)"/>
        <path id="Path_749" data-name="Path 749" class="cls-3" d="M111.637,518.781l6.02,2.041-.1,4.346-6.367-.687Z" transform="translate(-79.69 -375.968)"/>
        <path id="Path_750" data-name="Path 750" class="cls-10" d="M96.761,546.66l-6.486,3.8-7.41-11.4,7.153,9.388Z" transform="translate(-59.388 -390.501)"/>
        <circle id="Ellipse_162" data-name="Ellipse 162" class="cls-5" cx="9.834" cy="9.834" r="9.834" transform="translate(4.542 113.129)"/>
        <path id="Path_751" data-name="Path 751" class="cls-11" d="M220.881,497.795l-6.886-10.073,2.919-3.613,7.155,10.364Z" transform="translate(-153.367 -351.118)"/>
        <path id="Path_752" data-name="Path 752" class="cls-12" d="M211.1,506.579l-10.483-15.24.517-.625,10.434,15.276Z" transform="translate(-143.776 -355.853)"/>
        <path id="Path_753" data-name="Path 753" class="cls-12" d="M206.328,511.812l-10.483-15.24.517-.625L206.8,511.224Z" transform="translate(-140.36 -359.603)"/>
        <path id="Path_754" data-name="Path 754" class="cls-12" d="M202.266,515.663l-10.483-15.24.517-.625,10.434,15.277Z" transform="translate(-137.448 -362.363)"/>
        <path id="Path_755" data-name="Path 755" class="cls-5" d="M66.117,425.544h3.042a5.808,5.808,0,0,1,5.808,5.808h-8.85Z" transform="translate(-47.385 -309.147)"/>
        <path id="Path_756" data-name="Path 756" class="cls-7" d="M364.271,505.522l-.552-.041c-.021.287-.037.575-.055.863l-2.476-.083,2.6,4.866,2.916-4.681-2.485-.083C364.235,506.082,364.25,505.8,364.271,505.522Z" transform="translate(-303.632 -392.82)"/>
        <path id="Path_757" data-name="Path 757" class="cls-7" d="M423.317,359.094l.44.336c.659-.864,1.348-1.726,2.048-2.563l-.425-.355C424.675,357.355,423.981,358.223,423.317,359.094Z" transform="translate(-348.158 -286.056)"/>
        <path id="Path_758" data-name="Path 758" class="cls-7" d="M438.272,341.682l.408.373c.734-.8,1.5-1.6,2.264-2.372l-.392-.391C439.779,340.068,439.011,340.872,438.272,341.682Z" transform="translate(-358.877 -273.715)"/>
        <path id="Path_759" data-name="Path 759" class="cls-7" d="M454.736,325.706l.374.408c.8-.737,1.631-1.465,2.463-2.164l-.356-.423C456.379,324.23,455.544,324.964,454.736,325.706Z" transform="translate(-370.676 -262.417)"/>
        <path id="Path_760" data-name="Path 760" class="cls-7" d="M409.991,377.809l.467.3c.581-.92,1.192-1.84,1.814-2.735l-.454-.316C411.192,375.955,410.577,376.882,409.991,377.809Z" transform="translate(-338.608 -299.345)"/>
        <path id="Path_761" data-name="Path 761" class="cls-7" d="M472.579,311.288l.337.439c.864-.664,1.753-1.316,2.643-1.938l-.317-.453C474.345,309.963,473.449,310.619,472.579,311.288Z" transform="translate(-383.464 -252.246)"/>
        <path id="Path_762" data-name="Path 762" class="cls-7" d="M398.406,397.688l.492.253c.5-.969,1.025-1.94,1.566-2.886l-.48-.275C399.439,395.733,398.908,396.711,398.406,397.688Z" transform="translate(-330.306 -313.483)"/>
        <path id="Path_763" data-name="Path 763" class="cls-7" d="M376.317,459.648l-.536-.138c-.273,1.061-.526,2.144-.752,3.217l.541.114C375.795,461.776,376.046,460.7,376.317,459.648Z" transform="translate(-313.551 -359.874)"/>
        <path id="Path_764" data-name="Path 764" class="cls-7" d="M491.665,298.543l.3.467c.917-.583,1.859-1.154,2.8-1.7l-.276-.479C493.538,297.381,492.588,297.956,491.665,298.543Z" transform="translate(-397.143 -243.286)"/>
        <path id="Path_765" data-name="Path 765" class="cls-7" d="M372.255,482.416l-.546-.09c-.178,1.08-.334,2.18-.464,3.271l.549.065C371.924,484.58,372.079,483.488,372.255,482.416Z" transform="translate(-310.84 -376.226)"/>
        <path id="Path_766" data-name="Path 766" class="cls-7" d="M388.661,418.582l.512.208c.41-1.009.849-2.024,1.3-3.015l-.5-.231C389.516,416.543,389.074,417.565,388.661,418.582Z" transform="translate(-323.321 -328.364)"/>
        <path id="Path_767" data-name="Path 767" class="cls-7" d="M380.841,440.332l.529.161c.319-1.044.666-2.094,1.03-3.121l-.521-.185C381.512,438.222,381.162,439.28,380.841,440.332Z" transform="translate(-317.717 -343.875)"/>
        <path id="Path_768" data-name="Path 768" class="cls-7" d="M623.685,262.44c1.084-.038,2.189-.053,3.281-.042l0-.553c-1.1-.01-2.213,0-3.3.043Z" transform="translate(-491.745 -218.208)"/>
        <path id="Path_769" data-name="Path 769" class="cls-7" d="M511.845,287.576l.254.491c.966-.5,1.955-.985,2.939-1.441l-.233-.5C513.814,286.583,512.818,287.072,511.845,287.576Z" transform="translate(-411.605 -235.611)"/>
        <path id="Path_770" data-name="Path 770" class="cls-7" d="M669.93,265c1.079.153,2.168.332,3.237.532l.1-.544c-1.076-.2-2.174-.382-3.261-.536Z" transform="translate(-524.903 -220.081)"/>
        <path id="Path_771" data-name="Path 771" class="cls-7" d="M692.685,269.283c1.059.247,2.128.522,3.177.817l.15-.533c-1.056-.3-2.133-.574-3.2-.823Z" transform="translate(-541.211 -223.155)"/>
        <path id="Path_772" data-name="Path 772" class="cls-7" d="M714.969,275.582c1.033.341,2.073.71,3.091,1.1l.2-.517c-1.026-.39-2.074-.762-3.114-1.105Z" transform="translate(-557.181 -227.679)"/>
        <path id="Path_773" data-name="Path 773" class="cls-7" d="M646.886,262.762c1.089.057,2.19.139,3.272.244l.053-.55c-1.09-.105-2.2-.188-3.3-.246Z" transform="translate(-508.387 -218.472)"/>
        <path id="Path_774" data-name="Path 774" class="cls-7" d="M600.423,262.992l.068.549c1.078-.133,2.176-.243,3.262-.329l-.043-.552C602.615,262.747,601.509,262.858,600.423,262.992Z" transform="translate(-475.088 -218.795)"/>
        <path id="Path_775" data-name="Path 775" class="cls-7" d="M554.878,271.3l.164.528c1.039-.322,2.1-.625,3.153-.9l-.14-.535C556.994,270.673,555.925,270.978,554.878,271.3Z" transform="translate(-442.446 -224.339)"/>
        <path id="Path_776" data-name="Path 776" class="cls-7" d="M532.961,278.476l.21.512c1.006-.413,2.033-.808,3.053-1.174l-.187-.52C535.009,277.662,533.974,278.06,532.961,278.476Z" transform="translate(-426.739 -229.282)"/>
        <path id="Path_777" data-name="Path 777" class="cls-7" d="M577.434,266.129l.116.541c1.063-.228,2.146-.435,3.22-.616l-.092-.546C579.6,265.69,578.5,265.9,577.434,266.129Z" transform="translate(-458.612 -220.836)"/>
        <path id="Path_778" data-name="Path 778" class="cls-7" d="M741.093,281.3,738,276.729l-1.087,2.237c-.263-.117-.525-.237-.787-.351l-.22.508c.257.111.51.227.766.341l-1.082,2.227Z" transform="translate(-571.961 -228.878)"/>
        <g id="Group_107" data-name="Group 107" transform="translate(127.584 0)">
          <path id="Path_780" data-name="Path 780" class="cls-13" d="M499.58,240.058V255.3a6.821,6.821,0,0,0,6.826,6.825h9.1a6.127,6.127,0,0,0,6.131-6.135v-15.93a11.028,11.028,0,0,0-22.057,0Z" transform="translate(-453.453 -211.349)"/>
          <path id="Path_781" data-name="Path 781" class="cls-14" d="M499.58,240.058V255.3a6.821,6.821,0,0,0,6.826,6.825h9.1a6.127,6.127,0,0,0,6.131-6.135v-15.93a11.028,11.028,0,0,0-22.057,0Z" transform="translate(-453.453 -211.349)"/>
          <path id="Path_782" data-name="Path 782" class="cls-13" d="M502.11,243.52v14.788a6.619,6.619,0,0,0,6.622,6.621h8.83a5.944,5.944,0,0,0,5.948-5.947V243.52a10.7,10.7,0,1,0-21.4,0Z" transform="translate(-455.655 -214.648)"/>
          <path id="Path_783" data-name="Path 783" class="cls-14" d="M522.608,272.479v12.3a5.9,5.9,0,0,0,.893,3.149,4.852,4.852,0,0,0,4.084,2.358h6.638a4.392,4.392,0,0,0,3.811-2.358,5.313,5.313,0,0,0,.66-2.592V272.479c0-4.914-3.6-8.9-8.043-8.9a7.649,7.649,0,0,0-5.687,2.607A9.367,9.367,0,0,0,522.608,272.479Z" transform="translate(-473.495 -241.421)"/>
          <circle id="Ellipse_163" data-name="Ellipse 163" class="cls-15" cx="1.217" cy="1.217" r="1.217" transform="translate(70.133 72.088)"/>
          <circle id="Ellipse_164" data-name="Ellipse 164" class="cls-15" cx="1.217" cy="1.217" r="1.217" transform="translate(67.955 76.85)"/>
          <circle id="Ellipse_165" data-name="Ellipse 165" class="cls-15" cx="1.217" cy="1.217" r="1.217" transform="translate(46.239 77.712)"/>
          <circle id="Ellipse_166" data-name="Ellipse 166" class="cls-15" cx="1.217" cy="1.217" r="1.217" transform="translate(41.387 71.499)"/>
          <rect id="Rectangle_99" data-name="Rectangle 99" class="cls-15" width="1.524" height="9.523" transform="translate(56.338 51.81)"/>
          <rect id="Rectangle_100" data-name="Rectangle 100" class="cls-16" width="1.524" height="1.543" transform="translate(56.338 59.792)"/>
          <rect id="Rectangle_101" data-name="Rectangle 101" class="cls-15" width="2.113" height="10.567" transform="translate(58.157 70.72) rotate(180)"/>
          <path id="Path_784" data-name="Path 784" class="cls-15" d="M459.53,633.877l13.832-.566v2.222H457.31A2.452,2.452,0,0,1,459.53,633.877Z" transform="translate(-416.662 -563.225)"/>
          <path id="Path_785" data-name="Path 785" class="cls-15" d="M594.984,633.877l-13.833-.566v2.222H597.2A2.452,2.452,0,0,0,594.984,633.877Z" transform="translate(-524.449 -563.225)"/>
          <path id="Path_786" data-name="Path 786" class="cls-15" d="M506.011,633.58l11.043,5.444a2.8,2.8,0,0,1,1.555,2.508v.165l-12.9-5.623-1.815-.13-10.725,6.848h0a2.8,2.8,0,0,1,1.155-2.656l9.57-6.777Z" transform="translate(-447.853 -563.268)"/>
          <path id="Path_787" data-name="Path 787" class="cls-16" d="M578.36,492.32v1.027q.4.016.815.016c.24,0,.476,0,.708-.012V492.32Z" transform="translate(-522.021 -440.51)"/>
          <ellipse id="Ellipse_167" data-name="Ellipse 167" class="cls-15" cx="5.624" cy="1.645" rx="5.624" ry="1.645" transform="translate(51.53 49.2)"/>
          <path id="Path_788" data-name="Path 788" class="cls-15" d="M541.64,473.842a.669.669,0,0,0,.24.476,1.514,1.514,0,0,0,.179.148,10.438,10.438,0,0,0,5.2,1.021c2.353,0,4.384-.426,5.217-1.031a1.282,1.282,0,0,0,.119-.093.708.708,0,0,0,.289-.518c0-.907-2.517-1.645-5.626-1.645S541.64,472.934,541.64,473.842Z" transform="translate(-490.061 -422.999)"/>
          <path id="Path_789" data-name="Path 789" class="cls-16" d="M541.64,473.842a.669.669,0,0,0,.24.476,1.514,1.514,0,0,0,.179.148,10.438,10.438,0,0,0,5.2,1.021c2.353,0,4.384-.426,5.217-1.031a1.282,1.282,0,0,0,.119-.093.708.708,0,0,0,.289-.518c0-.907-2.517-1.645-5.626-1.645S541.64,472.934,541.64,473.842Z" transform="translate(-490.061 -422.999)"/>
          <path id="Path_790" data-name="Path 790" class="cls-16" d="M541.27,473.842a.668.668,0,0,0,.24.476c.717-.178,1.212-.327,1.212-.327s4.957.277,9.508.372a.706.706,0,0,0,.289-.518c0-.907-2.517-1.645-5.626-1.645S541.27,472.934,541.27,473.842Z" transform="translate(-489.739 -422.999)"/>
          <path id="Path_791" data-name="Path 791" class="cls-16" d="M511.27,458.65a6.611,6.611,0,0,0,5.435,2.836h8.83a5.943,5.943,0,0,0,5.071-2.836Z" transform="translate(-463.627 -411.205)"/>
          <path id="Path_792" data-name="Path 792" class="cls-16" d="M541.64,473.842a.669.669,0,0,0,.24.476,1.514,1.514,0,0,0,.179.148,84.734,84.734,0,0,0,10.422-.009,1.266,1.266,0,0,0,.119-.093.708.708,0,0,0,.289-.518c0-.907-2.517-1.645-5.626-1.645S541.64,472.934,541.64,473.842Z" transform="translate(-490.061 -422.999)"/>
          <path id="Path_793" data-name="Path 793" class="cls-15" d="M492.6,463.639a85.223,85.223,0,0,0,21.359,0,1.494,1.494,0,0,0,1.5-1.495h0a1.5,1.5,0,0,0-1.495-1.495H492.6a1.5,1.5,0,0,0-1.495,1.495h0A1.5,1.5,0,0,0,492.6,463.639Z" transform="translate(-446.081 -412.946)"/>
          <path id="Path_794" data-name="Path 794" class="cls-13" d="M631.584,609.29a6.488,6.488,0,0,0,2.48,1.653c1.006.144,1.833,3.378.432,3.63A7.9,7.9,0,0,1,630,613.386c-.4-.432-1.833-2.982-1.833-2.982Z" transform="translate(-565.374 -542.318)"/>
          <path id="Path_795" data-name="Path 795" class="cls-7" d="M546.242,475.21s3.595,6.864,3.666,7.8,3.126,4.895,3.126,4.895l-3.81,4.809a3.644,3.644,0,0,0-1.365-1.654,1.336,1.336,0,0,1-.683-1.4,1.966,1.966,0,0,1-1.545-1.078,10.523,10.523,0,0,1-1.437-2.62c0-.464-4.744-5.355-4.744-5.355l.359-5.211.971-1.653Z" transform="translate(-488.154 -424.339)"/>
          <path id="Path_796" data-name="Path 796" class="cls-14" d="M612.593,476.545l.031.027c.435.389,5.324,4.721,5.324,4.823s1.76,3.019-.432,5.535a82.031,82.031,0,0,1-7.224,6.648s-2.192,1.581-2.48,1.905-4.635,0-2.048-2.948,5.031-6.253,5.031-6.253-4.313-1.037-4.6-1.76,5.677-9.7,5.677-9.7Z" transform="translate(-545.16 -425.279)"/>
          <path id="Path_797" data-name="Path 797" class="cls-7" d="M582.051,476.545l.031.027c.436.389,5.324,4.721,5.324,4.823s1.76,3.019-.432,5.535a82.005,82.005,0,0,1-7.224,6.648s-2.192,1.581-2.48,1.905-4.637,0-2.048-2.948,5.031-6.253,5.031-6.253-4.313-1.037-4.6-1.76S569.69,475,569.69,475l11.644-.179Z" transform="translate(-514.475 -425.279)"/>
          <path id="Path_798" data-name="Path 798" class="cls-6" d="M569.12,308.231l.43,3.917s4.42,1.762,4.529,1.725,2.946-2.592,2.48-4.278a15.018,15.018,0,0,1-.389-2.981c-.047-.961-.04-1.692-.04-1.692s-6.433-2.3-5.858-.719a3.034,3.034,0,0,1-.091,1.905A8.873,8.873,0,0,1,569.12,308.231Z" transform="translate(-513.979 -276.295)"/>
          <path id="Path_799" data-name="Path 799" class="cls-14" d="M577.29,306.072c.039.045.079.088.119.13a4.31,4.31,0,0,0,5.869.373c-.049-.951-.04-1.692-.04-1.692s-6.433-2.3-5.858-.719A3.041,3.041,0,0,1,577.29,306.072Z" transform="translate(-521.09 -276.261)"/>
          <path id="Path_800" data-name="Path 800" class="cls-6" d="M569.12,270.722a4.285,4.285,0,1,0,1.255-3.057A4.311,4.311,0,0,0,569.12,270.722Z" transform="translate(-513.978 -243.883)"/>
          <path id="Path_801" data-name="Path 801" class="cls-14" d="M573.725,345.2s1.685-3.744,2.265-3.744,1.475,19.365,1.475,19.365l-8.8.137L568.3,350.8l1.8-9.006S571.712,345.342,573.725,345.2Z" transform="translate(-513.265 -309.206)"/>
          <path id="Path_802" data-name="Path 802" class="cls-14" d="M568.18,347.424s1.685-3.744,2.264-3.744,1.475,19.363,1.475,19.363l-9.99.152.826-10.179,1.8-9.013S566.167,347.562,568.18,347.424Z" transform="translate(-507.721 -311.138)"/>
          <path id="Path_803" data-name="Path 803" class="cls-11" d="M568.18,346.314s1.685-3.744,2.264-3.744,1.475,19.37,1.475,19.37l-9.99.152.826-10.179,1.8-9.013S566.167,346.452,568.18,346.314Z" transform="translate(-507.721 -310.172)"/>
          <path id="Path_804" data-name="Path 804" class="cls-14" d="M622.79,331.245a.7.7,0,0,1,.734-.3c.432.144.754-.251,1.186.144a4.385,4.385,0,0,0,2.48.754c.324-.18,1.473.612,1.725,1.078s1.077,1.725,1.077,1.725.719.862.612,1.33a1.21,1.21,0,0,0,.682,1.221c.43.215,1.3,2.372,1.3,2.372s-.235,2.885.735,3.387.252,2.7.252,2.7l-4.584-1.088-1.3-2.948s.5,8.627,1.114,9.416a3.16,3.16,0,0,1,.683,1.3,11.763,11.763,0,0,0-2.875.933c-.5.43-1.833-.108-1.833-.108l-1.3-11.464a21.716,21.716,0,0,1-.467-3.27C623.014,337.31,622.79,331.245,622.79,331.245Z" transform="translate(-560.692 -300.022)"/>
          <path id="Path_805" data-name="Path 805" class="cls-5" d="M623.9,331.245a.7.7,0,0,1,.734-.3c.432.144.754-.251,1.186.144a4.385,4.385,0,0,0,2.48.754c.324-.18,1.472.612,1.724,1.078s1.078,1.725,1.078,1.725.719.862.612,1.33a1.21,1.21,0,0,0,.682,1.221c.43.215,1.3,2.372,1.3,2.372s-.232,2.884.739,3.387a1.025,1.025,0,0,1,.448.756,2.258,2.258,0,0,1-2.311,2.652l-2.463-1.021-1.3-3.725s.5,8.627,1.113,9.416a3.159,3.159,0,0,1,.683,1.3,11.762,11.762,0,0,0-2.875.933c-.5.43-1.833-.108-1.833-.108l-1.3-11.464a21.713,21.713,0,0,1-.467-3.27C624.135,337.31,623.9,331.245,623.9,331.245Z" transform="translate(-561.658 -300.022)"/>
          <path id="Path_806" data-name="Path 806" class="cls-14" d="M672.174,381.66a1.647,1.647,0,0,1-1.618,1.078C669.37,382.631,672.174,381.66,672.174,381.66Z" transform="translate(-602.011 -344.195)"/>
          <path id="Path_807" data-name="Path 807" class="cls-14" d="M668.631,367.8a1.554,1.554,0,0,0-1.078.826C667.265,369.308,668.631,367.8,668.631,367.8Z" transform="translate(-599.617 -332.131)"/>
          <path id="Path_808" data-name="Path 808" class="cls-14" d="M657.5,358.37c0,.144-.5,2.66,0,3.7a5.181,5.181,0,0,1,.43,2.265Z" transform="translate(-590.703 -323.924)"/>
          <path id="Path_809" data-name="Path 809" class="cls-14" d="M527.194,324.826s-.281-.331-.569-.294a3.863,3.863,0,0,0-.827.359c-.36.144-1.221.18-1.221.288a2.8,2.8,0,0,1-1.259.648,4.332,4.332,0,0,0-2.48,3.27,5.036,5.036,0,0,1-1.078,2.695l3.81,1.872s-2.946,12.506-3.305,13.4-.389,6.222-.389,6.222,2.333,1.037,2.946,1.365.359-3.09,1.618-5.067,2.695-4.852,2.695-4.852l2.185-6.147s1.4-8.194.216-9.7S527.086,325.367,527.194,324.826Z" transform="translate(-471.017 -294.469)"/>
          <path id="Path_810" data-name="Path 810" class="cls-5" d="M526.119,324.826s-.281-.331-.569-.294a3.866,3.866,0,0,0-.827.359c-.36.144-1.221.18-1.221.288a2.792,2.792,0,0,1-1.259.648,4.311,4.311,0,0,0-2.476,3.269,4.978,4.978,0,0,1-1.077,2.695l3.8,1.873s-2.946,12.506-3.305,13.4-.389,6.222-.389,6.222,2.333,1.037,2.946,1.365.359-3.1,1.617-5.075,2.695-4.852,2.695-4.852l2.192-6.139s1.4-8.194.216-9.7S526.011,325.367,526.119,324.826Z" transform="translate(-470.085 -294.469)"/>
          <path id="Path_811" data-name="Path 811" class="cls-14" d="M512.17,378.431c.106.017.242.034.4.048,1.151.1,3.41.13,3.41.13s1.685-3.343,3.127-3.241c0,0-1.33-1.509-1.868-1.329-.091.03-.148-.036-.175-.166a12.081,12.081,0,0,1,.354-2.852l.683-2.981-3.954.97a10.775,10.775,0,0,0-1.474.648,5.477,5.477,0,0,1-.323,1.906,6.778,6.778,0,0,0-.576,2.515c.035.43-.4,2.445.036,2.981S511.278,378.287,512.17,378.431Z" transform="translate(-463.929 -332.34)"/>
          <path id="Path_812" data-name="Path 812" class="cls-13" d="M600.78,614.847a4.9,4.9,0,0,1-.035,1.944,6.968,6.968,0,0,0-.036,2.981c.18.573.791,1.365-.862,1.724s-2.767.036-2.84-.251a3.821,3.821,0,0,1-.144-2.084,4.663,4.663,0,0,0-.144-3.307c-.533-.973-.179-2.48.324-2.659s1.366-.576,1.366-.576-.935,1.685-.073,2.049A6.227,6.227,0,0,0,600.78,614.847Z" transform="translate(-537.77 -545.217)"/>
          <path id="Path_813" data-name="Path 813" class="cls-14" d="M569.1,270.742a4.285,4.285,0,0,0,1.178,2.961.15.15,0,0,0,.01-.021,1.885,1.885,0,0,0,.24-.857,7.183,7.183,0,0,0-.288-1.046,2.743,2.743,0,0,1,.209-1.345c.106-.319.312-.706.648-.668a.747.747,0,0,0,.2.023c.178-.027.214-.259.235-.438a1.99,1.99,0,0,1,1.624-1.706.5.5,0,0,1,.284.019c.13.056.193.191.306.268.364.253.828-.231,1.272-.193.377.031.607.416.762.761s.349.738.718.818a.227.227,0,0,0,.175-.019c.114-.084.035-.259-.023-.389a.793.793,0,0,1,.13-.857,4.311,4.311,0,0,0-7.68,2.691Z" transform="translate(-513.961 -243.903)"/>
          <path id="Path_814" data-name="Path 814" class="cls-17" d="M557.1,242.8c.058.13.139.309.022.389a.218.218,0,0,1-.174.019c-.369-.079-.564-.473-.719-.818s-.389-.73-.761-.761c-.443-.038-.907.446-1.273.193-.112-.078-.18-.213-.3-.268a.5.5,0,0,0-.284-.018,1.99,1.99,0,0,0-1.625,1.7c-.018.178-.056.411-.233.438a.743.743,0,0,1-.2-.023c-.334-.039-.539.347-.648.666a2.747,2.747,0,0,0-.209,1.347,7.147,7.147,0,0,1,.288,1.047,1.985,1.985,0,0,1-.24.856c-.123.272-.327.591-.622.552-.244-.031-.377-.289-.494-.506s-.327-.447-.562-.38c-.106.031-.215.121-.311.066a.227.227,0,0,1-.091-.157c-.115-.5.051-1.067-.194-1.52a2.987,2.987,0,0,0-.879-.786,2.517,2.517,0,0,1-.341-3.6c.332-.389.809-.731.836-1.241.019-.389-.242-.745-.245-1.134a1.367,1.367,0,0,1,.518-.973,3.348,3.348,0,0,1,3.01-.793,2.4,2.4,0,0,0,.843.136,2.942,2.942,0,0,0,.907-.412A2.307,2.307,0,0,1,556,237.6c.34.53.473,1.221.981,1.593.333.244.813.336,1,.705a1.261,1.261,0,0,1,.045.731,1.711,1.711,0,0,1-.547,1.047C557.16,242,556.895,242.332,557.1,242.8Z" transform="translate(-494.415 -217.94)"/>
          <g id="Group_82" data-name="Group 82" class="cls-18" transform="translate(52.266 21.067)">
            <path id="Path_815" data-name="Path 815" d="M556.056,255.449a1.925,1.925,0,0,1-.076-.3A1.881,1.881,0,0,1,556.056,255.449Z" transform="translate(-554.808 -255.15)"/>
            <path id="Path_816" data-name="Path 816" d="M625.8,263.948a1.167,1.167,0,0,0-.071-.192c-.207-.469.058-.8.368-1.117a1.715,1.715,0,0,0,.546-1.047,2.607,2.607,0,0,0,.031-.332.7.7,0,0,1,.067.1,1.261,1.261,0,0,1,.046.731,1.712,1.712,0,0,1-.547,1.047A1.185,1.185,0,0,0,625.8,263.948Z" transform="translate(-615.449 -260.468)"/>
            <path id="Path_817" data-name="Path 817" d="M562.211,310.57c.236-.069.446.165.563.38s.25.474.494.506c.3.038.5-.281.622-.552a1.962,1.962,0,0,0,.24-.855,1.025,1.025,0,0,0-.01-.108,1.941,1.941,0,0,1,.154.611,1.985,1.985,0,0,1-.24.855c-.123.272-.327.591-.622.552-.244-.031-.377-.289-.494-.506s-.327-.447-.563-.38c-.106.031-.215.121-.311.066a.227.227,0,0,1-.091-.157,1.993,1.993,0,0,1-.043-.342C562,310.681,562.11,310.6,562.211,310.57Z" transform="translate(-559.969 -302.838)"/>
            <path id="Path_818" data-name="Path 818" d="M547.706,289.373a2.991,2.991,0,0,1,.88.785,1.247,1.247,0,0,1,.13.486,3.109,3.109,0,0,0-.868-.769,2.54,2.54,0,0,1-.907-1.536A2.524,2.524,0,0,0,547.706,289.373Z" transform="translate(-546.94 -284.038)"/>
            <path id="Path_819" data-name="Path 819" d="M576.781,275.3a2.811,2.811,0,0,1-.136-.443,2.751,2.751,0,0,1,.209-1.347c.106-.319.312-.705.648-.666a.745.745,0,0,0,.2.023c.177-.027.215-.259.233-.439a1.992,1.992,0,0,1,1.625-1.7.491.491,0,0,1,.284.018c.13.056.193.191.3.268.366.259.83-.231,1.273-.193.376.031.607.416.762.761s.35.738.718.818a.218.218,0,0,0,.174-.019.14.14,0,0,0,.057-.108.852.852,0,0,0,.065.219c.058.13.139.309.022.389a.218.218,0,0,1-.174.019c-.369-.079-.564-.473-.719-.818s-.389-.73-.761-.761c-.443-.038-.907.446-1.273.193-.112-.078-.18-.213-.3-.268a.5.5,0,0,0-.284-.018,1.99,1.99,0,0,0-1.625,1.7c-.018.178-.056.411-.233.438a.741.741,0,0,1-.2-.023c-.334-.039-.539.347-.648.666A2.905,2.905,0,0,0,576.781,275.3Z" transform="translate(-572.773 -268.693)"/>
          </g>
          <path id="Path_820" data-name="Path 820" class="cls-14" d="M519,417.646c1.151.1,3.41.13,3.41.13s1.685-3.343,3.127-3.241c0,0-1.33-1.509-1.868-1.329-.091.03-.148-.036-.175-.166-1.408.43-4.091,1.482-4.354,3.327C519.065,416.87,519.019,417.29,519,417.646Z" transform="translate(-470.355 -371.507)"/>
          <path id="Path_821" data-name="Path 821" class="cls-19" d="M517.85,417.646c1.151.1,3.41.13,3.41.13s1.685-3.343,3.126-3.241c0,0-1.329-1.509-1.868-1.329-.091.03-.146-.036-.175-.166-1.408.43-4.091,1.482-4.354,3.327C517.92,416.87,517.876,417.29,517.85,417.646Z" transform="translate(-469.354 -371.507)"/>
          <path id="Path_822" data-name="Path 822" class="cls-14" d="M570.365,519.5s-3.241-.791-3.737-.359S570.365,519.5,570.365,519.5Z" transform="translate(-511.774 -463.746)"/>
          <path id="Path_823" data-name="Path 823" class="cls-14" d="M657.069,546.63s-1.365.791-1.509,1.438S657.069,546.63,657.069,546.63Z" transform="translate(-589.207 -487.781)"/>
          <path id="Path_824" data-name="Path 824" class="cls-14" d="M608.991,658.186a5.915,5.915,0,0,0-2.347.023C606.166,658.52,608.991,658.186,608.991,658.186Z" transform="translate(-546.591 -584.771)"/>
          <path id="Path_825" data-name="Path 825" class="cls-20" d="M481.07,687.569s7.243-.389,9.009-1.426a9.8,9.8,0,0,1,4.278-1.037l28.841-6.292,11.99-2.852,2.139-.281-7.065-8.083-.215-.093L519.633,663s-4.666.259-5.588,3.3a3.651,3.651,0,0,0-.13.656,3.8,3.8,0,0,0,.736,2.661,5.649,5.649,0,0,1,.963,1.847,1.093,1.093,0,0,1-.13.933,7.61,7.61,0,0,1-1.281,1.023c-2.539,1.685-8.958,4.462-20.172.209,0,0-4.8-4.731-8.426-2.722S481.07,687.569,481.07,687.569Z" transform="translate(-437.342 -589.066)"/>
          <path id="Path_826" data-name="Path 826" class="cls-14" d="M736.022,671.47a1.092,1.092,0,0,1-.13.933,7.61,7.61,0,0,1-1.281,1.023l21.831,1.629L750.46,667.5,740.046,663s-4.667.259-5.588,3.3a3.641,3.641,0,0,0-.13.656,3.8,3.8,0,0,0,.736,2.661A5.847,5.847,0,0,1,736.022,671.47Z" transform="translate(-657.754 -589.066)"/>
          <path id="Path_827" data-name="Path 827" class="cls-13" d="M678.248,464.31l-17.888.389v21.413l16.981,11.512,4.083-3.759-.843-12.444.843-11.6Z" transform="translate(-578.652 -411.629)"/>
          <path id="Path_828" data-name="Path 828" class="cls-21" d="M369.607,427.887l-20.885-6.431a3.136,3.136,0,0,0-1.167-.13l-49.892,3.642a23.555,23.555,0,0,0-11.881,4.191,19.9,19.9,0,0,0-7.907,11.066,21.129,21.129,0,0,0,.224,11.9l4.4,14.259s-3.305-30.98,29.684-32.536Z" transform="translate(-259.835 -378.711)"/>
          <path id="Path_829" data-name="Path 829" class="cls-22" d="M735.024,691.817a5.655,5.655,0,0,1,.963,1.847,1.211,1.211,0,0,0-.13-1.983,4.147,4.147,0,0,1-1.44-3.181,3.641,3.641,0,0,0-.13.656A3.8,3.8,0,0,0,735.024,691.817Z" transform="translate(-657.72 -611.261)"/>
          <path id="Path_830" data-name="Path 830" class="cls-13" d="M336.07,562.138l2.463,8.361,5.574,5.444,7,1.426,10.888-1.944V536.731a19.5,19.5,0,0,0-2.074-1.231c-.194,0-5.444.842-5.444.842l-11.887,8.525-.493.354-5.315,7.907Z" transform="translate(-311.137 -478.093)"/>
          <path id="Path_831" data-name="Path 831" class="cls-13" d="M415.31,497.81v40.313l-1.05.188v-40.5Z" transform="translate(-364.453 -440.787)"/>
          <path id="Path_832" data-name="Path 832" class="cls-14" d="M678.248,464.31l-17.888.389v21.413l16.981,11.512,4.083-3.759-.843-12.444.843-11.6Z" transform="translate(-578.652 -411.629)"/>
          <path id="Path_833" data-name="Path 833" class="cls-14" d="M415.31,497.81v40.313l-1.05.188v-40.5Z" transform="translate(-364.453 -440.787)"/>
          <path id="Path_834" data-name="Path 834" class="cls-14" d="M384.57,547.56a33.634,33.634,0,0,1,19.638-7.447v-3.382a19.5,19.5,0,0,0-2.074-1.231c-.194,0-5.444.842-5.444.842L384.8,544.868Z" transform="translate(-353.351 -478.093)"/>
          <path id="Path_835" data-name="Path 835" class="cls-13" d="M924.06,501.071s-.8,2.121-1.663,4.59c-.762,2.195-1.571,4.667-1.9,6.169a4.5,4.5,0,0,1-.915,1.746c-2.1,2.664-6.935,5.245-7.77,6.161-1.018,1.117-6.74,1.922-6.74,1.922V487.271l3.824-1.231h4.861l6.287,2.852,3.241,4.8Z" transform="translate(-806.381 -435.044)"/>
          <path id="Path_836" data-name="Path 836" class="cls-6" d="M536.905,422.544c.252.306,7.889.377,8.284.288l.718-.162s3.686,1.985,6.222-1.263c.109-.139.215-.286.319-.445,2.534-3.863-5.912-1.037-5.912-1.037s-3.234.018-4.061.018h-.086a14.794,14.794,0,0,1-2.573-.556S536.655,422.239,536.905,422.544Z" transform="translate(-485.927 -376.632)"/>
          <path id="Path_837" data-name="Path 837" class="cls-14" d="M580.1,421.38s3.234.018,4.061.027h.019c.109-.139.215-.286.319-.445,2.534-3.863-5.912-1.037-5.912-1.037s-3.234.018-4.061.018h-.086c-.082.106-.162.218-.241.336C571.626,424.108,580.1,421.38,580.1,421.38Z" transform="translate(-517.979 -376.632)"/>
          <path id="Path_838" data-name="Path 838" class="cls-6" d="M586.8,413.84a13.807,13.807,0,0,0-2.654-.587c-.827-.009-4.061-.026-4.061-.026s-8.476,2.722-5.9-1.108,6.56-1.635,6.56-1.635l.719-.154c.4-.086,8.037.071,8.28.38S586.8,413.84,586.8,413.84Z" transform="translate(-517.966 -368.737)"/>
          <path id="Path_839" data-name="Path 839" class="cls-19" d="M673.172,405s-.052,2.493-1.78,2.635c-3.63.3-2.707-1.106-2.707-1.106l.314-2.792,1.71-1.548s.751.345.848.286A26.441,26.441,0,0,1,673.172,405Z" transform="translate(-600.547 -362.064)"/>
          <path id="Path_840" data-name="Path 840" class="cls-5" d="M511.042,378.431c.106.017.242.034.4.048,1.151.1,3.41.13,3.41.13s1.685-3.343,3.126-3.241c0,0-1.329-1.509-1.868-1.329-.091.03-.146-.036-.175-.166a12.15,12.15,0,0,1,.354-2.852l.683-2.981-3.956.975a10.732,10.732,0,0,0-1.473.648,5.485,5.485,0,0,1-.324,1.905,6.778,6.778,0,0,0-.576,2.515c.035.43-.4,2.445.036,2.981S510.144,378.287,511.042,378.431Z" transform="translate(-462.946 -332.34)"/>
          <path id="Path_841" data-name="Path 841" class="cls-14" d="M522.911,387.76s-3.305.359-3.449,1.186S522.911,387.76,522.911,387.76Z" transform="translate(-470.754 -349.504)"/>
          <path id="Path_842" data-name="Path 842" class="cls-14" d="M519.125,412.71c-.215.073-1.473.4-1.724,1.151S519.125,412.71,519.125,412.71Z" transform="translate(-468.945 -371.22)"/>
          <path id="Path_843" data-name="Path 843" class="cls-14" d="M519,418.676c1.151.105,3.41.13,3.41.13s1.685-3.343,3.127-3.241c0,0-1.33-1.509-1.868-1.329-.091.03-.148-.036-.175-.166-1.408.43-4.091,1.482-4.354,3.327C519.065,417.9,519.019,418.32,519,418.676Z" transform="translate(-470.355 -372.404)"/>
          <ellipse id="Ellipse_168" data-name="Ellipse 168" class="cls-23" cx="2.695" cy="0.573" rx="2.695" ry="0.573" transform="translate(68.348 32.951)"/>
          <circle id="Ellipse_529" data-name="Ellipse 529" class="cls-24" cx="2.804" cy="2.804" r="2.804" transform="translate(99.985 1.729)"/>
          <circle id="Ellipse_530" data-name="Ellipse 530" class="cls-24" cx="2.205" cy="2.205" r="2.205" transform="translate(113.028 9.198)"/>
          <circle id="Ellipse_531" data-name="Ellipse 531" class="cls-24" cx="0.778" cy="0.778" r="0.778" transform="translate(120.623)"/>
          <path id="Path_845" data-name="Path 845" class="cls-11" d="M220.787,724.25s.924,1.209-.426,3.035-2.463,3.37-2.016,4.506c0,0,2.039-3.391,3.7-3.438S222.62,726.292,220.787,724.25Z" transform="translate(-208.585 -642.377)"/>
          <path id="Path_846" data-name="Path 846" class="cls-14" d="M221.131,724.25a1.489,1.489,0,0,1,.189.379c1.619,1.9,2.482,3.679.926,3.724-1.451.041-3.19,2.634-3.606,3.289a1.181,1.181,0,0,0,.049.149s2.039-3.391,3.7-3.438S222.964,726.292,221.131,724.25Z" transform="translate(-208.929 -642.377)"/>
          <path id="Path_847" data-name="Path 847" class="cls-25" d="M249.693,734.308c0,.425-.048.77-.106.77s-.106-.345-.106-.77.06-.226.118-.226S249.693,733.882,249.693,734.308Z" transform="translate(-235.772 -650.893)"/>
          <path id="Path_848" data-name="Path 848" class="cls-25" d="M250.774,738.1c-.373.2-.7.327-.727.275s.251-.259.626-.463.226-.056.259,0S251.148,737.9,250.774,738.1Z" transform="translate(-236.263 -654.176)"/>
          <path id="Path_849" data-name="Path 849" class="cls-11" d="M186.24,724.25s-.924,1.209.426,3.035,2.463,3.37,2.017,4.506c0,0-2.04-3.391-3.7-3.438S184.413,726.292,186.24,724.25Z" transform="translate(-178.923 -642.377)"/>
          <path id="Path_850" data-name="Path 850" class="cls-14" d="M186.24,724.25a1.489,1.489,0,0,0-.189.379c-1.619,1.9-2.482,3.679-.926,3.724,1.451.041,3.19,2.634,3.607,3.289a1.439,1.439,0,0,1-.049.149s-2.04-3.391-3.7-3.438S184.413,726.292,186.24,724.25Z" transform="translate(-178.923 -642.377)"/>
          <path id="Path_851" data-name="Path 851" class="cls-25" d="M186.91,734.308c0,.425.048.77.106.77s.106-.345.106-.77-.06-.226-.118-.226S186.91,733.882,186.91,734.308Z" transform="translate(-181.312 -650.893)"/>
          <path id="Path_852" data-name="Path 852" class="cls-25" d="M180.8,738.1c.373.2.7.327.727.275s-.251-.259-.626-.463-.226-.056-.259,0S180.425,737.9,180.8,738.1Z" transform="translate(-175.792 -654.176)"/>
          <ellipse id="Ellipse_532" data-name="Ellipse 532" class="cls-24" cx="9.67" cy="1.484" rx="9.67" ry="1.484" transform="matrix(0.998, -0.071, 0.071, 0.998, 0, 96.388)"/>
          <path id="Path_853" data-name="Path 853" class="cls-13" d="M190.56,766.055l-.047.377-.065.534-.026.222-.065.534-.028.223-.065.533-.74,6.066c-.066.542-.95.963-2.018.963H183.66c-1.068,0-1.951-.421-2.017-.963l-.741-6.066-.065-.533-.027-.223-.066-.534-.026-.222-.065-.534-.047-.377c-.038-.307.442-.565,1.046-.565h7.863C190.118,765.49,190.6,765.748,190.56,766.055Z" transform="translate(-175.824 -678.271)"/>
          <path id="Path_854" data-name="Path 854" class="cls-26" d="M77.122,738.04l-.065.533H67.325l-.065-.533Z" transform="translate(-62.432 -649.877)"/>
          <path id="Path_855" data-name="Path 855" class="cls-26" d="M77.648,743.87l-.065.534H68.036l-.066-.534Z" transform="translate(-63.05 -654.952)"/>
          <path id="Path_856" data-name="Path 856" class="cls-26" d="M78.181,749.7l-.065.533H68.755l-.065-.533Z" transform="translate(-63.677 -660.026)"/>
          <path id="Path_857" data-name="Path 857" class="cls-14" d="M665.645,403.44l3.541.18-5.837,1.838-2.989-.172Z" transform="translate(-578.652 -358.65)"/>
          <path id="Path_858" data-name="Path 858" class="cls-3" d="M665.626,402.25l3.541.181-5.838,1.838-2.989-.174Z" transform="translate(-578.635 -357.614)"/>
          <path id="Path_859" data-name="Path 859" class="cls-27" d="M811.61,439.958c.139-.061.289.049.438.075.086.016.174,0,.259.013.174.021.347.13.519.074Z" transform="translate(-725.036 -394.92)"/>
          <path id="Path_860" data-name="Path 860" class="cls-27" d="M810.21,440.8c.139-.061.289.049.438.075.086.016.174,0,.259.013.174.021.347.13.512.073Z" transform="translate(-723.817 -395.652)"/>
          <path id="Path_861" data-name="Path 861" class="cls-27" d="M807,442.478c.139-.061.289.049.439.075.084.016.172,0,.259.013.174.021.347.13.519.073Z" transform="translate(-721.023 -397.114)"/>
          <path id="Path_862" data-name="Path 862" class="cls-19" d="M875.794,432.82s-.443,2.064,1.528,2.307l.122-.228S875.913,433.462,875.794,432.82Z" transform="translate(-780.863 -388.723)"/>
          <path id="Path_863" data-name="Path 863" class="cls-19" d="M882.151,427.9l-.459.1-.045.009a4.142,4.142,0,0,1-1.208-3.21,5.478,5.478,0,0,0,.585.924A5.531,5.531,0,0,1,882.151,427.9Z" transform="translate(-784.943 -381.743)"/>
          <path id="Path_864" data-name="Path 864" class="cls-19" d="M887.526,422.989a.288.288,0,0,1-.246.031c-1.177-.275-.778-4.11-.778-4.11.065.031.136.518.407,1.148C887.382,421.165,887.9,422.711,887.526,422.989Z" transform="translate(-790.163 -376.616)"/>
          <path id="Path_865" data-name="Path 865" class="cls-19" d="M901.457,432.82a2.211,2.211,0,0,1-1.9,2.307l-.122-.228S901.327,433.462,901.457,432.82Z" transform="translate(-801.481 -388.723)"/>
          <path id="Path_866" data-name="Path 866" class="cls-19" d="M896.668,424.8a3.817,3.817,0,0,1-1.574,3.21l-.047-.009-.458-.1a5.6,5.6,0,0,1,1.126-2.179A4.99,4.99,0,0,1,896.668,424.8Z" transform="translate(-797.26 -381.743)"/>
          <path id="Path_867" data-name="Path 867" class="cls-19" d="M893.159,422.788a.745.745,0,0,1-.259.2h0a.5.5,0,0,1-.1.031c-.289.069-.389-.141-.373-.5a9.166,9.166,0,0,1,.778-2.547,3.178,3.178,0,0,1,.739-1.068S893.928,421.9,893.159,422.788Z" transform="translate(-795.378 -376.616)"/>
          <path id="Path_868" data-name="Path 868" class="cls-19" d="M891.217,408.53s-1.314,4.666-.183,5.365S891.507,408.944,891.217,408.53Z" transform="translate(-793.765 -367.582)"/>
          <path id="Path_869" data-name="Path 869" class="cls-14" d="M875.794,432.82s-.443,2.064,1.528,2.307l.122-.228S875.913,433.462,875.794,432.82Z" transform="translate(-780.863 -388.723)"/>
          <path id="Path_870" data-name="Path 870" class="cls-14" d="M882.151,427.9l-.459.1-.045.009a4.142,4.142,0,0,1-1.208-3.21,5.478,5.478,0,0,0,.585.924A5.531,5.531,0,0,1,882.151,427.9Z" transform="translate(-784.943 -381.743)"/>
          <path id="Path_871" data-name="Path 871" class="cls-14" d="M887.526,422.989a.288.288,0,0,1-.246.031c-1.177-.275-.778-4.11-.778-4.11.065.031.136.518.407,1.148C887.382,421.165,887.9,422.711,887.526,422.989Z" transform="translate(-790.163 -376.616)"/>
          <path id="Path_872" data-name="Path 872" class="cls-14" d="M901.457,432.82a2.211,2.211,0,0,1-1.9,2.307l-.122-.228S901.327,433.462,901.457,432.82Z" transform="translate(-801.481 -388.723)"/>
          <path id="Path_873" data-name="Path 873" class="cls-14" d="M896.668,424.8a3.817,3.817,0,0,1-1.574,3.21l-.047-.009-.458-.1a5.6,5.6,0,0,1,1.126-2.179A4.99,4.99,0,0,1,896.668,424.8Z" transform="translate(-797.26 -381.743)"/>
          <path id="Path_874" data-name="Path 874" class="cls-14" d="M893.159,422.788a.745.745,0,0,1-.259.2h0a.5.5,0,0,1-.1.031c-.289.069-.389-.141-.373-.5a9.166,9.166,0,0,1,.778-2.547,3.178,3.178,0,0,1,.739-1.068S893.928,421.9,893.159,422.788Z" transform="translate(-795.378 -376.616)"/>
          <path id="Path_875" data-name="Path 875" class="cls-14" d="M891.217,408.53s-1.314,4.666-.183,5.365S891.507,408.944,891.217,408.53Z" transform="translate(-793.765 -367.582)"/>
          <path id="Path_876" data-name="Path 876" class="cls-11" d="M876,432.82a2.005,2.005,0,0,0,1.711,2.307l.122-.228S876.124,433.462,876,432.82Z" transform="translate(-781.074 -388.723)"/>
          <path id="Path_877" data-name="Path 877" class="cls-11" d="M882.334,427.9l-.459.1-.045.009a3.935,3.935,0,0,1-1.391-3.21s.36.389.767.924A5.529,5.529,0,0,1,882.334,427.9Z" transform="translate(-784.943 -381.743)"/>
          <path id="Path_878" data-name="Path 878" class="cls-14" d="M887.488,434.109l-.459.1a3.776,3.776,0,0,1-.669-2.276A5.53,5.53,0,0,1,887.488,434.109Z" transform="translate(-790.096 -387.948)"/>
          <path id="Path_879" data-name="Path 879" class="cls-11" d="M888.036,422.989a.292.292,0,0,1-.248.031c-1.177-.275-.962-4.11-.962-4.11a5.293,5.293,0,0,1,.59,1.148C887.892,421.165,888.413,422.711,888.036,422.989Z" transform="translate(-790.489 -376.616)"/>
          <path id="Path_880" data-name="Path 880" class="cls-11" d="M902.693,432.82a2.005,2.005,0,0,1-1.711,2.307l-.122-.228S902.563,433.462,902.693,432.82Z" transform="translate(-802.717 -388.723)"/>
          <path id="Path_881" data-name="Path 881" class="cls-11" d="M897.9,424.8a3.935,3.935,0,0,1-1.391,3.21l-.045-.009-.459-.1a5.581,5.581,0,0,1,1.128-2.179C897.535,425.186,897.9,424.8,897.9,424.8Z" transform="translate(-798.487 -381.743)"/>
          <path id="Path_882" data-name="Path 882" class="cls-14" d="M897.128,431.93a4.25,4.25,0,0,1-.585,2.191.861.861,0,0,1-.084.086l-.459-.1A5.581,5.581,0,0,1,897.128,431.93Z" transform="translate(-798.487 -387.948)"/>
          <path id="Path_883" data-name="Path 883" class="cls-11" d="M894.571,422.788a.729.729,0,0,1-.259.2h0a.52.52,0,0,1-.1.031c-.29.069-.389-.141-.375-.5a9.255,9.255,0,0,1,.778-2.547,5.013,5.013,0,0,1,.556-1.068S895.341,421.9,894.571,422.788Z" transform="translate(-796.607 -376.616)"/>
          <path id="Path_884" data-name="Path 884" class="cls-14" d="M891.632,430.7a.33.33,0,0,1-.187-.06c-.554-.345-.565-1.64-.433-2.871C891.488,428.877,892.009,430.422,891.632,430.7Z" transform="translate(-794.085 -384.328)"/>
          <path id="Path_885" data-name="Path 885" class="cls-14" d="M894.58,429.96c-.063.137-.149.21-.259.2h0a.389.389,0,0,1-.157-.06.849.849,0,0,1-.314-.4,9.251,9.251,0,0,1,.778-2.547A7.232,7.232,0,0,1,894.58,429.96Z" transform="translate(-796.616 -383.788)"/>
          <path id="Path_886" data-name="Path 886" class="cls-11" d="M892.157,408.53s-1.13,4.666,0,5.365S892.447,408.944,892.157,408.53Z" transform="translate(-794.705 -367.582)"/>
          <path id="Path_887" data-name="Path 887" class="cls-13" d="M772.2,416.96l-.079.412-.288,1.513H769.1l-.288-1.513-.079-.412Z" transform="translate(-672.975 -370.417)"/>
          <path id="Path_888" data-name="Path 888" class="cls-14" d="M772.2,416.96l-.079.412h-3.312l-.079-.412Z" transform="translate(-672.975 -370.417)"/>
          <rect id="Rectangle_102" data-name="Rectangle 102" class="cls-13" width="4.707" height="0.779" transform="translate(95.098 46.084)"/>
          <path id="Path_889" data-name="Path 889" class="cls-21" d="M914.144,499s9.3,5.833,7.267,15.218c-.166.766-.31,1.535-.4,2.311-.372,3.041-2.6,11.766-15.936,15.784v.907l5.656-1.578,3.839-2.117,2.931-2.63,3.583-4.37,1.663-3.565.609-4.695.346-5.361-.857-4.591-2.021-2.99-2.463-1.916Z" transform="translate(-806.381 -446.325)"/>
          <path id="Path_890" data-name="Path 890" class="cls-20" d="M311.245,498.059a20.483,20.483,0,0,0,2.1,13.683c6.69,12.135,20.907,8.564,25.1,7.188,1-.328,2.009-.612,3.033-.844l46.2-10.471c15.9-2.765,19.184-15.642,19.184-15.642,3.149-9.932.99-15.718-1.859-19a11.248,11.248,0,0,0-9.1-3.8l-5.48.29-48.717,5.315C318.935,475.021,312.851,489.517,311.245,498.059Zm4.512.585c1.536-7.344,7.561-18,26.939-18.654.889-.031,1.777-.109,2.66-.227l43.569-5.82,5.045-.259a10.8,10.8,0,0,1,9.549,4.733c2.007,3.019,3.092,7.777.609,15.175,0,0-3.037,11.241-17.742,13.656l-42.676,9.139c-.971.207-1.93.461-2.878.754-3.871,1.2-16.741,4.226-22.993-5.952A17.213,17.213,0,0,1,315.758,498.644Z" transform="translate(-289.209 -420.347)"/>
        </g>
        <path id="Path_984" data-name="Path 984" class="cls-28" d="M368.812,620.665l14.469-1.475.177,2.826-6.56.532a4.288,4.288,0,0,1-1.349-.1l-6.749-1.6a.094.094,0,0,1,.012-.185Z" transform="translate(-189.153 -572.358)"/>
        <path id="Path_985" data-name="Path 985" class="cls-29" d="M423.357,632.519l7.65-.78.093,1.494-3.469.282a2.261,2.261,0,0,1-.713-.055l-3.568-.844a.05.05,0,0,1,.006-.1Z" transform="translate(-240.267 -584.11)"/>
        <path id="Path_986" data-name="Path 986" class="cls-28" d="M500.41,389.3l14.824-.225a1.446,1.446,0,0,1,1.291,1.611l-1.682,14a1.446,1.446,0,0,1-1.349,1.272l-15.153.938a1.446,1.446,0,0,1-1.517-1.653l2.012-14.715a1.446,1.446,0,0,1,1.574-1.229Z" transform="translate(-309.09 -356.87)"/>
        <ellipse id="Ellipse_619" data-name="Ellipse 619" class="cls-29" cx="0.706" cy="0.706" rx="0.706" ry="0.706" transform="translate(197.867 39.677)"/>
      </g>
      <g id="Group_118" data-name="Group 118" transform="translate(16908.395 1811.307)">
        <path id="Path_1056" data-name="Path 1056" class="cls-5" d="M470.382,619.128h-69.55A2.332,2.332,0,0,1,398.5,616.8h0a314.349,314.349,0,0,1,74.214,0h0A2.332,2.332,0,0,1,470.382,619.128Z" transform="translate(-398.5 -567.412)"/>
        <path id="Path_1057" data-name="Path 1057" class="cls-7" d="M472.714,283.9l-74.214-.137,8.6-14.472.041-.069v-31.9a2.948,2.948,0,0,1,2.948-2.948h50.621a2.948,2.948,0,0,1,2.948,2.948v32.115Z" transform="translate(-398.5 -234.376)"/>
        <path id="Path_1058" data-name="Path 1058" class="cls-3" d="M484.573,250.957a.961.961,0,0,0-.96.96V281a.961.961,0,0,0,.96.96h51.168a.961.961,0,0,0,.96-.96V251.917a.961.961,0,0,0-.96-.96Z" transform="translate(-473.05 -248.899)"/>
        <path id="Path_1059" data-name="Path 1059" class="cls-5" d="M471.468,531.718a.412.412,0,0,0-.374.239l-2.65,5.762a.412.412,0,0,0,.374.584h55.734a.411.411,0,0,0,.368-.6l-2.881-5.761a.409.409,0,0,0-.368-.227Z" transform="translate(-459.731 -494.817)"/>
        <circle id="Ellipse_635" data-name="Ellipse 635" class="cls-3" cx="0.617" cy="0.617" r="0.617" transform="translate(36.283 0.343)"/>
        <path id="Path_1060" data-name="Path 1060" class="cls-5" d="M644.1,593.619a.412.412,0,0,0-.4.3l-.665,2.469a.412.412,0,0,0,.4.519h12.643a.412.412,0,0,0,.389-.546l-.855-2.469a.412.412,0,0,0-.389-.277Z" transform="translate(-612.681 -549.036)"/>
        <path id="Path_1061" data-name="Path 1061" class="cls-5" d="M320.865,337.135v.549H264.306l.043-.068v-.48Z" transform="translate(-255.705 -302.772)"/>
        <circle id="Ellipse_637" data-name="Ellipse 637" class="cls-3" cx="0.549" cy="0.549" r="0.549" transform="translate(63.033 2.675)"/>
        <g id="Group_117" data-name="Group 117" transform="translate(10.673 2.64)">
          <rect id="Rectangle_182" data-name="Rectangle 182" class="cls-30" width="43.971" height="2.232" transform="translate(0 22.416) rotate(-30.649)"/>
          <rect id="Rectangle_183" data-name="Rectangle 183" class="cls-30" width="43.971" height="2.232" transform="translate(8.222 24.295) rotate(-30.649)"/>
          <rect id="Rectangle_184" data-name="Rectangle 184" class="cls-30" width="43.971" height="2.232" transform="translate(15.504 26.351) rotate(-30.649)"/>
          <circle id="Ellipse_623" data-name="Ellipse 623" class="cls-3" cx="11.844" cy="11.844" r="11.844" transform="translate(12.796 2.589)"/>
          <path id="Path_1032" data-name="Path 1032" class="cls-7" d="M385.341,166.545a11.932,11.932,0,1,1,11.932,11.932A11.945,11.945,0,0,1,385.341,166.545Zm.176,0a11.756,11.756,0,1,0,11.756-11.756A11.769,11.769,0,0,0,385.517,166.545Z" transform="translate(-372.633 -152.112)"/>
          <path id="Path_1033" data-name="Path 1033" class="cls-31" d="M526.082,298.2h0a2.111,2.111,0,1,1,2.111,2.111A2.111,2.111,0,0,1,526.082,298.2Zm2.111-2.008a2.011,2.011,0,0,0-2.008,2.008h0a2.008,2.008,0,1,0,2.008-2.008Z" transform="translate(-503.553 -283.719)"/>
          <path id="Path_1034" data-name="Path 1034" class="cls-32" d="M498.776,272.8h0a4.017,4.017,0,1,1,4.017,4.017A4.017,4.017,0,0,1,498.776,272.8Zm4.017-3.914a3.914,3.914,0,1,0,3.914,3.914A3.914,3.914,0,0,0,502.793,268.89Z" transform="translate(-478.153 -258.319)"/>
          <path id="Path_1035" data-name="Path 1035" class="cls-32" d="M444.166,222a7.827,7.827,0,1,1,7.827,7.827A7.827,7.827,0,0,1,444.166,222Zm7.827-7.724A7.724,7.724,0,1,0,459.717,222,7.724,7.724,0,0,0,451.993,214.28Z" transform="translate(-427.353 -207.519)"/>
          <circle id="Ellipse_624" data-name="Ellipse 624" class="cls-33" cx="0.978" cy="0.978" r="0.978" transform="translate(23.662 13.455)"/>
          <circle id="Ellipse_625" data-name="Ellipse 625" class="cls-33" cx="0.978" cy="0.978" r="0.978" transform="translate(21.138 16.287)"/>
          <circle id="Ellipse_626" data-name="Ellipse 626" class="cls-33" cx="0.978" cy="0.978" r="0.978" transform="translate(30.982 15.875)"/>
          <circle id="Ellipse_627" data-name="Ellipse 627" class="cls-5" cx="0.463" cy="0.463" r="0.463" transform="translate(24.176 13.969)"/>
          <circle id="Ellipse_628" data-name="Ellipse 628" class="cls-5" cx="0.463" cy="0.463" r="0.463" transform="translate(31.497 16.39)"/>
          <circle id="Ellipse_629" data-name="Ellipse 629" class="cls-5" cx="0.463" cy="0.463" r="0.463" transform="translate(21.653 16.853)"/>
          <circle id="Ellipse_630" data-name="Ellipse 630" class="cls-11" cx="0.463" cy="0.463" r="0.463" transform="translate(2.549 8.769)"/>
          <path id="Path_1036" data-name="Path 1036" class="cls-5" d="M81.588,131.3H61.248v-.1H81.691v5.3h-.1Z" transform="translate(-56.974 -122.046)"/>
          <path id="Path_1037" data-name="Path 1037" class="cls-5" d="M227.2,233.227a1.339,1.339,0,1,1,1.339,1.339A1.339,1.339,0,0,1,227.2,233.227Zm1.339-1.236a1.236,1.236,0,1,0,1.236,1.236A1.236,1.236,0,0,0,228.538,231.991Z" transform="translate(-225.525 -223.995)"/>
          <circle id="Ellipse_631" data-name="Ellipse 631" class="cls-11" cx="0.463" cy="0.463" r="0.463" transform="translate(5.638 22.106)"/>
          <path id="Path_1038" data-name="Path 1038" class="cls-5" d="M271.478,424.364h0a1.339,1.339,0,1,1,1.339,1.339A1.339,1.339,0,0,1,271.478,424.364Zm1.339-1.236a1.236,1.236,0,1,0,1.236,1.236A1.236,1.236,0,0,0,272.817,423.128Z" transform="translate(-266.715 -401.795)"/>
          <circle id="Ellipse_632" data-name="Ellipse 632" class="cls-11" cx="0.463" cy="0.463" r="0.463" transform="translate(45.864 10.931)"/>
          <path id="Path_1039" data-name="Path 1039" class="cls-5" d="M847.963,264.222a1.339,1.339,0,1,1,1.339,1.339A1.339,1.339,0,0,1,847.963,264.222Zm1.339-1.236a1.237,1.237,0,0,0-1.236,1.236h0a1.236,1.236,0,1,0,1.236-1.236Z" transform="translate(-802.974 -252.827)"/>
          <path id="Path_1040" data-name="Path 1040" class="cls-5" d="M457.3,162.772l13.13-.207,0,.1-13.029.205v5.2h-.1Z" transform="translate(-425.388 -151.222)"/>
          <path id="Path_1041" data-name="Path 1041" class="cls-5" d="M105.9,253.372h14.676v-5.2h.1v5.3H105.9Z" transform="translate(-98.508 -230.854)"/>
          <rect id="Rectangle_185" data-name="Rectangle 185" class="cls-34" width="5.664" height="0.36" transform="translate(0.18 11.652)"/>
          <rect id="Rectangle_186" data-name="Rectangle 186" class="cls-34" width="5.664" height="0.36" transform="translate(0.18 12.682)"/>
          <rect id="Rectangle_187" data-name="Rectangle 187" class="cls-34" width="5.664" height="0.36" transform="translate(0.18 13.712)"/>
          <rect id="Rectangle_188" data-name="Rectangle 188" class="cls-34" width="5.664" height="0.36" transform="translate(3.27 24.989)"/>
          <rect id="Rectangle_189" data-name="Rectangle 189" class="cls-34" width="5.664" height="0.36" transform="translate(3.27 26.019)"/>
          <rect id="Rectangle_190" data-name="Rectangle 190" class="cls-34" width="5.664" height="0.36" transform="translate(3.27 27.049)"/>
          <rect id="Rectangle_191" data-name="Rectangle 191" class="cls-34" width="5.664" height="0.36" transform="translate(43.495 13.867)"/>
          <rect id="Rectangle_192" data-name="Rectangle 192" class="cls-34" width="5.664" height="0.36" transform="translate(43.495 14.896)"/>
          <rect id="Rectangle_193" data-name="Rectangle 193" class="cls-34" width="5.664" height="0.36" transform="translate(43.495 15.926)"/>
        </g>
      </g>
      <g class="cls-41" transform="matrix(1, 0, 0, 1, 16808.57, 1747.11)">
        <g id="Ellipse_638-2" data-name="Ellipse 638" class="cls-35" transform="translate(69.07 98.18)">
          <circle class="cls-36" cx="5.197" cy="5.197" r="5.197"/>
          <circle class="cls-37" cx="5.197" cy="5.197" r="3.697"/>
        </g>
      </g>
      <g class="cls-40" transform="matrix(1, 0, 0, 1, 16808.57, 1747.11)">
        <g id="Ellipse_639-2" data-name="Ellipse 639" class="cls-35" transform="translate(184.71 202.78)">
          <circle class="cls-36" cx="5.197" cy="5.197" r="5.197"/>
          <circle class="cls-37" cx="5.197" cy="5.197" r="3.697"/>
        </g>
      </g>
      <g class="cls-39" transform="matrix(1, 0, 0, 1, 16808.57, 1747.11)">
        <g id="Ellipse_640-2" data-name="Ellipse 640" class="cls-35" transform="translate(214.88 13.02)">
          <circle class="cls-36" cx="5.197" cy="5.197" r="5.197"/>
          <circle class="cls-37" cx="5.197" cy="5.197" r="3.697"/>
        </g>
      </g>
      <g class="cls-38" transform="matrix(1, 0, 0, 1, 16808.57, 1747.11)">
        <g id="Ellipse_641-2" data-name="Ellipse 641" class="cls-35" transform="translate(133.38 146.91)">
          <circle class="cls-36" cx="5.197" cy="5.197" r="5.197"/>
          <circle class="cls-37" cx="5.197" cy="5.197" r="3.697"/>
        </g>
      </g>
    </g>
  </g>
</svg>
