<svg xmlns="http://www.w3.org/2000/svg" xmlns:xlink="http://www.w3.org/1999/xlink" width="324" height="290" viewBox="0 0 324 290">
  <defs>
    <style>
      .cls-1, .cls-16, .cls-4, .cls-5 {
        fill: #fff;
      }

      .cls-1 {
        opacity: 0;
      }

      .cls-2 {
        fill: #caf1c4;
      }

      .cls-3 {
        fill: #eaeaea;
        opacity: 0.875;
      }

      .cls-4 {
        stroke: #313131;
        stroke-width: 5px;
      }

      .cls-6 {
        fill: url(#linear-gradient);
      }

      .cls-7 {
        fill: #008300;
      }

      .cls-8 {
        fill: url(#linear-gradient-2);
      }

      .cls-10, .cls-12, .cls-13, .cls-14, .cls-9 {
        opacity: 0.5;
      }

      .cls-9 {
        fill: url(#linear-gradient-3);
      }

      .cls-10 {
        fill: url(#linear-gradient-4);
      }

      .cls-11 {
        fill: url(#linear-gradient-5);
      }

      .cls-12 {
        fill: url(#linear-gradient-6);
      }

      .cls-13 {
        fill: url(#linear-gradient-7);
      }

      .cls-14 {
        fill: url(#linear-gradient-8);
      }

      .cls-15 {
        fill: #1bbc07;
      }

      .cls-16 {
        font-size: 5px;
        font-family: SFProDisplay-Semibold, SF Pro Display;
        font-weight: 600;
      }

      .cls-17, .cls-33 {
        fill: none;
      }

      .cls-17 {
        stroke: #508ed6;
        stroke-width: 3px;
      }

      .cls-18 {
        fill: #2f2e41;
      }

      .cls-19 {
        fill: #ccc;
      }

      .cls-20 {
        fill: #f2f2f2;
      }

      .cls-21 {
        fill: #e6e6e6;
      }

      .cls-22 {
        fill: #2ea448;
      }

      .cls-23 {
        fill: #3f3d56;
      }

      .cls-24 {
        fill: #ffb8b8;
      }

      .cls-25, .cls-30 {
        opacity: 0.1;
      }

      .cls-26 {
        fill: #d0cde1;
      }

      .cls-27 {
        fill: #c0c3c1;
      }

      .cls-28 {
        fill: #efb7b9;
      }

      .cls-29 {
        fill: #454b69;
      }

      .cls-31 {
        fill: #a0616a;
      }

      .cls-32 {
        stroke: none;
      }

      .cls-34 {
        filter: url(#Path_545);
      }

      .cls-35 {
        filter: url(#Ellipse_99);
      }

      .cls-36 {
        filter: url(#Ellipse_98);
      }

      .cls-37 {
        filter: url(#Ellipse_97);
      }

      .cls-38 {
        filter: url(#Ellipse_96);
      }

      .cls-39 {
        filter: url(#Rectangle_70);
      }

      .cls-40 {
        filter: url(#Rectangle_71);
      }
    </style>
    <filter id="Rectangle_71" x="43.691" y="23.437" width="135.302" height="185.941" filterUnits="userSpaceOnUse">
      <feOffset dy="3" input="SourceAlpha"/>
      <feGaussianBlur stdDeviation="3" result="blur"/>
      <feFlood flood-opacity="0.161"/>
      <feComposite operator="in" in2="blur"/>
      <feComposite in="SourceGraphic"/>
    </filter>
    <filter id="Rectangle_70" x="56.511" y="15.104" width="135.302" height="185.941" filterUnits="userSpaceOnUse">
      <feOffset dy="3" input="SourceAlpha"/>
      <feGaussianBlur stdDeviation="3" result="blur-2"/>
      <feFlood flood-opacity="0.161"/>
      <feComposite operator="in" in2="blur-2"/>
      <feComposite in="SourceGraphic"/>
    </filter>
    <linearGradient id="linear-gradient" x1="0.252" y1="0.893" x2="0.749" y2="0.109" gradientUnits="objectBoundingBox">
      <stop offset="0" stop-color="#3aff0f"/>
      <stop offset="0.994" stop-color="#008300"/>
    </linearGradient>
    <linearGradient id="linear-gradient-2" x1="1.243" y1="0.82" x2="-0.494" y2="0.07" xlink:href="#linear-gradient"/>
    <linearGradient id="linear-gradient-3" x1="1.117" y1="0.983" x2="-0.87" y2="0.124" xlink:href="#linear-gradient"/>
    <linearGradient id="linear-gradient-4" x1="0.554" y1="0.774" x2="0.304" y2="-0.529" xlink:href="#linear-gradient"/>
    <linearGradient id="linear-gradient-5" x1="1.275" y1="0.947" x2="-0.027" y2="0.197" xlink:href="#linear-gradient"/>
    <linearGradient id="linear-gradient-6" x1="0.899" y1="1.019" x2="-0.654" y2="0.125" xlink:href="#linear-gradient"/>
    <linearGradient id="linear-gradient-7" x1="0.843" y1="1.091" x2="0.409" y2="0.339" xlink:href="#linear-gradient"/>
    <linearGradient id="linear-gradient-8" x1="0.626" y1="1.651" x2="0.232" y2="-0.403" xlink:href="#linear-gradient"/>
    <filter id="Ellipse_96" x="11" y="95.229" width="27.615" height="27.615" filterUnits="userSpaceOnUse">
      <feOffset dy="3" input="SourceAlpha"/>
      <feGaussianBlur stdDeviation="3" result="blur-3"/>
      <feFlood flood-color="#2db22b" flood-opacity="0.553"/>
      <feComposite operator="in" in2="blur-3"/>
      <feComposite in="SourceGraphic"/>
    </filter>
    <filter id="Ellipse_97" x="56.511" y="11.899" width="28.256" height="28.256" filterUnits="userSpaceOnUse">
      <feOffset dy="3" input="SourceAlpha"/>
      <feGaussianBlur stdDeviation="3" result="blur-4"/>
      <feFlood flood-color="#2db22b" flood-opacity="0.553"/>
      <feComposite operator="in" in2="blur-4"/>
      <feComposite in="SourceGraphic"/>
    </filter>
    <filter id="Ellipse_98" x="92.406" y="210.608" width="28.256" height="28.256" filterUnits="userSpaceOnUse">
      <feOffset dy="3" input="SourceAlpha"/>
      <feGaussianBlur stdDeviation="3" result="blur-5"/>
      <feFlood flood-color="#2db22b" flood-opacity="0.553"/>
      <feComposite operator="in" in2="blur-5"/>
      <feComposite in="SourceGraphic"/>
    </filter>
    <filter id="Ellipse_99" x="202.017" y="61.256" width="27.615" height="27.615" filterUnits="userSpaceOnUse">
      <feOffset dy="3" input="SourceAlpha"/>
      <feGaussianBlur stdDeviation="3" result="blur-6"/>
      <feFlood flood-color="#2db22b" flood-opacity="0.553"/>
      <feComposite operator="in" in2="blur-6"/>
      <feComposite in="SourceGraphic"/>
    </filter>
    <filter id="Path_545" x="81.956" y="67.694" width="71.143" height="88.495" filterUnits="userSpaceOnUse">
      <feOffset dy="3" input="SourceAlpha"/>
      <feGaussianBlur stdDeviation="3" result="blur-7"/>
      <feFlood flood-opacity="0.306"/>
      <feComposite operator="in" in2="blur-7"/>
      <feComposite in="SourceGraphic"/>
    </filter>
  </defs>
  <g id="Group_386" data-name="Group 386" transform="translate(-572 -1903)">
    <rect id="Rectangle_352" data-name="Rectangle 352" class="cls-1" width="324" height="290" transform="translate(572 1903)"/>
    <g id="Group_385" data-name="Group 385" transform="translate(592 1918.672)">
      <path id="Path_455" data-name="Path 455" class="cls-2" d="M8.491,77.758C51,132.829,48.037,112.1,27.86,121.261s-13.506,49.852,25.476,57.22S212.411,135.2,200.787,52.783s-73.032-43.76-88.86-43.51S-34.019,22.687,8.491,77.758Z" transform="translate(16.077 147.423) rotate(-47)"/>
      <g class="cls-40" transform="matrix(1, 0, 0, 1, -20, -15.67)">
        <rect id="Rectangle_71-2" data-name="Rectangle 71" class="cls-3" width="117.302" height="167.941" rx="23" transform="translate(52.69 29.44)"/>
      </g>
      <g class="cls-39" transform="matrix(1, 0, 0, 1, -20, -15.67)">
        <g id="Rectangle_70-2" data-name="Rectangle 70" class="cls-4" transform="translate(65.51 21.1)">
          <rect class="cls-32" width="117.302" height="167.941" rx="23"/>
          <rect class="cls-33" x="2.5" y="2.5" width="112.302" height="162.941" rx="20.5"/>
        </g>
      </g>
      <path id="Path_155" data-name="Path 155" class="cls-5" d="M555.73,325.212c-.28,0-.507.365-.506.812s.227.808.506.809h23.913c.28,0,.507-.365.506-.812s-.227-.808-.506-.809Z" transform="translate(-497.226 -281.282)"/>
      <path id="Path_157" data-name="Path 157" class="cls-5" d="M555.73,366.958c-.28,0-.507.365-.506.812s.227.808.506.809h10.29c.28,0,.507-.365.506-.812s-.227-.808-.506-.809Z" transform="translate(-497.226 -313.687)"/>
      <g id="Group_28" data-name="Group 28" transform="translate(87.221 12.478)">
        <path id="Path_23" data-name="Path 23" d="M15.975-109.414v-5.434H15.38l-2.011,4.779h-.023l-2.015-4.779h-.591v5.434h.482v-4.458h.023l1.887,4.458h.448l1.89-4.458h.023v4.458Zm3.645-1.111a1.06,1.06,0,0,1-1.111.738,1.27,1.27,0,0,1-1.28-1.435v-.03h2.933v-.211a1.707,1.707,0,0,0-1.694-1.932,1.8,1.8,0,0,0-1.751,2.033A1.766,1.766,0,0,0,18.5-109.35a1.527,1.527,0,0,0,1.615-1.175Zm-1.16-2.433a1.2,1.2,0,0,1,1.19,1.311H17.233A1.253,1.253,0,0,1,18.46-112.958Zm5.076,2.433a1.061,1.061,0,0,1-1.111.738,1.27,1.27,0,0,1-1.28-1.435v-.03h2.933v-.211a1.707,1.707,0,0,0-1.694-1.932,1.8,1.8,0,0,0-1.751,2.033,1.766,1.766,0,0,0,1.781,2.011,1.527,1.527,0,0,0,1.615-1.175Zm-1.16-2.433a1.2,1.2,0,0,1,1.19,1.311H21.149A1.253,1.253,0,0,1,22.377-112.958Zm2.583-1.352v.979h-.584v.414h.584v2.538c0,.708.264.987.919.987a3.112,3.112,0,0,0,.369-.023v-.426c-.03.008-.218.015-.271.015-.362,0-.52-.173-.52-.576v-2.515h.772v-.414h-.772v-.979Z" transform="translate(-10.741 119.565)"/>
        <g id="logo" transform="translate(19.998 0)">
          <g id="Group_19" data-name="Group 19">
            <g id="Group_18" data-name="Group 18">
              <g id="Group_17" data-name="Group 17">
                <path id="Path_14" data-name="Path 14" class="cls-6" d="M13,3.753,8.133.367A2.105,2.105,0,0,0,6.931,0a2.171,2.171,0,0,0-1.2.368L.846,3.753A1.962,1.962,0,0,0,0,5.348V9.862a1.962,1.962,0,0,0,.846,1.595l4.87,3.386a2.1,2.1,0,0,0,1.2.368,2.171,2.171,0,0,0,1.2-.368L13,11.481a1.962,1.962,0,0,0,.846-1.595V5.36A2,2,0,0,0,13,3.753Zm.233,6.121a1.341,1.341,0,0,1-.589,1.092l-4.87,3.386a1.477,1.477,0,0,1-.859.258,1.505,1.505,0,0,1-.859-.258L1.2,10.966A1.324,1.324,0,0,1,.613,9.874V5.36A1.341,1.341,0,0,1,1.2,4.268L6.072.882A1.477,1.477,0,0,1,6.931.625a1.505,1.505,0,0,1,.859.258l4.87,3.386a1.341,1.341,0,0,1,.589,1.092V9.874Z" transform="translate(0 0.001)"/>
              </g>
            </g>
          </g>
          <g id="Group_24" data-name="Group 24" transform="translate(3.717 4.747)">
            <g id="Group_23" data-name="Group 23">
              <g id="Group_22" data-name="Group 22">
                <g id="Group_20" data-name="Group 20" transform="translate(2.134)">
                  <path id="Path_15" data-name="Path 15" class="cls-7" d="M51.981,38.7v1.423H50.558V44.4H49.135V40.123H47.7V38.7Z" transform="translate(-47.7 -38.7)"/>
                </g>
                <g id="Group_21" data-name="Group 21">
                  <rect id="Rectangle_5" data-name="Rectangle 5" class="cls-7" width="1.423" height="5.704"/>
                </g>
              </g>
            </g>
            <path id="Path_16" data-name="Path 16" class="cls-8" d="M31.723,38.7,30.3,44.4V38.7Z" transform="translate(-30.3 -38.7)"/>
            <path id="Path_17" data-name="Path 17" class="cls-9" d="M31.723,44.4,30.3,38.7v5.7Z" transform="translate(-30.3 -38.7)"/>
            <path id="Path_18" data-name="Path 18" class="cls-10" d="M47.7,40.123,51.981,38.7H47.7Z" transform="translate(-45.566 -38.7)"/>
            <path id="Path_19" data-name="Path 19" class="cls-11" d="M60.823,50.3,59.4,54.581h1.423Z" transform="translate(-55.83 -48.877)"/>
            <path id="Path_20" data-name="Path 20" class="cls-12" d="M59.4,50.3l1.423,4.281H59.4Z" transform="translate(-55.83 -48.877)"/>
            <path id="Path_21" data-name="Path 21" class="cls-13" d="M71,40.123,72.423,38.7v1.423Z" transform="translate(-66.007 -38.7)"/>
            <path id="Path_22" data-name="Path 22" class="cls-14" d="M51.981,40.123,47.7,38.7v1.423" transform="translate(-45.566 -38.7)"/>
          </g>
        </g>
      </g>
      <g id="Group_51" data-name="Group 51" transform="translate(109.274 143.52)">
        <path id="Path_154" data-name="Path 154" class="cls-15" d="M479.431,300.692H422.012c-.587,0-1.063-.346-1.063-.772V281.615c0-.426.476-.772,1.063-.772h57.419c.587,0,1.063.346,1.063.772V299.92C480.494,300.346,480.018,300.692,479.431,300.692Z" transform="translate(-420.949 -280.842)"/>
        <text id="SEND" class="cls-16" transform="translate(22.144 11.808)"><tspan x="0" y="0">SEND</tspan></text>
      </g>
      <g class="cls-38" transform="matrix(1, 0, 0, 1, -20, -15.67)">
        <g id="Ellipse_96-2" data-name="Ellipse 96" class="cls-17" transform="translate(20 101.23)">
          <circle class="cls-32" cx="4.807" cy="4.807" r="4.807"/>
          <circle class="cls-33" cx="4.807" cy="4.807" r="3.307"/>
        </g>
      </g>
      <g class="cls-37" transform="matrix(1, 0, 0, 1, -20, -15.67)">
        <g id="Ellipse_97-2" data-name="Ellipse 97" class="cls-17" transform="translate(65.51 17.9)">
          <circle class="cls-32" cx="5.128" cy="5.128" r="5.128"/>
          <circle class="cls-33" cx="5.128" cy="5.128" r="3.628"/>
        </g>
      </g>
      <g class="cls-36" transform="matrix(1, 0, 0, 1, -20, -15.67)">
        <g id="Ellipse_98-2" data-name="Ellipse 98" class="cls-17" transform="translate(101.41 216.61)">
          <circle class="cls-32" cx="5.128" cy="5.128" r="5.128"/>
          <circle class="cls-33" cx="5.128" cy="5.128" r="3.628"/>
        </g>
      </g>
      <g class="cls-35" transform="matrix(1, 0, 0, 1, -20, -15.67)">
        <g id="Ellipse_99-2" data-name="Ellipse 99" class="cls-17" transform="translate(211.02 67.26)">
          <circle class="cls-32" cx="4.807" cy="4.807" r="4.807"/>
          <circle class="cls-33" cx="4.807" cy="4.807" r="3.307"/>
        </g>
      </g>
      <g id="Group_61" data-name="Group 61" transform="translate(37.064 29.688)">
        <path id="Path_501" data-name="Path 501" class="cls-5" d="M301.857,304.008H253.323a2.307,2.307,0,0,1-2.3-2.3V235.817a2.307,2.307,0,0,1,2.3-2.3h48.533a2.307,2.307,0,0,1,2.3,2.3V301.7A2.307,2.307,0,0,1,301.857,304.008Z" transform="translate(-251.019 -216.973)"/>
        <path id="Path_502" data-name="Path 502" class="cls-5" d="M307.165,291.325a9.017,9.017,0,0,1-6.223,8.573l-.163.051q-.352.108-.714.186a8.854,8.854,0,0,1-1.328.184q-.291.02-.586.02a9,9,0,0,1-2.98-.5l-.083-.03a9.015,9.015,0,1,1,12.077-8.48Z" transform="translate(-282.782 -257.639)"/>
        <path id="Path_503" data-name="Path 503" class="cls-18" d="M337.826,346.151l0-.164a1.356,1.356,0,0,1-.776-.175.5.5,0,0,1-.2-.371.288.288,0,0,1,.095-.237.5.5,0,0,1,.507,0l.135.062-.26-1.9-.162.022L337.4,345a.579.579,0,0,0-.547.079.449.449,0,0,0-.152.368.666.666,0,0,0,.262.5A1.508,1.508,0,0,0,337.826,346.151Z" transform="translate(-322.417 -308.515)"/>
        <rect id="Rectangle_72" data-name="Rectangle 72" class="cls-18" width="0.883" height="0.164" transform="translate(13.072 35.008)"/>
        <rect id="Rectangle_73" data-name="Rectangle 73" class="cls-18" width="0.883" height="0.164" transform="translate(15.858 35.008)"/>
        <path id="Path_504" data-name="Path 504" class="cls-18" d="M328.955,378a.806.806,0,0,0,.018-.164.78.78,0,0,0-.779-.779h-1.147a.779.779,0,0,0-.779.779.759.759,0,0,0,.018.165,4.4,4.4,0,0,0-1.214.6c-.072.05-.143.1-.211.161l.083.029a9,9,0,0,0,2.98.5q.295,0,.586-.02a8.866,8.866,0,0,0,1.328-.184c.242-.052.479-.114.714-.186A4.443,4.443,0,0,0,328.955,378Z" transform="translate(-312.555 -336.597)"/>
        <path id="Path_505" data-name="Path 505" class="cls-18" d="M347.054,389.349a.6.6,0,0,0-.3.1,8.862,8.862,0,0,0,1.328-.184Z" transform="translate(-330.803 -346.772)"/>
        <ellipse id="Ellipse_108" data-name="Ellipse 108" class="cls-18" cx="0.369" cy="0.697" rx="0.369" ry="0.697" transform="translate(16.019 29.456) rotate(-73.27)"/>
        <path id="Path_508" data-name="Path 508" class="cls-19" d="M296.933,299.369a9.237,9.237,0,0,1-3.062-.519l-.086-.03a9.26,9.26,0,1,1,6.014.1l-.169.053c-.233.072-.48.136-.732.191a9.13,9.13,0,0,1-1.365.189C297.336,299.362,297.134,299.369,296.933,299.369Zm0-18.028a8.77,8.77,0,0,0-2.98,17.017l.081.029a8.747,8.747,0,0,0,2.9.491c.19,0,.382-.006.569-.019a8.642,8.642,0,0,0,1.293-.179c.239-.052.472-.113.693-.181l.159-.05a8.77,8.77,0,0,0-2.715-17.108Z" transform="translate(-281.563 -256.423)"/>
        <path id="Path_509" data-name="Path 509" class="cls-20" d="M269.607,502.682" transform="translate(-266.509 -441.285)"/>
        <path id="Path_510" data-name="Path 510" class="cls-19" d="M301.857,304.008H253.323a2.307,2.307,0,0,1-2.3-2.3V235.817a2.307,2.307,0,0,1,2.3-2.3h48.533a2.307,2.307,0,0,1,2.3,2.3V301.7A2.307,2.307,0,0,1,301.857,304.008Zm-48.533-70.224a2.036,2.036,0,0,0-2.034,2.034V301.7a2.036,2.036,0,0,0,2.034,2.034h48.533a2.036,2.036,0,0,0,2.033-2.033V235.817a2.036,2.036,0,0,0-2.033-2.034Z" transform="translate(-251.019 -216.973)"/>
        <path id="Path_511" data-name="Path 511" class="cls-21" d="M425.589,325.327H411.855a1.086,1.086,0,0,1,0-2.173h13.733a1.086,1.086,0,0,1,0,2.173Z" transform="translate(-384.146 -291.676)"/>
        <path id="Path_512" data-name="Path 512" class="cls-21" d="M430.07,347.33H411.855a1.086,1.086,0,1,1,0-2.173H430.07a1.086,1.086,0,0,1,0,2.173Z" transform="translate(-384.146 -310.012)"/>
        <path id="Path_513" data-name="Path 513" class="cls-21" d="M323.1,431.719H288.9a1.086,1.086,0,0,1,0-2.173h34.2a1.086,1.086,0,0,1,0,2.173Z" transform="translate(-281.682 -380.337)"/>
        <path id="Path_514" data-name="Path 514" class="cls-21" d="M327.586,453.721H288.9a1.086,1.086,0,1,1,0-2.173h38.686a1.086,1.086,0,1,1,0,2.173Z" transform="translate(-281.682 -398.673)"/>
        <path id="Path_515" data-name="Path 515" class="cls-21" d="M323.1,504.292H288.9a1.086,1.086,0,0,1,0-2.173h34.2a1.086,1.086,0,0,1,0,2.173Z" transform="translate(-281.682 -440.816)"/>
        <path id="Path_516" data-name="Path 516" class="cls-21" d="M327.586,526.295H288.9a1.086,1.086,0,0,1,0-2.173h38.686a1.086,1.086,0,0,1,0,2.173Z" transform="translate(-281.682 -459.152)"/>
        <path id="Path_517" data-name="Path 517" class="cls-21" d="M323.1,576.865H288.9a1.086,1.086,0,1,1,0-2.173h34.2a1.086,1.086,0,0,1,0,2.173Z" transform="translate(-281.682 -501.294)"/>
        <path id="Path_518" data-name="Path 518" class="cls-21" d="M327.586,598.868H288.9a1.086,1.086,0,1,1,0-2.173h38.686a1.087,1.087,0,0,1,0,2.173Z" transform="translate(-281.682 -519.63)"/>
        <path id="Path_519" data-name="Path 519" class="cls-5" d="M680.937,204.764H632.4a2.307,2.307,0,0,1-2.3-2.3V136.573a2.307,2.307,0,0,1,2.3-2.3h48.533a2.307,2.307,0,0,1,2.3,2.3v65.886a2.307,2.307,0,0,1-2.3,2.3Z" transform="translate(-566.924 -134.268)"/>
        <path id="Path_520" data-name="Path 520" class="cls-19" d="M680.937,204.764H632.4a2.307,2.307,0,0,1-2.3-2.3V136.573a2.307,2.307,0,0,1,2.3-2.3h48.533a2.307,2.307,0,0,1,2.3,2.3v65.886a2.307,2.307,0,0,1-2.3,2.3ZM632.4,134.54a2.036,2.036,0,0,0-2.034,2.034v65.886a2.036,2.036,0,0,0,2.033,2.034h48.534a2.036,2.036,0,0,0,2.033-2.034V136.573a2.036,2.036,0,0,0-2.034-2.034Z" transform="translate(-566.924 -134.268)"/>
        <path id="Path_521" data-name="Path 521" class="cls-5" d="M686.4,191.545a9.014,9.014,0,1,1-9.014-9.014A9.014,9.014,0,0,1,686.4,191.545Z" transform="translate(-598.816 -174.488)"/>
        <path id="Path_522" data-name="Path 522" class="cls-22" d="M703.6,224.256c-.1,5.765-8.674,5.764-8.771,0C694.923,218.491,703.5,218.492,703.6,224.256Z" transform="translate(-620.863 -205.656)"/>
        <path id="Path_523" data-name="Path 523" class="cls-18" d="M720.074,242.661l0-.164c1.13.151,1.373-1.249.234-.726l.26-1.9.162.022-.221,1.617C721.7,241.332,721.26,242.825,720.074,242.661Z" transform="translate(-641.901 -222.272)"/>
        <rect id="Rectangle_74" data-name="Rectangle 74" class="cls-18" width="0.883" height="0.164" transform="translate(79.628 17.761)"/>
        <rect id="Rectangle_75" data-name="Rectangle 75" class="cls-18" width="0.883" height="0.164" transform="translate(76.842 17.761)"/>
        <path id="Path_524" data-name="Path 524" class="cls-18" d="M708.757,277.9c.172-1.161-1.187-.932-1.907-.943a.78.78,0,0,0-.76.942,4.263,4.263,0,0,0-1.515.836,9.053,9.053,0,0,0,5.772.064A4.242,4.242,0,0,0,708.757,277.9Z" transform="translate(-628.988 -253.166)"/>
        <path id="Path_525" data-name="Path 525" class="cls-18" d="M694.128,205.781c.813-.47,1.8-.109,2.638.088,1.593.49,3.827-.124,4.02-2.021.2-1.765-2.212-2.748-2.984-.992l.225-.029c-2.5-3.719-6.855-3.578-6.827,1.535-.009.158.236.157.246,0-.092-3.013,1.9-5.073,4.721-3.136a8.307,8.307,0,0,1,1.648,1.725c.294.329.357-1.088,1.762-.717,1.546.6,1.042,2.813-.34,3.3-1.708.872-3.557-.819-5.233.036a.123.123,0,0,0,.124.212Z" transform="translate(-617.842 -189.256)"/>
        <path id="Path_526" data-name="Path 526" class="cls-19" d="M676.23,199.648a9.252,9.252,0,1,1,2.867-.453A9.252,9.252,0,0,1,676.23,199.648Zm0-18.028A8.77,8.77,0,1,0,685,190.389,8.77,8.77,0,0,0,676.23,181.62Z" transform="translate(-597.663 -173.331)"/>
        <path id="Path_527" data-name="Path 527" class="cls-21" d="M804.668,226.083H790.935a1.086,1.086,0,0,1,0-2.173h13.733a1.086,1.086,0,1,1,0,2.173Z" transform="translate(-700.051 -208.971)"/>
        <path id="Path_528" data-name="Path 528" class="cls-21" d="M809.15,248.086H790.935a1.086,1.086,0,0,1,0-2.173H809.15a1.086,1.086,0,0,1,0,2.173Z" transform="translate(-700.051 -227.307)"/>
        <path id="Path_529" data-name="Path 529" class="cls-21" d="M702.184,332.475h-34.2a1.087,1.087,0,0,1,0-2.173h34.2a1.086,1.086,0,1,1,0,2.173Z" transform="translate(-597.587 -297.632)"/>
        <path id="Path_530" data-name="Path 530" class="cls-21" d="M706.666,354.477H667.98a1.086,1.086,0,0,1,0-2.173h38.686a1.086,1.086,0,0,1,0,2.173Z" transform="translate(-597.587 -315.968)"/>
        <path id="Path_531" data-name="Path 531" class="cls-21" d="M702.184,405.048h-34.2a1.086,1.086,0,0,1,0-2.173h34.2a1.086,1.086,0,1,1,0,2.173Z" transform="translate(-597.587 -358.111)"/>
        <path id="Path_532" data-name="Path 532" class="cls-21" d="M706.666,427.05H667.98a1.086,1.086,0,0,1,0-2.173h38.686a1.086,1.086,0,1,1,0,2.173Z" transform="translate(-597.587 -376.447)"/>
        <path id="Path_533" data-name="Path 533" class="cls-21" d="M702.185,477.621h-34.2a1.086,1.086,0,0,1,0-2.173h34.2a1.086,1.086,0,1,1,0,2.173Z" transform="translate(-597.587 -418.589)"/>
        <path id="Path_534" data-name="Path 534" class="cls-21" d="M706.666,499.624H667.98a1.086,1.086,0,0,1,0-2.173h38.686a1.086,1.086,0,1,1,0,2.173Z" transform="translate(-597.587 -436.925)"/>
        <path id="Path_535" data-name="Path 535" class="cls-5" d="M505.226,374.781H456.692a2.307,2.307,0,0,1-2.3-2.3V306.59a2.307,2.307,0,0,1,2.3-2.3h48.533a2.307,2.307,0,0,1,2.3,2.3v65.886a2.307,2.307,0,0,1-2.3,2.3Z" transform="translate(-420.496 -275.951)"/>
        <path id="Path_536" data-name="Path 536" class="cls-5" d="M492.506,360.985a8.987,8.987,0,0,0,2.65,6.385c.07.07.143.139.215.207a9,9,0,0,0,1.431,1.091c.1.061.2.119.3.175a8.965,8.965,0,0,0,1.629.715c.1.032.2.062.3.09a9.051,9.051,0,0,0,5.476-.154l.1-.037a9.015,9.015,0,1,0-12.1-8.473Z" transform="translate(-452.261 -315.69)"/>
        <path id="Path_537" data-name="Path 537" class="cls-18" d="M516.8,431.982a2.793,2.793,0,0,1-.721,1.891,2.027,2.027,0,0,1-1.85.706,1.312,1.312,0,0,1-1.1-1.367,1.013,1.013,0,0,1,1.251-.909.86.86,0,0,1,.344,1.448c-.122.1-.3-.074-.174-.174a.614.614,0,0,0-.173-1.018.772.772,0,0,0-1,.682,1.076,1.076,0,0,0,.935,1.1,1.769,1.769,0,0,0,1.55-.6,2.537,2.537,0,0,0,.694-1.765.123.123,0,0,1,.246,0Z" transform="translate(-469.446 -382.268)"/>
        <circle id="Ellipse_109" data-name="Ellipse 109" class="cls-22" cx="4.386" cy="4.386" r="4.386" transform="translate(45.37 42.505)"/>
        <path id="Path_538" data-name="Path 538" class="cls-18" d="M548.208,412.914l0-.164a1.355,1.355,0,0,0,.776-.175.5.5,0,0,0,.2-.371.288.288,0,0,0-.094-.237.5.5,0,0,0-.507,0l-.136.062.26-1.9.162.022-.221,1.616a.579.579,0,0,1,.547.079.448.448,0,0,1,.152.368.666.666,0,0,1-.262.5A1.508,1.508,0,0,1,548.208,412.914Z" transform="translate(-498.677 -364.152)"/>
        <rect id="Rectangle_76" data-name="Rectangle 76" class="cls-18" width="0.883" height="0.164" transform="translate(50.986 46.134)"/>
        <rect id="Rectangle_77" data-name="Rectangle 77" class="cls-18" width="0.883" height="0.164" transform="translate(48.2 46.134)"/>
        <path id="Path_539" data-name="Path 539" class="cls-18" d="M531.622,448.857a9.052,9.052,0,0,0,5.476-.154l.1-.037a4.363,4.363,0,0,0-1.389-.718.7.7,0,0,0,0-.385.775.775,0,0,0-.75-.544h-1.069a.772.772,0,0,0-.748.543.7.7,0,0,0,0,.386,4.371,4.371,0,0,0-1.239.607q-.114.08-.221.167C531.727,448.766,531.674,448.811,531.622,448.857Z" transform="translate(-484.859 -394.898)"/>
        <path id="Path_540" data-name="Path 540" class="cls-23" d="M570.193,405.469a1.416,1.416,0,0,0,.837,1.459.681.681,0,0,0,.147.016c.542,0,.983-.661.983-1.475a1.812,1.812,0,0,0-.379-1.162.95.95,0,0,0-.289-.235.686.686,0,0,0-.315-.078.719.719,0,0,0-.419.141A1.642,1.642,0,0,0,570.193,405.469Z" transform="translate(-517.002 -359.043)"/>
        <path id="Path_541" data-name="Path 541" class="cls-23" d="M517.575,405.469a1.572,1.572,0,0,0,.646,1.386.7.7,0,0,0,.338.089.631.631,0,0,0,.079,0c.5-.06.9-.7.9-1.47a1.594,1.594,0,0,0-.619-1.369.7.7,0,0,0-.365-.106.686.686,0,0,0-.316.078.956.956,0,0,0-.29.236A1.815,1.815,0,0,0,517.575,405.469Z" transform="translate(-473.152 -359.043)"/>
        <path id="Path_542" data-name="Path 542" class="cls-23" d="M519.922,386.655a.123.123,0,0,0,.117-.162,4.794,4.794,0,1,1,9.234-.539.123.123,0,0,0,.241.051,5.04,5.04,0,1,0-9.708.567A.123.123,0,0,0,519.922,386.655Z" transform="translate(-474.792 -338.985)"/>
        <path id="Path_543" data-name="Path 543" class="cls-18" d="M543.728,398.32a.615.615,0,0,1-.095.761,1.029,1.029,0,0,1-.948.233,2.563,2.563,0,0,0-1.137-.112c-.319.1-.547.389-.879.462a.609.609,0,0,1-.749-.334c-.05-.151.188-.215.237-.065.067.2.355.2.52.143.264-.09.468-.309.728-.414a1.593,1.593,0,0,1,.951,0,1.544,1.544,0,0,0,.925.041c.217-.092.389-.38.233-.593C543.422,398.316,543.635,398.194,543.728,398.32Z" transform="translate(-491.769 -354.271)"/>
        <path id="Path_544" data-name="Path 544" class="cls-19" d="M500.3,369.032a9.243,9.243,0,0,1-2.563-.36c-.1-.027-.2-.059-.3-.093a9.232,9.232,0,0,1-1.673-.735c-.1-.056-.2-.115-.306-.18a9.27,9.27,0,0,1-1.47-1.12c-.074-.069-.148-.141-.22-.212a9.259,9.259,0,1,1,9.7,2.144l-.1.037A9.238,9.238,0,0,1,500.3,369.032Zm0-18.028a8.769,8.769,0,0,0-6.19,14.979c.068.067.138.135.21.2a8.777,8.777,0,0,0,1.392,1.061c.1.062.195.118.289.17a8.737,8.737,0,0,0,1.585.7c.1.032.194.061.286.087a8.806,8.806,0,0,0,5.328-.149l.1-.036a8.769,8.769,0,0,0-3-17.01Z" transform="translate(-451.038 -314.476)"/>
        <g class="cls-34" transform="matrix(1, 0, 0, 1, -57.06, -45.36)">
          <path id="Path_545-2" data-name="Path 545" class="cls-22" d="M505.226,374.781H456.692a2.307,2.307,0,0,1-2.3-2.3V306.59a2.307,2.307,0,0,1,2.3-2.3h48.533a2.307,2.307,0,0,1,2.3,2.3v65.886a2.307,2.307,0,0,1-2.3,2.3Zm-48.533-70.224a2.036,2.036,0,0,0-2.034,2.034v65.886a2.036,2.036,0,0,0,2.034,2.034h48.533a2.036,2.036,0,0,0,2.034-2.034V306.59a2.036,2.036,0,0,0-2.034-2.034Z" transform="translate(-363.43 -230.59)"/>
        </g>
        <path id="Path_546" data-name="Path 546" class="cls-15" d="M628.958,396.1H615.224a1.086,1.086,0,1,1,0-2.173h13.733a1.086,1.086,0,0,1,0,2.173Z" transform="translate(-553.623 -350.654)"/>
        <path id="Path_547" data-name="Path 547" class="cls-15" d="M633.439,418.1H615.224a1.086,1.086,0,1,1,0-2.173h18.215a1.086,1.086,0,1,1,0,2.173Z" transform="translate(-553.623 -368.99)"/>
        <path id="Path_548" data-name="Path 548" class="cls-19" d="M526.474,502.491h-34.2a1.086,1.086,0,1,1,0-2.173h34.2a1.086,1.086,0,1,1,0,2.173Z" transform="translate(-451.159 -439.315)"/>
        <path id="Path_549" data-name="Path 549" class="cls-19" d="M530.955,524.494H492.27a1.086,1.086,0,1,1,0-2.173h38.686a1.086,1.086,0,0,1,0,2.173Z" transform="translate(-451.159 -457.651)"/>
        <path id="Path_550" data-name="Path 550" class="cls-19" d="M526.474,575.065h-34.2a1.086,1.086,0,1,1,0-2.173h34.2a1.086,1.086,0,1,1,0,2.173Z" transform="translate(-451.159 -499.794)"/>
        <path id="Path_551" data-name="Path 551" class="cls-19" d="M530.955,597.067H492.27a1.086,1.086,0,1,1,0-2.173h38.686a1.086,1.086,0,1,1,0,2.173Z" transform="translate(-451.159 -518.13)"/>
        <path id="Path_552" data-name="Path 552" class="cls-19" d="M526.474,647.637h-34.2a1.086,1.086,0,1,1,0-2.173h34.2a1.086,1.086,0,1,1,0,2.173Z" transform="translate(-451.159 -560.272)"/>
        <path id="Path_553" data-name="Path 553" class="cls-19" d="M530.955,669.64H492.27a1.086,1.086,0,1,1,0-2.173h38.686a1.086,1.086,0,1,1,0,2.173Z" transform="translate(-451.159 -578.608)"/>
        <path id="Path_554" data-name="Path 554" class="cls-15" d="M702.535,637.268a10.7,10.7,0,1,0,0,21.409h0a10.7,10.7,0,0,0,0-21.409Z" transform="translate(-618.368 -553.442)"/>
        <path id="f276b720-7c73-4755-84a7-b208d54eb1fc" class="cls-5" d="M728.708,680.539a1.3,1.3,0,0,1-.781-.26l-.014-.01-2.944-2.252a1.308,1.308,0,0,1,1.592-2.076l1.907,1.462,4.506-5.878a1.307,1.307,0,0,1,1.833-.242h0l-.028.039.029-.039a1.309,1.309,0,0,1,.242,1.834l-5.3,6.911a1.308,1.308,0,0,1-1.04.51Z" transform="translate(-645.556 -581.562)"/>
      </g>
      <g id="Group_65" data-name="Group 65" transform="translate(77.055 65.671)">
        <path id="Path_621" data-name="Path 621" class="cls-15" d="M345.1,340.256a9.414,9.414,0,0,1-3.5,7.337,9.3,9.3,0,0,1-1.291.88,9.123,9.123,0,0,1-.845.424,9.345,9.345,0,0,1-3.022.765q-.384.032-.777.031a9.331,9.331,0,0,1-1.544-.127q-.27-.042-.533-.1a9.057,9.057,0,0,1-.907-.252,9.416,9.416,0,0,1-3.312-1.926,8.609,8.609,0,0,1-.7-.7,9.436,9.436,0,1,1,16.435-6.33Z" transform="translate(-326.225 -330.819)"/>
        <path id="Path_629" data-name="Path 629" class="cls-24" d="M380.211,403.79s-.939,2.672-.361,3.083-1.95,3.768-1.95,3.768l-3.033-.822,1.661-2.809s.217-2.809.217-3.22S380.211,403.79,380.211,403.79Z" transform="translate(-369.099 -394.975)"/>
        <path id="Path_622" data-name="Path 622" class="cls-25" d="M380.211,403.79s-.939,2.672-.361,3.083-1.95,3.768-1.95,3.768l-3.033-.822,1.661-2.809s.217-2.809.217-3.22S380.211,403.79,380.211,403.79Z" transform="translate(-369.099 -394.975)"/>
        <circle id="Ellipse_113" data-name="Ellipse 113" class="cls-24" cx="2.466" cy="2.466" r="2.466" transform="translate(6.727 5.869)"/>
        <path id="Path_623" data-name="Path 623" class="cls-26" d="M381.541,445.524a9.089,9.089,0,0,1-.907-.252l.472-3.236.146-1,.748.281.347.129a.789.789,0,0,0,.627-.022c.724-.332,1.154-1.622,1.154-1.622s.029.362.067.974c.069,1.075.167,2.925.2,4.945q-.384.032-.776.032a9.33,9.33,0,0,1-1.544-.127C381.894,445.6,381.717,445.565,381.541,445.524Z" transform="translate(-374.183 -426.88)"/>
        <path id="Path_624" data-name="Path 624" class="cls-26" d="M354.213,426.664l-.21,1.925-.1.932-.357,3.273a9.075,9.075,0,0,1-.907-.252,9.416,9.416,0,0,1-3.312-1.926l-.455-1.624a1.926,1.926,0,0,1,.029-.289,0,0,0,0,1,0,0,2.035,2.035,0,0,1,.056-.252v0a1.866,1.866,0,0,1,.461-.823,33.564,33.564,0,0,1,4.178-2.261l.069.144Z" transform="translate(-346.185 -414.151)"/>
        <path id="Path_625" data-name="Path 625" class="cls-18" d="M382.256,371.651a2.742,2.742,0,0,1,1.593.265,2.331,2.331,0,0,1,.55.539,2.451,2.451,0,0,1,.67,1.986l-.194-.076a1.267,1.267,0,0,0,.122.543c-.027-.079-.119.049-.094.129l.213.7a.659.659,0,0,0-.84.5,2.722,2.722,0,0,0-.768-2.221,2.657,2.657,0,0,0-1.158-.378,2.331,2.331,0,0,0-1.123.006.808.808,0,0,0-.582.859.382.382,0,0,0-.431.212,1.115,1.115,0,0,0-.088.511c-.176.124-.376-.122-.448-.326a2.939,2.939,0,0,1-.227-1.482,1.13,1.13,0,0,1,1-.974.351.351,0,0,1-.091-.247l.417-.035a.461.461,0,0,1-.275-.145C380.671,372.2,381.986,371.661,382.256,371.651Z" transform="translate(-373.116 -366.802)"/>
        <path id="Path_626" data-name="Path 626" class="cls-26" d="M399.761,427.43c-.064.514-.43,1.964-.8,3.359a9.116,9.116,0,0,1-.845.424,9.345,9.345,0,0,1-3.022.765q-.384.032-.777.031a9.332,9.332,0,0,1-1.544-.127c.191-.737.448-1.952.689-3.142.073-.36.145-.718.212-1.06.264-1.346.469-2.443.469-2.443a5.874,5.874,0,0,1,1.307-.991.421.421,0,0,1,.21-.035c.4.066.95,1.026.95,1.026s2.461.82,3.036,1.752A.681.681,0,0,1,399.761,427.43Z" transform="translate(-384.882 -413.135)"/>
        <path id="Path_627" data-name="Path 627" class="cls-26" d="M348.813,451.365l-.144,3.075a9.334,9.334,0,0,1-1.182-.9,8.586,8.586,0,0,1-.7-.7c.118-.518.217-.954.276-1.214a0,0,0,0,1,0,0c.031-.144.052-.233.056-.252v0Z" transform="translate(-344.347 -437.07)"/>
        <path id="Path_628" data-name="Path 628" class="cls-26" d="M437.931,447.73a9.306,9.306,0,0,1-1.291.88,9.123,9.123,0,0,1-.845.424l-.273-1.591.274-3.014,1.529.382.115.029Z" transform="translate(-422.561 -430.956)"/>
      </g>
      <g id="Group_76" data-name="Group 76" transform="translate(42.912 53.978)">
        <path id="Path_705" data-name="Path 705" class="cls-27" d="M345.1,340.256a9.414,9.414,0,0,1-3.5,7.337,9.3,9.3,0,0,1-1.291.88,9.123,9.123,0,0,1-.845.424,9.345,9.345,0,0,1-3.022.765q-.384.032-.777.031a9.331,9.331,0,0,1-1.544-.127q-.27-.042-.533-.1a9.057,9.057,0,0,1-.907-.252,9.416,9.416,0,0,1-3.312-1.926,8.609,8.609,0,0,1-.7-.7,9.436,9.436,0,1,1,16.435-6.33Z" transform="translate(-326.225 -330.819)"/>
        <g id="Group_75" data-name="Group 75" transform="translate(4.279 5.93)">
          <path id="Path_703" data-name="Path 703" class="cls-28" d="M503.232,443.364s.275,1.5-.342,1.989.521,3.424,2.413,3.082,2.658-2.8,2.658-2.8a1.668,1.668,0,0,1-1.19-2.38Z" transform="translate(-499.763 -436.369)"/>
          <path id="Path_699" data-name="Path 699" class="cls-25" d="M503.232,443.364s.275,1.5-.342,1.989.521,3.424,2.413,3.082,2.658-2.8,2.658-2.8a1.668,1.668,0,0,1-1.19-2.38Z" transform="translate(-499.711 -436.369)"/>
          <circle id="Ellipse_157" data-name="Ellipse 157" class="cls-28" cx="3.13" cy="3.13" r="3.13" transform="translate(2.062 1.834)"/>
          <path id="Path_700" data-name="Path 700" class="cls-21" d="M454.516,480.429l-.228.594h-9.9l-.209-.5a1.312,1.312,0,0,1,.8-1.207l.3-.126c.75-.319,1.66-.716,1.958-.881a.5.5,0,0,0,.092-.059c.163-.163.131.049.131.049s0,.04-.008.11a1.955,1.955,0,0,0,2.258,2.205c2.153-.154,2.247-1.606,2.228-2.034a1.06,1.06,0,0,0-.01-.118,2.953,2.953,0,0,1,.436.142,9.074,9.074,0,0,1,1.292.559c.056.039.123.08.2.12a1.3,1.3,0,0,1,.669,1.143Z" transform="translate(-444.18 -469.514)"/>
          <path id="Path_701" data-name="Path 701" class="cls-25" d="M508.681,478.635a2.822,2.822,0,0,1-2.816,2.468c-2.2.043-2.323-2.141-2.309-2.761a.474.474,0,0,0,.092-.06c.163-.163.131.049.131.049a1.994,1.994,0,0,0,2.25,2.314c2.527-.181,2.217-2.152,2.217-2.152A2.575,2.575,0,0,1,508.681,478.635Z" transform="translate(-500.501 -469.542)"/>
          <path id="Path_702" data-name="Path 702" class="cls-29" d="M469.28,314.566a.541.541,0,0,1,.566.206,1.012,1.012,0,0,1,.145.537c.136.029.213-.125.225-.241a6.274,6.274,0,0,1,.213-1.413,1.69,1.69,0,0,1,1.04-1.075,1.2,1.2,0,0,1,.566-.054c.113.019.219.058.332.077.389.064.814-.12,1.179.008a.929.929,0,0,1,.481.455.993.993,0,0,0,.187.272,1.307,1.307,0,0,0,.621.219.8.8,0,0,1,.561.291.758.758,0,0,1-.006.5,1.228,1.228,0,0,0,.127.777c.041.078.124.167.223.141a.2.2,0,0,0,.106-.086c.257-.36.249-.827.569-1.148.107-.107.246-.192.35-.3a.678.678,0,0,0,.182-.617,2.035,2.035,0,0,0-.415-.668,2.622,2.622,0,0,1-.445-.923.164.164,0,0,1,0-.12.322.322,0,0,1,.114-.093.43.43,0,0,0,.148-.549.906.906,0,0,0-.511-.408,3.4,3.4,0,0,0-.7-.154.382.382,0,0,1-.391-.193c-.022-.056-.022-.117-.044-.173a.4.4,0,0,0-.3-.21.873.873,0,0,0-.4.028.628.628,0,0,1-.449.032c-.068-.039-.106-.109-.179-.14-.148-.063-.3.064-.411.17a1.014,1.014,0,0,1-.372.249.552.552,0,0,1-.46-.03,1.451,1.451,0,0,1-.236-.254.888.888,0,0,0-.558-.229,1.973,1.973,0,0,0-.63.069,3.82,3.82,0,0,0-1.108.463,1.189,1.189,0,0,0-.425.395.9.9,0,0,0-.1.407,1.471,1.471,0,0,0,.514,1.22.724.724,0,0,0-.367.549,3.01,3.01,0,0,0-.142,1.029,2.259,2.259,0,0,1,.039.534,1.156,1.156,0,0,0-.035.257A.246.246,0,0,0,469.28,314.566Z" transform="translate(-467.793 -309.447)"/>
          <g id="Group_75-2" data-name="Group 75" class="cls-30" transform="translate(1.281 1.138)">
            <path id="Path_677" data-name="Path 677" d="M593.127,378.18a.738.738,0,0,1-.135.2c-.1.11-.243.194-.35.3-.32.321-.314.789-.569,1.148a.2.2,0,0,1-.106.086c-.1.025-.182-.063-.223-.141a1.254,1.254,0,0,1-.111-.3q-.008.039-.016.079a1.229,1.229,0,0,0,.127.777c.041.078.125.167.223.141a.2.2,0,0,0,.106-.086c.257-.36.249-.827.569-1.148.107-.107.246-.192.35-.3a.677.677,0,0,0,.182-.617A.744.744,0,0,0,593.127,378.18Z" transform="translate(-585.299 -375.784)"/>
            <path id="Path_678" data-name="Path 678" d="M605.4,333.387a.315.315,0,0,0-.114.093.164.164,0,0,0,0,.12,2.516,2.516,0,0,0,.114.342h0a.43.43,0,0,0,.146-.555.578.578,0,0,0-.051-.087A.428.428,0,0,1,605.4,333.387Z" transform="translate(-598.275 -333.212)"/>
            <path id="Path_679" data-name="Path 679" d="M469.6,332.449a1.4,1.4,0,0,1-.491-.869,1.229,1.229,0,0,0-.023.206,1.565,1.565,0,0,0,.247.926A.526.526,0,0,1,469.6,332.449Z" transform="translate(-469.081 -331.58)"/>
            <path id="Path_680" data-name="Path 680" d="M475.585,360.182a.758.758,0,0,0,.006-.5.8.8,0,0,0-.561-.291,1.3,1.3,0,0,1-.621-.219.994.994,0,0,1-.187-.272.922.922,0,0,0-.481-.455c-.366-.129-.79.056-1.179-.008-.113-.018-.219-.058-.332-.077a1.2,1.2,0,0,0-.566.051,1.688,1.688,0,0,0-1.04,1.075,6.224,6.224,0,0,0-.213,1.413c-.012.116-.089.27-.225.241a1.021,1.021,0,0,0-.145-.537.537.537,0,0,0-.566-.206.273.273,0,0,1-.158-.1.868.868,0,0,1,0,.206,1.158,1.158,0,0,0-.035.257.246.246,0,0,0,.2.194.541.541,0,0,1,.566.206,1.011,1.011,0,0,1,.145.537c.136.029.213-.125.225-.241a6.273,6.273,0,0,1,.213-1.413,1.69,1.69,0,0,1,1.04-1.075,1.2,1.2,0,0,1,.566-.054c.113.019.219.058.332.077.389.064.814-.12,1.179.008a.929.929,0,0,1,.481.455.993.993,0,0,0,.187.272,1.307,1.307,0,0,0,.621.219.825.825,0,0,1,.55.273C475.582,360.2,475.583,360.193,475.585,360.182Z" transform="translate(-469.268 -356.968)"/>
            <path id="Path_681" data-name="Path 681" d="M469.155,381.828a1.447,1.447,0,0,0-.025-.418,1.861,1.861,0,0,0-.014.438c0,.038.008.075.013.112C469.136,381.916,469.147,381.872,469.155,381.828Z" transform="translate(-469.108 -378.848)"/>
          </g>
        </g>
        <path id="Path_706" data-name="Path 706" class="cls-21" d="M9083.881,2671.477s4.984,3.1,9.906-.021c-1.811-.868-2.625-.438-2.625-.438s-1.605.915-5.32,0S9083.881,2671.477,9083.881,2671.477Z" transform="translate(-9079.391 -2653.974)"/>
      </g>
      <g id="Group_77" data-name="Group 77" transform="translate(106.053 37.608)">
        <path id="Path_705-2" data-name="Path 705" class="cls-27" d="M345.1,340.256a9.414,9.414,0,0,1-3.5,7.337,9.3,9.3,0,0,1-1.291.88,9.123,9.123,0,0,1-.845.424,9.345,9.345,0,0,1-3.022.765q-.384.032-.777.031a9.331,9.331,0,0,1-1.544-.127q-.27-.042-.533-.1a9.057,9.057,0,0,1-.907-.252,9.416,9.416,0,0,1-3.312-1.926,8.609,8.609,0,0,1-.7-.7,9.436,9.436,0,1,1,16.435-6.33Z" transform="translate(-326.225 -330.819)"/>
        <g id="Group_75-3" data-name="Group 75" transform="translate(4.279 5.93)">
          <path id="Path_703-2" data-name="Path 703" class="cls-28" d="M503.232,443.364s.275,1.5-.342,1.989.521,3.424,2.413,3.082,2.658-2.8,2.658-2.8a1.668,1.668,0,0,1-1.19-2.38Z" transform="translate(-499.763 -436.369)"/>
          <path id="Path_699-2" data-name="Path 699" class="cls-25" d="M503.232,443.364s.275,1.5-.342,1.989.521,3.424,2.413,3.082,2.658-2.8,2.658-2.8a1.668,1.668,0,0,1-1.19-2.38Z" transform="translate(-499.711 -436.369)"/>
          <circle id="Ellipse_157-2" data-name="Ellipse 157" class="cls-28" cx="3.13" cy="3.13" r="3.13" transform="translate(2.062 1.834)"/>
          <path id="Path_700-2" data-name="Path 700" class="cls-21" d="M454.516,480.429l-.228.594h-9.9l-.209-.5a1.312,1.312,0,0,1,.8-1.207l.3-.126c.75-.319,1.66-.716,1.958-.881a.5.5,0,0,0,.092-.059c.163-.163.131.049.131.049s0,.04-.008.11a1.955,1.955,0,0,0,2.258,2.205c2.153-.154,2.247-1.606,2.228-2.034a1.06,1.06,0,0,0-.01-.118,2.953,2.953,0,0,1,.436.142,9.074,9.074,0,0,1,1.292.559c.056.039.123.08.2.12a1.3,1.3,0,0,1,.669,1.143Z" transform="translate(-444.18 -469.514)"/>
          <path id="Path_701-2" data-name="Path 701" class="cls-25" d="M508.681,478.635a2.822,2.822,0,0,1-2.816,2.468c-2.2.043-2.323-2.141-2.309-2.761a.474.474,0,0,0,.092-.06c.163-.163.131.049.131.049a1.994,1.994,0,0,0,2.25,2.314c2.527-.181,2.217-2.152,2.217-2.152A2.575,2.575,0,0,1,508.681,478.635Z" transform="translate(-500.501 -469.542)"/>
          <path id="Path_702-2" data-name="Path 702" class="cls-29" d="M469.28,314.566a.541.541,0,0,1,.566.206,1.012,1.012,0,0,1,.145.537c.136.029.213-.125.225-.241a6.274,6.274,0,0,1,.213-1.413,1.69,1.69,0,0,1,1.04-1.075,1.2,1.2,0,0,1,.566-.054c.113.019.219.058.332.077.389.064.814-.12,1.179.008a.929.929,0,0,1,.481.455.993.993,0,0,0,.187.272,1.307,1.307,0,0,0,.621.219.8.8,0,0,1,.561.291.758.758,0,0,1-.006.5,1.228,1.228,0,0,0,.127.777c.041.078.124.167.223.141a.2.2,0,0,0,.106-.086c.257-.36.249-.827.569-1.148.107-.107.246-.192.35-.3a.678.678,0,0,0,.182-.617,2.035,2.035,0,0,0-.415-.668,2.622,2.622,0,0,1-.445-.923.164.164,0,0,1,0-.12.322.322,0,0,1,.114-.093.43.43,0,0,0,.148-.549.906.906,0,0,0-.511-.408,3.4,3.4,0,0,0-.7-.154.382.382,0,0,1-.391-.193c-.022-.056-.022-.117-.044-.173a.4.4,0,0,0-.3-.21.873.873,0,0,0-.4.028.628.628,0,0,1-.449.032c-.068-.039-.106-.109-.179-.14-.148-.063-.3.064-.411.17a1.014,1.014,0,0,1-.372.249.552.552,0,0,1-.46-.03,1.451,1.451,0,0,1-.236-.254.888.888,0,0,0-.558-.229,1.973,1.973,0,0,0-.63.069,3.82,3.82,0,0,0-1.108.463,1.189,1.189,0,0,0-.425.395.9.9,0,0,0-.1.407,1.471,1.471,0,0,0,.514,1.22.724.724,0,0,0-.367.549,3.01,3.01,0,0,0-.142,1.029,2.259,2.259,0,0,1,.039.534,1.156,1.156,0,0,0-.035.257A.246.246,0,0,0,469.28,314.566Z" transform="translate(-467.793 -309.447)"/>
          <g id="Group_75-4" data-name="Group 75" class="cls-30" transform="translate(1.281 1.138)">
            <path id="Path_677-2" data-name="Path 677" d="M593.127,378.18a.738.738,0,0,1-.135.2c-.1.11-.243.194-.35.3-.32.321-.314.789-.569,1.148a.2.2,0,0,1-.106.086c-.1.025-.182-.063-.223-.141a1.254,1.254,0,0,1-.111-.3q-.008.039-.016.079a1.229,1.229,0,0,0,.127.777c.041.078.125.167.223.141a.2.2,0,0,0,.106-.086c.257-.36.249-.827.569-1.148.107-.107.246-.192.35-.3a.677.677,0,0,0,.182-.617A.744.744,0,0,0,593.127,378.18Z" transform="translate(-585.299 -375.784)"/>
            <path id="Path_678-2" data-name="Path 678" d="M605.4,333.387a.315.315,0,0,0-.114.093.164.164,0,0,0,0,.12,2.516,2.516,0,0,0,.114.342h0a.43.43,0,0,0,.146-.555.578.578,0,0,0-.051-.087A.428.428,0,0,1,605.4,333.387Z" transform="translate(-598.275 -333.212)"/>
            <path id="Path_679-2" data-name="Path 679" d="M469.6,332.449a1.4,1.4,0,0,1-.491-.869,1.229,1.229,0,0,0-.023.206,1.565,1.565,0,0,0,.247.926A.526.526,0,0,1,469.6,332.449Z" transform="translate(-469.081 -331.58)"/>
            <path id="Path_680-2" data-name="Path 680" d="M475.585,360.182a.758.758,0,0,0,.006-.5.8.8,0,0,0-.561-.291,1.3,1.3,0,0,1-.621-.219.994.994,0,0,1-.187-.272.922.922,0,0,0-.481-.455c-.366-.129-.79.056-1.179-.008-.113-.018-.219-.058-.332-.077a1.2,1.2,0,0,0-.566.051,1.688,1.688,0,0,0-1.04,1.075,6.224,6.224,0,0,0-.213,1.413c-.012.116-.089.27-.225.241a1.021,1.021,0,0,0-.145-.537.537.537,0,0,0-.566-.206.273.273,0,0,1-.158-.1.868.868,0,0,1,0,.206,1.158,1.158,0,0,0-.035.257.246.246,0,0,0,.2.194.541.541,0,0,1,.566.206,1.011,1.011,0,0,1,.145.537c.136.029.213-.125.225-.241a6.273,6.273,0,0,1,.213-1.413,1.69,1.69,0,0,1,1.04-1.075,1.2,1.2,0,0,1,.566-.054c.113.019.219.058.332.077.389.064.814-.12,1.179.008a.929.929,0,0,1,.481.455.993.993,0,0,0,.187.272,1.307,1.307,0,0,0,.621.219.825.825,0,0,1,.55.273C475.582,360.2,475.583,360.193,475.585,360.182Z" transform="translate(-469.268 -356.968)"/>
            <path id="Path_681-2" data-name="Path 681" d="M469.155,381.828a1.447,1.447,0,0,0-.025-.418,1.861,1.861,0,0,0-.014.438c0,.038.008.075.013.112C469.136,381.916,469.147,381.872,469.155,381.828Z" transform="translate(-469.108 -378.848)"/>
          </g>
        </g>
        <path id="Path_706-2" data-name="Path 706" class="cls-21" d="M9083.881,2671.477s4.984,3.1,9.906-.021c-1.811-.868-2.625-.438-2.625-.438s-1.605.915-5.32,0S9083.881,2671.477,9083.881,2671.477Z" transform="translate(-9079.391 -2653.974)"/>
      </g>
      <g id="Group_79" data-name="Group 79" transform="translate(141.681 140.254)">
        <path id="Path_555" data-name="Path 555" class="cls-21" d="M263.239,533.635l2.632-4.253a62.948,62.948,0,0,0-2.918-6.468l-1.728,1.454,1.348-2.177c-1.378-2.583-2.454-4.205-2.454-4.205s-5.275,8.695-6.912,17.821l3.594,5.317-3.922-3.039a25.463,25.463,0,0,0-.147,3.2c.217,10.765,3.908,19.422,8.245,19.334s7.677-8.885,7.461-19.65a33.531,33.531,0,0,0-2-10.023Z" transform="translate(-162.497 -477.525)"/>
        <path id="Path_556" data-name="Path 556" class="cls-21" d="M218.076,556.37l4.451-2.28a62.952,62.952,0,0,0,.845-7.045l-2.231.352,2.279-1.167c.155-2.923.073-4.869.073-4.869s-9.01,4.716-15.129,11.683l.328,6.41-1.786-4.629a25.48,25.48,0,0,0-1.779,2.661c-5.379,9.328-6.693,18.646-2.936,20.813s11.165-3.638,16.544-12.965a33.532,33.532,0,0,0,3.47-9.613Z" transform="translate(-105.424 -495.512)"/>
        <path id="Path_557" data-name="Path 557" class="cls-21" d="M248.327,710.4c5.129.328,10.718-.019,16.664,0V696.79a60.062,60.062,0,0,1-16.664,0Z" transform="translate(-158.027 -615.119)"/>
        <path id="Path_572" data-name="Path 572" class="cls-31" d="M659.842,399.946l-2.146-1.98s-4.858-3.346-3.161-5.186,5.117,2.45,5.117,2.45l2.122,1.39Z" transform="translate(-648.352 -380.825)"/>
        <path id="Path_573" data-name="Path 573" class="cls-18" d="M563.855,411.2l1.25,1.721s1.747,6.719-7.094,7.075c0,0-11.291,5.474-14.086,2.044s-10.507-11.678-10.507-11.678l4.537-4.611,9.245,9.663,8.969-4.494S560.789,408.377,563.855,411.2Z" transform="translate(-523.99 -391.163)"/>
        <path id="Path_581" data-name="Path 581" class="cls-31" d="M386.71,237.21l2.949,3.244-4.719,7.668-2.065-5.9Z" transform="translate(-349.663 -228.495)"/>
        <path id="Path_582" data-name="Path 582" class="cls-15" d="M532.679,400.557l5.238-8.675,1.84.417v2.949l.59,24.775-9.733-1.475S530.024,402.622,532.679,400.557Z" transform="translate(-498.433 -380.487)"/>
        <g id="Group_78" data-name="Group 78" transform="translate(0 11.812)">
          <path id="Path_574" data-name="Path 574" class="cls-21" d="M309.2,424.679l11.706,43.128-1.475.3-12.3-43.423Z" transform="translate(-263.451 -384.567)"/>
          <path id="Path_575" data-name="Path 575" class="cls-21" d="M422.242,424.679l-11.706,43.128,1.475.3,12.3-43.423Z" transform="translate(-390.684 -384.567)"/>
          <path id="Path_576" data-name="Path 576" class="cls-21" d="M388.463,418.87,386.5,462.955l-1.7.076,2.193-44.75Z" transform="translate(-348.908 -379.643)"/>
          <path id="Path_577" data-name="Path 577" class="cls-21" d="M498.846,555.349c0,1.118,3.061,2.318,7.079,2.7,4.312.414,8.047-.258,8.047-1.529s-3.735-2.523-8.047-2.779C501.907,553.506,498.846,554.231,498.846,555.349Z" transform="translate(-464.747 -516.82)"/>
          <path id="Path_578" data-name="Path 578" class="cls-18" d="M591.155,528.053l-2.949,2.065s-12.682,9.143-11.5,12.682,7.668,17.7,7.668,17.7l8.258-2.654L583.192,542.8l5.014-4.719,2.654-6.489Z" transform="translate(-561.333 -497.084)"/>
          <path id="Path_579" data-name="Path 579" class="cls-18" d="M547.763,501.426s5.9,9.143,2.36,11.8S536.555,526.2,536.555,526.2l-2.065,4.719-7.373,23.89-9.143-4.719,8.258-18.581s.885-6.784,3.834-10.618a27.087,27.087,0,0,0,4.129-9.438l-.885-2.654,5.281-8.45Z" transform="translate(-506.438 -475.766)"/>
          <path id="Path_580" data-name="Path 580" class="cls-18" d="M556.1,656.068l5.3-1.613s5.724-.236,5.43,1.829-5.014,15.632-6.489,14.747-.295-5.014-.295-5.014Z" transform="translate(-530.819 -594.346)"/>
          <path id="Path_583" data-name="Path 583" class="cls-18" d="M470.315,401.653l4.424-7.963,3.834,1.77,6.784,27.724,4.129,7.963s-13.567,6.784-16.812,0-3.539-21.825-3.539-21.825Z" transform="translate(-433.414 -393.69)"/>
          <path id="Path_584" data-name="Path 584" class="cls-18" d="M481.654,402.24l1.77-1.18s6.784-1.475,6.784,7.373c0,0,5.014,11.5,1.475,14.157s-12.092,10.028-12.092,10.028l-4.424-4.719,10.028-8.848-4.129-9.143S478.7,405.189,481.654,402.24Z" transform="translate(-438.265 -399.29)"/>
          <path id="Path_585" data-name="Path 585" class="cls-31" d="M540.909,522.44l-2.065,2.065s-3.539,4.719-5.309,2.949,2.654-5.014,2.654-5.014l1.475-2.065Z" transform="translate(-499.584 -491.176)"/>
          <path id="Path_586" data-name="Path 586" class="cls-18" d="M567.623,417.907l-5.061,12.41s-2.065,6.194-2.065,8.553v6.489l5.6-7.374S569.144,418.77,567.623,417.907Z" transform="translate(-533.035 -412.325)"/>
          <path id="Path_587" data-name="Path 587" class="cls-18" d="M648.421,716.336s1.461,5.753-.457,6.24-18.007.9-18.018-1.82,10.442-4.966,10.442-4.966l3.862-2.478Z" transform="translate(-629.947 -639.644)"/>
        </g>
        <circle id="Ellipse_110" data-name="Ellipse 110" class="cls-31" cx="5.309" cy="5.309" r="5.309" transform="translate(28.052 3.554)"/>
        <path id="Path_588" data-name="Path 588" class="cls-18" d="M540.6,350.351s-1.037-4.494,0-5.531v.691s.691-2.42,2.074-1.728c0,0,1.728-1.383,2.074-.691,2.034-1.839,11.052-.115,6.675,9.539,0,0-.8-2.972-.8-1.935a22.562,22.562,0,0,1-2.42-2.765C547.856,347.24,541.979,351.733,540.6,350.351Z" transform="translate(-512.896 -342.441)"/>
      </g>
    </g>
  </g>
</svg>
