<svg xmlns="http://www.w3.org/2000/svg" xmlns:xlink="http://www.w3.org/1999/xlink" width="66" height="66" viewBox="0 0 66 66">
  <defs>
    <style>
      .cls-1 {
        opacity: 0.902;
      }

      .cls-2 {
        fill: url(#linear-gradient);
      }

      .cls-3 {
        fill: #e4ffe0;
      }

      .cls-4 {
        filter: url(#Rectangle_224);
      }
    </style>
    <linearGradient id="linear-gradient" x1="0.911" y1="0.097" x2="-0.117" y2="1.136" gradientUnits="objectBoundingBox">
      <stop offset="0" stop-color="#7ef768"/>
      <stop offset="1" stop-color="#5da250"/>
    </linearGradient>
    <filter id="Rectangle_224" x="0" y="0" width="66" height="66" filterUnits="userSpaceOnUse">
      <feOffset dy="3" input="SourceAlpha"/>
      <feGaussianBlur stdDeviation="3" result="blur"/>
      <feFlood flood-opacity="0.302"/>
      <feComposite operator="in" in2="blur"/>
      <feComposite in="SourceGraphic"/>
    </filter>
  </defs>
  <g id="Group_200" data-name="Group 200" class="cls-1" transform="translate(-1208 -689)">
    <g class="cls-4" transform="matrix(1, 0, 0, 1, 1208, 689)">
      <rect id="Rectangle_224-2" data-name="Rectangle 224" class="cls-2" width="48" height="48" rx="13" transform="translate(9 6)"/>
    </g>
    <g id="curly-brackets" transform="translate(1228 704)">
      <path id="Path_1076" data-name="Path 1076" class="cls-3" d="M3.108,5.94c.383,2.491.766,3.066.766,5.557C3.874,13.029,1,14.37,1,14.37v1.916s2.874,1.341,2.874,2.874c0,2.491-.383,3.066-.766,5.557-.575,4.024,1.533,5.94,3.449,5.94H10.58V26.825s-3.449.383-3.449-1.916c0-1.724.383-1.724.766-5.557.192-1.724-.958-3.066-2.108-4.024,1.15-.958,2.3-2.108,2.108-3.832-.575-3.832-.766-3.832-.766-5.557,0-2.3,3.449-2.108,3.449-2.108V0H6.557C4.449,0,2.533,1.916,3.108,5.94Z" transform="translate(-1 0)"/>
      <path id="Path_1077" data-name="Path 1077" class="cls-3" d="M17.473,5.94c-.383,2.491-.766,3.066-.766,5.557,0,1.533,2.874,2.874,2.874,2.874v1.916s-2.874,1.341-2.874,2.874c0,2.491.383,3.066.766,5.557.575,4.024-1.533,5.94-3.449,5.94H10V26.825s3.449.383,3.449-1.916c0-1.724-.383-1.724-.766-5.557-.192-1.724.958-3.066,2.108-4.024-1.15-.958-2.3-2.108-2.108-3.832.383-3.832.766-3.832.766-5.557,0-2.3-3.449-2.108-3.449-2.108V0h4.024c2.108,0,4.024,1.916,3.449,5.94Z" transform="translate(7.245 0)"/>
    </g>
  </g>
</svg>
