<svg xmlns="http://www.w3.org/2000/svg" xmlns:xlink="http://www.w3.org/1999/xlink" width="66" height="66" viewBox="0 0 66 66">
  <defs>
    <style>
      .cls-1 {
        opacity: 0.902;
      }

      .cls-2 {
        fill: url(#linear-gradient);
      }

      .cls-3 {
        fill: #e4ffe0;
      }

      .cls-4 {
        filter: url(#Rectangle_221);
      }
    </style>
    <linearGradient id="linear-gradient" x1="0.911" y1="0.097" x2="-0.117" y2="1.136" gradientUnits="objectBoundingBox">
      <stop offset="0" stop-color="#7ef768"/>
      <stop offset="1" stop-color="#5da250"/>
    </linearGradient>
    <filter id="Rectangle_221" x="0" y="0" width="66" height="66" filterUnits="userSpaceOnUse">
      <feOffset dy="3" input="SourceAlpha"/>
      <feGaussianBlur stdDeviation="3" result="blur"/>
      <feFlood flood-opacity="0.302"/>
      <feComposite operator="in" in2="blur"/>
      <feComposite in="SourceGraphic"/>
    </filter>
  </defs>
  <g id="Group_198" data-name="Group 198" class="cls-1" transform="translate(-1565 -686)">
    <g class="cls-4" transform="matrix(1, 0, 0, 1, 1565, 686)">
      <rect id="Rectangle_221-2" data-name="Rectangle 221" class="cls-2" width="48" height="48" rx="13" transform="translate(9 6)"/>
    </g>
    <g id="function" transform="translate(1580 698)">
      <path id="Path_1068" data-name="Path 1068" class="cls-3" d="M17.717,2.953V0A8.547,8.547,0,0,0,9.3,7.023L7.626,16.241H3.691v2.953h3.4L5.509,27.883A5.6,5.6,0,0,1,0,32.481v2.953a8.547,8.547,0,0,0,8.414-7.023l1.676-9.217h3.2V16.241H10.627l1.581-8.689A5.6,5.6,0,0,1,17.717,2.953Zm0,0" transform="translate(0)"/>
      <path id="Path_1069" data-name="Path 1069" class="cls-3" d="M171.691,87.284,170.51,86.4c-.1.137-2.51,3.42-2.51,9.745s2.407,9.608,2.51,9.745l2.362-1.772c-.018-.025-1.919-2.706-1.919-7.973s1.907-7.955,1.926-7.982Zm0,0" transform="translate(-152.498 -78.426)"/>
      <path id="Path_1070" data-name="Path 1070" class="cls-3" d="M331.135,88.17c.019.025,1.919,2.706,1.919,7.973s-1.907,7.955-1.926,7.982l1.188.876,1.181.886c.1-.137,2.51-3.42,2.51-9.745S333.6,86.535,333.5,86.4Zm0,0" transform="translate(-300.574 -78.426)"/>
      <path id="Path_1071" data-name="Path 1071" class="cls-3" d="M232.968,142.586,231.209,145l-1.759-2.419-2.388,1.737,2.321,3.191-2.321,3.191,2.388,1.737,1.759-2.419,1.759,2.419,2.388-1.737-2.321-3.191,2.321-3.191Zm0,0" transform="translate(-206.11 -129.429)"/>
    </g>
  </g>
</svg>
