<svg xmlns="http://www.w3.org/2000/svg" xmlns:xlink="http://www.w3.org/1999/xlink" width="66" height="66" viewBox="0 0 66 66">
  <defs>
    <style>
      .cls-1 {
        opacity: 0.902;
      }

      .cls-2 {
        fill: url(#linear-gradient);
      }

      .cls-3 {
        fill: #e4ffe0;
      }

      .cls-4 {
        filter: url(#Rectangle_223);
      }
    </style>
    <linearGradient id="linear-gradient" x1="0.911" y1="0.097" x2="-0.117" y2="1.136" gradientUnits="objectBoundingBox">
      <stop offset="0" stop-color="#7ef768"/>
      <stop offset="1" stop-color="#5da250"/>
    </linearGradient>
    <filter id="Rectangle_223" x="0" y="0" width="66" height="66" filterUnits="userSpaceOnUse">
      <feOffset dy="3" input="SourceAlpha"/>
      <feGaussianBlur stdDeviation="3" result="blur"/>
      <feFlood flood-opacity="0.302"/>
      <feComposite operator="in" in2="blur"/>
      <feComposite in="SourceGraphic"/>
    </filter>
  </defs>
  <g id="Group_199" data-name="Group 199" class="cls-1" transform="translate(-1414 -706)">
    <g class="cls-4" transform="matrix(1, 0, 0, 1, 1414, 706)">
      <rect id="Rectangle_223-2" data-name="Rectangle 223" class="cls-2" width="48" height="48" rx="13" transform="translate(9 6)"/>
    </g>
    <g id="html-coding" transform="translate(1427 725)">
      <g id="Group_163" data-name="Group 163" transform="translate(2 0)">
        <path id="Path_1073" data-name="Path 1073" class="cls-3" d="M12.189,161.4,0,154.751V151.07l12.189-6.61v4.324L3.7,152.864l8.493,4.234Z" transform="translate(0 -142.132)"/>
        <path id="Path_1074" data-name="Path 1074" class="cls-3" d="M180.094,136.673l8.083-21.593h2.554l-8.1,21.593Z" transform="translate(-167.65 -115.08)"/>
        <path id="Path_1075" data-name="Path 1075" class="cls-3" d="M348.843,161.379v-4.3l8.492-4.2-8.492-4.167v-4.273l12.189,6.618v3.66Z" transform="translate(-325.768 -142.112)"/>
      </g>
    </g>
  </g>
</svg>
