<svg xmlns="http://www.w3.org/2000/svg" xmlns:xlink="http://www.w3.org/1999/xlink" width="66" height="66" viewBox="0 0 66 66">
  <defs>
    <style>
      .cls-1 {
        opacity: 0.902;
      }

      .cls-2 {
        fill: url(#linear-gradient);
      }

      .cls-3 {
        fill: #e4ffe0;
      }

      .cls-4 {
        filter: url(#Rectangle_222);
      }
    </style>
    <linearGradient id="linear-gradient" x1="0.911" y1="0.097" x2="-0.117" y2="1.136" gradientUnits="objectBoundingBox">
      <stop offset="0" stop-color="#7ef768"/>
      <stop offset="1" stop-color="#5da250"/>
    </linearGradient>
    <filter id="Rectangle_222" x="0" y="0" width="66" height="66" filterUnits="userSpaceOnUse">
      <feOffset dy="3" input="SourceAlpha"/>
      <feGaussianBlur stdDeviation="3" result="blur"/>
      <feFlood flood-opacity="0.302"/>
      <feComposite operator="in" in2="blur"/>
      <feComposite in="SourceGraphic"/>
    </filter>
  </defs>
  <g id="Group_197" data-name="Group 197" class="cls-1" transform="translate(-1656 -686)">
    <g class="cls-4" transform="matrix(1, 0, 0, 1, 1656, 686)">
      <rect id="Rectangle_222-2" data-name="Rectangle 222" class="cls-2" width="48" height="48" rx="13" transform="translate(9 6)"/>
    </g>
    <g id="pi-mathematical-constant-symbol" transform="translate(1675 703)">
      <g id="Group_162" data-name="Group 162" transform="translate(0 0)">
        <path id="Path_1072" data-name="Path 1072" class="cls-3" d="M21.548,23.763C17.59,20.668,20.383,7.939,20.383,7.939H25.22A2.5,2.5,0,0,0,27.7,5.251c0-2.916-2.419-2.736-2.419-2.736H7.475C4.552,2.515,1.913,5.862.4,8.256-.408,9.535.048,9.893,1.433,9.291c4.854-2.126,6.222-1.36,6.222-1.36.342,1.637.456,9.024-.79,11.939-1.262,2.745-3.591,6.222-.171,8.266,2.671,1.515,5.473-1.6,5.2-6.89-.13-2.8-.35-13.307-.35-13.307H16c-.139,1.637-.9,9.993-.106,14.944.822,8.266,9.805,6.662,11.483,1.98a4.316,4.316,0,0,0,.008-3.038c-.57-1.392-1.523-1.465-1.417-.814a3.585,3.585,0,0,1-.041,1.189C25.734,23.331,23.421,25.106,21.548,23.763Z" transform="translate(0 -2.513)"/>
      </g>
    </g>
  </g>
</svg>
