<svg xmlns="http://www.w3.org/2000/svg" xmlns:xlink="http://www.w3.org/1999/xlink" width="240.676" height="262.571" viewBox="0 0 240.676 262.571">
  <defs>
    <style>
      .cls-1 {
        opacity: 0.511;
      }

      .cls-2, .cls-3 {
        fill: #bdeeb5;
      }

      .cls-3 {
        opacity: 0.5;
      }

      .cls-4 {
        filter: url(#Rectangle_5);
      }

      .cls-5 {
        filter: url(#Path_15);
      }

      .cls-6 {
        filter: url(#Path_14);
      }
    </style>
    <filter id="Path_14" x="0" y="0" width="240.676" height="262.571" filterUnits="userSpaceOnUse">
      <feOffset dy="3" input="SourceAlpha"/>
      <feGaussianBlur stdDeviation="3" result="blur"/>
      <feFlood flood-opacity="0.255"/>
      <feComposite operator="in" in2="blur"/>
      <feComposite in="SourceGraphic"/>
    </filter>
    <filter id="Path_15" x="94.08" y="76.33" width="86.834" height="109.714" filterUnits="userSpaceOnUse">
      <feOffset dy="3" input="SourceAlpha"/>
      <feGaussianBlur stdDeviation="3" result="blur-2"/>
      <feFlood flood-opacity="0.251"/>
      <feComposite operator="in" in2="blur-2"/>
      <feComposite in="SourceGraphic"/>
    </filter>
    <filter id="Rectangle_5" x="59.762" y="76.33" width="40.879" height="109.713" filterUnits="userSpaceOnUse">
      <feOffset dy="3" input="SourceAlpha"/>
      <feGaussianBlur stdDeviation="3" result="blur-3"/>
      <feFlood flood-opacity="0.251"/>
      <feComposite operator="in" in2="blur-3"/>
      <feComposite in="SourceGraphic"/>
    </filter>
  </defs>
  <g id="logo" class="cls-1" transform="translate(9 6)">
    <g id="Group_19" data-name="Group 19">
      <g id="Group_18" data-name="Group 18">
        <g id="Group_17" data-name="Group 17">
          <g class="cls-6" transform="matrix(1, 0, 0, 1, -9, -6)">
            <path id="Path_14-2" data-name="Path 14" class="cls-2" d="M209.067,60.353l-78.3-54.436A33.846,33.846,0,0,0,111.436,0,34.9,34.9,0,0,0,92.108,5.917l-78.5,54.436A31.543,31.543,0,0,0,0,85.993v72.582a31.543,31.543,0,0,0,13.609,25.641l78.3,54.436a33.844,33.844,0,0,0,19.329,5.917,34.9,34.9,0,0,0,19.329-5.917l78.5-54.042a31.543,31.543,0,0,0,13.609-25.641V86.188A32.176,32.176,0,0,0,209.067,60.353Zm3.747,98.419a21.558,21.558,0,0,1-9.467,17.553l-78.3,54.436a23.755,23.755,0,0,1-13.806,4.142,24.2,24.2,0,0,1-13.806-4.142l-78.1-54.436a21.291,21.291,0,0,1-9.467-17.553V86.188a21.559,21.559,0,0,1,9.467-17.552L97.63,14.2a23.755,23.755,0,0,1,13.806-4.142A24.2,24.2,0,0,1,125.243,14.2l78.3,54.436a21.559,21.559,0,0,1,9.467,17.552V158.77Z" transform="translate(9 6)"/>
          </g>
        </g>
      </g>
    </g>
    <g id="Group_24" data-name="Group 24" transform="translate(59.761 76.33)">
      <g id="Group_23" data-name="Group 23">
        <g id="Group_22" data-name="Group 22">
          <g id="Group_20" data-name="Group 20" transform="translate(34.319)">
            <g class="cls-5" transform="matrix(1, 0, 0, 1, -103.08, -82.33)">
              <path id="Path_15-2" data-name="Path 15" class="cls-2" d="M116.534,38.7V61.579H93.655v68.834H70.776V61.579H47.7V38.7Z" transform="translate(55.38 43.63)"/>
            </g>
          </g>
          <g id="Group_21" data-name="Group 21">
            <g class="cls-4" transform="matrix(1, 0, 0, 1, -68.76, -82.33)">
              <rect id="Rectangle_5-2" data-name="Rectangle 5" class="cls-2" width="22.879" height="91.713" transform="translate(68.76 82.33)"/>
            </g>
          </g>
        </g>
      </g>
      <path id="Path_21" data-name="Path 21" class="cls-3" d="M71,61.579,93.879,38.7V61.579Z" transform="translate(9.274 -38.7)"/>
    </g>
  </g>
</svg>
