<svg xmlns="http://www.w3.org/2000/svg" xmlns:xlink="http://www.w3.org/1999/xlink" width="93.012" height="41.8" viewBox="0 0 93.012 41.8">
  <defs>
    <linearGradient id="linear-gradient" x1="0.252" y1="0.893" x2="0.749" y2="0.109" gradientUnits="objectBoundingBox">
      <stop offset="0" stop-color="#3aff0f"/>
      <stop offset="0.994" stop-color="#008300"/>
    </linearGradient>
    <linearGradient id="linear-gradient-2" x1="1.243" y1="0.82" x2="-0.494" y2="0.07" xlink:href="#linear-gradient"/>
    <linearGradient id="linear-gradient-3" x1="1.117" y1="0.983" x2="-0.87" y2="0.124" xlink:href="#linear-gradient"/>
    <linearGradient id="linear-gradient-4" x1="0.554" y1="0.774" x2="0.304" y2="-0.529" xlink:href="#linear-gradient"/>
    <linearGradient id="linear-gradient-5" x1="1.275" y1="0.947" x2="-0.027" y2="0.197" xlink:href="#linear-gradient"/>
    <linearGradient id="linear-gradient-6" x1="0.899" y1="1.019" x2="-0.654" y2="0.125" xlink:href="#linear-gradient"/>
    <linearGradient id="linear-gradient-7" x1="0.843" y1="1.091" x2="0.409" y2="0.339" xlink:href="#linear-gradient"/>
    <linearGradient id="linear-gradient-8" x1="0.626" y1="1.651" x2="0.232" y2="-0.403" xlink:href="#linear-gradient"/>
  </defs>
  <g id="Group_172" data-name="Group 172" transform="translate(-8153 146.286)">
    <g id="Group_28" data-name="Group 28" transform="translate(8153 -146.286)">
      <path id="Path_23" data-name="Path 23" d="M25.125-99.916v-14.932H23.49l-5.526,13.131H17.9l-5.536-13.131H10.741v14.932h1.325v-12.252h.062l5.184,12.252h1.231l5.195-12.252H23.8v12.252Zm10.017-3.053a2.914,2.914,0,0,1-3.053,2.028c-2.142,0-3.518-1.511-3.518-3.943v-.083h8.061v-.58c0-3.208-1.8-5.308-4.656-5.308-2.918,0-4.812,2.245-4.812,5.588,0,3.415,1.873,5.526,4.894,5.526,2.37,0,4.118-1.366,4.439-3.228Zm-3.188-6.685c1.945,0,3.239,1.48,3.27,3.6H28.58C28.695-108.174,30.03-109.653,31.954-109.653ZM45.9-102.969a2.914,2.914,0,0,1-3.053,2.028c-2.142,0-3.518-1.511-3.518-3.943v-.083h8.061v-.58c0-3.208-1.8-5.308-4.656-5.308-2.918,0-4.812,2.245-4.812,5.588,0,3.415,1.873,5.526,4.894,5.526,2.37,0,4.118-1.366,4.439-3.228Zm-3.187-6.685c1.945,0,3.239,1.48,3.27,3.6H39.342C39.456-108.174,40.791-109.653,42.716-109.653Zm7.1-3.715v2.69h-1.6v1.138h1.6v6.974c0,1.945.724,2.711,2.525,2.711a8.551,8.551,0,0,0,1.015-.062v-1.169c-.083.021-.6.041-.745.041-.993,0-1.428-.476-1.428-1.583v-6.912H53.3v-1.138H51.18v-2.69Z" transform="translate(-10.741 127.809)"/>
      <g id="logo" transform="translate(54.954 0)">
        <g id="Group_19" data-name="Group 19">
          <g id="Group_18" data-name="Group 18">
            <g id="Group_17" data-name="Group 17">
              <path id="Path_14" data-name="Path 14" d="M35.732,10.314,22.349,1.01A5.785,5.785,0,0,0,19.046,0a5.965,5.965,0,0,0-3.3,1.011l-13.416,9.3A5.391,5.391,0,0,0,0,14.7V27.1a5.391,5.391,0,0,0,2.326,4.382l13.383,9.3a5.784,5.784,0,0,0,3.3,1.011,5.966,5.966,0,0,0,3.3-1.011l13.416-9.236a5.391,5.391,0,0,0,2.326-4.382V14.73A5.5,5.5,0,0,0,35.732,10.314Zm.64,16.821a3.685,3.685,0,0,1-1.618,3l-13.383,9.3a4.06,4.06,0,0,1-2.36.708,4.136,4.136,0,0,1-2.36-.708L3.3,30.135a3.639,3.639,0,0,1-1.618-3V14.73a3.685,3.685,0,0,1,1.618-3l13.383-9.3a4.06,4.06,0,0,1,2.36-.708,4.136,4.136,0,0,1,2.36.708l13.383,9.3a3.685,3.685,0,0,1,1.618,3v12.4Z" transform="translate(0 0.001)" fill="url(#linear-gradient)"/>
            </g>
          </g>
        </g>
        <g id="Group_24" data-name="Group 24" transform="translate(10.214 13.045)">
          <g id="Group_23" data-name="Group 23">
            <g id="Group_22" data-name="Group 22">
              <g id="Group_20" data-name="Group 20" transform="translate(5.865)">
                <path id="Path_15" data-name="Path 15" d="M59.464,38.7v3.91h-3.91V54.375h-3.91V42.61H47.7V38.7Z" transform="translate(-47.7 -38.7)" fill="#008300"/>
              </g>
              <g id="Group_21" data-name="Group 21">
                <rect id="Rectangle_5" data-name="Rectangle 5" width="3.91" height="15.675" fill="#008300"/>
              </g>
            </g>
          </g>
          <path id="Path_16" data-name="Path 16" d="M34.21,38.7,30.3,54.375V38.7Z" transform="translate(-30.3 -38.7)" fill="url(#linear-gradient-2)"/>
          <path id="Path_17" data-name="Path 17" d="M34.21,54.375,30.3,38.7V54.375Z" transform="translate(-30.3 -38.7)" opacity="0.5" fill="url(#linear-gradient-3)"/>
          <path id="Path_18" data-name="Path 18" d="M47.7,42.61,59.464,38.7H47.7Z" transform="translate(-41.835 -38.7)" opacity="0.5" fill="url(#linear-gradient-4)"/>
          <path id="Path_19" data-name="Path 19" d="M63.31,50.3,59.4,62.064h3.91Z" transform="translate(-49.591 -46.39)" fill="url(#linear-gradient-5)"/>
          <path id="Path_20" data-name="Path 20" d="M59.4,50.3l3.91,11.765H59.4Z" transform="translate(-49.591 -46.39)" opacity="0.5" fill="url(#linear-gradient-6)"/>
          <path id="Path_21" data-name="Path 21" d="M71,42.61l3.91-3.91v3.91Z" transform="translate(-57.28 -38.7)" opacity="0.5" fill="url(#linear-gradient-7)"/>
          <path id="Path_22" data-name="Path 22" d="M59.464,42.61,47.7,38.7v3.91" transform="translate(-41.835 -38.7)" opacity="0.5" fill="url(#linear-gradient-8)"/>
        </g>
      </g>
    </g>
  </g>
</svg>
