<svg xmlns="http://www.w3.org/2000/svg" width="132.104" height="91.445" viewBox="0 0 132.104 91.445">
  <defs>
    <style>
      .cls-1 {
        opacity: 0.558;
      }

      .cls-2 {
        fill: #21c909;
      }
    </style>
  </defs>
  <g id="left-quote" class="cls-1" transform="translate(26.524 -60.432)">
    <g id="Group_203" data-name="Group 203" transform="translate(50.161 60.432) rotate(9)">
      <g id="Group_202" data-name="Group 202" transform="translate(0 0)">
        <path id="Path_1078" data-name="Path 1078" class="cls-2" d="M48.074,35.988a27.884,27.884,0,0,0-18.791-8.373c-.034-.445-.059-1.059-.059-1.9,0-3.44,2.616-13.949,4.265-19.766L35.176,0H14.7L13.328,2.21C12.784,3.087,0,24.046,0,55.643A28.055,28.055,0,1,0,48.074,35.988ZM28.055,74.346a18.725,18.725,0,0,1-18.7-18.7A103.929,103.929,0,0,1,20.062,9.352H22.9c-1.344,5.28-3.026,12.634-3.026,16.366,0,2.961.22,5.339,1.293,7.325.956,1.768,2.955,3.875,7.057,3.9l.2.005a18.7,18.7,0,0,1-.371,37.4Z" transform="translate(0)"/>
      </g>
    </g>
    <g id="Group_205" data-name="Group 205" transform="translate(-13.431 60.432) rotate(9)">
      <g id="Group_204" data-name="Group 204" transform="translate(0 0)">
        <path id="Path_1079" data-name="Path 1079" class="cls-2" d="M48.074,35.988a27.884,27.884,0,0,0-18.791-8.373c-.034-.445-.059-1.059-.059-1.9,0-3.44,2.616-13.949,4.265-19.766L35.176,0H14.7L13.328,2.21C12.784,3.087,0,24.046,0,55.643A28.055,28.055,0,1,0,48.074,35.988ZM28.055,74.346a18.725,18.725,0,0,1-18.7-18.7A103.929,103.929,0,0,1,20.062,9.352H22.9c-1.344,5.28-3.026,12.634-3.026,16.366,0,2.961.22,5.339,1.293,7.325.956,1.768,2.955,3.875,7.057,3.9l.2.005a18.7,18.7,0,0,1-.371,37.4Z"/>
      </g>
    </g>
  </g>
</svg>
