<svg id="Group_589" data-name="Group 589" xmlns="http://www.w3.org/2000/svg" width="429.5" height="326.776" viewBox="0 0 429.5 326.776">
  <path id="Path_1531" data-name="Path 1531" d="M390.474,207.266h-1.567V164.343A24.843,24.843,0,0,0,364.065,139.5H273.127a24.843,24.843,0,0,0-24.843,24.843V399.822a24.843,24.843,0,0,0,24.843,24.843h90.938a24.843,24.843,0,0,0,24.843-24.843v-162h1.567Z" transform="translate(-218.61 -139.5)" fill="#3f3d56"/>
  <path id="Path_1532" data-name="Path 1532" d="M371.239,151.783h-11.87a8.814,8.814,0,0,1-8.161,12.143h-52.1a8.814,8.814,0,0,1-8.161-12.143H279.863a18.552,18.552,0,0,0-18.552,18.552V405.469a18.552,18.552,0,0,0,18.552,18.552h91.376a18.552,18.552,0,0,0,18.552-18.552h0V170.335a18.552,18.552,0,0,0-18.552-18.552Z" transform="translate(-224.782 -145.319)" fill="#fff"/>
  <path id="Path_1533" data-name="Path 1533" d="M392.9,680.552H192.419a.526.526,0,0,1,0-1.052H392.9a.526.526,0,0,1,0,1.052Z" transform="translate(-191.892 -395.347)" fill="#cbcbcb"/>
  <circle id="Ellipse_44" data-name="Ellipse 44" cx="44.436" cy="44.436" r="44.436" transform="translate(56.333 93.027)" fill="#21c909"/>
  <path id="Path_395" data-name="Path 395" d="M361.444,402.518a4.608,4.608,0,0,1-2.773-.921l-.05-.037-10.443-7.989a4.641,4.641,0,1,1,5.647-7.366l6.764,5.187,15.984-20.853a4.639,4.639,0,0,1,6.5-.859h0l-.1.138.1-.138a4.645,4.645,0,0,1,.858,6.505l-18.8,24.517a4.642,4.642,0,0,1-3.691,1.81Z" transform="translate(-265.078 -248.103)" fill="#fff"/>
  <path id="Path_1534" data-name="Path 1534" d="M884.088,640.077a13.812,13.812,0,0,1,1.9-2.418c.3-.308.61-.6.933-.881a14.808,14.808,0,0,1,24.417,8.423c2.17-8.026-3.479-15.931-9.159-22S890,610.468,890.031,602.15a16.023,16.023,0,0,1,5.7-11.819c.105-.093.211-.185.318-.275a21.612,21.612,0,0,1,14.885-5.188c10.1.541,18.924,7.331,25.05,15.385,9.861,12.959,14.182,31.15,7.278,45.9-6.072,12.974-19.022,20.679-32.238,26.873q-2.768,1.3-5.526,2.517c-.012,0-.025.012-.038.015-.088.039-.177.078-.26.118l-1.135.5.174.114.543.352-.563-.339c-.056-.035-.115-.067-.171-.1-6.491-3.895-13.073-8.015-17.557-14.1C881.841,655.795,879.971,646.752,884.088,640.077Z" transform="translate(-518.77 -350.504)" fill="#f1f1f1"/>
  <path id="Path_1535" data-name="Path 1535" d="M931.154,630.087a36.738,36.738,0,0,1,2.829,10.277,31.9,31.9,0,0,1-.385,9.478,40.874,40.874,0,0,1-8.2,17.535,58.826,58.826,0,0,1-10.62,10.324q-2.768,1.3-5.526,2.517c-.012,0-.025.012-.038.015-.088.039-.177.078-.26.118l-1.135.5.174.114.543.352-.563-.339c-.056-.035-.115-.067-.171-.1a32.23,32.23,0,0,0-18.064-38.545c.3-.308.61-.6.933-.881a34,34,0,0,1,5.211,2.976,33.317,33.317,0,0,1,12.607,16.7,34.064,34.064,0,0,1,.739,19.043c.326-.213.653-.432.971-.649a59.729,59.729,0,0,0,15.818-14.982,38.026,38.026,0,0,0,6.747-17.146c.8-6.753-.885-13.394-3.9-19.42A79.592,79.592,0,0,0,916.4,610.256a90.448,90.448,0,0,0-16.721-14.377.65.65,0,0,1-.193-.875.553.553,0,0,1,.318-.275.482.482,0,0,1,.41.083c.758.506,1.509,1.016,2.252,1.541a91.466,91.466,0,0,1,16.715,15.268A73.64,73.64,0,0,1,931.154,630.087Z" transform="translate(-522.528 -355.176)" fill="#fff"/>
  <circle id="Ellipse_44-2" data-name="Ellipse 44" cx="9.437" cy="9.437" r="9.437" transform="translate(266.845 1.759)" fill="#f1f1f1"/>
  <circle id="Ellipse_44-3" data-name="Ellipse 44" cx="5.754" cy="5.754" r="5.754" transform="translate(387.873 135.416)" fill="#f1f1f1"/>
  <circle id="Ellipse_44-4" data-name="Ellipse 44" cx="5.754" cy="5.754" r="5.754" transform="translate(219.486 151.202)" fill="#f1f1f1"/>
  <path id="Path_1536" data-name="Path 1536" d="M625.634,759.552H826.12a.526.526,0,1,0,0-1.052H625.634a.526.526,0,0,0,0,1.052Z" transform="translate(-397.146 -432.776)" fill="#cbcbcb"/>
  <path id="Path_1537" data-name="Path 1537" d="M937.083,228.223a7.71,7.71,0,0,0-14.806-3.908l-16.269,18.651,4.774,13.332,16.362-21.793a7.668,7.668,0,0,0,9.94-6.283Z" transform="translate(-530.234 -177.373)" fill="#ffb7b7"/>
  <path id="Path_1538" data-name="Path 1538" d="M626.091,172.228l54-57.635-7.284-11.581L605.076,160.3Z" transform="translate(-286.679 -48.806)" fill="#3f3d56"/>
  <circle id="Ellipse_781" data-name="Ellipse 781" cx="18.944" cy="18.944" r="18.944" transform="translate(308.415 50.516)" fill="#2f2e41"/>
  <path id="Path_1539" data-name="Path 1539" d="M816.894,241.273a39.721,39.721,0,0,1,14.451-9.345c3.493-1.294,7.3-2.094,10.948-1.359s7.106,3.261,8.125,6.845c.833,2.93-.027,6.085-1.32,8.843s-3.019,5.316-4.065,8.177a18.664,18.664,0,0,0,18.78,25.028c-3.588.481-6.9,2.167-10.4,3.065s-7.647.837-10.254-1.676c-2.758-2.659-2.813-6.981-2.68-10.81l.595-17.073c.1-2.9.187-5.9-.859-8.606s-3.534-5.081-6.438-5.056c-2.2.019-4.149,1.352-5.914,2.667s-3.633,2.718-5.826,2.913-4.7-1.427-4.531-3.622Z" transform="translate(-488.012 -182.515)" fill="#2f2e41"/>
  <path id="Path_1540" data-name="Path 1540" d="M668.468,483.749a7.71,7.71,0,0,1-5.809-14.168l16.365-18.567L692.867,454,673.4,473.074a7.669,7.669,0,0,1-4.93,10.675Z" transform="translate(-413.058 -287.093)" fill="#ffb7b7"/>
  <path id="Path_1541" data-name="Path 1541" d="M539.777,221.16l-40.789,51.2-12.433-5.708,47.943-74.64Z" transform="translate(-230.525 -90.974)" fill="#3f3d56"/>
  <path id="Path_1542" data-name="Path 1542" d="M517.1,541.074l-9.721-.153,1.169,33.133h8.55Z" transform="translate(-240.389 -256.283)" fill="#ffb7b7"/>
  <path id="Path_1543" data-name="Path 1543" d="M697.057,738.081h-16.84a10.732,10.732,0,0,0-10.731,10.731v.349h27.571Z" transform="translate(-418.172 -423.102)" fill="#2f2e41"/>
  <path id="Path_1544" data-name="Path 1544" d="M638.6,524.511l-10.62,6.818,21.242,25.555,7.2-4.62Z" transform="translate(-297.533 -248.508)" fill="#ffb7b7"/>
  <path id="Path_1545" data-name="Path 1545" d="M857.338,710.049l-14.17,9.1h0a10.732,10.732,0,0,0-3.232,14.828l.188.293,23.2-14.9Z" transform="translate(-498.122 -409.821)" fill="#2f2e41"/>
  <path id="Path_1546" data-name="Path 1546" d="M772.378,400.191s-23.6-78.367-31.178-79.426-19.8,20.108-19.8,20.108c-15.84,20.211-32.175,85.678-32.175,85.678s27.229,1.7,47.134,12.294,43.4-.536,43.4-.536Z" transform="translate(-427.524 -225.364)" fill="#3f3d56"/>
  <path id="Path_1547" data-name="Path 1547" d="M772.378,400.192s-23.595-78.367-31.178-79.426-16.7,20.323-16.7,20.323c-7.893,32.625-35.278,85.463-35.278,85.463s27.23,1.7,47.134,12.294,43.4-.536,43.4-.536Z" transform="translate(-427.524 -225.364)" opacity="0.1" style="isolation: isolate"/>
  <path id="Path_1548" data-name="Path 1548" d="M563.042,282.763v39.379l4.634,57.043,23.153,43.149-11.05,7.893-31.573-41.044-12.487-40.754-19.611,90.218-14.734-1.052,10.233-125.086L531.024,277.3Z" transform="translate(-237.546 -131.382)" fill="#2f2e41"/>
  <path id="Path_1549" data-name="Path 1549" d="M757.2,338.691c-7.367,7.367-.526,15.26-.526,15.26l-8.419,18.944L781.4,381.84l11.585-51.768-7.893-8.419c-15.786-.526-15.795-.853-15.795-.853C766.532,323.506,757.2,338.691,757.2,338.691Z" transform="translate(-455.489 -225.398)" fill="#21c909"/>
  <path id="Path_1550" data-name="Path 1550" d="M808.364,325.74a14.147,14.147,0,0,0-19.879,3.112c-8.334,11.6-16.04,30.342-5.422,53.711,17.049,37.524,31.885,56.733,37.916,56.731a2.4,2.4,0,0,0,.775-.122c3.713-1.26,9.08-7.542,10.052-13.078a6.633,6.633,0,0,0-2.1-6.637c-6.807-5.444-19.027-22.4-22.838-44.709-2.107-12.329,1.979-23.559,5.777-30.809a14.144,14.144,0,0,0-4.092-18.064h0Z" transform="translate(-469.532 -226.429)" fill="#3f3d56"/>
  <circle id="Ellipse_782" data-name="Ellipse 782" cx="13.945" cy="13.945" r="13.945" transform="translate(302.718 68.759) rotate(-28.663)" fill="#ffb7b7"/>
  <path id="Path_1551" data-name="Path 1551" d="M765.872,264.9h20.136l.207-2.891,1.032,2.891h3.1l.409-5.73,2.046,5.73h6v-.284a15.062,15.062,0,0,0-15.045-15.045h-2.839a15.063,15.063,0,0,0-15.046,15.045Z" transform="translate(-463.839 -191.653)" fill="#2f2e41"/>
  <path id="Path_1552" data-name="Path 1552" d="M815.793,277.155l8.593-2.788V253.5H808.156l.4.4C814.148,259.485,820.366,279.294,815.793,277.155Z" transform="translate(-483.872 -193.512)" fill="#2f2e41"/>
</svg>
