<svg xmlns="http://www.w3.org/2000/svg" xmlns:xlink="http://www.w3.org/1999/xlink" width="174" height="168" viewBox="0 0 174 168">
  <defs>
    <linearGradient id="linear-gradient" x2="1" y2="1" gradientUnits="objectBoundingBox">
      <stop offset="0" stop-color="#4afea9"/>
      <stop offset="1" stop-color="#7bd5f8"/>
    </linearGradient>
  </defs>
  <g id="Group_431" data-name="Group 431" transform="translate(-22777 -6391)">
    <rect id="Rectangle_336" data-name="Rectangle 336" width="174" height="168" transform="translate(22777 6391)" fill="url(#linear-gradient)"/>
    <g id="Group_359" data-name="Group 359" transform="translate(22864.334 6438.962)">
      <ellipse id="Ellipse_717" data-name="Ellipse 717" cx="23.423" cy="4.98" rx="23.423" ry="4.98" transform="translate(34.041 110.077)" fill="#f2f2f2"/>
      <path id="Path_1232" data-name="Path 1232" d="M461,787.457c-16.236,0-28.954-2.763-28.954-6.29s12.718-6.29,28.954-6.29,28.954,2.763,28.954,6.29S477.24,787.457,461,787.457Zm0-12.257c-15.554,0-28.694,2.733-28.694,5.967s13.14,5.967,28.694,5.967S489.7,784.4,489.7,781.167,476.557,775.2,461,775.2Z" transform="translate(-407.899 -668.871)" fill="#f2f2f2"/>
      <path id="Path_1233" data-name="Path 1233" d="M307.264,90.408a60.277,60.277,0,0,1-.763,9.6q-.117.731-.254,1.455-.08.435-.168.868-.057.281-.117.561c-2.93,13.693-10.5,25.143-20.758,31.394a34.938,34.938,0,0,1-5.148,2.592q-.4.162-.808.314h0a32.407,32.407,0,0,1-11.412,2.081q-.831,0-1.64-.047a26.654,26.654,0,0,1-4.348-.6c-17.657-3.955-26.307-25.5-33.442-48.222q-.265-.844-.522-1.677l-.125-.411c-18.978-62.2,1.6-77.935,40.076-46.779C286.065,56.3,307.264,63.42,307.264,90.408Z" transform="translate(-220.597 -26)" fill="#f2f2f2" opacity="0.608"/>
      <path id="Path_1234" data-name="Path 1234" d="M664.917,245.222l-.18-.232a22.1,22.1,0,0,0,3.917-9.839c.99-5.9.654-15.612-6.573-28.384-5.543-9.8-7.786-18.353-6.667-25.436.983-6.222,4.327-8.956,4.36-8.983l.141.271c-.033.026-3.289,2.7-4.248,8.784-1.1,6.992,1.128,15.463,6.626,25.179a54.691,54.691,0,0,1,6.362,16.539,34.3,34.3,0,0,1,.249,12.117A22.44,22.44,0,0,1,664.917,245.222Z" transform="translate(-605.504 -151.631)" fill="#f2f2f2"/>
      <path id="Path_1235" data-name="Path 1235" d="M286.839,211.323a63.837,63.837,0,0,0-3.415,6.949l-.125-.411a65.216,65.216,0,0,1,3.326-6.724c5.5-9.717,7.727-18.187,6.626-25.179-.959-6.09-4.215-8.759-4.247-8.785l.141-.271c.034.027,3.378,2.761,4.361,8.983C294.624,192.97,292.381,201.527,286.839,211.323Z" transform="translate(-276.138 -155.542)" fill="#f2f2f2"/>
      <path id="Path_1236" data-name="Path 1236" d="M404.207,237.215l-.18-.232c.036-.043,3.586-4.351,4.939-12.4,1.249-7.434.827-19.675-8.278-35.767a70.813,70.813,0,0,1-7.712-18.881,34.928,34.928,0,0,1-.675-13.105c1.235-7.815,5.432-11.247,5.474-11.28l.141.271c-.041.033-4.151,3.4-5.361,11.081-1.389,8.813,1.419,19.488,8.346,31.729a68.8,68.8,0,0,1,8,20.8,43.124,43.124,0,0,1,.314,15.234C407.843,232.808,404.243,237.172,404.207,237.215Z" transform="translate(-372.384 -128.625)" fill="#fff"/>
      <ellipse id="Ellipse_718" data-name="Ellipse 718" cx="10.074" cy="12.485" rx="10.074" ry="12.485" transform="translate(13.011 9.953)" fill="#fff"/>
      <path id="Path_1237" data-name="Path 1237" d="M337.061,60.352c-7.581,0-13.726-7.616-13.726-17.011s6.145-17.011,13.726-17.011,13.726,7.616,13.726,17.011S344.638,60.342,337.061,60.352Zm0-33.7c-7.437,0-13.466,7.472-13.466,16.689s6.029,16.689,13.466,16.689,13.466-7.472,13.466-16.689-6.032-16.678-13.466-16.689Z" transform="translate(-311.601 -26.283)" fill="#fff"/>
      <ellipse id="Ellipse_719" data-name="Ellipse 719" cx="8.354" cy="10.354" rx="8.354" ry="10.354" transform="translate(24.805 40.404)" fill="#fff"/>
      <ellipse id="Ellipse_720" data-name="Ellipse 720" cx="8.354" cy="10.354" rx="8.354" ry="10.354" transform="translate(20.546 76.338)" fill="#fff"/>
      <path id="Path_1238" data-name="Path 1238" d="M596.666,337.977q-.131-.837-.269-1.651h0a82.37,82.37,0,0,0-4.608-17.1l-4.941-2.106,3.724-.66a36.727,36.727,0,0,0-4.928-7.864l-9.075,1.285,6.85-3.638c-12.589-11.736-29.093-2.31-33.591.653-.617.4-1.007.69-1.132.782l0,0-.04.031,2.553,1.643h0l45.342,29.19Z" transform="translate(-511.183 -261.645)" fill="#21c909"/>
      <path id="Path_1239" data-name="Path 1239" d="M542.346,365.011q.088-.433.168-.868c-.133-.24-.278-.5-.437-.784h0c-5.229-9.265-24.394-39.541-46.471-29.264h0q-.613.286-1.228.613l0,0q-.56.3-1.122.632c-.19.111-.379.227-.569.345-.165.1-.329.208-.494.316a5.277,5.277,0,0,0-1.992,1.392c-2.068,2.164-4.574,7.453-1.253,19.8,0,0,2.949,10.23,1.474,14.981s7.667,10.228,10.318,0a140.941,140.941,0,0,0,3.54-20.1,46.315,46.315,0,0,1,2.75,15.954,37.673,37.673,0,0,0,.824,9.7c.073.331.152.661.232,1a83.563,83.563,0,0,0,4.66,14.093,49.8,49.8,0,0,0,3.584,6.733,34.944,34.944,0,0,0,5.148-2.592c10.257-6.251,17.828-17.7,20.758-31.395Z" transform="translate(-456.863 -288.679)" fill="#3f3d56"/>
      <path id="Path_1240" data-name="Path 1240" d="M307.865,287.006l-1.179-12.057,5.012,8.769Z" transform="translate(-271.658 -236.029)" fill="#3f3d56"/>
      <path id="Path_1241" data-name="Path 1241" d="M285.366,293.142l-1.179-12.057,5.012,8.769Z" transform="translate(-251.729 -241.296)" fill="#3f3d56"/>
      <path id="Path_1242" data-name="Path 1242" d="M174.382,322.618,161.79,302.333l12.753,14.192Z" transform="translate(-143.311 -259.537)" fill="#21c909"/>
      <ellipse id="Ellipse_721" data-name="Ellipse 721" cx="1.952" cy="2.419" rx="1.952" ry="2.419" transform="translate(56.737 7.638)" fill="#f2f2f2"/>
    </g>
  </g>
</svg>
