<svg xmlns="http://www.w3.org/2000/svg" xmlns:xlink="http://www.w3.org/1999/xlink" width="317" height="108" viewBox="0 0 317 108">
  <defs>
    <linearGradient id="linear-gradient" x2="1" y2="1" gradientUnits="objectBoundingBox">
      <stop offset="0" stop-color="#75d352"/>
      <stop offset="1" stop-color="#21a8e3"/>
      <stop offset="1" stop-color="#29456a"/>
    </linearGradient>
  </defs>
  <g id="Group_429" data-name="Group 429" transform="translate(-21968 -6278)">
    <rect id="Rectangle_364" data-name="Rectangle 364" width="317" height="108" transform="translate(21968 6278)" fill="url(#linear-gradient)"/>
    <g id="Group_399" data-name="Group 399" transform="translate(22145 6285.031)" opacity="0.77">
      <circle id="Ellipse_722" data-name="Ellipse 722" cx="19.528" cy="19.528" r="19.528" transform="translate(0 54.304)" fill="#f2f2f2"/>
      <path id="Path_1254" data-name="Path 1254" d="M156.677,195.49a41.26,41.26,0,1,1,29.175-12.085A41.26,41.26,0,0,1,156.677,195.49Zm0-82.2a40.945,40.945,0,1,0,40.945,40.945A40.991,40.991,0,0,0,156.677,113.286Z" transform="translate(-113.528 -112.998)" fill="#2f2e41"/>
      <path id="Path_1255" data-name="Path 1255" d="M197.041,157.495l0,0L176.7,168.821l-22.268-11.134-.384-.192,1.156-23.114,20.109-14.331.222.139,20.812,13.036Z" transform="translate(-132.396 -103.203)" fill="#21c909"/>
      <path id="Path_1256" data-name="Path 1256" d="M199.383,303.064l-20.336,11.324-22.268-11.134L176.5,289.424Z" transform="translate(-134.742 -248.769)" opacity="0.3"/>
      <path id="Path_1257" data-name="Path 1257" d="M319.995,158.343l-22.883-13.637,1.378-23.669L319.3,134.073Z" transform="translate(-255.349 -104.051)" opacity="0.1"/>
      <path id="Path_1258" data-name="Path 1258" d="M159.474,184.012l-.113-.16L179.695,169.5l21.48,13.467-.1.166-21.369-13.4Z" transform="translate(-136.961 -145.702)" fill="#f2f2f2"/>
      <path id="Path_1259" data-name="Path 1259" d="M156.689,243.64l-.11-.162,20.231-13.735.053.03L198.8,242.207l-.1.17-21.886-12.4Z" transform="translate(-134.57 -197.477)" fill="#f2f2f2"/>
      <path id="Path_1260" data-name="Path 1260" d="M211.645,189.614l-.1-.166,20.389-12.634v-24.22h.2v24.329Z" transform="translate(-181.807 -131.172)" fill="#f2f2f2"/>
      <path id="Path_1261" data-name="Path 1261" d="M268.573,221.362l-.1-.166L288.1,208.882v-24h.2v24.112Z" transform="translate(-230.732 -158.919)" fill="#f2f2f2"/>
      <path id="Path_1262" data-name="Path 1262" d="M268.008,192.785,245.176,180.1l0-.061,1.2-23.757.2.01-1.2,23.7L268.1,192.614Z" transform="translate(-210.714 -134.341)" fill="#f2f2f2"/>
      <path id="Path_1263" data-name="Path 1263" d="M218.471,226.4,195.9,214.574l0-.063,1.331-23.769.2.011L196.1,214.459l22.464,11.772Z" transform="translate(-168.36 -163.958)" fill="#f2f2f2"/>
      <circle id="Ellipse_723" data-name="Ellipse 723" cx="7.874" cy="7.874" r="7.874" transform="translate(60.63 1.075)" fill="#21c909"/>
      <rect id="Rectangle_369" data-name="Rectangle 369" width="135.433" height="0.315" transform="translate(4.567 93.044)" fill="#2f2e41"/>
      <path id="Path_1264" data-name="Path 1264" d="M986.137,469.984l1.8,4.93s-1.878,5.634,0,5.791,2.113-5.4,2.113-5.4l-1.017-5.947Z" transform="translate(-861.861 -419.295)" fill="#ffb9b9"/>
      <path id="Path_1265" data-name="Path 1265" d="M982.692,359.128l1.33,1.33V366.8s.782,1.174.626,1.487-.313.313-.156.548.313.391.156.548a.587.587,0,0,0,0,.7c.156.156.47.391.235.626s-.548.078-.235.939.861,1.1.7,1.409a3.526,3.526,0,0,0-.156,1.1l-3.365.469-.7-8.843Z" transform="translate(-857.555 -324.559)" fill="#d0cde1"/>
      <path id="Path_1266" data-name="Path 1266" d="M885.266,352.464l-3.913.156.157,1.643,3.443-.626Z" transform="translate(-757.468 -302.948)" fill="#3f3d56"/>
      <path id="Path_1267" data-name="Path 1267" d="M829.77,187.953l-.47,4.7,4.773.7.352-2.7.352-2.7Z" transform="translate(-712.732 -161.561)" fill="#ffb9b9"/>
      <path id="Path_1268" data-name="Path 1268" d="M829.77,187.953l-.47,4.7,4.773.7.352-2.7.352-2.7Z" transform="translate(-712.732 -161.561)" opacity="0.1"/>
      <path id="Path_1269" data-name="Path 1269" d="M860.875,459.894l2.661,5.713s.47,2.661,1.174,2.739,1.409-2.739,1.409-2.739l-.939-1.487-1.1-4.226Z" transform="translate(-754.206 -411.161)" fill="#ffb9b9"/>
      <path id="Path_1270" data-name="Path 1270" d="M875.807,484.676l-2.191,3.443s-2.113,32.788-1.8,32.553,1.33-.313,1.722-.939,2.817,0,2.817,0l1.409-1.487v-1.174c0-.235,2.817-18.155,2.817-18.155v4.539s-.861,16.668.548,16.512a31.735,31.735,0,0,0,4.3-1.1s4.147-31.145,2.9-32.319a8.812,8.812,0,0,1-1.8-3.834Z" transform="translate(-763.582 -430.778)" fill="#2f2e41"/>
      <circle id="Ellipse_724" data-name="Ellipse 724" cx="3.756" cy="3.756" r="3.756" transform="translate(115.903 20.406)" fill="#ffb9b9"/>
      <path id="Path_1271" data-name="Path 1271" d="M857.266,337.729l-.548-.313a8.877,8.877,0,0,0-3.208,5.321,19.089,19.089,0,0,1-1.33,4.617s-.782.156-.235.7.548.47.078.783-.783-.313-.469.313.7.47.391.861-.861.391-.548.7-.313,1.017.078,1.33.548.391.548.939a2.77,2.77,0,0,0,.156.939h4.069s-.783-1.487-.548-1.8.313-.626.157-.783-.626.156-.157-.235.626-.156.47-.626-.47-.235-.156-.47.548-.156.391-.391-.47-.235-.156-.391.548,0,.469-.391-.156-.235,0-.391,1.8-5.478,1.8-5.634S857.266,337.729,857.266,337.729Z" transform="translate(-745.979 -305.898)" fill="#d0cde1"/>
      <path id="Path_1272" data-name="Path 1272" d="M756.011,339.659l-4.93.313,1.252,1.174,3.443.078Z" transform="translate(-645.507 -291.943)" fill="#3f3d56"/>
      <path id="Path_1273" data-name="Path 1273" d="M891.956,494.411l-1.017,1.878a31.414,31.414,0,0,1,4.147.783c1.1.391,3.913.939,3.913.939l.7-2.739Z" transform="translate(-780.043 -440.826)" fill="#3f3d56"/>
      <path id="Path_1274" data-name="Path 1274" d="M859.641,384.188l.861,2.582,3.443-.7-.391-2.426Z" transform="translate(-738.808 -329.742)" fill="#3f3d56"/>
      <path id="Path_1275" data-name="Path 1275" d="M901.328,309.109s-.235-.156-.783.157a3.128,3.128,0,0,1-3.208-.47c-.861-.939-1.487-1.722-1.722-1.565s-.391,1.956-.391,1.956l-.783.626-4.617,1.643.391,10.564.7,2.426a4.347,4.347,0,0,0,.156,2.974.911.911,0,0,1-.391,1.487,1.443,1.443,0,0,0-.078,1.1,23.258,23.258,0,0,1-.156,3.678,19.731,19.731,0,0,0,13.616.391l-.783-2.974-.391-6.652a4.845,4.845,0,0,0,.313-1.565c-.078-.47,2.348-7.043,2.348-7.043s-.391-3.287-2.426-3.991-2.348-1.409-2.348-1.409S901.719,309.422,901.328,309.109Z" transform="translate(-779.086 -279.939)" fill="#d0cde1"/>
      <path id="Path_1276" data-name="Path 1276" d="M924.705,254.226a1.722,1.722,0,0,1-.24-1.215,3.685,3.685,0,0,0,.1-1.1,10.844,10.844,0,0,1,.63-1.59c.315-.57.165-.81,1.155-.99s.585-1.47,3.2-.075a.765.765,0,0,0,.8.3c.54-.105.735.645.735.645s.36-.21.5.09,1.1-.18,1.1,1.845a8.386,8.386,0,0,1-1.1,3.834s.08-3.407-1.7-3.752-3.706-1.35-4.171-.06a9.84,9.84,0,0,1-1,2.063Z" transform="translate(-808.828 -229.583)" fill="#2f2e41"/>
      <ellipse id="Ellipse_725" data-name="Ellipse 725" cx="0.352" cy="0.47" rx="0.352" ry="0.47" transform="translate(122.437 24.514)" fill="#ffb9b9"/>
      <path id="Path_1277" data-name="Path 1277" d="M940.893,737.951l.55,1.651a5.619,5.619,0,0,0,.55,2.477c.55.826,1.1,2.614-1.1,2.752a4.586,4.586,0,0,1-3.165-.688s.413-1.1,0-1.513,0-1.238,0-1.238l.413-3.3Z" transform="translate(-820.099 -650.133)" fill="#2f2e41"/>
      <path id="Path_1278" data-name="Path 1278" d="M875.354,737.951l-.55,1.651a5.62,5.62,0,0,1-.55,2.477c-.55.826-1.1,2.614,1.1,2.752a4.586,4.586,0,0,0,3.164-.688s-.413-1.1,0-1.513,0-1.238,0-1.238l-.413-3.3Z" transform="translate(-765.28 -650.133)" fill="#2f2e41"/>
    </g>
  </g>
</svg>
