<svg xmlns="http://www.w3.org/2000/svg" xmlns:xlink="http://www.w3.org/1999/xlink" width="222" height="108.5" viewBox="0 0 222 108.5">
  <defs>
    <linearGradient id="linear-gradient" x2="1" y2="1" gradientUnits="objectBoundingBox">
      <stop offset="0" stop-color="#00b941"/>
      <stop offset="1" stop-color="#467abf"/>
    </linearGradient>
    <linearGradient id="linear-gradient-2" x1="0.5" y1="1" x2="0.5" y2="-0.001" gradientUnits="objectBoundingBox">
      <stop offset="0" stop-color="gray" stop-opacity="0.251"/>
      <stop offset="0.54" stop-color="gray" stop-opacity="0.122"/>
      <stop offset="1" stop-color="gray" stop-opacity="0.102"/>
    </linearGradient>
  </defs>
  <g id="Group_408" data-name="Group 408" transform="translate(-1636 -4583)">
    <rect id="Rectangle_384" data-name="Rectangle 384" width="222" height="108" transform="translate(1636 4583)" fill="url(#linear-gradient)"/>
    <g id="Group_407" data-name="Group 407" transform="translate(1670.137 4597.561)">
      <path id="Path_1279" data-name="Path 1279" d="M231.034,242.072q-.274.592-.547,1.167-.426.895-.841,1.754c-.123.254-.246.5-.366.753-1.357,2.772-2.624,5.224-3.7,7.24a11.55,11.55,0,0,1-10.067,6.105l-23.925.26h-.252l-2.051.022-1.754.019-5.38.058h-.218l-2.739.03h-.084l-16.881.183-15.068.158-1.753.019-10.886.118h-.013l-7.06.076h-.076l-22.323.241-6.678.073a13.893,13.893,0,0,1-4.208-.6,13.629,13.629,0,0,1-6.167-3.9,31.544,31.544,0,0,1-6.363-10.848q-.3-.866-.568-1.754c-4.861-16.431,1.065-37.63,11.73-51.816q.67-.89,1.363-1.735l.011-.013a43.708,43.708,0,0,1,10.875-9.781c6.942-4.245,14.632-5.441,22.2-1.877a49.653,49.653,0,0,0,18.169,4.82c.585.038,1.171.066,1.753.084,13.288.418,25.742-4.37,40.367-7.461.582-.123,1.166-.245,1.754-.36a96.141,96.141,0,0,1,35.769-.869,29.829,29.829,0,0,1,4.222,1.01q.91.293,1.754.631c6.569,2.672,10.152,7.61,11.674,13.8q.216.861.374,1.753C245.782,206.306,237.877,227.418,231.034,242.072Z" transform="translate(-79.34 -172.91)" fill="#21c909" opacity="0.1"/>
      <g id="Group_405" data-name="Group 405" transform="translate(1.73 2.186)" opacity="0.1">
        <path id="Path_1280" data-name="Path 1280" d="M184.126,217v80.4l-6.678.073a13.9,13.9,0,0,1-4.208-.6V226.781h.011A43.524,43.524,0,0,1,184.126,217Z" transform="translate(-160.147 -212.201)" fill="#21c909"/>
        <path id="Path_1281" data-name="Path 1281" d="M314.891,280.748H164.6q.67-.89,1.363-1.735V279H314.517Q314.733,279.857,314.891,280.748Z" transform="translate(-152.87 -264.42)" fill="#21c909"/>
        <path id="Path_1282" data-name="Path 1282" d="M1031.454,188.107v67.365h-.547q-.426.894-.841,1.754c-.123.254-.246.5-.366.753V187.47Q1030.61,187.763,1031.454,188.107Z" transform="translate(-881.49 -187.33)" fill="#21c909"/>
        <path id="Path_1283" data-name="Path 1283" d="M766.844,186.58v84.285l-1.754.019V186.94C765.672,186.817,766.256,186.7,766.844,186.58Z" transform="translate(-658.626 -186.58)" fill="#21c909"/>
        <path id="Path_1284" data-name="Path 1284" d="M499.863,235.7v76.922l-1.753.019V235.62C498.7,235.658,499.281,235.68,499.863,235.7Z" transform="translate(-433.765 -227.883)" fill="#21c909"/>
        <path id="Path_1285" data-name="Path 1285" d="M239.667,618.52q-.426.894-.841,1.754H90.818q-.3-.866-.568-1.754Z" transform="translate(-90.25 -550.376)" fill="#21c909"/>
      </g>
      <rect id="Rectangle_389" data-name="Rectangle 389" width="2.997" height="9.097" transform="translate(33.392 41.967)" fill="#3f3d56"/>
      <rect id="Rectangle_390" data-name="Rectangle 390" width="2.997" height="9.624" transform="translate(114.06 41.494)" fill="#3f3d56"/>
      <path id="Path_1286" data-name="Path 1286" d="M225.526,509.646V511.7l-23.967.221-.256,0-9.109.084-.218,0-2.769.024h-.082l-16.877.156-27.7.257h-.024l-7.044.066-.076,0-31.3.287v-2.366l7.36-4.417,14.767-.123.316,0,.1,0,.316,0,7.09-.058.317,0,.1,0,.316,0,2.273-.019.06,0,5.608-.047h.046l43.763-.369,1.071-.008h.107l.817-.008,5.94-.049.316,0,.292,0h.151l1.847-.014.366,0,.491,0,1.538-.014,2.441-.021.316,0,.549,0h.1l11.786-.1Z" transform="translate(-89.352 -425.427)" fill="#65617d"/>
      <path id="Path_1287" data-name="Path 1287" d="M225.526,509.646V511.7l-23.967.221-.256,0-9.109.084-.218,0-2.769.024h-.082l-16.877.156-27.7.257h-.024l-7.044.066-.076,0-31.3.287v-2.366l7.36-4.417,14.767-.123.316,0,.1,0,.316,0,7.09-.058.317,0,.1,0,.316,0,2.273-.019.06,0,5.608-.047h.046l43.763-.369,1.071-.008h.107l.817-.008,5.94-.049.316,0,.292,0h.151l1.847-.014.366,0,.491,0,1.538-.014,2.441-.021.316,0,.549,0h.1l11.786-.1Z" transform="translate(-89.352 -425.427)" opacity="0.2"/>
      <path id="Path_1288" data-name="Path 1288" d="M335.712,656.57v3.864a.967.967,0,0,1-.552.874.948.948,0,0,1-.394.095l-5.506.117a.946.946,0,0,1-.426-.09.966.966,0,0,1-.563-.879v-3.98Z" transform="translate(-288.989 -580.237)" fill="#3f3d56"/>
      <path id="Path_1289" data-name="Path 1289" d="M335.712,656.57v3.864a.967.967,0,0,1-.552.874.948.948,0,0,1-.394.095l-5.506.117a.946.946,0,0,1-.426-.09.966.966,0,0,1-.563-.879v-3.98Z" transform="translate(-288.989 -580.237)" opacity="0.1"/>
      <path id="Path_1290" data-name="Path 1290" d="M337.712,656.57v3.864a.967.967,0,0,1-.552.874.948.948,0,0,1-.394.095l-5.506.117a.946.946,0,0,1-.426-.09.966.966,0,0,1-.563-.879v-3.98Z" transform="translate(-290.674 -580.237)" fill="#3f3d56"/>
      <rect id="Rectangle_391" data-name="Rectangle 391" width="7.442" height="4.97" transform="translate(107.434 76.333)" fill="#3f3d56"/>
      <rect id="Rectangle_392" data-name="Rectangle 392" width="7.442" height="4.97" transform="translate(107.434 76.333)" opacity="0.1"/>
      <rect id="Rectangle_393" data-name="Rectangle 393" width="7.442" height="4.97" transform="translate(107.119 76.333)" fill="#3f3d56"/>
      <path id="Path_1291" data-name="Path 1291" d="M214.6,265.82v.9l-3-.077v-.827Z" transform="translate(-178.208 -223.854)" opacity="0.1"/>
      <path id="Path_1292" data-name="Path 1292" d="M251.672,262.731l-3.6,25.873a.678.678,0,0,1-.689.585l-28.839-.748-.547-.014a.678.678,0,0,1-.656-.768l4.043-27.085A.678.678,0,0,1,222.1,260l28.943,1.959a.677.677,0,0,1,.631.77Z" transform="translate(-195.553 -246.231)" fill="#65617d"/>
      <path id="Path_1293" data-name="Path 1293" d="M159.65,99.16l-3.05,23.874,26.5.841,3.259-23.033Z" transform="translate(-131.885 -83.487)" fill="#21c909"/>
      <rect id="Rectangle_394" data-name="Rectangle 394" width="32.289" height="27.345" rx="5.33" transform="translate(60.685 15.304)" fill="#65617d"/>
      <rect id="Rectangle_395" data-name="Rectangle 395" width="29.344" height="22.77" transform="translate(62.208 17.145)" fill="#21c909"/>
      <path id="Path_1294" data-name="Path 1294" d="M725.927,262.82v.6l-3,.062v-.659Z" transform="translate(-608.87 -221.327)" opacity="0.1"/>
      <path id="Path_1295" data-name="Path 1295" d="M730.607,284.6a.486.486,0,0,1-.473.517l-29.533.611a.486.486,0,0,1-.494-.44L697.568,258.9a.486.486,0,0,1,.461-.532l29.309-1.458.316-.016a.484.484,0,0,1,.508.442Z" transform="translate(-600.024 -243.616)" fill="#65617d"/>
      <path id="Path_1296" data-name="Path 1296" d="M628.93,96.136,655.7,94.82l2.261,23.98-26.556.631Z" transform="translate(-529.699 -79.832)" fill="#21c909"/>
      <path id="Path_1297" data-name="Path 1297" d="M889.549,284.6a.486.486,0,0,1-.473.517l-2.8-28.21.315-.016a.484.484,0,0,1,.508.442Z" transform="translate(-758.966 -243.616)" opacity="0.1"/>
      <path id="Path_1298" data-name="Path 1298" d="M222.1,259.99l-3.561,28.441-.547-.014a.678.678,0,0,1-.656-.768l4.043-27.085A.678.678,0,0,1,222.1,259.99Z" transform="translate(-195.553 -246.221)" opacity="0.1"/>
      <rect id="Rectangle_396" data-name="Rectangle 396" width="2.997" height="2.695" transform="translate(33.392 48.369)" opacity="0.1"/>
      <path id="Path_1299" data-name="Path 1299" d="M258.372,483.65v.784l-7.442.2v-.983Z" transform="translate(-211.334 -407.319)" opacity="0.1"/>
      <path id="Path_1300" data-name="Path 1300" d="M292.664,481.943v26.536a.631.631,0,0,1-.607.623l-30.235.8h-.008a.631.631,0,0,1-.623-.623v-27.34a.631.631,0,0,1,.623-.623H292.04A.631.631,0,0,1,292.664,481.943Z" transform="translate(-232.492 -432.635)" fill="#65617d"/>
      <path id="Path_1301" data-name="Path 1301" d="M261.821,481.32v28.586h-.008a.631.631,0,0,1-.623-.623v-27.34a.631.631,0,0,1,.623-.623Z" transform="translate(-232.492 -432.635)" opacity="0.1"/>
      <path id="Path_1302" data-name="Path 1302" d="M194.6,319.15h28v23.388l-28,.631Z" transform="translate(-163.89 -268.771)" fill="#d4dfec"/>
      <rect id="Rectangle_397" data-name="Rectangle 397" width="2.997" height="2.748" transform="translate(114.06 48.369)" opacity="0.1"/>
      <path id="Path_1303" data-name="Path 1303" d="M686.372,483.65v1.011l-7.442-.2v-.812Z" transform="translate(-571.811 -407.319)" opacity="0.1"/>
      <path id="Path_1304" data-name="Path 1304" d="M699.63,481.943v27.34a.631.631,0,0,1-.631.623h0l-30.242-.8a.631.631,0,0,1-.607-.623V481.943a.631.631,0,0,1,.623-.623H699A.631.631,0,0,1,699.63,481.943Z" transform="translate(-575.249 -432.635)" fill="#65617d"/>
      <path id="Path_1305" data-name="Path 1305" d="M864.321,481.943v27.34a.631.631,0,0,1-.631.623h0V481.32h0A.631.631,0,0,1,864.321,481.943Z" transform="translate(-739.94 -432.635)" opacity="0.1"/>
      <path id="Path_1306" data-name="Path 1306" d="M626.1,319.15h-28v23.388l28,.631Z" transform="translate(-503.733 -268.771)" fill="#d4dfec"/>
      <path id="Path_1307" data-name="Path 1307" d="M495.164,481.943v26.536a.631.631,0,0,1-.607.623l-30.235.8h0a.631.631,0,0,1-.631-.623v-27.34a.631.631,0,0,1,.623-.623h30.227A.631.631,0,0,1,495.164,481.943Z" transform="translate(-403.045 -432.635)" fill="#65617d"/>
      <path id="Path_1308" data-name="Path 1308" d="M397.1,319.15h28v23.388l-28,.631Z" transform="translate(-334.443 -268.771)" fill="#d4dfec"/>
      <path id="Path_1309" data-name="Path 1309" d="M225.526,533.65V535.7l-23.967.221-.256,0-9.109.084-.218,0-2.769.024h-.082l-16.877.156-27.7.257h-.024l-7.044.066-.076,0-31.3.287v-2.367l31.948-.21h.076l6.467-.044h.03l44.659-.3h.046l.027,0h.074l.756,0h.23l11.752-.079.694,0,.155,0Z" transform="translate(-89.352 -449.431)" opacity="0.1"/>
      <circle id="Ellipse_726" data-name="Ellipse 726" cx="8.098" cy="8.098" r="8.098" transform="translate(68.782 34.868)" fill="#fbbebe"/>
      <path id="Path_1310" data-name="Path 1310" d="M383.74,407.477a.2.2,0,0,1,.016-.055c.158-.566.439-1.524.648-2.289.027-.095.052-.188.076-.276.232-.863.683-2.884.934-4.144.088-.443.158-.789.172-.962a26.274,26.274,0,0,1,1.044-2.718c.377-.921.789-1.928,1.09-2.777a9.686,9.686,0,0,0,.462-1.554.8.8,0,0,0,0-.336,2.317,2.317,0,0,1-.076-.552h0a6.519,6.519,0,0,1,.707-3.173,14.1,14.1,0,0,0,.947-3.733s.817.118.947-.557a.974.974,0,0,0,.016-.221,1.181,1.181,0,0,0-.014-.175c-.14-.984,2.322-2.032,3.707-2.258a3.1,3.1,0,0,1,.473-.044,4.3,4.3,0,0,0,.986-.227q.221-.068.473-.158c.581-.2,1.275-.454,2.011-.738,2.77-1.074,6.124-2.524,6.124-2.524.024-.112.051-.219.081-.325a4.372,4.372,0,0,1,2.579-2.986h0v-.316c0-.544-.024-1.1-.047-1.663,0-.109-.009-.218-.016-.327v-.178c0-.11-.011-.221-.017-.33l-.028-.022a2.587,2.587,0,0,1-.615-.663,2.4,2.4,0,0,1-.224-.473,14.46,14.46,0,0,1-.376-1.7l-.028-.117a13.258,13.258,0,0,0-.631-1.669c-.349-.855-.617-1.735-.884-2.627q-.243-.809-.491-1.622l-.249-.827c-.047-.158-.095-.316-.131-.473h0a2.092,2.092,0,0,1-.041-.221h0a1.577,1.577,0,0,1,.038-.727,5.067,5.067,0,0,1,.208-.473,1.246,1.246,0,0,0,.079-.218h0a.472.472,0,0,0,.013-.05.885.885,0,0,0,.017-.17,2.909,2.909,0,0,0-.082-.614.011.011,0,0,1,0-.008.387.387,0,0,0-.008-.043,4.038,4.038,0,0,1-.057-.473,4.489,4.489,0,0,1,.547-2.456l.03-.057a3.98,3.98,0,0,1,.29-.439h0a2.225,2.225,0,0,1,.158-.192.565.565,0,0,1-.789-.109.573.573,0,0,1-.087-.118.6.6,0,0,1-.036-.071c-.008-.019-.014-.039-.021-.06A1.289,1.289,0,0,1,404,354.08a2.917,2.917,0,0,1,.906-.741h0a.605.605,0,0,1,.063-.033,2.7,2.7,0,0,1,.417-.167h0a2.379,2.379,0,0,1,.257-.069l-.585-.054-.237-.022a2.286,2.286,0,0,1,2.051-1.721h.17a1.844,1.844,0,0,1,.248.02.7.7,0,0,1-.418-.683,2.273,2.273,0,0,0,1.45.483h.06a4.725,4.725,0,0,1-.054-.516h0a5.236,5.236,0,0,1,0-.7,1.332,1.332,0,0,0,1.07.357l-.328-.458a1.5,1.5,0,0,0,1.035.323l.076-.008a1.109,1.109,0,0,0,.188-.036h.014c-.03-.038-.057-.077-.084-.118l-.009-.019a1.527,1.527,0,0,1-.158-.33,1.044,1.044,0,0,1-.038-.137h0a1.381,1.381,0,0,1,.071-.86c.51.426,1.068,1.008,1.735.568s.689-1.248,1.735-1.166a1.609,1.609,0,0,1,1.327.965,1.065,1.065,0,0,1,1.21-.276,1.081,1.081,0,0,1,.612,1.087,2.18,2.18,0,0,1,1.317-.052.769.769,0,0,1,.448,1.051.221.221,0,0,1-.022.032c-.194.251-.623.388-.577.7l.066.047.205.148q1.207.871,2.351,1.83a1.9,1.9,0,0,1,.835,1.235,1.364,1.364,0,0,1-.038.374h0c-.025.123-.06.246-.087.369a3.079,3.079,0,0,0-.054.954h0c.011.093.025.185.043.278.241,1.22,1.216,2.226,1.313,3.471v.088a2.8,2.8,0,0,1-.011.4,8.515,8.515,0,0,1-.707,2.209c-.017.044-.035.088-.05.133a21.981,21.981,0,0,0-1.1,4.443,15.817,15.817,0,0,1-.316,1.592,4.218,4.218,0,0,1-.8,1.645,2.56,2.56,0,0,1-.53.473,2.94,2.94,0,0,1-.418.222v.009c.017.1.032.192.049.289.009.05.017.1.027.158h0a.022.022,0,0,0,0,.009c.132.746.284,1.477.443,2.171l.08.346a2.993,2.993,0,0,1,2.237,2.751,1.529,1.529,0,0,1,0,.226s3,.079,4.181.947a3.208,3.208,0,0,0,.711.363,13.1,13.1,0,0,0,1.459.456c.254.066.519.131.789.194.473.109.975.215,1.459.316,1.292.26,2.508.473,3.125.631,1.472.372,4.839,3.6,4.839,3.6s.394,3.256.789,3.731a14.072,14.072,0,0,1,1.1,2.144l2.609,4.64,1.1,1.952h.71a1.207,1.207,0,0,1,.507.331c.188.167.4.375.579.565l.3.323.189.21a1.637,1.637,0,0,1,1.458.936,7.121,7.121,0,0,1,2.884.394,2.23,2.23,0,0,1,.316.17,1.369,1.369,0,0,1,.652.893,1.318,1.318,0,0,1,.028.227v.268a4.4,4.4,0,0,1-1.549,2.857l.051.09s-.024.057-.069.158c-.013.03-.028.063-.046.1h0c-.093.2-.241.5-.435.846a9.988,9.988,0,0,1-1.51,2.078l-.046.047-9.109.084-.027-.032-1.767-2.108-.879-1.048-.027-.033-.025.251-.085.836-.205,2.021-.011.1v.027l-.024.233.017-.233h-.046l-16.881.158L390.9,407.4v.133h-.022V407.4l-7.06.076Z" transform="translate(-335.708 -320.334)" fill="url(#linear-gradient-2)"/>
      <path id="Path_1311" data-name="Path 1311" d="M541.6,457.4s-15.7,1.893-14.2,0c.543-.685.693-2.714.663-5.025-.01-.7-.035-1.429-.071-2.154-.174-3.471-.592-6.863-.592-6.863s13.725-6.468,12.148-1.341c-.631,2.071-.424,4.981.055,7.711.14.8.3,1.578.473,2.319A54.394,54.394,0,0,0,541.6,457.4Z" transform="translate(-456.62 -397.869)" fill="#fbbebe"/>
      <path id="Path_1312" data-name="Path 1312" d="M541.6,519.5s-15.7,1.893-14.2,0c.543-.685.693-2.714.663-5.025a9.879,9.879,0,0,1,5.438-.26c3.206-.639,5.261-.514,6.576-.066A54.394,54.394,0,0,0,541.6,519.5Z" transform="translate(-456.62 -459.969)" opacity="0.1"/>
      <path id="Path_1313" data-name="Path 1313" d="M391.255,548.823v-.133l27.706-.3,16.881-.158h.047l-.017.233.024-.233h.03V548.2l.216-2.122.082-.8.025-.251.022-.21.975-3.251.975-3.247.82-2.734,1.253-4.178a14.012,14.012,0,0,0-1.1-2.13c-.394-.473-.789-3.707-.789-3.707s-3.367-3.207-4.839-3.576c-.617-.158-1.835-.368-3.128-.631-.484-.1-.981-.2-1.459-.315-.27-.062-.535-.126-.789-.191a13.863,13.863,0,0,1-1.459-.451,3.271,3.271,0,0,1-.71-.361c-1.16-.85-4.065-.947-4.177-.947h0a.067.067,0,0,1,0-.011v-.014a1.612,1.612,0,0,0,0-.2,1.27,1.27,0,0,0-.014-.221.2.2,0,0,0-.011-.079c-.008-.057-.017-.117-.031-.18a.777.777,0,0,0-.019-.084,2.709,2.709,0,0,0-.2-.551c-.011-.025-.025-.052-.038-.077a2.88,2.88,0,0,0-.268-.415c-.021-.027-.043-.055-.066-.082a3.086,3.086,0,0,0-.429-.417c-.043-.033-.087-.068-.133-.1a.747.747,0,0,0-.08-.057l-.14-.091-.131-.076c-.115-.063-.237-.125-.369-.183-.041-.019-.085-.036-.129-.054l-.172-.066H419.6l-.118-.047c-.09-.03-.181-.057-.278-.084l-.147-.038-.158-.036-.158-.033c-.158-.032-.327-.06-.5-.082l-.18-.022-.185-.019-.191-.016-.271-.016-.315-.011a19.671,19.671,0,0,0-4.141.441,11.4,11.4,0,0,0-2.879-.266h-.137l-.158.01h-.1l-.2.019a1.523,1.523,0,0,0-.205.024c-.068.009-.139.017-.207.028l-.1.017c-.1.017-.207.036-.315.058q-.052.01-.1.024c-.137.03-.274.066-.41.107-.068.019-.136.041-.2.065-.035.009-.068.022-.1.035l-.1.036-.1.039-.118.047c-.06.025-.118.052-.177.081-.033.014-.066.03-.1.047s-.065.032-.095.049a4.377,4.377,0,0,0-.98.691l-.08.077-.079.081c-.027.027-.052.055-.077.084a3.768,3.768,0,0,0-.287.355c-.025.033-.049.066-.073.1a4.2,4.2,0,0,0-.271.461c-.021.038-.039.077-.058.115a5.162,5.162,0,0,0-.316.828q-.044.158-.08.315s-3.34,1.474-6.11,2.54c-.737.284-1.431.541-2.011.735l-.473.158a4.216,4.216,0,0,1-.986.227,3.1,3.1,0,0,0-.473.044c-1.273.207-3.455,1.1-3.693,2.005a.582.582,0,0,0-.016.221v.017c.158,1.1-.947.947-.947.947a13.978,13.978,0,0,1-.947,3.707,6.211,6.211,0,0,0-.707,2.791h0a3.094,3.094,0,0,0,.069.888v.022a3.9,3.9,0,0,1-.345,1.529c-.279.813-.686,1.822-1.078,2.775a32.305,32.305,0,0,0-1.18,3.032c-.014.128-.055.357-.112.652-.23,1.2-.742,3.491-.994,4.417-.188.691-.461,1.638-.648,2.288a.223.223,0,0,1-.016.055l7.073-.069v.133h.022Z" transform="translate(-336.07 -461.625)" fill="#21c909"/>
      <path id="Path_1314" data-name="Path 1314" d="M445.44,607.57s8.992,4.654,12.227,4.1Z" transform="translate(-387.674 -538.968)" opacity="0.1"/>
      <path id="Path_1315" data-name="Path 1315" d="M561.44,595.57s8.756,2.84,11.674,3.234S561.44,595.57,561.44,595.57Z" transform="translate(-485.374 -528.861)" opacity="0.1"/>
      <path id="Path_1316" data-name="Path 1316" d="M532.712,520.909c-4.575.843-13.189.661-16.912.533,1.365-4.891,8.019-3.228,8.019-3.228C532.056,516.57,532.687,519.981,532.712,520.909Z" transform="translate(-446.934 -463.337)" opacity="0.1"/>
      <path id="Path_1317" data-name="Path 1317" d="M532.712,518.909c-4.575.842-13.189.661-16.912.533,1.365-4.891,8.019-3.228,8.019-3.228C532.056,514.57,532.687,517.981,532.712,518.909Z" transform="translate(-446.934 -461.653)" fill="#21c909"/>
      <path id="Path_1318" data-name="Path 1318" d="M776.94,671.57s5.389-.828,5.495,1.538-2.748,4.02-2.748,4.02Z" transform="translate(-666.876 -592.753)" fill="#fbbebe"/>
      <path id="Path_1319" data-name="Path 1319" d="M540.092,449.73a7.429,7.429,0,0,1-.71.274,25.357,25.357,0,0,1-5.206,1.393,8.507,8.507,0,0,1-5.231-.868,4.528,4.528,0,0,1-.473-.308c-.174-3.471-.592-6.863-.592-6.863s13.725-6.468,12.148-1.341C539.4,444.09,539.613,447,540.092,449.73Z" transform="translate(-457.108 -397.869)" opacity="0.1"/>
      <path id="Path_1320" data-name="Path 1320" d="M514.958,353.9a1.494,1.494,0,0,1-1.313-.276l.328.456a1.336,1.336,0,0,1-1.07-.355,5.375,5.375,0,0,0,.051,1.223,2.29,2.29,0,0,1-1.508-.473.7.7,0,0,0,.417.68,2.262,2.262,0,0,0-2.461,1.69l.824.076a2.914,2.914,0,0,0-1.647,1,1.276,1.276,0,0,0-.334,1.1c.11.385.644.631.934.357a4.408,4.408,0,0,0-.962,3.6,2.284,2.284,0,0,1,.073.83,7.018,7.018,0,0,1-.3.74,2.338,2.338,0,0,0,.133,1.42l.74,2.433c.268.879.535,1.759.885,2.609a12.94,12.94,0,0,1,.631,1.658,7.638,7.638,0,0,0,.631,2.267,3.144,3.144,0,0,0,1.133,1,8.51,8.51,0,0,0,5.231.868,25.336,25.336,0,0,0,5.2-1.393,4.889,4.889,0,0,0,1.079-.473c1.175-.77,1.437-2.344,1.656-3.731a21.189,21.189,0,0,1,1.15-4.544,6.13,6.13,0,0,0,.713-2.672c-.1-1.232-1.071-2.231-1.312-3.442a3,3,0,0,1,.011-1.226,2.788,2.788,0,0,0,.125-.741,1.892,1.892,0,0,0-.835-1.226q-1.273-1.063-2.628-2.01c-.046-.316.383-.451.577-.7.275-.352-.009-.91-.426-1.074a2.18,2.18,0,0,0-1.317.052,1.04,1.04,0,0,0-1.822-.806,1.609,1.609,0,0,0-1.328-.959c-1.046-.082-1.066.718-1.735,1.158s-1.221-.14-1.735-.563A1.464,1.464,0,0,0,514.958,353.9Z" transform="translate(-440.299 -323.593)" fill="#3f3d56"/>
      <path id="Path_1321" data-name="Path 1321" d="M720.295,622.526s-.14.334-.4.819a10.883,10.883,0,0,1-1.42,2.078l-.043.046h-.256l-9.109.084h-.218l-.027-.032-1.767-2.1-.666-.79-.027-.033-.057-.066-.032-.038-.041-.049-1.3-1.537.473-1.972.806-3.323.021-.08.158-.631.112-.473.375-1.543,1.287-5.309,2.288,1.183,2.412,4.26,1.3,2.287h.71c.134,0,.442.259.751.557.11.106.221.218.315.316.281.29.5.539.5.539s1.15.025,1.459.931a1.111,1.111,0,0,1,.039.134,6.352,6.352,0,0,0,.4,1.035c.2.443.459.947.718,1.45.481.923.97,1.8,1.15,2.12l.022.039Z" transform="translate(-606.235 -538.976)" fill="#21c909"/>
      <path id="Path_1322" data-name="Path 1322" d="M474.311,647.368l-.016.226v.016l-.027.363-.21,2.92-.254,3.518-.073.991-.158,2.12v.027l-16.881.158-27.7.3v.132h-.022v-.177l.071-2.265.136-4.427.117-3.753.011-.374a1.661,1.661,0,0,1,1.8-1.6c.745.063,1.712.14,2.868.223l.473.035a255.465,255.465,0,0,0,31.474.316c.262-.014.525-.03.789-.049,1.931-.121,3.86-.278,5.771-.473a1.661,1.661,0,0,1,1.83,1.772Z" transform="translate(-373.802 -570.94)" opacity="0.1"/>
      <path id="Path_1323" data-name="Path 1323" d="M429.08,661.533V661.4l27.706-.3,16.881-.158h.047v-.027l.158-2.12.068-.947.259-3.567.2-2.824v-.069a1.672,1.672,0,0,0-.017-.39.047.047,0,0,0,0-.016,1.639,1.639,0,0,0-.316-.732,1.663,1.663,0,0,0-1.486-.631c-1.911.2-3.84.352-5.771.473-.263.019-.527.035-.789.049a258.681,258.681,0,0,1-31.474-.315l-.473-.035c-1.156-.082-2.123-.158-2.868-.222a1.663,1.663,0,0,0-1.773,1.346,1.742,1.742,0,0,0-.028.259l-.107,3.5-.147,4.428-.069,2.265v.177Z" transform="translate(-373.895 -574.335)" fill="#3f3d56"/>
      <path id="Path_1324" data-name="Path 1324" d="M474.476,658.2l-.194,2.418-.289,3.6-.073.9-.158,2.021-.009.1v.027h0l-.024.234.017-.234H473.7l-16.881.158-27.711.3v-.044l.077-2.265.158-4.427.1-2.942a1,1,0,0,1,.483-.828.986.986,0,0,1,.6-.142c.331.027.738.058,1.213.093.771.057,1.723.123,2.83.192,2.051.129,4.624.268,7.573.382a246.533,246.533,0,0,0,29.8-.5c.473-.041.962-.087,1.44-.133a.988.988,0,0,1,.549.1.815.815,0,0,1,.136.085.969.969,0,0,1,.316.388.564.564,0,0,1,.039.1A.99.99,0,0,1,474.476,658.2Z" transform="translate(-373.92 -580.666)" opacity="0.1"/>
      <path id="Path_1325" data-name="Path 1325" d="M337.712,677.87v.5a.967.967,0,0,1-.552.874l-6.326.121a.965.965,0,0,1-.563-.879v-.473Z" transform="translate(-290.674 -598.177)" opacity="0.1"/>
      <path id="Path_1326" data-name="Path 1326" d="M254.593,508.268l-8.243.158v-1.368l8.243-.158Z" transform="translate(-207.476 -426.901)" fill="#3f3d56"/>
      <path id="Path_1327" data-name="Path 1327" d="M254.593,508.268l-8.243.158v-1.368l8.243-.158Z" transform="translate(-207.476 -426.901)" opacity="0.1"/>
      <path id="Path_1328" data-name="Path 1328" d="M256.593,508.268l-8.243.158v-1.368l8.243-.158Z" transform="translate(-209.161 -426.901)" fill="#3f3d56"/>
      <g id="Group_406" data-name="Group 406" transform="translate(67.687 29.107)" opacity="0.1">
        <path id="Path_1329" data-name="Path 1329" d="M551.243,357.9a1.539,1.539,0,0,1-.3-.685,1.5,1.5,0,0,0,.066.726A1.423,1.423,0,0,0,551.243,357.9Z" transform="translate(-544.206 -357.22)"/>
        <path id="Path_1330" data-name="Path 1330" d="M539.918,365.084a5.569,5.569,0,0,1-.058-.584v.585Z" transform="translate(-534.885 -363.351)"/>
        <path id="Path_1331" data-name="Path 1331" d="M621.672,394.5a2.9,2.9,0,0,1,.057-.418,2.841,2.841,0,0,0,.126-.74.961.961,0,0,0-.025-.167c-.027.145-.069.29-.1.434A3.021,3.021,0,0,0,621.672,394.5Z" transform="translate(-603.781 -387.498)"/>
        <path id="Path_1332" data-name="Path 1332" d="M600.912,366.4l.172.125a3.1,3.1,0,0,0,.405-.35.579.579,0,0,0,.06-.574.472.472,0,0,1-.06.1C601.3,365.95,600.866,366.088,600.912,366.4Z" transform="translate(-586.302 -364.278)"/>
        <path id="Path_1333" data-name="Path 1333" d="M518.027,380.29a1.941,1.941,0,0,0-.137.36,2.866,2.866,0,0,1,.789-.3Z" transform="translate(-516.381 -376.65)"/>
        <path id="Path_1334" data-name="Path 1334" d="M530.959,368.374a2.341,2.341,0,0,1-.3-.194.67.67,0,0,0,.014.186A1.873,1.873,0,0,1,530.959,368.374Z" transform="translate(-527.137 -366.451)"/>
        <path id="Path_1335" data-name="Path 1335" d="M527.571,428.33a8.123,8.123,0,0,1-.71,2.228,21.171,21.171,0,0,0-1.15,4.545c-.219,1.387-.473,2.961-1.656,3.729a4.735,4.735,0,0,1-1.078.473,25.252,25.252,0,0,1-5.206,1.393,8.506,8.506,0,0,1-5.231-.866,3.154,3.154,0,0,1-1.133-1,7.828,7.828,0,0,1-.631-2.267,12.971,12.971,0,0,0-.631-1.66c-.349-.849-.617-1.735-.883-2.608q-.371-1.216-.74-2.434a4.55,4.55,0,0,1-.18-.749,2.828,2.828,0,0,0,.18,1.223q.369,1.219.74,2.434c.267.879.535,1.759.884,2.608a12.987,12.987,0,0,1,.631,1.66,7.635,7.635,0,0,0,.631,2.267,3.155,3.155,0,0,0,1.133,1,8.511,8.511,0,0,0,5.231.866,25.445,25.445,0,0,0,5.206-1.393,4.735,4.735,0,0,0,1.078-.473c1.175-.768,1.437-2.343,1.656-3.73a21.171,21.171,0,0,1,1.15-4.545,6.12,6.12,0,0,0,.713-2.672C527.574,428.349,527.571,428.339,527.571,428.33Z" transform="translate(-508.324 -417.112)"/>
        <path id="Path_1336" data-name="Path 1336" d="M509.88,417.149v-.017a2.208,2.208,0,0,0-.073-.828,4.207,4.207,0,0,1-.062-.524,4.314,4.314,0,0,0,.062,1C509.833,416.9,509.861,417.025,509.88,417.149Z" transform="translate(-509.516 -406.541)"/>
        <path id="Path_1337" data-name="Path 1337" d="M510.727,395.022a4.376,4.376,0,0,1,.412-.579c-.289.276-.822.03-.934-.353a.92.92,0,0,0,0,.473A.693.693,0,0,0,510.727,395.022Z" transform="translate(-509.882 -388.273)"/>
      </g>
      <path id="Path_1338" data-name="Path 1338" d="M762.253,656.57a6.853,6.853,0,0,1,0,3.392C761.753,661.539,762.253,656.57,762.253,656.57Z" transform="translate(-654.319 -580.237)" opacity="0.1"/>
      <path id="Path_1339" data-name="Path 1339" d="M774.687,668.3s.21,2.3-.263,2.712S774.687,668.3,774.687,668.3Z" transform="translate(-664.623 -590.117)" opacity="0.1"/>
      <line id="Line_17" data-name="Line 17" y1="0.158" x2="16.03" transform="translate(31.402 53.962)" fill="none" stroke="#21c909" stroke-miterlimit="10" stroke-width="2"/>
      <line id="Line_18" data-name="Line 18" y1="0.156" x2="16.03" transform="translate(31.402 55.931)" fill="none" stroke="#21c909" stroke-miterlimit="10" stroke-width="2"/>
      <line id="Line_19" data-name="Line 19" y1="0.158" x2="16.03" transform="translate(31.402 57.898)" fill="none" stroke="#21c909" stroke-miterlimit="10" stroke-width="2"/>
    </g>
    <rect id="Rectangle_398" data-name="Rectangle 398" width="221.381" height="108.5" transform="translate(1636 4583)" fill="#4e5a59" opacity="0.146"/>
  </g>
</svg>
