<svg xmlns="http://www.w3.org/2000/svg" xmlns:xlink="http://www.w3.org/1999/xlink" width="322" height="232.547" viewBox="0 0 322 232.547">
  <defs>
    <linearGradient id="linear-gradient" x2="1" y2="1" gradientUnits="objectBoundingBox">
      <stop offset="0" stop-color="#4ef1ff"/>
      <stop offset="1" stop-color="#775fff"/>
    </linearGradient>
  </defs>
  <g id="Group_503" data-name="Group 503" transform="translate(-18583 -2565)">
    <rect id="Rectangle_10" data-name="Rectangle 10" width="322" height="228" transform="translate(18583 2565)" fill="url(#linear-gradient)"/>
    <g id="Group_501" data-name="Group 501">
      <g id="Group_257" data-name="Group 257" transform="translate(18614.844 2652.539)">
        <path id="Path_1118" data-name="Path 1118" d="M270.816,93.043v23.379h47.2V93.043Zm0,24.1v15.831c5.495-1.533,11.778-.915,17.475.344,4.411.978,8.709,2.307,13.112,3.264a54.424,54.424,0,0,0,5.978.986l.5.046c.24.021.481.042.721.059l.721.044h.4a.982.982,0,0,0,.111,0l.389.013h.012c.185,0,.373,0,.56.013h1.543c.142,0,.281,0,.421-.013.226,0,.452-.017.68-.031l.421-.023.519-.036c.368-.025.721-.059,1.094-.1.144-.015.291-.029.435-.048l.214-.023c.363-.042.721-.092,1.084-.145.267-.036.534-.08.8-.122V117.143Zm35.109-50.135v.722H270.816V92.321h47.2V67.738h-2.368v-.722h2.368V51.128a83.3,83.3,0,0,0-31.868-13.845,77.315,77.315,0,0,0-15.336-1.395V67.017ZM198,66.87l.166.138h67.371V36.1c-11.995.871-23.691,4.386-33.121,10.212-4.531,2.8-8.6,6.111-13.684,8.257a23.951,23.951,0,0,1-8.557,1.93Zm-.464-12.679v7l6.509-5.544a32.772,32.772,0,0,0-6.519-1.443Zm-.216,88.011h.216v15.334q3.685-.239,7.341-.659a147.01,147.01,0,0,0,31.789-7.187h0q1.644-.575,3.264-1.187,1.079-.409,2.146-.839,1.6-.642,3.178-1.319a116.708,116.708,0,0,0,13.43-6.809c.267-.157.536-.317.8-.478q.8-.482,1.584-.973c.262-.166.524-.331.784-.5l.534-.357c.538-.35,1.074-.7,1.618-1.049h0c.5-.315,1.01-.629,1.524-.923V117.133H211.406c.038-.107.075-.21.115-.323-.043.109-.082.21-.118.323H197.524V142.2Zm.216-74.469V92.321h68V67.738Zm0,25.3v23.383h68V93.043Zm-13.6-38.128,8.307,7.076V54.16Q188.07,54.386,183.939,54.911ZM126.093,93.043v23.379h66.152V93.043Zm15.989,57.739a137.98,137.98,0,0,0,31.183,6.457h.046q3.026.279,6.069.432h.074c4.252.21,8.521.258,12.783.12V117.143H126.093l.24,26.918M107.77,116.422h13.047V93.043h-5.161c-.536.822-1.055,1.649-1.548,2.488q-.4.669-.772,1.353C109.941,103.036,107.782,109.8,107.77,116.422Zm0,.722a26.636,26.636,0,0,0,4.021,13.717,35.179,35.179,0,0,0,9.016,9.44V117.143Zm8.36-24.822h4.678V86.238a65.067,65.067,0,0,0-4.668,6.083Zm29.308-25.3h45.247l.163-.138-.24-.21h0l-12.723-10.83q-5.664,1.032-11.17,2.612c-.346.1-.692.21-1.036.3a108.655,108.655,0,0,0-20.242,8.263ZM126.093,80.729V92.321h66.16V68.407l-.928-.659H144.107a89.3,89.3,0,0,0-18.013,12.981Z" transform="translate(-107.77 -35.885)" fill="#21c909" opacity="0.307"/>
        <rect id="Rectangle_246" data-name="Rectangle 246" width="13.704" height="23.549" transform="translate(89.754 32.886)" fill="#21c909" opacity="0.1"/>
        <path id="Path_1123" data-name="Path 1123" d="M379.4,272.45v23.379h68.01V285.745H411.184v5.949H393.1V272.45Z" transform="translate(-289.646 -215.292)" fill="#21c909" opacity="0.1"/>
        <path id="Path_1124" data-name="Path 1124" d="M480.27,447.109h.216v15.336q3.685-.243,7.341-.659a147.268,147.268,0,0,0,31.8-7.2q4.384-1.535,8.588-3.344a116.716,116.716,0,0,0,13.43-6.811q1.608-.952,3.166-1.949c.721-.464,1.442-.936,2.163-1.395.5-.315,1.01-.629,1.524-.925V422.041H494.37c.038-.107.074-.21.113-.321-.041.107-.082.21-.118.321H480.486V447.1Z" transform="translate(-390.732 -340.782)" fill="#21c909" opacity="0.1"/>
        <path id="Path_1125" data-name="Path 1125" d="M332.5,152.017h8.927v-2.159h-4V143.45c-.346.1-.692.21-1.036.3v6.1H332.5Z" transform="translate(-278.482 -120.885)" fill="#21c909" opacity="0.1"/>
        <path id="Path_1126" data-name="Path 1126" d="M243,212.313h51.97V188.762h-2.3v17.411H282.139v-10.3h-8.7V187.73h-8.927v8.139h-8.7v10.3H243Z" transform="translate(-210.495 -155.876)" fill="#21c909" opacity="0.1"/>
        <path id="Path_1127" data-name="Path 1127" d="M198.182,308.36v23.379h51.97V308.36ZM200,366.1a137.984,137.984,0,0,0,31.183,6.457h.046q3.026.279,6.069.432h.075c4.252.21,8.521.258,12.783.12V332.461h-51.97v8.288H184l.075,18.5" transform="translate(-165.677 -251.202)" fill="#21c909" opacity="0.1"/>
        <path id="Path_1128" data-name="Path 1128" d="M119.932,423.25H107.81a26.658,26.658,0,0,0,4.021,13.717,35.185,35.185,0,0,0,9.016,9.44V431.538h-.916Z" transform="translate(-107.8 -341.991)" fill="#21c909" opacity="0.1"/>
        <path id="Path_1129" data-name="Path 1129" d="M107.77,346.208H119.9V326.67h-6.564C109.941,332.823,107.782,339.586,107.77,346.208Z" transform="translate(-107.77 -265.671)" fill="#21c909" opacity="0.1"/>
        <rect id="Rectangle_247" data-name="Rectangle 247" width="7.341" height="7.384" transform="translate(89.754 39.433)" fill="#21c909" opacity="0.285"/>
        <rect id="Rectangle_248" data-name="Rectangle 248" width="7.341" height="1.699" transform="translate(89.754 54.737)" fill="#21c909" opacity="0.1"/>
        <rect id="Rectangle_249" data-name="Rectangle 249" width="7.341" height="4.961" transform="translate(89.754 57.158)" fill="#21c909" opacity="0.285"/>
        <rect id="Rectangle_250" data-name="Rectangle 250" width="7.341" height="7.384" transform="translate(89.754 70.04)" fill="#21c909" opacity="0.285"/>
        <rect id="Rectangle_251" data-name="Rectangle 251" width="7.341" height="7.384" transform="translate(89.754 85.345)" fill="#21c909" opacity="0.285"/>
        <path id="Path_1130" data-name="Path 1130" d="M480.486,521.34h0v1.714h7.341V515.67h-7.341Z" transform="translate(-390.732 -415.024)" fill="#21c909" opacity="0.285"/>
        <path id="Path_1131" data-name="Path 1131" d="M481.17,588.63v5.7q3.685-.243,7.341-.659v-5.034Z" transform="translate(-391.416 -472.68)" fill="#21c909" opacity="0.285"/>
        <rect id="Rectangle_252" data-name="Rectangle 252" width="31.46" height="0.541" transform="translate(126.305 79.994)" fill="#21c909" opacity="0.285"/>
        <rect id="Rectangle_253" data-name="Rectangle 253" width="31.46" height="2.079" transform="translate(126.305 81.259)" fill="#21c909" opacity="0.285"/>
        <rect id="Rectangle_254" data-name="Rectangle 254" width="31.46" height="3.344" transform="translate(126.305 90.151)" fill="#21c909" opacity="0.285"/>
        <path id="Path_1132" data-name="Path 1132" d="M633.23,514.06V517.4h24.609q1.6-.95,3.166-1.951c.721-.462,1.442-.934,2.163-1.391Z" transform="translate(-506.924 -413.752)" fill="#21c909" opacity="0.285"/>
        <path id="Path_1133" data-name="Path 1133" d="M633.23,562.47v3.344h2.589q4.382-1.531,8.586-3.344Z" transform="translate(-506.924 -452.007)" fill="#21c909" opacity="0.285"/>
        <rect id="Rectangle_255" data-name="Rectangle 255" width="6.192" height="4.806" transform="translate(71.693 64.231) rotate(180)" fill="#21c909" opacity="0.285"/>
        <rect id="Rectangle_262" data-name="Rectangle 262" width="6.192" height="4.806" transform="translate(48.05 64.231) rotate(180)" fill="#21c909" opacity="0.285"/>
        <rect id="Rectangle_263" data-name="Rectangle 263" width="6.192" height="4.806" transform="translate(71.693 76.084) rotate(180)" fill="#21c909" opacity="0.285"/>
        <rect id="Rectangle_264" data-name="Rectangle 264" width="6.192" height="4.806" transform="translate(48.05 76.084) rotate(180)" fill="#21c909" opacity="0.285"/>
        <rect id="Rectangle_265" data-name="Rectangle 265" width="6.192" height="4.806" transform="translate(71.693 87.938) rotate(180)" fill="#21c909" opacity="0.285"/>
        <rect id="Rectangle_266" data-name="Rectangle 266" width="6.192" height="4.806" transform="translate(48.05 87.938) rotate(180)" fill="#21c909" opacity="0.285"/>
        <rect id="Rectangle_267" data-name="Rectangle 267" width="6.192" height="4.806" transform="translate(71.693 99.792) rotate(180)" fill="#21c909" opacity="0.285"/>
        <rect id="Rectangle_268" data-name="Rectangle 268" width="6.192" height="4.806" transform="translate(48.05 99.792) rotate(180)" fill="#21c909" opacity="0.285"/>
        <rect id="Rectangle_269" data-name="Rectangle 269" width="6.192" height="4.806" transform="translate(71.693 111.648) rotate(180)" fill="#21c909" opacity="0.285"/>
        <rect id="Rectangle_270" data-name="Rectangle 270" width="6.192" height="4.806" transform="translate(48.05 111.648) rotate(180)" fill="#21c909" opacity="0.285"/>
        <path id="Path_1134" data-name="Path 1134" d="M284.69,568.908v-3.1H278.5v2.658Z" transform="translate(-212.999 -447.113)" fill="#21c909" opacity="0.285"/>
        <path id="Path_1141" data-name="Path 1141" d="M1004.42,505.18v1.663a.827.827,0,0,0,.1-.031v-1.468h1.738v.894l.37-.132v-.753h1.738v.084c.2-.082.406-.168.606-.254Z" transform="translate(-788.891 -406.735)" fill="#21c909" opacity="0.1"/>
        <path id="Path_1122" data-name="Path 1122" d="M929.954,423.25H913.34v19.439a54.781,54.781,0,0,0,5.976.986l.5.046c.24.023.481.042.721.059l.721.044h.075a2.781,2.781,0,0,1,.322.013h.11c.13,0,.26,0,.392.013h0c.185,0,.372,0,.56.013h1.543l.423-.013c.223,0,.452-.017.678-.031l.418-.023.522-.036c.365-.027.721-.059,1.091-.1l.435-.048.214-.023c.363-.044.721-.09,1.084-.145.269-.036.534-.08.8-.122Z" transform="translate(-719.705 -341.991)" fill="#21c909" opacity="0.1"/>
        <rect id="Rectangle_260" data-name="Rectangle 260" width="6.192" height="4.806" transform="translate(205.786 86.492) rotate(180)" fill="#21c909" opacity="0.285"/>
        <rect id="Rectangle_261" data-name="Rectangle 261" width="6.192" height="4.806" transform="translate(205.786 97.654) rotate(180)" fill="#21c909" opacity="0.285"/>
        <path id="Path_1121" data-name="Path 1121" d="M811.56,141.732V162.8h16.617V141.732h-2.368V134.6h-9.728v7.132Z" transform="translate(-617.927 -106.359)" fill="#21c909" opacity="0.1"/>
        <rect id="Rectangle_245" data-name="Rectangle 245" width="16.617" height="23.377" transform="translate(193.632 57.158)" fill="#21c909" opacity="0.1"/>
        <rect id="Rectangle_256" data-name="Rectangle 256" width="6.192" height="4.806" transform="translate(205.786 41.836) rotate(180)" fill="#21c909" opacity="0.285"/>
        <rect id="Rectangle_257" data-name="Rectangle 257" width="6.192" height="4.806" transform="translate(205.786 53.001) rotate(180)" fill="#21c909" opacity="0.285"/>
        <rect id="Rectangle_258" data-name="Rectangle 258" width="6.192" height="4.806" transform="translate(205.786 64.162) rotate(180)" fill="#21c909" opacity="0.285"/>
        <rect id="Rectangle_259" data-name="Rectangle 259" width="6.192" height="4.806" transform="translate(205.786 75.327) rotate(180)" fill="#21c909" opacity="0.285"/>
        <path id="Path_1115" data-name="Path 1115" d="M1026.52,308.36h-22.1v23.379H1024.9c.053.241.1.483.164.722H1004.42v18.85l.1-.029q.875-.269,1.738-.571l.37-.132q.885-.317,1.738-.677c.2-.082.406-.168.606-.256a36.562,36.562,0,0,0,8.694-5.244c.075-.057.144-.115.211-.172.353-.3.7-.6,1.036-.906l.37-.344c.4-.376.779-.764,1.151-1.156l.163-.172a24.176,24.176,0,0,0,3.745-5.244c.031-.057.058-.115.087-.172a19.444,19.444,0,0,0,.808-1.8c.1-.258.2-.516.281-.774.029-.078.055-.153.079-.229a36.556,36.556,0,0,0,1.368-11.506v-1.353c0-1.563-.026-3.147-.06-4.709,0-.407-.022-.812-.034-1.221q-.043-1.559-.13-3.113c-.015-.289-.029-.577-.051-.862,0-.166-.019-.331-.031-.5C1026.616,309.554,1026.573,308.958,1026.52,308.36Z" transform="translate(-788.891 -251.202)" fill="#21c909" opacity="0.1"/>
        <path id="Path_1116" data-name="Path 1116" d="M1004.4,139.5h12.122a75.348,75.348,0,0,0-6.454-6.889c-1.8-1.716-3.694-3.39-5.675-5Z" transform="translate(-788.869 -108.368)" fill="#21c909" opacity="0.327"/>
        <path id="Path_1117" data-name="Path 1117" d="M1004.42,187.706v24.583h22.03a1.869,1.869,0,0,0-.022-.21c-.019-.193-.038-.386-.06-.581s-.051-.453-.079-.682-.058-.493-.092-.736-.062-.493-.1-.738-.07-.491-.108-.734-.075-.491-.118-.734c-.033-.21-.065-.4-.1-.606-.05-.285-.1-.573-.159-.856a1.115,1.115,0,0,0-.026-.126,47.085,47.085,0,0,0-1.62-6.174,39.3,39.3,0,0,0-2.733-6.266,44.537,44.537,0,0,0-4.113-6.146Z" transform="translate(-788.891 -155.852)" fill="#21c909" opacity="0.324"/>
        <path id="Path_1119" data-name="Path 1119" d="M1004.42,246.84v12.184h22.03a1.868,1.868,0,0,0-.022-.21c-.019-.193-.038-.386-.06-.581s-.051-.453-.079-.682-.058-.493-.092-.736-.062-.493-.1-.738-.07-.491-.108-.734-.075-.491-.118-.734c-.033-.21-.065-.4-.1-.606-.05-.285-.1-.573-.159-.856a1.115,1.115,0,0,0-.026-.126,47.084,47.084,0,0,0-1.62-6.174Z" transform="translate(-788.891 -202.587)" fill="#21c909" opacity="0.1"/>
        <path id="Path_1120" data-name="Path 1120" d="M1026.52,308.36h-22.1v23.379H1024.9c.053.241.1.483.164.722H1004.42v18.85l.1-.029q.875-.269,1.738-.571l.37-.132q.885-.317,1.738-.677c.2-.082.406-.168.606-.256a36.562,36.562,0,0,0,8.694-5.244c.075-.057.144-.115.211-.172.353-.3.7-.6,1.036-.906l.37-.344c.4-.376.779-.764,1.151-1.156l.163-.172a24.176,24.176,0,0,0,3.745-5.244c.031-.057.058-.115.087-.172a19.444,19.444,0,0,0,.808-1.8c.1-.258.2-.516.281-.774.029-.078.055-.153.079-.229a36.556,36.556,0,0,0,1.368-11.506v-1.353c0-1.563-.026-3.147-.06-4.709,0-.407-.022-.812-.034-1.221q-.043-1.559-.13-3.113c-.015-.289-.029-.577-.051-.862,0-.166-.019-.331-.031-.5C1026.616,309.554,1026.573,308.958,1026.52,308.36Z" transform="translate(-788.891 -251.202)" fill="#21c909" opacity="0.327"/>
        <path id="Path_1135" data-name="Path 1135" d="M1004.42,276.26v2.75h21.193v-2.75Zm19.083.174h1.729v2.4h-1.738Zm-2.11,0h1.738v2.4h-1.745Zm-2.106,0h1.738v2.4h-1.738Zm-2.111,0h1.738v2.4h-1.738Zm-2.108,0h1.75v2.4h-1.738Zm-2.111,0h1.738v2.4h-1.738Zm-2.111,0h1.738v2.4h-1.738Zm-2.108,0h1.738v2.4h-1.738Zm-2.108,0h1.738v2.4h-1.738Zm-2.108,0h1.738v2.4h-1.738Z" transform="translate(-788.891 -225.836)" fill="#21c909" opacity="0.1"/>
        <path id="Path_1136" data-name="Path 1136" d="M1004.42,314.42v2.75h21.193v-2.75Zm19.083.174h1.729V317h-1.738Zm-2.11,0h1.738V317h-1.745Zm-2.106,0h1.738V317h-1.738Zm-2.111,0h1.738V317h-1.738Zm-2.108,0h1.75V317h-1.738Zm-2.111,0h1.738V317h-1.738Zm-2.111,0h1.738V317h-1.738Zm-2.108,0h1.738V317h-1.738Zm-2.108,0h1.738V317h-1.738Zm-2.108,0h1.738V317h-1.738Z" transform="translate(-788.891 -255.991)" fill="#21c909" opacity="0.1"/>
        <path id="Path_1137" data-name="Path 1137" d="M1004.42,352.57v2.748h21.193V352.57Zm19.083.172h1.729v2.4h-1.738Zm-2.11,0h1.738v2.4h-1.745Zm-2.106,0h1.738v2.4h-1.738Zm-2.111,0h1.738v2.4h-1.738Zm-2.108,0h1.75v2.4h-1.738Zm-2.111,0h1.738v2.4h-1.738Zm-2.111,0h1.738v2.4h-1.738Zm-2.108,0h1.738v2.4h-1.738Zm-2.108,0h1.738v2.4h-1.738Zm-2.108,0h1.738v2.4h-1.738Z" transform="translate(-788.891 -286.138)" fill="#21c909" opacity="0.1"/>
        <path id="Path_1138" data-name="Path 1138" d="M1004.42,390.72v2.748h21.193V390.72Zm19.083.172h1.729v2.4h-1.738Zm-2.11,0h1.738v2.4h-1.745Zm-2.106,0h1.738v2.4h-1.738Zm-2.111,0h1.738v2.4h-1.738Zm-2.108,0h1.75v2.4h-1.738Zm-2.111,0h1.738v2.4h-1.738Zm-2.111,0h1.738v2.4h-1.738Zm-2.108,0h1.738v2.4h-1.738Zm-2.108,0h1.738v2.4h-1.738Zm-2.108,0h1.738v2.4h-1.738Z" transform="translate(-788.891 -316.285)" fill="#21c909" opacity="0.1"/>
        <path id="Path_1139" data-name="Path 1139" d="M1004.42,428.87v2.754h19.927c.029-.057.058-.115.084-.172h-.928v-2.408h1.729v.6c.1-.256.2-.512.281-.772Zm16.973.174h1.738v2.4h-1.745Zm-2.106,0h1.738v2.4h-1.738Zm-2.11,0h1.738v2.4h-1.738Zm-2.108,0h1.75v2.4h-1.738Zm-2.111,0h1.738v2.4h-1.738Zm-2.11,0h1.738v2.4h-1.738Zm-2.108,0h1.738v2.4h-1.738Zm-2.108,0h1.738v2.4h-1.738Zm-2.108,0h1.738v2.4h-1.738Z" transform="translate(-788.891 -346.432)" fill="#21c909" opacity="0.1"/>
        <path id="Path_1140" data-name="Path 1140" d="M1004.42,467v2.748h13.247c.077-.057.144-.117.214-.172h-.7v-2.4h1.738v1.5l.372-.346v-1.154h1.151c.055-.059.108-.117.163-.172Zm10.648.172h1.75v2.4h-1.738Zm-2.111,0h1.738v2.4h-1.738Zm-2.11,0h1.738v2.4h-1.738Zm-2.108,0h1.738v2.4h-1.738Zm-2.108,0h1.738v2.4h-1.738Zm-2.108,0h1.738v2.4h-1.738Z" transform="translate(-788.891 -376.564)" fill="#21c909" opacity="0.1"/>
        <path id="Path_1142" data-name="Path 1142" d="M425.33,209.6h.012Zm13.206,49.886h0Zm14.1-25.068h0c.038-.107.074-.21.115-.323C452.706,234.2,452.667,234.31,452.631,234.417ZM425.33,209.6h.012ZM547.152,184.29v.722h9.728v-.722ZM438.536,259.484h0Zm14.1-25.068h0c.038-.107.074-.21.115-.323C452.706,234.2,452.667,234.31,452.631,234.417ZM425.33,209.6h.012Zm13.206,49.886h0Zm14.1-25.068h0c.038-.107.074-.21.115-.323C452.706,234.2,452.667,234.31,452.631,234.417Z" transform="translate(-348.998 -153.158)" fill="#21c909" opacity="0.1"/>
        <path id="Path_1165" data-name="Path 1165" d="M508.409,692.68a8.8,8.8,0,0,0-1.786,2.987c-1.048-1.049-1.274-2.255.24-3.209a6.38,6.38,0,0,0,2.671-5.148,5.283,5.283,0,0,1,.24,1.061A5.6,5.6,0,0,1,508.409,692.68Z" transform="translate(-410.112 -550.659)" fill="#fff" opacity="0.1"/>
        <path id="Path_1203" data-name="Path 1203" d="M346,352.366a2.539,2.539,0,0,0,1.747,1.059,15.061,15.061,0,0,0,5.454-.441s-9.435-2.616-.351-8.976h-2.428l-.817-.269C348.279,345.8,346.178,349.471,346,352.366Z" transform="translate(-288.737 -279.16)" fill="none"/>
        <path id="Path_1212" data-name="Path 1212" d="M450.28,167.666v.04A.109.109,0,0,0,450.28,167.666Z" transform="translate(-367.951 -139.811)"/>
      </g>
      <g id="Group_256" data-name="Group 256" transform="translate(18652.797 2652.182)">
        <rect id="Rectangle_248-2" data-name="Rectangle 248" width="5.418" height="1.437" transform="translate(90.774 26.623)" fill="#21c909" opacity="0.1"/>
        <rect id="Rectangle_249-2" data-name="Rectangle 249" width="5.418" height="4.196" transform="translate(90.774 28.67)" fill="#21c909" opacity="0.1"/>
        <rect id="Rectangle_250-2" data-name="Rectangle 250" width="5.418" height="6.245" transform="translate(90.774 39.565)" fill="#21c909" opacity="0.1"/>
        <rect id="Rectangle_251-2" data-name="Rectangle 251" width="5.418" height="6.245" transform="translate(90.774 52.508)" fill="#21c909" opacity="0.1"/>
        <rect id="Rectangle_254-2" data-name="Rectangle 254" width="23.219" height="2.828" transform="translate(45.995 56.573)" fill="#21c909" opacity="0.1"/>
        <path id="Path_1132-2" data-name="Path 1132" d="M655.326,514.06v2.828H637.163q-1.183-.8-2.337-1.65c-.532-.39-1.064-.79-1.6-1.176Z" transform="translate(-586.112 -448.897)" fill="#21c909" opacity="0.1"/>
        <rect id="Rectangle_255-2" data-name="Rectangle 255" width="4.57" height="4.064" transform="translate(109.522 30.588)" fill="#21c909" opacity="0.1"/>
        <rect id="Rectangle_263-2" data-name="Rectangle 263" width="4.57" height="4.064" transform="translate(109.522 40.611)" fill="#21c909" opacity="0.1"/>
        <rect id="Rectangle_265-2" data-name="Rectangle 265" width="4.57" height="4.064" transform="translate(109.522 50.637)" fill="#21c909" opacity="0.1"/>
        <rect id="Rectangle_266-2" data-name="Rectangle 266" width="4.57" height="4.064" transform="translate(126.972 50.637)" fill="#21c909" opacity="0.1"/>
        <rect id="Rectangle_267-2" data-name="Rectangle 267" width="4.57" height="4.064" transform="translate(109.522 60.662)" fill="#21c909" opacity="0.1"/>
        <rect id="Rectangle_268-2" data-name="Rectangle 268" width="4.57" height="4.064" transform="translate(126.972 60.662)" fill="#21c909" opacity="0.1"/>
        <rect id="Rectangle_269-2" data-name="Rectangle 269" width="4.57" height="4.064" transform="translate(109.522 70.689)" fill="#21c909" opacity="0.1"/>
        <rect id="Rectangle_270-2" data-name="Rectangle 270" width="4.57" height="4.064" transform="translate(126.972 70.689)" fill="#21c909" opacity="0.1"/>
        <path id="Path_1134-2" data-name="Path 1134" d="M278.5,568.43v-2.62h4.568v2.248Z" transform="translate(-168.976 -485.095)" fill="#21c909" opacity="0.1"/>
        <path id="Path_1141-2" data-name="Path 1141" d="M1007.782,505.18v1.407a.547.547,0,0,1-.076-.027v-1.242h-1.283v.756l-.273-.112v-.637h-1.283v.071c-.151-.069-.3-.142-.447-.215Z" transform="translate(-1004.42 -441.593)" fill="#21c909" opacity="0.1"/>
        <path id="Path_1143" data-name="Path 1143" d="M649.6,481.156l3.066-.169.208-8.8.048-2.1-3.234-.6-.021,2.7Z" transform="translate(-604.666 -405.863)" fill="#d48a9b"/>
        <path id="Path_1144" data-name="Path 1144" d="M580.827,524.241l15.754,9.795.341,2.98-1.7.085v-2.129l-10.3-5.791L597.347,544.6v2.384H595.3l.17-2.64-14.391-16.35-1.788.17-15.16,17.2-.341,2.9-2.044.085.341-2.982L574.1,530.374l-8,5.535-.17,2.384-1.618.085.17-2.9L579.72,523.73Z" transform="translate(-533.506 -450.481)" fill="#d48a9b"/>
        <path id="Path_1145" data-name="Path 1145" d="M673.664,357.237a28.106,28.106,0,0,1-3.711-6.048,38.335,38.335,0,0,1-2.363-5.988c-.177-1.533-4.513-4.6-9.282-4.769-3.11-.112-7.955-2.539-10.953-4.215a22.294,22.294,0,0,0-9.19-2.839c-3.507-.264-6.805.424-5.145,4.494l22.3,27.005s19.018,3.351,20.191-2.037a4.484,4.484,0,0,1,.271-.791C676,361.541,676.063,360.212,673.664,357.237Z" transform="translate(-606.551 -300.23)" fill="#21c909"/>
        <path id="Path_1146" data-name="Path 1146" d="M682.538,364.686a28.932,28.932,0,0,1-3.749-6.1,34.993,34.993,0,0,1-2.17-5.517c-.163-1.464-4.318-4.393-8.881-4.556-2.975-.106-7.611-2.423-10.478-4.025a21.362,21.362,0,0,0-8.8-2.7c-3.355-.252-6.511.406-4.929,4.293l17.69,25.9s21.821,3.1,22.976-2.026a5.115,5.115,0,0,1,.271-.795C684.676,368.647,684.7,367.4,682.538,364.686Z" transform="translate(-617.101 -307.142)" fill="#dda2a6" opacity="0.2"/>
        <path id="Path_1147" data-name="Path 1147" d="M751.37,508.112c1.025,0,2.106,0,3.207-.011l.048-2.1-3.234-.594Z" transform="translate(-706.37 -441.782)" opacity="0.1"/>
        <path id="Path_1148" data-name="Path 1148" d="M694.588,563.835l8-5.535-.917,1.144-7.088,4.9-.17,2.384-1.618.085.03-.513,1.588-.083Z" transform="translate(-662.001 -478.918)"/>
        <path id="Path_1149" data-name="Path 1149" d="M584.054,557.371v.511l-9.55-5.367-.754-.935Z" transform="translate(-522.342 -473.39)"/>
        <path id="Path_1150" data-name="Path 1150" d="M563.794,651.9v.511H561.75l.034-.511Z" transform="translate(-499.953 -555.912)"/>
        <path id="Path_1151" data-name="Path 1151" d="M564.15,595.842l1.646-.082.057.507-1.7.085Z" transform="translate(-502.438 -509.732)"/>
        <path id="Path_1152" data-name="Path 1152" d="M574.354,565.129l.341-2.9,15.16-17.2,1.788-.17,14.391,16.35-.03.477-14.361-16.316-1.788.17-15.16,17.2-.341,2.9-2.044.085.058-.514Z" transform="translate(-544.066 -467.862)"/>
        <path id="Path_1153" data-name="Path 1153" d="M762.2,426.06s-3.988,2.917-2.242,2.95S762.2,426.06,762.2,426.06Z" transform="translate(-715.395 -376.509)" opacity="0.1"/>
        <path id="Path_1154" data-name="Path 1154" d="M702.795,374.44s-6.6-.511-9.069-5.28c0,0-5.024-9.965-9.114-11.072s-11.666-3.577-14.817-7.409a33.791,33.791,0,0,1-4.472-6.77s-.813,3.1,1.747,6.758,3.491,9.287,5.28,15.257,2.47,8.338,5.705,8.693c2.439.257,15.337.128,21.5,0C701.576,374.563,702.795,374.44,702.795,374.44Z" transform="translate(-639.252 -308.933)" fill="#21c909"/>
        <path id="Path_1155" data-name="Path 1155" d="M702.795,374.44s-6.6-.511-9.069-5.28c0,0-5.024-9.965-9.114-11.072s-11.666-3.577-14.817-7.409a33.791,33.791,0,0,1-4.472-6.77s-.813,3.1,1.747,6.758,3.491,9.287,5.28,15.257,2.47,8.338,5.705,8.693c2.439.257,15.337.128,21.5,0C701.576,374.563,702.795,374.44,702.795,374.44Z" transform="translate(-639.252 -308.933)" fill="#dda2a6" opacity="0.2"/>
        <path id="Path_1156" data-name="Path 1156" d="M710.493,378.932s-6.309-.495-8.668-5.113c0,0-4.8-9.647-8.711-10.719s-11.152-3.465-14.164-7.174a32.664,32.664,0,0,1-4.274-6.555,8.593,8.593,0,0,0,1.669,6.555c2.441,3.539,3.337,8.988,5.047,14.76s2.359,8.081,5.453,8.411c2.331.248,14.659.122,20.555,0C709.327,379.059,710.493,378.932,710.493,378.932Z" transform="translate(-648.61 -313.425)" fill="#21c909"/>
        <path id="Path_1157" data-name="Path 1157" d="M657.98,491.537s-3.449,1.32-5.407.6-6.812-2.853-6.812-2.853S653.935,489.8,657.98,491.537Z" transform="translate(-590.988 -428.513)" opacity="0.1"/>
        <path id="Path_1158" data-name="Path 1158" d="M341.74,695.469s9.914-.532,12.33-1.951a13.41,13.41,0,0,1,5.854-1.419l39.474-8.6,16.41-3.9,2.927-.385-9.669-11.063-.294-.128-14.253-6.165s-6.387.355-7.648,4.517a5.018,5.018,0,0,0-.177.9,5.209,5.209,0,0,0,1.008,3.644,7.726,7.726,0,0,1,1.318,2.526,1.5,1.5,0,0,1-.177,1.277,10.421,10.421,0,0,1-1.753,1.4c-3.475,2.306-12.261,6.106-27.608.286,0,0-6.564-6.475-11.532-3.726S341.74,695.469,341.74,695.469Z" transform="translate(-297.808 -570.468)" fill="#e1dee5"/>
        <path id="Path_1159" data-name="Path 1159" d="M354.086,673.435a1.5,1.5,0,0,1-.177,1.277,10.418,10.418,0,0,1-1.753,1.4l29.879,2.237-8.189-10.334-14.253-6.165s-6.387.355-7.648,4.517a5.021,5.021,0,0,0-.177.9,5.209,5.209,0,0,0,1.008,3.644A7.849,7.849,0,0,1,354.086,673.435Z" transform="translate(-262.881 -570.467)" opacity="0.1"/>
        <path id="Path_1160" data-name="Path 1160" d="M242.952,461.94l-24.483.532v29.306l23.241,15.756,5.588-5.145-1.153-17.031L247.3,469.48Z" transform="translate(-122.557 -399.653)" fill="#a36468"/>
        <path id="Path_1161" data-name="Path 1161" d="M392.809,429.13l-28.584-8.808a4.329,4.329,0,0,0-1.588-.177l-68.285,4.983a32.256,32.256,0,0,0-16.261,5.736,27.231,27.231,0,0,0-10.822,15.147,28.927,28.927,0,0,0,.293,16.291l6.032,19.515s-4.524-42.4,40.627-44.53Z" transform="translate(-258.487 -371.633)" fill="#d9d6df"/>
        <path id="Path_1162" data-name="Path 1162" d="M205.24,486.535v47.072s7.833-1.1,9.225-2.631c1.143-1.254,7.762-4.79,10.634-8.432a6.075,6.075,0,0,0,1.253-2.39c.962-4.378,4.879-14.725,4.879-14.725l-1.064-10.112-4.435-6.564-8.6-3.9h-6.653Z" transform="translate(-86.086 -424.869)" fill="#b8797d"/>
        <path id="Path_1163" data-name="Path 1163" d="M220.419,497.85s12.731,7.983,9.946,20.83c-.227,1.047-.424,2.1-.554,3.163-.509,4.155-3.564,16.095-21.811,21.6v1.242l7.74-2.159,5.255-2.9,4.011-3.6,4.9-5.982,2.276-4.879.834-6.426.481-7.336-1.173-6.293-2.766-4.095-3.371-2.62Z" transform="translate(-88.846 -435.563)" fill="#d9d6df"/>
        <path id="Path_1164" data-name="Path 1164" d="M205.23,486.5v7.488c5.553.6,22.746,4.08,19.692,23.95l.169,4.563a6.077,6.077,0,0,0,1.252-2.39c.962-4.378,4.879-14.725,4.879-14.725l-1.064-10.112-4.435-6.564-8.6-3.9h-6.653Z" transform="translate(-86.076 -424.836)" opacity="0.1"/>
        <path id="Path_1165-2" data-name="Path 1165" d="M506.817,691.852a7.728,7.728,0,0,1,1.318,2.526c.773-.887.94-1.907-.177-2.714a5.676,5.676,0,0,1-1.971-4.354,5.031,5.031,0,0,0-.177.9A5.209,5.209,0,0,0,506.817,691.852Z" transform="translate(-416.931 -591.411)" fill="#fff" opacity="0.1"/>
        <path id="Path_1166" data-name="Path 1166" d="M720.74,570.808l3.371,11.443,7.629,7.451,9.58,1.951,14.9-2.661V536.035a26.687,26.687,0,0,0-2.839-1.685c-.266,0-7.451,1.153-7.451,1.153l-16.268,11.668-.674.484-7.274,10.822Z" transform="translate(-702.533 -465.587)" fill="#b8797d"/>
        <path id="Path_1167" data-name="Path 1167" d="M620.407,495.44v55.174l-1.437.257V495.44Z" transform="translate(-566.717 -427.21)" fill="#a36468"/>
        <path id="Path_1168" data-name="Path 1168" d="M720.74,550.89A46.034,46.034,0,0,1,747.618,540.7v-4.613a26.69,26.69,0,0,0-2.839-1.685c-.266,0-7.451,1.153-7.451,1.153l-16.268,11.668Z" transform="translate(-693.928 -465.629)" opacity="0.1"/>
        <path id="Path_1169" data-name="Path 1169" d="M235.669,475.662l66.676-7.274,7.494-.4a15.4,15.4,0,0,1,12.456,5.207c3.9,4.488,6.853,12.406,2.544,26,0,0-4.494,17.622-26.257,21.408l-63.236,14.329c-1.4.318-2.785.71-4.151,1.155-5.741,1.886-25.192,6.772-34.355-9.837a27.985,27.985,0,0,1-2.87-18.727C196.174,495.835,204.5,476,235.669,475.662ZM203,525.494c8.551,13.93,26.171,9.784,31.469,8.148,1.3-.4,2.61-.75,3.938-1.034l58.414-12.5c20.125-3.305,24.282-18.692,24.282-18.692,3.4-10.112,1.912-16.637-.834-20.768a14.775,14.775,0,0,0-13.07-6.479l-6.9.355L240.66,482.5c-1.206.161-2.422.268-3.639.309-26.521.9-34.772,15.482-36.869,25.533A23.537,23.537,0,0,0,203,525.494Z" transform="translate(-179.732 -410.98)" fill="#e1dee5"/>
        <path id="Path_1171" data-name="Path 1171" d="M264.65,569.341A26.1,26.1,0,0,1,266,572.478a27.068,27.068,0,0,0,3.043,2.693l3.387-2.418-.355-1.661s-3.8-3.426-4.08-3.821S264.65,569.341,264.65,569.341Z" transform="translate(-137.822 -492.632)" fill="#efb7b9"/>
        <path id="Path_1172" data-name="Path 1172" d="M214.213,592.012c-2.351,2.281-5.115,1.6-6.429,1.453s-8.328-4.355-9-4.632a1.834,1.834,0,0,1-.616-.628h0a15.956,15.956,0,0,1-1.187-2.195c.046.012,2.345.671,2.926,0,0,0,.969-1.187,1.176-1.187s.016-2.083.016-2.083a26.745,26.745,0,0,1,3.3,2.152c.829.761,4.7,1.692,4.7,1.692a23.781,23.781,0,0,1,2.782,1.435C213.713,589.138,215.558,590.715,214.213,592.012Z" transform="translate(-68.064 -505.393)" fill="#67647e"/>
        <path id="Path_1173" data-name="Path 1173" d="M213.026,616.492c-2.351,2.281-5.115,1.6-6.429,1.453s-8.328-4.355-9-4.632a1.835,1.835,0,0,1-.616-.628c.818-.488,6.161,2.909,7.657,3.532s5.28.275,7.428-.623c1.064-.449-.014-1.827-1.366-3.094C212.526,613.618,214.371,615.195,213.026,616.492Z" transform="translate(-66.878 -529.873)" opacity="0.1"/>
        <path id="Path_1174" data-name="Path 1174" d="M162.17,589.839s.985,7.4.734,8.365,6.179-3.318,6.179-3.318-2.25-4.636-1.6-5.7S162.17,589.839,162.17,589.839Z" transform="translate(-16.298 -510.409)" fill="#efb7b9"/>
        <path id="Path_1175" data-name="Path 1175" d="M216.836,431.145a24.881,24.881,0,0,1-6.22,1.036c-1.937-.121-1.648-1.991-1.547-2.454.014-.066.025-.1.025-.1-1.382-1.522-4.494-12.859-4.08-14.1a2.2,2.2,0,0,0-.514-2.342,2.765,2.765,0,0,1-.043-2.143c.346-.759-1.522-1.451-1.522-1.451a57.1,57.1,0,0,1-12.167-.422,14.246,14.246,0,0,0,.9,2.427,24.755,24.755,0,0,1,1.6,5.461c0,.83,1.866,7.95,2.42,8.3a2.056,2.056,0,0,1,.6.887,8.292,8.292,0,0,1,.365,1.064c-.208,4.632-5.461,2.839-6.222,2.212a2.048,2.048,0,0,1-.294-.3,1.934,1.934,0,0,1-.4-1.221s-6.844-6.981-5.945-9.885-2.212-2.972-2.212-2.972-4.771-2.074-5.434-3.319c-.41-.765-3.986-2.445-6.679-3.626-1.687-.74-3.027-1.281-3.027-1.281l1.121-4.02.887-3.17,1.664-.624,5.322-2,9.548-1.339.875.113,9.277,1.2s13.543,3.875,14.927,4.481,2.143,6.648,2.143,6.648,2.9,10.024,2.76,11.344.969,4.967.969,4.967,0,4.135.47,4.416a.025.025,0,0,0,.014,0C216.905,429.147,216.836,431.145,216.836,431.145Z" transform="translate(-64.812 -351.576)" fill="#444053"/>
        <path id="Path_1176" data-name="Path 1176" d="M263.172,448.346a57.093,57.093,0,0,1-12.167-.422c-.415-1.307-6.225-4.9-6.225-4.9C249.547,441.847,263.172,448.346,263.172,448.346Z" transform="translate(-125.042 -390.345)" opacity="0.1"/>
        <path id="Path_1177" data-name="Path 1177" d="M286.756,568.537c-.208,4.632-5.461,2.839-6.222,2.212a2.043,2.043,0,0,1-.295-.3c1.836.676,5.092,1.2,6.151-2.968A8.3,8.3,0,0,1,286.756,568.537Z" transform="translate(-154.917 -492.84)" fill="#444053"/>
        <path id="Path_1178" data-name="Path 1178" d="M174.284,584.961a24.881,24.881,0,0,1-6.22,1.036c-1.937-.121-1.648-1.99-1.547-2.454a35.957,35.957,0,0,0,7.339-.8.024.024,0,0,0,.014,0C174.353,582.964,174.284,584.961,174.284,584.961Z" transform="translate(-22.26 -505.393)" fill="#444053"/>
        <path id="Path_1179" data-name="Path 1179" d="M286.756,568.537c-.208,4.632-5.461,2.839-6.222,2.212a2.043,2.043,0,0,1-.295-.3c1.836.676,5.092,1.2,6.151-2.968A8.3,8.3,0,0,1,286.756,568.537Z" transform="translate(-154.917 -492.84)" opacity="0.1"/>
        <path id="Path_1180" data-name="Path 1180" d="M174.284,584.961a24.881,24.881,0,0,1-6.22,1.036c-1.937-.121-1.648-1.99-1.547-2.454a35.957,35.957,0,0,0,7.339-.8.024.024,0,0,0,.014,0C174.353,582.964,174.284,584.961,174.284,584.961Z" transform="translate(-22.26 -505.393)" opacity="0.1"/>
        <path id="Path_1181" data-name="Path 1181" d="M123.323,625.559c-2.143,1.451-5.393.759-5.393.759s-4.907-2.349-6.36-2.349-4.971-1.453-4.971-1.453l.119-.977.571-4.691s5.384-.138,5.6-.623c0,0,.967-2.381,1.313-1.5s5.53,7.1,6.844,7.1a3.965,3.965,0,0,1,2.34,1.217C124.126,623.814,124.444,624.8,123.323,625.559Z" transform="translate(38.589 -531.543)" fill="#67647e"/>
        <path id="Path_1182" data-name="Path 1182" d="M219.018,446.41s-4.494,2.839-3.25,3.456S219.018,446.41,219.018,446.41Z" transform="translate(-75.703 -393.248)" opacity="0.1"/>
        <path id="Path_1183" data-name="Path 1183" d="M207.745,477.19s-3.871,3.676-2.42,3.773S207.745,477.19,207.745,477.19Z" transform="translate(-62.558 -418.568)" opacity="0.1"/>
        <path id="Path_1184" data-name="Path 1184" d="M183.042,543s-1.966,3.7-1.226,4.336S183.042,543,183.042,543Z" transform="translate(-33.713 -472.703)" opacity="0.1"/>
        <path id="Path_1185" data-name="Path 1185" d="M308.511,552.845c.692.69-6.564-2.281-4.907-2.42S308.511,552.845,308.511,552.845Z" transform="translate(-180.821 -478.806)" opacity="0.1"/>
        <path id="Path_1186" data-name="Path 1186" d="M397.338,228.293l-.232-.034c-.859-.131-3.976-.621-6.772-1.228-.681-.149-1.341-.3-1.951-.463-2.141-.561-3.578-1.166-2.661-1.662a4.9,4.9,0,0,0,2.189-2.883c.032-.1.062-.2.09-.3a7.688,7.688,0,0,0,.279-1.6s7.806-2.766,6.291,0a2.621,2.621,0,0,0,.459,3.24,6.082,6.082,0,0,0,1.684,1.254Z" transform="translate(-284.163 -206.102)" fill="#efb7b9"/>
        <path id="Path_1187" data-name="Path 1187" d="M340.167,259.76a5.5,5.5,0,0,0,5.649.346c2.855-1.659,6.587,14.656,6.587,14.656l3.871,9.539s2.507,2.074-.614,2.973-10.043-.9-11.8,1.728a7.679,7.679,0,0,1-5.427,3.041c-.341,0-1.657-9.887-1.657-9.887l-.342-14.31Z" transform="translate(-235.356 -239.712)" opacity="0.1"/>
        <path id="Path_1188" data-name="Path 1188" d="M356.437,284.154c-3.121.9-10.045-.9-11.8,1.728a6.752,6.752,0,0,1-2.979,2.4,7.808,7.808,0,0,1-2.454.649c-.044,0-.11-.177-.186-.495-.486-2-1.471-9.392-1.471-9.392l-.341-14.31,3.284-7.123.449-.972a5.924,5.924,0,0,0,1.419.694,5,5,0,0,0,4.226-.355c.837-.486,1.751.575,2.622,2.317,2.1,4.194,3.965,12.339,3.965,12.339l3.875,9.552a3.268,3.268,0,0,1,.263.252C357.856,282.013,358.887,283.448,356.437,284.154Z" transform="translate(-236.265 -237.146)" fill="#f3f5f9"/>
        <path id="Path_1189" data-name="Path 1189" d="M428.389,266.694a18.133,18.133,0,0,1,.092,3.64,42.633,42.633,0,0,1-.649,5.145,2.034,2.034,0,0,1-.085.314c-1.687-.74-3.027-1.281-3.027-1.281l1.121-4.02c-.486-2-1.471-9.392-1.471-9.392l-.341-14.31,3.284-7.119c-2.141-.561-3.578-1.166-2.661-1.662a5.07,5.07,0,0,0,2.28-3.179,11.542,11.542,0,0,0,1.96,2.115l.043.035.248,2.413.076.742.16,1.538s-.761,18.181-1.313,19.219-.277,3.041.206,5.392C428.343,266.416,428.361,266.553,428.389,266.694Z" transform="translate(-323.091 -219.205)" opacity="0.1"/>
        <path id="Path_1190" data-name="Path 1190" d="M443.969,245.8c.482,2.351.069,6.222-.484,9.193s-6.429,1.038-7.536,0-4.354-1.52-4.354-1.52-.138-13.549-1.176-15.277c-.491-.82-.61-3.495-.6-6.08.009-2.321.124-4.568.167-5.322.011-.177.016-.275.016-.275s-4.492-7.6-4.423-8.161,1.382-.621,1.382-.621,4.967-3.871,5.807-3.389,3.112-.759,3.112-.759,2.89.328,3.488-.231a.305.305,0,0,0,.106-.254c-.067-.887,2.945-2.775,3.039-2.839-2.54,2.285,1.566,5.807,2.033,6.193l.043.035.484,4.692s-.761,18.181-1.313,19.219S443.485,243.453,443.969,245.8Z" transform="translate(-339.021 -199.002)" fill="#67647e"/>
        <ellipse id="Ellipse_692" data-name="Ellipse 692" cx="0.346" cy="0.346" rx="0.346" ry="0.346" transform="translate(104.335 26.706)" fill="#444053"/>
        <path id="Path_1191" data-name="Path 1191" d="M434.509,217.976l-2.1,2.031-3.078-5.145a.305.305,0,0,0,.106-.254c-.067-.887,2.947-2.775,3.039-2.839C429.935,214.067,434.035,217.589,434.509,217.976Z" transform="translate(-329.12 -200.236)" opacity="0.1"/>
        <ellipse id="Ellipse_693" data-name="Ellipse 693" cx="0.346" cy="0.346" rx="0.346" ry="0.346" transform="translate(103.643 37.766)" opacity="0.1"/>
        <ellipse id="Ellipse_694" data-name="Ellipse 694" cx="0.346" cy="0.346" rx="0.346" ry="0.346" transform="translate(103.643 37.627)" fill="#444053"/>
        <path id="Path_1192" data-name="Path 1192" d="M433.729,216.416l-2.1,2.031L428.55,213.3a.305.305,0,0,0,.107-.254c-.067-.887,2.945-2.775,3.039-2.839C429.155,212.507,433.262,216.027,433.729,216.416Z" transform="translate(-328.202 -198.953)" fill="#67647e"/>
        <rect id="Rectangle_271" data-name="Rectangle 271" width="4.811" height="10.166" rx="1.7" transform="matrix(1, -0.023, 0.023, 1, 102.663, 26.761)" fill="#d1d9ec"/>
        <rect id="Rectangle_272" data-name="Rectangle 272" width="4.811" height="10.166" rx="1.7" transform="matrix(1, -0.023, 0.023, 1, 102.638, 26.986)" fill="#dfe6f5"/>
        <ellipse id="Ellipse_695" data-name="Ellipse 695" cx="0.756" cy="0.756" rx="0.756" ry="0.756" transform="translate(104.278 29.153)" fill="#fff"/>
        <path id="Path_1193" data-name="Path 1193" d="M307.474,266.19c-1.728.761-13.066-1.242-14.725-1.728s-4.08-4.217-2.9-6.919a6.29,6.29,0,0,0-.413-5.322s-2.484-5.322-3.043-6.36a47.784,47.784,0,0,1-1.866-4.561.415.415,0,0,1,.1-.318,12.19,12.19,0,0,1,2.189-1.889c.488.177.548-1.222.532-2.25-.011-.575-.044-1.032-.044-1.032s.229.232.6.55c.137.115.293.243.467.374a7.172,7.172,0,0,0,2.168,1.19c1.659.491,4.009,2.757,4.009,2.757l-.692,10.616s1.6,9.985,3.25,11.92,6.637,1.866,8.3,1.866A2.069,2.069,0,0,1,307.474,266.19Z" transform="translate(-176.395 -220.011)" opacity="0.1"/>
        <path id="Path_1194" data-name="Path 1194" d="M306.694,263.876c-1.728.759-13.066-1.242-14.725-1.73s-4.08-4.217-2.9-6.919a6.29,6.29,0,0,0-.413-5.322s-2.484-5.322-3.043-6.36a47.813,47.813,0,0,1-1.866-4.561.417.417,0,0,1,.1-.318,12.319,12.319,0,0,1,2.184-1.884c.488.177.548-1.221.532-2.248-.011-.577-.044-1.034-.044-1.034s.229.232.6.552c.137.114.293.241.467.373a7.172,7.172,0,0,0,2.179,1.19c1.659.491,4.009,2.757,4.009,2.757l-.692,10.616s1.6,9.985,3.25,11.92,6.635,1.866,8.3,1.866A2.055,2.055,0,0,1,306.694,263.876Z" transform="translate(-175.476 -218.111)" fill="#67647e"/>
        <path id="Path_1195" data-name="Path 1195" d="M393.646,235s-.066.364-.177.924c-.373,1.9-1.26,6.043-1.9,5.883a5.708,5.708,0,0,1-1.838-1.63,12.011,12.011,0,0,1,2.184-1.895c.488.177.548-1.221.532-2.248l.559-.483Z" transform="translate(-281.231 -219.345)" opacity="0.1"/>
        <path id="Path_1196" data-name="Path 1196" d="M394.425,233.47s-.066.364-.177.924c-.373,1.9-1.26,6.043-1.9,5.883a5.71,5.71,0,0,1-1.838-1.63,12.3,12.3,0,0,1,2.187-1.889c.488.177.548-1.221.532-2.248l.559-.483Z" transform="translate(-282.149 -218.086)" fill="#67647e"/>
        <path id="Path_1197" data-name="Path 1197" d="M359.685,328.835s-3.458-.69-4.424-2.211-7.552-2.839-6.742-1.242,6.742,6.793,6.742,6.793l2.574,3.685,3.438-.873,1.449-2.819Z" transform="translate(-242.985 -293.095)" fill="#efb7b9"/>
        <path id="Path_1198" data-name="Path 1198" d="M389.731,370.45s3.348,1.242,3.852,2.9S389.731,370.45,389.731,370.45Z" transform="translate(-281.209 -330.765)" opacity="0.1"/>
        <path id="Path_1199" data-name="Path 1199" d="M401.315,381.34s-.305,1.726,3.891,1.6Z" transform="translate(-294.846 -339.723)" opacity="0.1"/>
        <path id="Path_1200" data-name="Path 1200" d="M510.192,256l-1.522-.138a6.4,6.4,0,0,1-2.9,1.242c-1.244,0-2,1.6-2,1.6A22.332,22.332,0,0,1,501,259.806c-.692.138-1.866.828-1.52,1.105s-.069.9-.692,1.382-1.6,2.973-.759,3.319,3.11,1.036,3.726,1.382a1.715,1.715,0,0,0,1.382,0s3.662-4.771,5.53-3.871a11.923,11.923,0,0,0,4.426.894l2-4.215Z" transform="translate(-421.835 -236.504)" opacity="0.1"/>
        <path id="Path_1201" data-name="Path 1201" d="M346.17,282.916a1.854,1.854,0,0,1-1.29.9,9.758,9.758,0,0,1-4.025-.373s6.963-2.212.259-7.591h1.792l.6-.227-.273-1.432-.394-12.914,1.451-.346s1.169,8.5,1.448,9.539a47.125,47.125,0,0,1,.488,5.047,11.585,11.585,0,0,0,.692,2.484A7.227,7.227,0,0,1,346.17,282.916Z" transform="translate(-225.998 -240.674)" fill="#67647e"/>
        <path id="Path_1202" data-name="Path 1202" d="M352.905,351.019a1.85,1.85,0,0,1-1.29.9,9.756,9.756,0,0,1-4.025-.373s6.963-2.212.259-7.595h1.79l.6-.227C351.236,345.467,352.779,348.57,352.905,351.019Z" transform="translate(-233.016 -308.777)" opacity="0.1"/>
        <path id="Path_1203-2" data-name="Path 1203" d="M351.315,351.035a1.854,1.854,0,0,1-1.29.9,9.757,9.757,0,0,1-4.025-.373s6.963-2.212.259-7.591h1.792l.6-.227C349.633,345.484,351.184,348.587,351.315,351.035Z" transform="translate(-231.143 -308.793)" fill="none"/>
        <path id="Path_1204" data-name="Path 1204" d="M351.315,351.035a1.854,1.854,0,0,1-1.29.9,9.757,9.757,0,0,1-4.025-.373s6.963-2.212.259-7.591h1.792l.6-.227C349.633,345.484,351.184,348.587,351.315,351.035Z" transform="translate(-231.143 -308.793)" fill="#67647e"/>
        <path id="Path_1205" data-name="Path 1205" d="M405.559,223.375a6.293,6.293,0,0,1-7.119-1.352c.032-.1.062-.2.09-.3a7.684,7.684,0,0,0,.279-1.6s7.806-2.766,6.291,0A2.627,2.627,0,0,0,405.559,223.375Z" transform="translate(-294.691 -206.102)" opacity="0.1"/>
        <path id="Path_1206" data-name="Path 1206" d="M390.232,181.177v.062a5.677,5.677,0,0,1-.035.6c-.021.2-.05.38-.085.566a6.293,6.293,0,0,1-12.121.813c-.043-.122-.08-.245-.114-.369a6.223,6.223,0,0,1-.227-1.677,3.883,3.883,0,0,1,.016-.431,6.291,6.291,0,0,1,12.566.431Z" transform="translate(-275.675 -169.909)" fill="#efb7b9"/>
        <path id="Path_1207" data-name="Path 1207" d="M390.227,181.248a2.711,2.711,0,0,0-.036.6,2.234,2.234,0,0,1-.018.328.928.928,0,0,1-.067.238,1.176,1.176,0,0,1-1.632.6,1.749,1.749,0,0,1-.49-.642c-.582-1.08-1.389-2.322-2.661-2.344a5.933,5.933,0,0,0-1.577.355,1.674,1.674,0,0,1-1.536-.208c-.3-.275-.444-.743-.846-.839s-.775.273-.96.635-.332.788-.71.976c-.167.082-.355.106-.532.2-.752.412-.406,1.854-1.187,2.088a.568.568,0,0,1-.075.018c-.012-.128-.027-.259-.039-.387q-.106-1.054-.211-2.108a6.291,6.291,0,0,1,12.566.431Z" transform="translate(-275.67 -169.917)" opacity="0.1"/>
        <path id="Path_1208" data-name="Path 1208" d="M365.373,148.636a2.564,2.564,0,0,0-1.675,1.551,6.214,6.214,0,0,0-.035,1.013,7.93,7.93,0,0,1-.566,1.966,2.173,2.173,0,0,0,.133,1.969c.13.177.3.318.419.5a2.041,2.041,0,0,1,.241.926l.342,3.4c.876-.165.486-1.685,1.263-2.108.161-.089.355-.114.523-.2.374-.177.52-.612.71-.974s.55-.733.96-.635.545.566.845.839a1.7,1.7,0,0,0,1.538.208,6.525,6.525,0,0,1,1.575-.355c1.274.021,2.083,1.263,2.661,2.344a1.754,1.754,0,0,0,.491.644,1.181,1.181,0,0,0,1.7-.837c.06-.406-.067-.859.167-1.2s.742-.417,1.137-.6a2.548,2.548,0,0,0,1.157-2.784,4.817,4.817,0,0,1-.177-2.281c.087-.254.234-.484.314-.738a2,2,0,0,0-.71-2,5.771,5.771,0,0,0-2.051-1.029,23.575,23.575,0,0,0-5.872-1.373c-.878-.057-2.03-.332-2.727.216A9.685,9.685,0,0,1,365.373,148.636Z" transform="translate(-261.991 -146.758)" fill="#585268"/>
        <ellipse id="Ellipse_696" data-name="Ellipse 696" cx="0.346" cy="0.346" rx="0.346" ry="0.346" transform="translate(104.681 21.244)" opacity="0.1"/>
        <ellipse id="Ellipse_697" data-name="Ellipse 697" cx="0.346" cy="0.346" rx="0.346" ry="0.346" transform="translate(104.681 21.105)" fill="#444053"/>
        <ellipse id="Ellipse_698" data-name="Ellipse 698" cx="0.346" cy="0.346" rx="0.346" ry="0.346" transform="translate(102.468 42.951)" opacity="0.1"/>
        <ellipse id="Ellipse_699" data-name="Ellipse 699" cx="0.346" cy="0.346" rx="0.346" ry="0.346" transform="translate(102.468 42.813)" fill="#444053"/>
        <ellipse id="Ellipse_700" data-name="Ellipse 700" cx="0.346" cy="0.346" rx="0.346" ry="0.346" transform="translate(103.643 48.689)" opacity="0.1"/>
        <ellipse id="Ellipse_701" data-name="Ellipse 701" cx="0.346" cy="0.346" rx="0.346" ry="0.346" transform="translate(103.643 48.551)" fill="#444053"/>
        <path id="Path_1209" data-name="Path 1209" d="M368.682,299.24s.761,5.163,0,6.062S368.682,299.24,368.682,299.24Z" transform="translate(-252.812 -272.188)" opacity="0.1"/>
        <path id="Path_1210" data-name="Path 1210" d="M487.051,353.28a7.812,7.812,0,0,0,0,6.126c1.451,3,2.351,4.217,1.866,6.131S487.051,353.28,487.051,353.28Z" transform="translate(-393.787 -316.641)" opacity="0.1"/>
        <path id="Path_1211" data-name="Path 1211" d="M123.323,658.06c-2.143,1.451-5.393.759-5.393.759s-4.907-2.349-6.36-2.349-4.971-1.453-4.971-1.453l.119-.978a29.809,29.809,0,0,1,5.065,1.254c.484.415,6.429,2.42,6.429,2.42s4.049-.506,5.175-2.17C124.126,656.314,124.444,657.3,123.323,658.06Z" transform="translate(38.589 -564.043)" opacity="0.1"/>
        <path id="Path_1212-2" data-name="Path 1212" d="M450.281,167.625v.034A.107.107,0,0,1,450.281,167.625Z" transform="translate(-348.609 -163.738)"/>
        <path id="Path_1213" data-name="Path 1213" d="M378.709,189.415c-.4.177-.887.248-1.137.6s-.106.8-.167,1.2a1.181,1.181,0,0,1-1.7.837,1.755,1.755,0,0,1-.491-.644c-.58-1.08-1.389-2.322-2.661-2.344a6.074,6.074,0,0,0-1.577.355,1.684,1.684,0,0,1-1.538-.208c-.3-.273-.442-.743-.844-.839s-.774.273-.96.635-.332.788-.71.976c-.167.082-.355.106-.523.2-.777.424-.387,1.951-1.263,2.108q-.177-1.7-.342-3.4a2.033,2.033,0,0,0-.241-.915c-.117-.177-.289-.326-.419-.5a1.524,1.524,0,0,1-.284-.731,1.774,1.774,0,0,0,.284,1.284c.129.177.3.318.419.5a2.04,2.04,0,0,1,.245.924q.177,1.7.342,3.4c.876-.165.486-1.685,1.263-2.108.161-.089.355-.114.523-.2.374-.177.52-.612.71-.974s.55-.733.96-.635.545.566.844.839a1.7,1.7,0,0,0,1.538.208,6.522,6.522,0,0,1,1.577-.355c1.272.021,2.081,1.263,2.661,2.344a1.755,1.755,0,0,0,.492.644,1.181,1.181,0,0,0,1.7-.837c.06-.406-.067-.859.167-1.2s.742-.417,1.137-.6a2.45,2.45,0,0,0,1.187-2.509A2.265,2.265,0,0,1,378.709,189.415Z" transform="translate(-262.9 -179.647)"/>
        <path id="Path_1214" data-name="Path 1214" d="M363.352,168.327c-.08.254-.227.486-.314.738a2.131,2.131,0,0,0-.078.91,1.782,1.782,0,0,1,.078-.355c.087-.254.234-.484.314-.738a1.557,1.557,0,0,0,.041-.722A1.454,1.454,0,0,1,363.352,168.327Z" transform="translate(-246.25 -164.363)"/>
        <path id="Path_1215" data-name="Path 1215" d="M503.363,447.958l14.25-1.783a.545.545,0,0,0,.325-.919l-5.977-6.209a.543.543,0,0,0-.454-.163L500.612,440.1a.545.545,0,0,0-.447.738l2.622,6.775a.547.547,0,0,0,.577.341Z" transform="translate(-425.262 -387.055)" fill="#746d83"/>
        <path id="Path_1216" data-name="Path 1216" d="M503.363,447.958l14.25-1.783a.545.545,0,0,0,.325-.919l-5.977-6.209a.543.543,0,0,0-.454-.163L500.612,440.1a.545.545,0,0,0-.447.738l2.622,6.775a.547.547,0,0,0,.577.341Z" transform="translate(-425.262 -387.055)" opacity="0.1"/>
        <path id="Path_1217" data-name="Path 1217" d="M502.467,447.011l14.248-1.79a.546.546,0,0,0,.325-.921l-5.977-6.209a.55.55,0,0,0-.454-.165l-10.893,1.221a.546.546,0,0,0-.449.74l2.624,6.775A.548.548,0,0,0,502.467,447.011Z" transform="translate(-424.205 -386.267)" fill="#746d83"/>
        <path id="Path_1218" data-name="Path 1218" d="M538.94,434.615l-4.279.344-6.1-.4h.1l5.654-.546c1.3-.475.4-3.275.4-3.275l4.331.22.346.018C540.922,434.561,538.94,434.615,538.94,434.615Z" transform="translate(-452.186 -380.359)" fill="#d1d9ec"/>
        <path id="Path_1219" data-name="Path 1219" d="M538.94,435.643l-4.279.344-6.1-.4h.1l6.17.22,4.134-.449c1.174-.309.5-2.345.078-3.371l.346.018C540.922,435.59,538.94,435.643,538.94,435.643Z" transform="translate(-452.186 -381.387)" opacity="0.1"/>
        <path id="Path_1220" data-name="Path 1220" d="M515.292,302.8l-1.309,18.779-.177,2.464a1.065,1.065,0,0,1-1.075,1h-.4l-19.71-.119a.555.555,0,0,1-.546-.608l.177-2.466,1.387-16.513a1.134,1.134,0,0,1,.758-.958l18.786-2.817a1.767,1.767,0,0,1,1.7.2A1.192,1.192,0,0,1,515.292,302.8Z" transform="translate(-421.042 -273.994)" fill="#4c4c56"/>
        <path id="Path_1221" data-name="Path 1221" d="M521.409,415l-.177,2.464a1.065,1.065,0,0,1-1.075,1h-.4l-19.71-.119a.555.555,0,0,1-.546-.608l.177-2.466Z" transform="translate(-428.469 -367.411)" fill="#dfe6f5"/>
        <ellipse id="Ellipse_702" data-name="Ellipse 702" cx="0.264" cy="0.529" rx="0.264" ry="0.529" transform="translate(79.462 49.104)" fill="#fff"/>
        <path id="Path_1222" data-name="Path 1222" d="M530.946,461.055s5.39-2.035,6.843-.555c0,0,.238.451-.74.555l-3.949.318S531.475,461.531,530.946,461.055Z" transform="translate(-450.454 -404.396)" fill="#d1d9ec"/>
        <path id="Path_1223" data-name="Path 1223" d="M533.632,459.073c1.064-.433,4.245-1.552,6.286-.314a7.111,7.111,0,0,0-3.5.467,4.8,4.8,0,0,1-2.932.376l-.025-.044a.342.342,0,0,1,.169-.484Z" transform="translate(-452.996 -402.942)" fill="#dfe6f5"/>
        <path id="Path_1224" data-name="Path 1224" d="M495.027,304.3l-1.48,21.246a1.064,1.064,0,0,1-1.075,1h-.4a3.783,3.783,0,0,0,.688-.887s1.453-21.349,1.559-21.878a1.083,1.083,0,0,1,.293-.522A1.192,1.192,0,0,1,495.027,304.3Z" transform="translate(-400.779 -275.495)" fill="#dfe6f5"/>
        <path id="Path_1225" data-name="Path 1225" d="M495.027,304.3l-1.48,21.246a1.064,1.064,0,0,1-1.075,1h-.4a3.783,3.783,0,0,0,.688-.887s1.453-21.349,1.559-21.878a1.083,1.083,0,0,1,.293-.522A1.192,1.192,0,0,1,495.027,304.3Z" transform="translate(-400.779 -275.495)" opacity="0.1"/>
        <path id="Path_1226" data-name="Path 1226" d="M435.6,310.335c-1.6-.355-5.322-1.448-5.322-1.448l-.667-.135c.009-2.32.124-4.568.167-5.322h.016a25.254,25.254,0,0,1,3.94,1.6c.759.559,3.112.413,3.112.413a10.586,10.586,0,0,1,6.7,3.591C446.587,312.425,437.192,310.684,435.6,310.335Z" transform="translate(-338.811 -275.635)" opacity="0.1"/>
        <path id="Path_1227" data-name="Path 1227" d="M430.113,298.683a.924.924,0,0,0-.208,1.551,6.745,6.745,0,0,0,3.247,1.648c1.951.2,6.671,1.142,7.139,1.242a.584.584,0,0,1,.075.018c.388.114,3.788,1.109,5.287,1.437,1.6.355,11,2.077,7.95-1.309a10.7,10.7,0,0,0-6.639-3.589.719.719,0,0,0-.122,0c-.355.016-2.363.085-3.057-.417a6.521,6.521,0,0,0-1.143-.569,21.853,21.853,0,0,0-4.675-1.348l-3.252-.568a.933.933,0,0,0-.546.071Z" transform="translate(-348.861 -270.151)" fill="#efb7b9"/>
        <path id="Path_1228" data-name="Path 1228" d="M511.722,256l-1.52-.138a6.405,6.405,0,0,1-2.9,1.242c-1.244,0-2,1.6-2,1.6a22.338,22.338,0,0,1-2.766,1.107c-.692.138-1.866.828-1.52,1.105s-.069.9-.692,1.382-1.6,2.973-.759,3.319,3.11,1.036,3.726,1.382a1.715,1.715,0,0,0,1.382,0s3.669-4.774,5.537-3.875a11.955,11.955,0,0,0,4.425.9l2-4.215Z" transform="translate(-423.641 -236.504)" fill="#67647e"/>
      </g>
    </g>
  </g>
</svg>
