<svg xmlns="http://www.w3.org/2000/svg" xmlns:xlink="http://www.w3.org/1999/xlink" width="513.498" height="282.847" viewBox="0 0 513.498 282.847">
  <defs>
    <filter id="Rectangle_325" x="52.957" y="17.754" width="450.256" height="244.004" filterUnits="userSpaceOnUse">
      <feOffset input="SourceAlpha"/>
      <feGaussianBlur stdDeviation="8.5" result="blur"/>
      <feFlood flood-opacity="0.314"/>
      <feComposite operator="in" in2="blur"/>
      <feComposite in="SourceGraphic"/>
    </filter>
    <filter id="Path_1231" x="0" y="0" width="513.498" height="282.847" filterUnits="userSpaceOnUse">
      <feOffset input="SourceAlpha"/>
      <feGaussianBlur stdDeviation="8.5" result="blur-2"/>
      <feFlood flood-opacity="0.314"/>
      <feComposite operator="in" in2="blur-2"/>
      <feComposite in="SourceGraphic"/>
    </filter>
    <filter id="Rectangle_314" x="14.166" y="17.754" width="489.045" height="244.004" filterUnits="userSpaceOnUse">
      <feOffset input="SourceAlpha"/>
      <feGaussianBlur stdDeviation="8.5" result="blur-3"/>
      <feFlood flood-opacity="0.314"/>
      <feComposite operator="in" in2="blur-3"/>
      <feComposite in="SourceGraphic"/>
    </filter>
    <clipPath id="clip-path">
      <g transform="matrix(1, 0, 0, 1, 0, 0)" filter="url(#Rectangle_325)">
        <rect id="Rectangle_325-2" data-name="Rectangle 325" width="399.255" height="193.004" rx="23" transform="translate(0)" fill="#fff" opacity="0.98"/>
      </g>
    </clipPath>
  </defs>
  <g id="Group_433" data-name="Group 433" transform="translate(-20833.211 -6920.117)">
    <g transform="matrix(1, 0, 0, 1, 20833.21, 6920.12)" filter="url(#Path_1231)">
      <path id="Path_1231-2" data-name="Path 1231" d="M26,3.09,425.294,0c13.513-.1,24.383,9.559,24.278,21.584L448.23,175.923c-.1,12.025-11.144,21.858-24.657,21.963L24.279,200.975C10.766,201.079-.1,191.416,0,179.391L1.343,25.053C1.447,13.028,12.486,3.195,26,3.09Z" transform="matrix(1, 0.07, -0.07, 1, 39.52, 25.5)" fill="#63c63f" opacity="0.98"/>
    </g>
    <g transform="matrix(1, 0, 0, 1, 20833.21, 6920.12)" filter="url(#Rectangle_314)">
      <rect id="Rectangle_314-2" data-name="Rectangle 314" width="438.045" height="193.004" rx="23" transform="translate(39.67 43.25)" fill="#fff" opacity="0.98"/>
    </g>
    <g id="Mask_Group_39" data-name="Mask Group 39" transform="translate(20911.668 6963.371)" clip-path="url(#clip-path)">
      <g id="Group_326" data-name="Group 326" transform="translate(295.184 -54.874)">
        <g id="Group_325" data-name="Group 325" transform="translate(0 0)">
          <ellipse id="Ellipse_711" data-name="Ellipse 711" cx="83.257" cy="75.688" rx="83.257" ry="75.688" transform="translate(0)" fill="#60c53c" opacity="0.299"/>
          <ellipse id="Ellipse_712" data-name="Ellipse 712" cx="60.551" cy="55.82" rx="60.551" ry="55.82" transform="translate(22.706 19.868)" fill="#60c53c" opacity="0.299"/>
          <ellipse id="Ellipse_713" data-name="Ellipse 713" cx="45.413" cy="42.101" rx="45.413" ry="42.101" transform="translate(38.79 34.06)" fill="#60c53c" opacity="0.299"/>
        </g>
      </g>
    </g>
  </g>
</svg>
