<svg xmlns="http://www.w3.org/2000/svg" xmlns:xlink="http://www.w3.org/1999/xlink" width="221.381" height="85.5" viewBox="0 0 221.381 85.5">
  <defs>
    <linearGradient id="linear-gradient" x2="1" y2="1" gradientUnits="objectBoundingBox">
      <stop offset="0" stop-color="#c4fd63"/>
      <stop offset="1" stop-color="#7deb98"/>
    </linearGradient>
  </defs>
  <g id="Group_430" data-name="Group 430" transform="translate(-22551 -6585)">
    <rect id="Rectangle_380" data-name="Rectangle 380" width="221.381" height="85.5" transform="translate(22551 6585)" fill="url(#linear-gradient)"/>
    <g id="Group_411" data-name="Group 411" transform="translate(22655.096 6587.795)">
      <path id="Path_1340" data-name="Path 1340" d="M256.1,168.429H248.93a2.6,2.6,0,0,0-2.6,2.6V178.8c-.092-.005-.183-.014-.274-.025a9.167,9.167,0,1,1,10-10.621C256.073,168.245,256.087,168.337,256.1,168.429Z" transform="translate(-231.188 -160.495)" fill="#f2f2f2"/>
      <path id="Path_1341" data-name="Path 1341" d="M392.516,216.5h-91.8a2.876,2.876,0,0,0-2.873,2.873V267.8a2.876,2.876,0,0,0,2.873,2.873h91.8a2.876,2.876,0,0,0,2.873-2.873V219.368A2.876,2.876,0,0,0,392.516,216.5Zm2.6,51.307a2.6,2.6,0,0,1-2.6,2.6h-91.8a2.6,2.6,0,0,1-2.6-2.6V219.368a2.6,2.6,0,0,1,2.6-2.6h91.8a2.6,2.6,0,0,1,2.6,2.6Z" transform="translate(-282.969 -208.835)" fill="#3f3d56"/>
      <path id="Path_1342" data-name="Path 1342" d="M433.75,272.138H350.975a.137.137,0,1,1,0-.274H433.75a.137.137,0,1,1,0,.274Z" transform="translate(-328.718 -256.63)" fill="#3f3d56"/>
      <path id="Path_1343" data-name="Path 1343" d="M521.975,283.782a.137.137,0,0,1-.137-.137V238.632a.137.137,0,1,1,.274,0v45.013a.137.137,0,0,1-.137.137Z" transform="translate(-476.322 -227.826)" fill="#3f3d56"/>
      <path id="Path_1344" data-name="Path 1344" d="M672.975,283.782a.137.137,0,0,1-.137-.137V238.632a.137.137,0,1,1,.274,0v45.013a.137.137,0,0,1-.137.137Z" transform="translate(-606.663 -227.826)" fill="#3f3d56"/>
      <path id="Path_1345" data-name="Path 1345" d="M823.975,283.782a.137.137,0,0,1-.137-.137V238.632a.137.137,0,1,1,.274,0v45.013A.137.137,0,0,1,823.975,283.782Z" transform="translate(-737.003 -227.826)" fill="#3f3d56"/>
      <path id="Path_1346" data-name="Path 1346" d="M390.329,332.094h-5a.616.616,0,0,1-.616-.616v-5.9a.616.616,0,0,1,.616-.616h5a.616.616,0,0,1,.616.616v5.9A.616.616,0,0,1,390.329,332.094Z" transform="translate(-357.959 -302.463)" fill="#21c909"/>
      <path id="Path_1347" data-name="Path 1347" d="M442.329,455.094h-5a.616.616,0,0,1-.616-.616v-5.9a.616.616,0,0,1,.616-.616h5a.616.616,0,0,1,.616.616v5.9A.616.616,0,0,1,442.329,455.094Z" transform="translate(-402.844 -408.634)" fill="#21c909"/>
      <path id="Path_1348" data-name="Path 1348" d="M560.329,358.094h-5a.616.616,0,0,1-.616-.616v-5.9a.616.616,0,0,1,.616-.616h5a.616.616,0,0,1,.616.616v5.9A.616.616,0,0,1,560.329,358.094Z" transform="translate(-504.7 -324.906)" fill="#21c909"/>
      <path id="Path_1349" data-name="Path 1349" d="M713.329,311.094h-5a.616.616,0,0,1-.616-.616v-5.9a.616.616,0,0,1,.616-.616h5a.616.616,0,0,1,.616.616v5.9A.616.616,0,0,1,713.329,311.094Z" transform="translate(-636.767 -284.336)" fill="#21c909"/>
      <path id="Path_1350" data-name="Path 1350" d="M854.329,311.094h-5a.616.616,0,0,1-.616-.616v-5.9a.616.616,0,0,1,.616-.616h5a.616.616,0,0,1,.616.616v5.9A.616.616,0,0,1,854.329,311.094Z" transform="translate(-758.476 -284.336)" fill="#21c909"/>
      <path id="Path_1351" data-name="Path 1351" d="M919.329,323.094h-5a.616.616,0,0,1-.616-.616v-5.9a.616.616,0,0,1,.616-.616h5a.616.616,0,0,1,.616.616v5.9A.616.616,0,0,1,919.329,323.094Z" transform="translate(-814.583 -294.694)" fill="#e6e6e6"/>
      <path id="Path_1352" data-name="Path 1352" d="M890.329,400.094h-5a.616.616,0,0,1-.616-.616v-5.9a.616.616,0,0,1,.616-.616h5a.616.616,0,0,1,.616.616v5.9A.616.616,0,0,1,890.329,400.094Z" transform="translate(-789.55 -361.159)" fill="#e6e6e6"/>
      <path id="Path_1353" data-name="Path 1353" d="M766.329,384.094h-5a.616.616,0,0,1-.616-.616v-5.9a.616.616,0,0,1,.616-.616h5a.616.616,0,0,1,.616.616v5.9A.616.616,0,0,1,766.329,384.094Z" transform="translate(-682.515 -347.348)" fill="#ff6584"/>
      <path id="Path_1354" data-name="Path 1354" d="M695.329,400.094h-5a.616.616,0,0,1-.616-.616v-5.9a.616.616,0,0,1,.616-.616h5a.616.616,0,0,1,.616.616v5.9A.616.616,0,0,1,695.329,400.094Z" transform="translate(-621.23 -361.159)" fill="#e6e6e6"/>
      <path id="Path_1355" data-name="Path 1355" d="M542.329,468.094h-5a.616.616,0,0,1-.616-.616v-5.9a.616.616,0,0,1,.616-.616h5a.616.616,0,0,1,.616.616v5.9A.616.616,0,0,1,542.329,468.094Z" transform="translate(-489.163 -419.856)" fill="#e6e6e6"/>
      <path id="Path_1356" data-name="Path 1356" d="M357.329,411.094h-5a.616.616,0,0,1-.616-.616v-5.9a.616.616,0,0,1,.616-.616h5a.616.616,0,0,1,.616.616v5.9A.616.616,0,0,1,357.329,411.094Z" transform="translate(-329.474 -370.654)" fill="#ff6584"/>
      <path id="Path_1357" data-name="Path 1357" d="M460.329,332.094h-5a.616.616,0,0,1-.616-.616v-5.9a.616.616,0,0,1,.616-.616h5a.616.616,0,0,1,.616.616v5.9A.616.616,0,0,1,460.329,332.094Z" transform="translate(-418.382 -302.463)" fill="#e6e6e6"/>
      <path id="Path_1358" data-name="Path 1358" d="M413.184,250.59h-7.8a.547.547,0,0,1,0-1.095h7.8a.547.547,0,0,1,0,1.095Z" transform="translate(-375.33 -237.32)" fill="#ccc"/>
      <path id="Path_1359" data-name="Path 1359" d="M574.184,250.59h-7.8a.547.547,0,1,1,0-1.095h7.8a.547.547,0,0,1,0,1.095Z" transform="translate(-514.302 -237.32)" fill="#ccc"/>
      <path id="Path_1360" data-name="Path 1360" d="M725.184,250.59h-7.8a.547.547,0,0,1,0-1.095h7.8a.547.547,0,1,1,0,1.095Z" transform="translate(-644.643 -237.32)" fill="#ccc"/>
      <path id="Path_1361" data-name="Path 1361" d="M866.184,250.59h-7.8a.547.547,0,0,1,0-1.095h7.8a.547.547,0,1,1,0,1.095Z" transform="translate(-766.351 -237.32)" fill="#ccc"/>
      <path id="Path_1362" data-name="Path 1362" d="M308.535,515.834a1.376,1.376,0,0,1-1.19-1.742l-3.507-3.265,1.854-.47,3.449,2.8a1.383,1.383,0,0,1-.605,2.68Z" transform="translate(-288.148 -462.492)" fill="#ffb8b8"/>
      <path id="Path_1363" data-name="Path 1363" d="M184.4,525.435h1.677l.8-6.47H184.4Z" transform="translate(-159.173 -447.964)" fill="#ffb8b8"/>
      <path id="Path_1364" data-name="Path 1364" d="M0,0H5.272V2.037H2.037A2.037,2.037,0,0,1,0,0H0Z" transform="translate(30.142 79.029) rotate(179.997)" fill="#2f2e41"/>
      <path id="Path_1365" data-name="Path 1365" d="M100.345,517.957l1.621.432,2.435-6.047-2.392-.637Z" transform="translate(-86.616 -441.697)" fill="#ffb8b8"/>
      <path id="Path_1366" data-name="Path 1366" d="M0,0H5.272V2.037H2.037A2.037,2.037,0,0,1,0,0H0Z" transform="matrix(-0.966, -0.257, 0.257, -0.966, 18.075, 79.029)" fill="#2f2e41"/>
      <path id="Path_1367" data-name="Path 1367" d="M301.265,529.766h-2.559a.647.647,0,0,1-.647-.587L296.5,513.044a.513.513,0,0,0-1-.1l-4.511,15.077a.649.649,0,0,1-.78.444l-2.381-.6a.649.649,0,0,1-.472-.792c.039-.152,3.887-15.191,3.921-15.345.872-6.426,1.915-8.148,2.475-9.073.046-.077.089-.147.127-.214.048-.083.344-.909.531-1.445a.655.655,0,0,1,.333-.407,7.89,7.89,0,0,1,5.9-.086.641.641,0,0,1,.32.248c2.365,3.567,1.2,24.284.948,28.4A.65.65,0,0,1,301.265,529.766Z" transform="translate(-273.906 -453.52)" fill="#2f2e41"/>
      <circle id="Ellipse_727" data-name="Ellipse 727" cx="3.36" cy="3.36" r="3.36" transform="translate(17.393 28.656)" fill="#ffb8b8"/>
      <path id="Path_1368" data-name="Path 1368" d="M312.887,438.166l-.024-.023c-.045-.044-4.523-4.43-3.943-8.486.248-1.735,1.651-2.843,4.059-3.206a3.712,3.712,0,0,1,4.1,2.616l2.381,8.138Z" transform="translate(-292.49 -390.031)" fill="#ccc"/>
      <path id="Path_1369" data-name="Path 1369" d="M298.043,458l-3.19-3.17a1.8,1.8,0,0,1-.476-1.7l1.544-6.282a1.417,1.417,0,1,1,2.735.738l-1.626,5.527,2.629,2.823Z" transform="translate(-279.937 -406.742)" fill="#ccc"/>
      <path id="Path_1370" data-name="Path 1370" d="M406.848,443.619a1.376,1.376,0,0,1-2.036.551l-4.259,2.208.188-1.875,3.776-2.337a1.383,1.383,0,0,1,2.331,1.453Z" transform="translate(-371.631 -403.183)" fill="#ffb8b8"/>
      <path id="Path_1371" data-name="Path 1371" d="M354.277,436.373l-4.152,1.794a1.753,1.753,0,0,1-1.707-.183l-5.28-3.783a1.417,1.417,0,1,1,1.7-2.265l4.527,3.563,3.6-1.392Z" transform="translate(-321.561 -394.541)" fill="#ccc"/>
      <path id="Path_1372" data-name="Path 1372" d="M293.912,369.326c.415-.519,1.189-.547,1.759-.89a2.055,2.055,0,0,0,.814-2.288,2.871,2.871,0,0,0-1.762-1.8,4.863,4.863,0,0,0-2.574-.165,5.228,5.228,0,0,0-3.312,1.856,3.273,3.273,0,0,0-.271,3.641,5.068,5.068,0,0,1,.954,1.494,2.3,2.3,0,0,1-.939,2.031A21.329,21.329,0,0,0,286.6,375a2.738,2.738,0,0,0-.693,2.467,2.494,2.494,0,0,0,1.554,1.5,6.589,6.589,0,0,0,2.206.316,3.726,3.726,0,0,0,2.105-.394A2.448,2.448,0,0,0,292.8,376.9a4.707,4.707,0,0,0-.581-2.229,8.57,8.57,0,0,1-.585-1.256,1.761,1.761,0,0,1,.059-1.349,1.683,1.683,0,0,1,1.177-.779l.078-.013a1.012,1.012,0,0,0,.867-1.18A.989.989,0,0,1,293.912,369.326Z" transform="translate(-272.602 -336.232)" fill="#2f2e41"/>
      <path id="Path_1373" data-name="Path 1373" d="M467.612,526.482h-1.677l-.8-6.47h2.476Z" transform="translate(-401.498 -448.867)" fill="#a0616a"/>
      <path id="Path_1374" data-name="Path 1374" d="M449.362,563.8H452.6v2.037h-5.272A2.037,2.037,0,0,1,449.362,563.8Z" transform="translate(-386.123 -486.661)" fill="#2f2e41"/>
      <path id="Path_1375" data-name="Path 1375" d="M541.019,516.284l-1.526.7-3.414-5.553,2.252-1.029Z" transform="translate(-462.734 -440.569)" fill="#a0616a"/>
      <path id="Path_1376" data-name="Path 1376" d="M2.037,0H5.272V2.037H0A2.037,2.037,0,0,1,2.037,0Z" transform="translate(73.617 77.32) rotate(-24.548)" fill="#2f2e41"/>
      <path id="Path_1377" data-name="Path 1377" d="M711.624,526.834a1.376,1.376,0,0,0,.11-2.107l1.972-4.474-2.5.424-1.488,4.183a1.383,1.383,0,0,0,1.912,1.973Z" transform="translate(-638.224 -471.034)" fill="#a0616a"/>
      <path id="Path_1378" data-name="Path 1378" d="M652.1,560.335h-1.6a.618.618,0,0,1-.614-.571l-.874-23.335a.616.616,0,0,1,.674-.657l9.267.984a.616.616,0,0,1,.556.6l.194,10.294a.477.477,0,0,0,.032.163l3.8,9.858a.615.615,0,0,1-.362.8l-1.624.6a.616.616,0,0,1-.76-.3l-4.67-9.081a.61.61,0,0,1-.055-.156l-.8-3.844a.479.479,0,0,0-.945.043l-1.609,14.054A.616.616,0,0,1,652.1,560.335Z" transform="translate(-586.095 -484.426)" fill="#2f2e41"/>
      <circle id="Ellipse_728" data-name="Ellipse 728" cx="3.36" cy="3.36" r="3.36" transform="translate(63.445 27.035)" fill="#a0616a"/>
      <path id="Path_1379" data-name="Path 1379" d="M653.619,436.826a11.994,11.994,0,0,1-6.413-1.943l-.033-.023,0-.04,1.285-14.97a2.11,2.11,0,0,1,2-1.924c1.666-.077,3.9.02,5.1.912a5.841,5.841,0,0,1,2.394,5.57,55.094,55.094,0,0,0,.159,11.36l.006.049-.045.021A10.571,10.571,0,0,1,653.619,436.826Z" transform="translate(-584.509 -382.69)" fill="#21c909"/>
      <path id="Path_1380" data-name="Path 1380" d="M712,457.6a.685.685,0,0,1-.5-.222l-.735-.8a.688.688,0,0,1-.152-.656l1.676-5.673-2.55-5.355a1.205,1.205,0,0,1,2.149-1.09l3.461,5.615a1.635,1.635,0,0,1,.1,1.532l-2.82,6.248a.682.682,0,0,1-.515.394A.693.693,0,0,1,712,457.6Z" transform="translate(-638.409 -404.498)" fill="#21c909"/>
      <path id="Path_1381" data-name="Path 1381" d="M550.335,453.683a1.376,1.376,0,0,0,2.052-.49l4.849.629-1.114-2.283-4.433-.247a1.383,1.383,0,0,0-1.353,2.391Z" transform="translate(-500.432 -411.415)" fill="#a0616a"/>
      <path id="Path_1382" data-name="Path 1382" d="M578.159,425.443a1.849,1.849,0,0,1-.252-.017l-7.628-1.058a.758.758,0,0,1-.582-.426.778.778,0,0,1-.043-.113h0a.761.761,0,0,1,.079-.606l.631-1.047a.764.764,0,0,1,.651-.367h0l6.649.008,4.966-4.449a1.346,1.346,0,0,1,1.844,1.959l-4.955,5.511A1.829,1.829,0,0,1,578.159,425.443Z" transform="translate(-517.57 -381.928)" fill="#21c909"/>
      <path id="Path_1383" data-name="Path 1383" d="M650.073,356c.307-.711.567-1.657-.022-2.16a2.182,2.182,0,0,0-1.281-.328,3.942,3.942,0,0,1-3.176-1.787,2.364,2.364,0,0,1,.891-3.246,3.8,3.8,0,0,1,2.5.126l2.464.7a4.346,4.346,0,0,1,2.027.985,2.787,2.787,0,0,1,.11,3.368,6.044,6.044,0,0,1-2.824,2.455Z" transform="translate(-582.886 -322.614)" fill="#2f2e41"/>
      <path id="Path_1384" data-name="Path 1384" d="M290.336,737.449H189.325a.163.163,0,0,1,0-.326H290.336a.163.163,0,0,1,0,.326Z" transform="translate(-189.162 -658.233)" fill="#3f3d56"/>
    </g>
  </g>
</svg>
