<svg xmlns="http://www.w3.org/2000/svg" xmlns:xlink="http://www.w3.org/1999/xlink" width="63.443" height="111.816" viewBox="0 0 63.443 111.816">
  <defs>
    <linearGradient id="linear-gradient" x2="1" y2="1" gradientUnits="objectBoundingBox">
      <stop offset="0" stop-color="#5414ad"/>
      <stop offset="0.251" stop-color="#aa119f"/>
      <stop offset="0.64" stop-color="#ff0a80"/>
      <stop offset="1" stop-color="#ffd500"/>
    </linearGradient>
  </defs>
  <path id="Intersection_4" data-name="Intersection 4" d="M-20413.82-332.01c-3.525,0-5.541-1.562-5.541-4.235a3.309,3.309,0,0,1,2.113-3.223v-.072h-5.346v-3.454h14.092v3.454h-1.814v.072a3.3,3.3,0,0,1,2.041,3.223c0,2.657-2.041,4.235-5.535,4.235Zm-2.715-5.515c0,1.218,1.014,2,2.715,2h.01c1.676,0,2.725-.781,2.725-2s-1.039-2.015-2.725-2.015h-.01C-20415.512-339.539-20416.535-338.727-20416.535-337.525Zm-21.287,5.515c-3.525,0-5.535-1.562-5.535-4.235a3.312,3.312,0,0,1,2.107-3.223v-.072h-5.34v-3.454h14.092v3.454h-1.82v.072a3.3,3.3,0,0,1,2.041,3.223c0,2.657-2.041,4.235-5.535,4.235Zm-2.715-5.515c0,1.218,1.014,2,2.715,2h.01c1.682,0,2.725-.781,2.725-2s-1.033-2.015-2.725-2.015h-.01C-20439.514-339.539-20440.537-338.727-20440.537-337.525Zm-23.023,5.35c-4.6,0-7.283-2.647-7.283-6.856,0-3.68,2.363-6.229,5.514-6.358h.1v3.449l-.143.021a2.777,2.777,0,0,0-2.5,2.888c0,1.963,1.613,3.2,4.307,3.2h.012c2.723,0,4.348-1.249,4.348-3.212a2.806,2.806,0,0,0-2.539-2.9l-.107-.021v-3.449l.107.01c3.15.129,5.5,2.709,5.5,6.368,0,4.23-2.7,6.856-7.3,6.856Zm49.729-12.186c-3.447,0-5.529-2.138-5.529-5.443s2.061-5.438,5.529-5.438h.021c3.516,0,5.535,2.092,5.535,5.438,0,3.372-2.029,5.443-5.535,5.443Zm-2.9-5.443c0,1.172,1.064,1.927,2.9,1.927h.021c1.871,0,2.908-.735,2.908-1.932,0-1.182-1.043-1.927-2.908-1.927h-.021C-20415.666-351.736-20416.73-350.975-20416.73-349.8Zm-21.1,5.443c-3.449,0-5.525-2.138-5.525-5.443s2.061-5.438,5.525-5.438h.02c3.516,0,5.535,2.092,5.535,5.438,0,3.372-2.029,5.443-5.535,5.443Zm-2.9-5.443c0,1.172,1.064,1.927,2.9,1.927h.02c1.877,0,2.908-.735,2.908-1.932,0-1.182-1.043-1.927-2.908-1.927h-.02C-20439.668-351.736-20440.732-350.975-20440.732-349.8Zm-29.859,2.894v-3.469h5.371v-.067a3.187,3.187,0,0,1-2.139-3.233c0-2.323,1.541-3.69,4.1-3.69h6.758v3.464h-6.018c-1.26,0-2.02.606-2.02,1.753a1.8,1.8,0,0,0,2.014,1.773h6.023v3.469Zm34.764-12.6.076-.021c.721-.164,1.141-.714,1.141-1.727,0-.92-.328-1.475-.877-1.475h-.012c-.477,0-.74.339-.936,1.29l-.369,1.871c-.4,2.082-1.486,3.166-3.109,3.166h-.006c-2.123,0-3.437-1.814-3.437-4.728,0-3.073,1.572-4.708,3.475-4.734l.076-.01v3.166l-.076.005a1.413,1.413,0,0,0-1.143,1.573c0,.853.35,1.4.91,1.4h.006c.463,0,.734-.324.939-1.326l.371-1.876c.447-2.256,1.326-3.233,2.92-3.233h.01c2.2,0,3.592,1.989,3.592,4.913,0,3.161-1.393,4.862-3.463,5.093l-.088.01Zm-26.006.817c-3.424,0-5.525-2.066-5.525-5.381,0-3,1.8-4.97,4.328-5.016l.066-.01v3.181l-.1.01a1.75,1.75,0,0,0-1.67,1.778c0,1.2,1.063,1.922,2.908,1.922h.01c1.877,0,2.914-.7,2.914-1.932a1.723,1.723,0,0,0-1.67-1.768l-.1-.021V-369.1h.066c2.473.067,4.328,1.932,4.328,5,0,3.346-2.1,5.407-5.551,5.407Zm42.7-1.218v-1.419h-.617c-2.1,0-3.062-1.012-3.062-3.8a9.64,9.64,0,0,1,.143-1.66h2.148a4.562,4.562,0,0,0-.045.735c0,.956.359,1.357.977,1.357h.457v-2.071h2.539v1.974h8.094v3.464h-8.094v1.419Zm-24-6.908v-1.444h-2.451v-3.464h2.451v-1.907h2.539v1.907h4.523c.92,0,1.258-.411,1.258-1.259a4.5,4.5,0,0,0-.045-.648h2.461a9.373,9.373,0,0,1,.123,1.624c0,2.575-.924,3.747-3.33,3.747h-4.99v1.444Zm19.453-3.063a1.721,1.721,0,0,1,1.7-1.768,1.731,1.731,0,0,1,1.713,1.768,1.737,1.737,0,0,1-1.713,1.768A1.728,1.728,0,0,1-20423.684-369.878Zm4.549,1.727v-3.454h10.633v3.454Zm-52.553-3.973a1.722,1.722,0,0,1,1.7-1.768,1.73,1.73,0,0,1,1.707,1.768,1.736,1.736,0,0,1-1.707,1.768A1.729,1.729,0,0,1-20471.687-372.124Zm4.555,1.727v-3.454h10.633v3.454Zm48-2.9v-3.469h1.875v-.067a3.214,3.214,0,0,1-2.1-3.233c0-2.333,1.5-3.654,4.014-3.654h6.846v3.459h-6.1c-1.225,0-1.934.576-1.934,1.711a1.789,1.789,0,0,0,2,1.783h6.033v3.469Zm-16.441-1.321c-2,0-3.125-1.542-3.311-4.286l-.154-2.421h-.529c-.771,0-1.248.5-1.248,1.465,0,.925.426,1.475.977,1.593l.1.015v3.12l-.129-.01c-2.072-.17-3.484-1.938-3.484-4.893,0-2.863,1.443-4.749,3.6-4.749h7.258v3.459H-20434v.067a3.343,3.343,0,0,1,1.65,3.048,3.278,3.278,0,0,1-3.213,3.593Zm-1.316-4.841c.057.966.457,1.444,1.09,1.444h.01c.664,0,1.049-.555,1.049-1.408a1.7,1.7,0,0,0-1.562-1.9h-.715Zm-22.686,4.317c-2,0-3.125-1.547-3.311-4.286l-.154-2.426h-.529c-.77,0-1.248.5-1.248,1.465,0,.93.432,1.475.977,1.593l.1.021v3.115l-.129-.01c-2.066-.164-3.484-1.932-3.484-4.893,0-2.863,1.443-4.744,3.6-4.744h7.256v3.454h-1.506v.072a3.324,3.324,0,0,1,1.65,3.043,3.28,3.28,0,0,1-3.213,3.6Zm-1.316-4.847c.057.966.457,1.444,1.1,1.444h.01c.662,0,1.043-.555,1.043-1.4a1.7,1.7,0,0,0-1.562-1.907h-.715Zm49.32-4.949c-2.006,0-3.125-1.542-3.311-4.286l-.16-2.421h-.523c-.771,0-1.254.493-1.254,1.465,0,.925.432,1.47.977,1.588l.1.021v3.115l-.123-.01c-2.072-.164-3.49-1.932-3.49-4.893,0-2.858,1.449-4.744,3.607-4.744h7.252v3.459h-1.5v.067a3.343,3.343,0,0,1,1.65,3.048,3.278,3.278,0,0,1-3.213,3.593Zm-1.322-4.847c.063.971.463,1.449,1.1,1.449h.01c.664,0,1.043-.56,1.043-1.408a1.694,1.694,0,0,0-1.562-1.9h-.709Zm-24.936,3.675c-3.43,0-5.525-2.071-5.525-5.381,0-3,1.793-4.97,4.322-5.021l.072-.01v3.187l-.1.01a1.747,1.747,0,0,0-1.672,1.778c0,1.2,1.064,1.922,2.91,1.922h.01c1.877,0,2.908-.7,2.908-1.932a1.716,1.716,0,0,0-1.67-1.768l-.1-.021v-3.176h.072c2.467.072,4.322,1.938,4.322,5,0,3.351-2.1,5.412-5.545,5.412Zm-25.35-.324-.5-1.007h-6.912v-3.454h5.186l-.5-1h1.953l.488,1h6.963v3.454h-5.236l.508,1.007Zm15.322-5.489v-2.93l3.551,2.529v2.241Zm-22.732-1.151v-3.464h5.34v-.072a3.308,3.308,0,0,1-2.107-3.212c0-2.673,2.01-4.235,5.535-4.235h.01c3.5,0,5.541,1.568,5.541,4.225a3.29,3.29,0,0,1-2.041,3.223v.072h1.814v3.464Zm6.055-5.479c0,1.2,1.027,2.015,2.713,2.015h.01c1.691,0,2.725-.8,2.725-2.015s-1.043-2-2.725-2h-.01C-20463.52-400.551-20464.537-399.759-20464.537-398.552Zm49.359,2.323-.5-1h-6.918v-3.459h5.186l-.5-1h1.957l.488,1h6.959v3.459h-5.232l.51,1Zm-20.65-8.367.076-.021c.721-.164,1.141-.709,1.141-1.727,0-.92-.328-1.475-.877-1.475h-.012c-.477,0-.74.339-.936,1.29l-.369,1.876c-.4,2.076-1.486,3.161-3.109,3.161h-.006c-2.123,0-3.437-1.814-3.437-4.723,0-3.079,1.572-4.708,3.475-4.739l.076-.01v3.166l-.076.01a1.406,1.406,0,0,0-1.143,1.573c0,.848.35,1.393.91,1.393h.006c.463,0,.734-.319.939-1.326l.371-1.876c.447-2.256,1.326-3.233,2.92-3.233h.01c2.2,0,3.592,1.994,3.592,4.913,0,3.166-1.393,4.862-3.463,5.1l-.088.01Zm16.693,1.835v-3.464h6.105c1.219,0,1.943-.57,1.943-1.711a1.809,1.809,0,0,0-2.016-1.789h-6.033v-3.454h10.633v3.454h-1.875v.072a3.211,3.211,0,0,1,2.1,3.233c0,2.333-1.5,3.659-4.014,3.659Zm-48-5.263,8.037-1.9v-.092l-8.037-1.891v-3.654l10.582,3.392c2.754.869,3.516,2.544,3.516,5.134a11.044,11.044,0,0,1-.145,1.737h-2.508a5.865,5.865,0,0,0,.107-1.172c0-.73-.227-1.131-.693-1.305l-.227-.082-10.633,3.665Zm19.447-6.209a1.722,1.722,0,0,1,1.7-1.768,1.73,1.73,0,0,1,1.707,1.768,1.739,1.739,0,0,1-1.707,1.768A1.732,1.732,0,0,1-20447.686-414.232Zm4.549,1.727v-3.459h10.639v3.459Zm-24-3.865v-3.469h1.912v-.067a3.031,3.031,0,0,1-2.139-3,2.759,2.759,0,0,1,2.277-2.9v-.067a3.291,3.291,0,0,1-2.277-3.284,3.383,3.383,0,0,1,3.623-3.495h7.236v3.469h-6.348c-1.115,0-1.689.514-1.689,1.49a1.522,1.522,0,0,0,1.727,1.526h6.311v3.31h-6.377c-1.074,0-1.66.524-1.66,1.475a1.553,1.553,0,0,0,1.746,1.542h6.291v3.469Zm29.361-.961c-3.412,0-5.586-2.04-5.586-5.283a4.937,4.937,0,0,1,5.318-5.253h.977v7.129h.217a1.966,1.966,0,0,0,2.117-2.051,1.817,1.817,0,0,0-1.084-1.891l-.047-.01V-427.8l.119.031c1.982.432,3.473,2.364,5.23,2.364h.021a.9.9,0,0,0,1-.9,1.045,1.045,0,0,0-.061-.4h1.547a4.46,4.46,0,0,1,.283,1.747,2.2,2.2,0,0,1-2.2,2.452h-.02a3.088,3.088,0,0,1-2.432-1.465,7.544,7.544,0,0,1,.1,1.244c0,3.387-2.076,5.4-5.488,5.4Zm-3.135-5.34a1.893,1.893,0,0,0,1.855,1.886h.016V-424.6h-.006A1.852,1.852,0,0,0-20440.906-422.672Zm25.348,4.1c-4.486,0-7.287-2.693-7.287-6.954,0-4.286,2.8-6.964,7.287-6.964h.016c4.492,0,7.3,2.667,7.3,6.964,0,4.276-2.807,6.954-7.3,6.954Zm-4.316-6.954c0,2,1.639,3.3,4.316,3.3h.016c2.678,0,4.328-1.285,4.328-3.3,0-2.051-1.682-3.32-4.328-3.32h-.016C-20418.225-428.844-20419.875-427.544-20419.875-425.524Zm-2.719-8.712v-9.59h2.883v6.008h3.213v-5.458h2.744v5.458h5.252v3.582Z" transform="translate(20471.688 443.826)" fill="url(#linear-gradient)"/>
</svg>
